<svg width="72" height="72" viewBox="0 0 72 72" fill="none" xmlns="http://www.w3.org/2000/svg">
<g clip-path="url(#clip0_3535_52438)">
<path d="M56.25 44.2319C53.135 44.2319 50.0899 43.3082 47.4998 41.5776C44.9097 39.847 42.891 37.3871 41.6989 34.5092C40.5068 31.6313 40.1949 28.4645 40.8026 25.4093C41.4104 22.3541 42.9104 19.5477 45.1131 17.345C47.3158 15.1423 50.1221 13.6423 53.1773 13.0346C56.2325 12.4269 59.3993 12.7388 62.2773 13.9308C65.1552 15.1229 67.615 17.1416 69.3457 19.7317C71.0763 22.3218 72 25.3669 72 28.4819L72.072 30.7319C72.072 34.8686 71.2572 38.9647 69.6742 42.7865C68.0912 46.6082 65.7709 50.0808 62.8459 53.0058C59.9208 55.9309 56.4483 58.2511 52.6265 59.8342C48.8048 61.4172 44.7086 62.2319 40.572 62.2319V53.2319C43.528 53.2399 46.4563 52.6618 49.1876 51.531C51.9188 50.4002 54.3987 48.7391 56.484 46.6439C57.2945 45.835 58.0421 44.9655 58.7205 44.0429C57.9033 44.1714 57.0773 44.2361 56.25 44.2364V44.2319ZM15.75 44.2319C12.635 44.2319 9.58985 43.3082 6.99978 41.5776C4.4097 39.847 2.39098 37.3871 1.1989 34.5092C0.00682434 31.6313 -0.305078 28.4645 0.302639 25.4093C0.910356 22.3541 2.4104 19.5477 4.61307 17.345C6.81575 15.1423 9.62213 13.6423 12.6773 13.0346C15.7325 12.4269 18.8993 12.7388 21.7773 13.9308C24.6552 15.1229 27.115 17.1416 28.8457 19.7317C30.5763 22.3218 31.5 25.3669 31.5 28.4819L31.572 30.7319C31.572 39.0863 28.2533 47.0984 22.3459 53.0058C16.4385 58.9132 8.42633 62.2319 0.0720071 62.2319V53.2319C3.02805 53.2399 5.95634 52.6618 8.68756 51.531C11.4188 50.4002 13.8987 48.7391 15.984 46.6439C16.7945 45.835 17.5421 44.9655 18.2205 44.0429C17.4033 44.1714 16.5773 44.2361 15.75 44.2364V44.2319Z" fill="#FFD400"/>
</g>
<defs>
<clipPath id="clip0_3535_52438">
<rect width="72" height="72" fill="white"/>
</clipPath>
</defs>
</svg>
