<svg width="4682" height="1006" viewBox="0 0 4682 1006" fill="none" xmlns="http://www.w3.org/2000/svg">
<g clip-path="url(#clip0_12_303)">
<g opacity="0.05">
<path d="M2247.39 665.444H2257.29V692.341C2257.29 693.171 2257.98 693.855 2258.83 693.855C2259.67 693.855 2260.36 693.171 2260.36 692.341V665.444H2270.26C2271.62 665.444 2272.73 664.345 2272.73 663.001V610.967C2272.73 609.623 2271.62 608.524 2270.26 608.524H2260.36V588.491C2260.36 587.636 2259.67 586.977 2258.83 586.977C2257.98 586.977 2257.29 587.661 2257.29 588.491V608.524H2247.39C2246.03 608.524 2244.92 609.623 2244.92 610.967V663.001C2244.92 664.345 2246.03 665.444 2247.39 665.444Z" fill="#3F54F5"/>
<path d="M2165.65 617.44H2175.55V662.488C2175.55 663.343 2176.25 664.003 2177.09 664.003C2177.93 664.003 2178.62 663.319 2178.62 662.488V617.44H2188.52C2189.88 617.44 2191 616.341 2191 614.997V531.4C2191 530.056 2189.88 528.957 2188.52 528.957H2178.62V508.925C2178.62 508.094 2177.93 507.41 2177.09 507.41C2176.25 507.41 2175.55 508.094 2175.55 508.925V528.957H2165.65C2164.29 528.957 2163.18 530.056 2163.18 531.4V614.997C2163.18 616.341 2164.29 617.44 2165.65 617.44Z" fill="#3F54F5"/>
<path d="M1964.46 819.3H1974.35V838.648C1974.35 839.479 1975.05 840.163 1975.89 840.163C1976.73 840.163 1977.42 839.479 1977.42 838.648V819.3H1987.32C1988.68 819.3 1989.8 818.201 1989.8 816.857V760.059C1989.8 758.715 1988.68 757.616 1987.32 757.616H1977.42V707.438C1977.42 706.608 1976.73 705.924 1975.89 705.924C1975.05 705.924 1974.35 706.608 1974.35 707.438V757.616H1964.46C1963.09 757.616 1961.98 758.715 1961.98 760.059V816.857C1961.98 818.201 1963.09 819.3 1964.46 819.3Z" fill="#3F54F5"/>
<path d="M1920.95 749.408H1930.85V786.907C1930.85 787.738 1931.54 788.422 1932.38 788.422C1933.23 788.422 1933.92 787.738 1933.92 786.907V749.408H1943.82C1945.18 749.408 1946.29 748.309 1946.29 746.965V716.868C1946.29 715.524 1945.18 714.425 1943.82 714.425H1933.92V688.31C1933.92 687.455 1933.23 686.795 1932.38 686.795C1931.54 686.795 1930.85 687.479 1930.85 688.31V714.425H1920.95C1919.59 714.425 1918.48 715.524 1918.48 716.868V746.965C1918.48 748.309 1919.59 749.408 1920.95 749.408Z" fill="#3F54F5"/>
<path d="M1885.17 711.835H1895.07V717.161C1895.07 718.016 1895.76 718.676 1896.6 718.676C1897.45 718.676 1898.14 717.992 1898.14 717.161V711.835H1908.04C1909.4 711.835 1910.51 710.736 1910.51 709.392V693.66C1910.51 692.316 1909.4 691.217 1908.04 691.217H1898.14V671.185C1898.14 670.354 1897.45 669.67 1896.6 669.67C1895.76 669.67 1895.07 670.354 1895.07 671.185V691.217H1885.17C1883.81 691.217 1882.7 692.316 1882.7 693.66V709.392C1882.7 710.736 1883.81 711.835 1885.17 711.835Z" fill="#3F54F5"/>
<path d="M1761.08 782.021H1770.98V813.12C1770.98 813.95 1771.68 814.634 1772.52 814.634C1773.36 814.634 1774.05 813.95 1774.05 813.12V782.021H1783.95C1785.31 782.021 1786.43 780.922 1786.43 779.578V737.462C1786.43 736.118 1785.31 735.019 1783.95 735.019H1774.05V694.173C1774.05 693.342 1773.36 692.658 1772.52 692.658C1771.68 692.658 1770.98 693.342 1770.98 694.173V735.019H1761.08C1759.72 735.019 1758.61 736.118 1758.61 737.462V779.578C1758.61 780.922 1759.72 782.021 1761.08 782.021Z" fill="#3F54F5"/>
<path d="M1720.49 728.154H1730.39V749.408C1730.39 750.238 1731.09 750.922 1731.93 750.922C1732.77 750.922 1733.46 750.238 1733.46 749.408V728.154H1743.36C1744.72 728.154 1745.84 727.055 1745.84 725.711V697.959C1745.84 696.616 1744.72 695.516 1743.36 695.516H1733.46V675.484C1733.46 674.654 1732.77 673.97 1731.93 673.97C1731.09 673.97 1730.39 674.654 1730.39 675.484V695.516H1720.49C1719.13 695.516 1718.02 696.616 1718.02 697.959V725.711C1718.02 727.055 1719.13 728.154 1720.49 728.154Z" fill="#3F54F5"/>
<path d="M1678.18 693.025H1688.08V731.916C1688.08 732.747 1688.77 733.431 1689.62 733.431C1690.46 733.431 1691.15 732.747 1691.15 731.916V693.025H1701.05C1702.41 693.025 1703.52 691.925 1703.52 690.582V610.966C1703.52 609.623 1702.41 608.523 1701.05 608.523H1691.15V588.491C1691.15 587.661 1690.46 586.977 1689.62 586.977C1688.77 586.977 1688.08 587.661 1688.08 588.491V608.523H1678.18C1676.82 608.523 1675.71 609.623 1675.71 610.966V690.582C1675.71 691.925 1676.82 693.025 1678.18 693.025Z" fill="#3F54F5"/>
<path d="M1599.33 743.105H1609.23V799.464C1609.23 800.319 1609.93 800.979 1610.77 800.979C1611.61 800.979 1612.3 800.294 1612.3 799.464V743.105H1622.2C1623.56 743.105 1624.68 742.006 1624.68 740.662V574.616C1624.68 573.272 1623.56 572.173 1622.2 572.173H1612.3V552.141C1612.3 551.31 1611.61 550.626 1610.77 550.626C1609.93 550.626 1609.23 551.31 1609.23 552.141V572.173H1599.33C1597.97 572.173 1596.86 573.272 1596.86 574.616V740.662C1596.86 742.006 1597.97 743.105 1599.33 743.105Z" fill="#3F54F5"/>
<path d="M1395.64 719.921H1405.53V731.916C1405.53 732.747 1406.23 733.431 1407.07 733.431C1407.91 733.431 1408.6 732.747 1408.6 731.916V719.921H1418.5C1419.86 719.921 1420.98 718.822 1420.98 717.479V694.246C1420.98 692.903 1419.86 691.803 1418.5 691.803H1408.6V671.771C1408.6 670.941 1407.91 670.257 1407.07 670.257C1406.23 670.257 1405.53 670.941 1405.53 671.771V691.803H1395.64C1394.27 691.803 1393.16 692.903 1393.16 694.246V717.479C1393.16 718.822 1394.27 719.921 1395.64 719.921Z" fill="#3F54F5"/>
<path d="M1270.39 833.469H1280.29V848.347C1280.29 849.202 1280.98 849.861 1281.82 849.861C1282.66 849.861 1283.36 849.177 1283.36 848.347V833.469H1293.26C1294.62 833.469 1295.73 832.37 1295.73 831.026V807.574C1295.73 806.23 1294.62 805.131 1293.26 805.131H1283.36V771.98C1283.36 771.125 1282.66 770.466 1281.82 770.466C1280.98 770.466 1280.29 771.15 1280.29 771.98V805.131H1270.39C1269.03 805.131 1267.91 806.23 1267.91 807.574V831.026C1267.91 832.37 1269.03 833.469 1270.39 833.469Z" fill="#3F54F5"/>
<path d="M1152.12 868.794H1162.02V891.147C1162.02 891.978 1162.72 892.662 1163.56 892.662C1164.4 892.662 1165.09 891.978 1165.09 891.147V868.794H1174.99C1176.35 868.794 1177.46 867.695 1177.46 866.351V855.944C1177.46 854.601 1176.35 853.502 1174.99 853.502H1165.09V833.469C1165.09 832.639 1164.4 831.955 1163.56 831.955C1162.72 831.955 1162.02 832.639 1162.02 833.469V853.502H1152.12C1150.76 853.502 1149.65 854.601 1149.65 855.944V866.351C1149.65 867.695 1150.76 868.794 1152.12 868.794Z" fill="#3F54F5"/>
<path d="M1112.11 854.723H1122.01V875.293C1122.01 876.123 1122.7 876.807 1123.54 876.807C1124.38 876.807 1125.08 876.123 1125.08 875.293V854.723H1134.97C1136.34 854.723 1137.45 853.624 1137.45 852.28V820.742C1137.45 819.398 1136.34 818.299 1134.97 818.299H1125.08V771.981C1125.08 771.126 1124.38 770.466 1123.54 770.466C1122.7 770.466 1122.01 771.15 1122.01 771.981V818.299H1112.11C1110.75 818.299 1109.63 819.398 1109.63 820.742V852.28C1109.63 853.624 1110.75 854.723 1112.11 854.723Z" fill="#3F54F5"/>
<path d="M1068.62 824.015H1078.52V828.315C1078.52 829.145 1079.22 829.829 1080.06 829.829C1080.9 829.829 1081.59 829.145 1081.59 828.315V824.015H1091.49C1092.85 824.015 1093.96 822.916 1093.96 821.572V793.845C1093.96 792.501 1092.85 791.402 1091.49 791.402H1081.59V728.765C1081.59 727.91 1080.9 727.25 1080.06 727.25C1079.22 727.25 1078.52 727.934 1078.52 728.765V791.402H1068.62C1067.26 791.402 1066.15 792.501 1066.15 793.845V821.572C1066.15 822.916 1067.26 824.015 1068.62 824.015Z" fill="#3F54F5"/>
<path d="M1032.1 748.186H1042V763.21C1042 764.065 1042.69 764.725 1043.53 764.725C1044.37 764.725 1045.07 764.041 1045.07 763.21V748.186H1054.97C1056.33 748.186 1057.44 747.087 1057.44 745.743V716.868C1057.44 715.524 1056.33 714.425 1054.97 714.425H1045.07V652.106C1045.07 651.251 1044.37 650.591 1043.53 650.591C1042.69 650.591 1042 651.275 1042 652.106V714.425H1032.1C1030.74 714.425 1029.63 715.524 1029.63 716.868V745.743C1029.63 747.087 1030.74 748.186 1032.1 748.186Z" fill="#3F54F5"/>
<path d="M989.756 714.401H999.655V757.054C999.655 757.885 1000.35 758.569 1001.19 758.569C1002.03 758.569 1002.72 757.885 1002.72 757.054V714.401H1012.62C1013.98 714.401 1015.1 713.301 1015.1 711.958V677.927C1015.1 676.584 1013.98 675.484 1012.62 675.484H1002.72V655.452C1002.72 654.597 1002.03 653.938 1001.19 653.938C1000.35 653.938 999.655 654.622 999.655 655.452V675.484H989.756C988.395 675.484 987.281 676.584 987.281 677.927V711.958C987.281 713.301 988.395 714.401 989.756 714.401Z" fill="#3F54F5"/>
<path d="M2289.74 681.885H2299.64V694.027C2299.64 694.882 2300.33 695.541 2301.17 695.541C2302.02 695.541 2302.71 694.857 2302.71 694.027V681.885H2312.61C2313.97 681.885 2315.08 680.786 2315.08 679.442V671.063C2315.08 669.72 2313.97 668.62 2312.61 668.62H2302.71V648.588C2302.71 647.733 2302.02 647.073 2301.17 647.073C2300.33 647.073 2299.64 647.757 2299.64 648.588V668.62H2289.74C2288.38 668.62 2287.27 669.72 2287.27 671.063V679.442C2287.27 680.786 2288.38 681.885 2289.74 681.885Z" fill="#3F54F5"/>
<path d="M2207.4 626.04H2217.3V645.974C2217.3 646.804 2218 647.489 2218.84 647.489C2219.68 647.489 2220.37 646.804 2220.37 645.974V626.04H2230.27C2231.63 626.04 2232.75 624.94 2232.75 623.597V610.942C2232.75 609.599 2231.63 608.499 2230.27 608.499H2220.37V588.467C2220.37 587.612 2219.68 586.952 2218.84 586.952C2218 586.952 2217.3 587.637 2217.3 588.467V608.499H2207.4C2206.04 608.499 2204.93 609.599 2204.93 610.942V623.597C2204.93 624.94 2206.04 626.04 2207.4 626.04Z" fill="#3F54F5"/>
<path d="M2125.64 606.008H2135.54V617.221C2135.54 618.051 2136.23 618.735 2137.07 618.735C2137.91 618.735 2138.61 618.051 2138.61 617.221V606.008H2148.51C2149.87 606.008 2150.98 604.908 2150.98 603.565V528.542C2150.98 527.198 2149.87 526.099 2148.51 526.099H2138.61V506.067C2138.61 505.212 2137.91 504.552 2137.07 504.552C2136.23 504.552 2135.54 505.236 2135.54 506.067V526.099H2125.64C2124.28 526.099 2123.16 527.198 2123.16 528.542V603.565C2123.16 604.908 2124.28 606.008 2125.64 606.008Z" fill="#3F54F5"/>
<path d="M2083.89 719.922H2093.79V750.947C2093.79 751.778 2094.48 752.462 2095.33 752.462C2096.17 752.462 2096.86 751.778 2096.86 750.947V719.922H2106.76C2108.12 719.922 2109.23 718.822 2109.23 717.479V610.967C2109.23 609.623 2108.12 608.524 2106.76 608.524H2096.86V553.997C2096.86 553.142 2096.17 552.483 2095.33 552.483C2094.48 552.483 2093.79 553.167 2093.79 553.997V608.524H2083.89C2082.53 608.524 2081.42 609.623 2081.42 610.967V717.479C2081.42 718.822 2082.53 719.922 2083.89 719.922Z" fill="#3F54F5"/>
<path d="M2043.3 733.114H2053.37V749.921C2053.37 750.776 2054.07 751.436 2054.91 751.436C2055.75 751.436 2056.44 750.752 2056.44 749.921V733.114H2066.14C2067.5 733.114 2068.62 732.014 2068.62 730.671V723.708C2068.62 722.365 2067.5 721.265 2066.14 721.265H2056.44V701.233C2056.44 700.403 2055.75 699.719 2054.91 699.719C2054.07 699.719 2053.37 700.403 2053.37 701.233V721.265H2043.3C2041.94 721.265 2040.83 722.365 2040.83 723.708V730.671C2040.83 732.014 2041.94 733.114 2043.3 733.114Z" fill="#3F54F5"/>
<path d="M2004.45 815.783H2014.35V868.844C2014.35 869.699 2015.04 870.358 2015.88 870.358C2016.73 870.358 2017.42 869.674 2017.42 868.844V815.783H2027.32C2028.68 815.783 2029.79 814.684 2029.79 813.34V737.438C2029.79 736.094 2028.68 734.995 2027.32 734.995H2017.42V714.963C2017.42 714.108 2016.73 713.448 2015.88 713.448C2015.04 713.448 2014.35 714.132 2014.35 714.963V734.995H2004.45C2003.09 734.995 2001.98 736.094 2001.98 737.438V813.34C2001.98 814.684 2003.09 815.783 2004.45 815.783Z" fill="#3F54F5"/>
<path d="M1840.53 768.854H1850.42V815.783C1850.42 816.613 1851.12 817.297 1851.96 817.297C1852.8 817.297 1853.49 816.613 1853.49 815.783V768.854H1863.39C1864.75 768.854 1865.87 767.755 1865.87 766.411V721.143C1865.87 719.8 1864.75 718.7 1863.39 718.7H1853.49V698.668C1853.49 697.838 1852.8 697.154 1851.96 697.154C1851.12 697.154 1850.42 697.838 1850.42 698.668V718.7H1840.53C1839.16 718.7 1838.05 719.8 1838.05 721.143V766.411C1838.05 767.755 1839.16 768.854 1840.53 768.854Z" fill="#3F54F5"/>
<path d="M1801.67 783.243H1811.57V801.394C1811.57 802.224 1812.26 802.908 1813.1 802.908C1813.94 802.908 1814.63 802.224 1814.63 801.394V783.243H1824.53C1825.89 783.243 1827.01 782.143 1827.01 780.8V769.513C1827.01 768.17 1825.89 767.07 1824.53 767.07H1814.63V747.038C1814.63 746.208 1813.94 745.524 1813.1 745.524C1812.26 745.524 1811.57 746.208 1811.57 747.038V767.07H1801.67C1800.31 767.07 1799.19 768.17 1799.19 769.513V780.8C1799.19 782.143 1800.31 783.243 1801.67 783.243Z" fill="#3F54F5"/>
<path d="M1638.76 738.806H1648.66V786.883C1648.66 787.713 1649.35 788.397 1650.19 788.397C1651.03 788.397 1651.73 787.713 1651.73 786.883V738.806H1661.63C1662.99 738.806 1664.1 737.706 1664.1 736.363V610.967C1664.1 609.623 1662.99 608.524 1661.63 608.524H1651.73V588.492C1651.73 587.661 1651.03 586.977 1650.19 586.977C1649.35 586.977 1648.66 587.661 1648.66 588.492V608.524H1638.76C1637.4 608.524 1636.29 609.623 1636.29 610.967V736.363C1636.29 737.706 1637.4 738.806 1638.76 738.806Z" fill="#3F54F5"/>
<path d="M1555.26 664.174H1565.16V685.525C1565.16 686.38 1565.85 687.04 1566.69 687.04C1567.53 687.04 1568.23 686.356 1568.23 685.525V664.174H1578.13C1579.49 664.174 1580.6 663.075 1580.6 661.731V567.751C1580.6 566.408 1579.49 565.308 1578.13 565.308H1568.23V545.276C1568.23 544.446 1567.53 543.762 1566.69 543.762C1565.85 543.762 1565.16 544.446 1565.16 545.276V565.308H1555.26C1553.9 565.308 1552.79 566.408 1552.79 567.751V661.731C1552.79 663.075 1553.9 664.174 1555.26 664.174Z" fill="#3F54F5"/>
<path d="M1515.67 692.439H1525.57V711.836C1525.57 712.666 1526.26 713.35 1527.1 713.35C1527.94 713.35 1528.63 712.666 1528.63 711.836V692.439H1538.53C1539.89 692.439 1541.01 691.339 1541.01 689.996V670.477C1541.01 669.133 1539.89 668.034 1538.53 668.034H1528.63V637.008C1528.63 636.153 1527.94 635.494 1527.1 635.494C1526.26 635.494 1525.57 636.178 1525.57 637.008V668.034H1515.67C1514.31 668.034 1513.19 669.133 1513.19 670.477V689.996C1513.19 691.339 1514.31 692.439 1515.67 692.439Z" fill="#3F54F5"/>
<path d="M1476.24 719.922H1486.14V726.493C1486.14 727.324 1486.84 728.008 1487.68 728.008C1488.52 728.008 1489.21 727.324 1489.21 726.493V719.922H1499.11C1500.47 719.922 1501.59 718.823 1501.59 717.479V693.66C1501.59 692.317 1500.47 691.217 1499.11 691.217H1489.21V671.185C1489.21 670.355 1488.52 669.671 1487.68 669.671C1486.84 669.671 1486.14 670.355 1486.14 671.185V691.217H1476.24C1474.88 691.217 1473.77 692.317 1473.77 693.66V717.479C1473.77 718.823 1474.88 719.922 1476.24 719.922Z" fill="#3F54F5"/>
<path d="M1435.66 738.806H1445.56V753.634C1445.56 754.489 1446.25 755.149 1447.09 755.149C1447.93 755.149 1448.63 754.465 1448.63 753.634V738.806H1458.53C1459.89 738.806 1461 737.706 1461 736.363V721.143C1461 719.8 1459.89 718.7 1458.53 718.7H1448.63V698.668C1448.63 697.813 1447.93 697.154 1447.09 697.154C1446.25 697.154 1445.56 697.838 1445.56 698.668V718.7H1435.66C1434.3 718.7 1433.18 719.8 1433.18 721.143V736.363C1433.18 737.706 1434.3 738.806 1435.66 738.806Z" fill="#3F54F5"/>
<path d="M1353.32 748.187H1363.22V775.157C1363.22 775.987 1363.91 776.671 1364.76 776.671C1365.6 776.671 1366.29 775.987 1366.29 775.157V748.187H1376.19C1377.55 748.187 1378.66 747.087 1378.66 745.744V694.247C1378.66 692.903 1377.55 691.804 1376.19 691.804H1366.29V654.793C1366.29 653.963 1365.6 653.279 1364.76 653.279C1363.91 653.279 1363.22 653.963 1363.22 654.793V691.804H1353.32C1351.96 691.804 1350.85 692.903 1350.85 694.247V745.744C1350.85 747.087 1351.96 748.187 1353.32 748.187Z" fill="#3F54F5"/>
<path d="M1314.47 829.537H1324.37V859.512C1324.37 860.367 1325.06 861.026 1325.9 861.026C1326.74 861.026 1327.43 860.342 1327.43 859.512V829.537H1337.33C1338.69 829.537 1339.81 828.437 1339.81 827.094V750.63C1339.81 749.286 1338.69 748.187 1337.33 748.187H1327.43V708.367C1327.43 707.512 1326.74 706.852 1325.9 706.852C1325.06 706.852 1324.37 707.536 1324.37 708.367V748.187H1314.47C1313.11 748.187 1311.99 749.286 1311.99 750.63V827.094C1311.99 828.437 1313.11 829.537 1314.47 829.537Z" fill="#3F54F5"/>
<path d="M1231.56 825.237H1241.46V848.347C1241.46 849.202 1242.16 849.862 1243 849.862C1243.84 849.862 1244.53 849.178 1244.53 848.347V825.237H1254.43C1255.79 825.237 1256.91 824.137 1256.91 822.794V807.574C1256.91 806.231 1255.79 805.131 1254.43 805.131H1244.53V785.099C1244.53 784.244 1243.84 783.585 1243 783.585C1242.16 783.585 1241.46 784.269 1241.46 785.099V805.131H1231.56C1230.2 805.131 1229.09 806.231 1229.09 807.574V822.794C1229.09 824.137 1230.2 825.237 1231.56 825.237Z" fill="#3F54F5"/>
<path d="M1192.12 870.016H1202.02V897.597C1202.02 898.452 1202.71 899.111 1203.55 899.111C1204.39 899.111 1205.09 898.427 1205.09 897.597V869.991H1214.99C1216.35 869.991 1217.46 868.892 1217.46 867.549V827.582C1217.46 826.238 1216.35 825.139 1214.99 825.139H1205.09V795.751C1205.09 794.92 1204.39 794.236 1203.55 794.236C1202.71 794.236 1202.02 794.92 1202.02 795.751V825.139H1192.12C1190.76 825.139 1189.64 826.238 1189.64 827.582V867.573C1189.64 868.917 1190.76 870.016 1192.12 870.016Z" fill="#3F54F5"/>
</g>
</g>
<g opacity="0.05">
<path d="M3357.75 499.91H3373.5V457.164C3373.5 455.844 3374.6 454.757 3375.94 454.757C3377.28 454.757 3378.38 455.844 3378.38 457.164V499.91H3394.12C3396.29 499.91 3398.06 501.657 3398.06 503.793V586.489C3398.06 588.624 3396.29 590.371 3394.12 590.371H3378.38V622.208C3378.38 623.566 3377.28 624.615 3375.94 624.615C3374.6 624.615 3373.5 623.528 3373.5 622.208V590.371H3357.75C3355.59 590.371 3353.82 588.624 3353.82 586.489V503.793C3353.82 501.657 3355.59 499.91 3357.75 499.91Z" fill="#3F54F5"/>
<path d="M3227.75 576.201H3243.49V504.608C3243.49 503.249 3244.6 502.201 3245.93 502.201C3247.27 502.201 3248.37 503.288 3248.37 504.608V576.201H3264.12C3266.28 576.201 3268.05 577.948 3268.05 580.083V712.941C3268.05 715.076 3266.28 716.823 3264.12 716.823H3248.37V748.659C3248.37 749.979 3247.27 751.067 3245.93 751.067C3244.6 751.067 3243.49 749.979 3243.49 748.659V716.823H3227.75C3225.58 716.823 3223.81 715.076 3223.81 712.941V580.083C3223.81 577.948 3225.58 576.201 3227.75 576.201Z" fill="#3F54F5"/>
<path d="M2907.75 255.393H2923.49V224.644C2923.49 223.324 2924.6 222.237 2925.93 222.237C2927.27 222.237 2928.37 223.324 2928.37 224.644V255.393H2944.12C2946.28 255.393 2948.05 257.14 2948.05 259.275V349.542C2948.05 351.678 2946.28 353.425 2944.12 353.425H2928.37V433.171C2928.37 434.491 2927.27 435.578 2925.93 435.578C2924.6 435.578 2923.49 434.491 2923.49 433.171V353.425H2907.75C2905.58 353.425 2903.81 351.678 2903.81 349.542V259.275C2903.81 257.14 2905.58 255.393 2907.75 255.393Z" fill="#3F54F5"/>
<path d="M2838.55 366.47H2854.3V306.874C2854.3 305.554 2855.4 304.467 2856.74 304.467C2858.08 304.467 2859.18 305.554 2859.18 306.874V366.47H2874.92C2877.09 366.47 2878.86 368.217 2878.86 370.353V418.185C2878.86 420.32 2877.09 422.067 2874.92 422.067H2859.18V463.57C2859.18 464.929 2858.08 465.978 2856.74 465.978C2855.4 465.978 2854.3 464.891 2854.3 463.57V422.067H2838.55C2836.39 422.067 2834.62 420.32 2834.62 418.185V370.353C2834.62 368.217 2836.39 366.47 2838.55 366.47Z" fill="#3F54F5"/>
<path d="M2781.64 426.182H2797.39V417.719C2797.39 416.36 2798.49 415.312 2799.83 415.312C2801.17 415.312 2802.27 416.399 2802.27 417.719V426.182H2818.01C2820.18 426.182 2821.95 427.93 2821.95 430.065V455.068C2821.95 457.203 2820.18 458.95 2818.01 458.95H2802.27V490.787C2802.27 492.107 2801.17 493.194 2799.83 493.194C2798.49 493.194 2797.39 492.107 2797.39 490.787V458.95H2781.64C2779.48 458.95 2777.71 457.203 2777.71 455.068V430.065C2777.71 427.93 2779.48 426.182 2781.64 426.182Z" fill="#3F54F5"/>
<path d="M2584.29 314.639H2600.03V265.215C2600.03 263.895 2601.14 262.808 2602.47 262.808C2603.81 262.808 2604.91 263.895 2604.91 265.215V314.639H2620.66C2622.82 314.639 2624.59 316.386 2624.59 318.521V385.455C2624.59 387.59 2622.82 389.338 2620.66 389.338H2604.91V454.252C2604.91 455.572 2603.81 456.659 2602.47 456.659C2601.14 456.659 2600.03 455.572 2600.03 454.252V389.338H2584.29C2582.12 389.338 2580.35 387.59 2580.35 385.455V318.521C2580.35 316.386 2582.12 314.639 2584.29 314.639Z" fill="#3F54F5"/>
<path d="M2519.73 400.248H2535.48V366.47C2535.48 365.15 2536.58 364.063 2537.92 364.063C2539.26 364.063 2540.36 365.15 2540.36 366.47V400.248H2556.1C2558.27 400.248 2560.04 401.995 2560.04 404.13V448.235C2560.04 450.37 2558.27 452.117 2556.1 452.117H2540.36V483.953C2540.36 485.273 2539.26 486.36 2537.92 486.36C2536.58 486.36 2535.48 485.273 2535.48 483.953V452.117H2519.73C2517.57 452.117 2515.8 450.37 2515.8 448.235V404.13C2515.8 401.995 2517.57 400.248 2519.73 400.248Z" fill="#3F54F5"/>
<path d="M2452.43 456.077H2468.17V394.269C2468.17 392.949 2469.28 391.862 2470.61 391.862C2471.95 391.862 2473.05 392.949 2473.05 394.269V456.077H2488.8C2490.96 456.077 2492.73 457.825 2492.73 459.96V586.489C2492.73 588.625 2490.96 590.372 2488.8 590.372H2473.05V622.208C2473.05 623.528 2471.95 624.615 2470.61 624.615C2469.28 624.615 2468.17 623.528 2468.17 622.208V590.372H2452.43C2450.26 590.372 2448.49 588.625 2448.49 586.489V459.96C2448.49 457.825 2450.26 456.077 2452.43 456.077Z" fill="#3F54F5"/>
<path d="M2327.02 376.487H2342.77V286.918C2342.77 285.56 2343.87 284.511 2345.21 284.511C2346.55 284.511 2347.65 285.598 2347.65 286.918V376.487H2363.39C2365.56 376.487 2367.33 378.234 2367.33 380.369V644.26C2367.33 646.395 2365.56 648.142 2363.39 648.142H2347.65V679.979C2347.65 681.299 2346.55 682.386 2345.21 682.386C2343.87 682.386 2342.77 681.299 2342.77 679.979V648.142H2327.02C2324.86 648.142 2323.09 646.395 2323.09 644.26V380.369C2323.09 378.234 2324.86 376.487 2327.02 376.487Z" fill="#3F54F5"/>
<path d="M2003.05 413.332H2018.79V394.269C2018.79 392.949 2019.9 391.862 2021.23 391.862C2022.57 391.862 2023.68 392.949 2023.68 394.269V413.332H2039.42C2041.58 413.332 2043.36 415.079 2043.36 417.214V454.136C2043.36 456.272 2041.58 458.019 2039.42 458.019H2023.68V489.855C2023.68 491.175 2022.57 492.262 2021.23 492.262C2019.9 492.262 2018.79 491.175 2018.79 489.855V458.019H2003.05C2000.89 458.019 1999.11 456.272 1999.11 454.136V417.214C1999.11 415.079 2000.89 413.332 2003.05 413.332Z" fill="#3F54F5"/>
<path d="M1803.85 232.875H1819.59V209.231C1819.59 207.872 1820.69 206.824 1822.03 206.824C1823.37 206.824 1824.47 207.911 1824.47 209.231V232.875H1840.22C1842.38 232.875 1844.15 234.622 1844.15 236.757V274.029C1844.15 276.164 1842.38 277.911 1840.22 277.911H1824.47V330.596C1824.47 331.955 1823.37 333.004 1822.03 333.004C1820.69 333.004 1819.59 331.916 1819.59 330.596V277.911H1803.85C1801.68 277.911 1799.91 276.164 1799.91 274.029V236.757C1799.91 234.622 1801.68 232.875 1803.85 232.875Z" fill="#3F54F5"/>
<path d="M1615.75 176.734H1631.49V141.21C1631.49 139.89 1632.6 138.802 1633.93 138.802C1635.27 138.802 1636.37 139.89 1636.37 141.21V176.734H1652.12C1654.28 176.734 1656.05 178.481 1656.05 180.617V197.156C1656.05 199.291 1654.28 201.038 1652.12 201.038H1636.37V232.874C1636.37 234.195 1635.27 235.282 1633.93 235.282C1632.6 235.282 1631.49 234.195 1631.49 232.874V201.038H1615.75C1613.58 201.038 1611.81 199.291 1611.81 197.156V180.617C1611.81 178.481 1613.58 176.734 1615.75 176.734Z" fill="#3F54F5"/>
<path d="M1552.1 199.097H1567.85V166.407C1567.85 165.087 1568.95 164 1570.29 164C1571.62 164 1572.73 165.087 1572.73 166.407V199.097H1588.47C1590.64 199.097 1592.41 200.844 1592.41 202.979V253.102C1592.41 255.237 1590.64 256.984 1588.47 256.984H1572.73V330.596C1572.73 331.955 1571.62 333.003 1570.29 333.003C1568.95 333.003 1567.85 331.916 1567.85 330.596V256.984H1552.1C1549.94 256.984 1548.17 255.237 1548.17 253.102V202.979C1548.17 200.844 1549.94 199.097 1552.1 199.097Z" fill="#3F54F5"/>
<path d="M1482.94 247.9H1498.69V241.067C1498.69 239.747 1499.79 238.659 1501.13 238.659C1502.47 238.659 1503.57 239.747 1503.57 241.067V247.9H1519.31C1521.48 247.9 1523.25 249.647 1523.25 251.782V295.848C1523.25 297.983 1521.48 299.731 1519.31 299.731H1503.57V399.277C1503.57 400.636 1502.47 401.684 1501.13 401.684C1499.79 401.684 1498.69 400.597 1498.69 399.277V299.731H1482.94C1480.78 299.731 1479.01 297.983 1479.01 295.848V251.782C1479.01 249.647 1480.78 247.9 1482.94 247.9Z" fill="#3F54F5"/>
<path d="M1424.85 368.411H1440.6V344.534C1440.6 343.175 1441.7 342.127 1443.04 342.127C1444.37 342.127 1445.48 343.214 1445.48 344.534V368.411H1461.22C1463.39 368.411 1465.16 370.158 1465.16 372.294V418.184C1465.16 420.32 1463.39 422.067 1461.22 422.067H1445.48V521.108C1445.48 522.467 1444.37 523.515 1443.04 523.515C1441.7 523.515 1440.6 522.428 1440.6 521.108V422.067H1424.85C1422.69 422.067 1420.92 420.32 1420.92 418.184V372.294C1420.92 370.158 1422.69 368.411 1424.85 368.411Z" fill="#3F54F5"/>
<path d="M1357.51 422.106H1373.25V354.318C1373.25 352.998 1374.35 351.911 1375.69 351.911C1377.03 351.911 1378.13 352.998 1378.13 354.318V422.106H1393.88C1396.04 422.106 1397.81 423.853 1397.81 425.988V480.071C1397.81 482.206 1396.04 483.953 1393.88 483.953H1378.13V515.79C1378.13 517.148 1377.03 518.197 1375.69 518.197C1374.35 518.197 1373.25 517.11 1373.25 515.79V483.953H1357.51C1355.34 483.953 1353.57 482.206 1353.57 480.071V425.988C1353.57 423.853 1355.34 422.106 1357.51 422.106Z" fill="#3F54F5"/>
<path d="M3425.11 473.781H3440.85V454.485C3440.85 453.126 3441.95 452.078 3443.29 452.078C3444.63 452.078 3445.73 453.165 3445.73 454.485V473.781H3461.47C3463.64 473.781 3465.41 475.528 3465.41 477.663V490.98C3465.41 493.115 3463.64 494.863 3461.47 494.863H3445.73V526.699C3445.73 528.058 3444.63 529.106 3443.29 529.106C3441.95 529.106 3440.85 528.019 3440.85 526.699V494.863H3425.11C3422.94 494.863 3421.17 493.115 3421.17 490.98V477.663C3421.17 475.528 3422.94 473.781 3425.11 473.781Z" fill="#3F54F5"/>
<path d="M3294.15 562.534H3309.89V530.853C3309.89 529.533 3310.99 528.446 3312.33 528.446C3313.67 528.446 3314.77 529.533 3314.77 530.853V562.534H3330.52C3332.68 562.534 3334.45 564.281 3334.45 566.417V586.528C3334.45 588.663 3332.68 590.41 3330.52 590.41H3314.77V622.246C3314.77 623.605 3313.67 624.653 3312.33 624.653C3310.99 624.653 3309.89 623.566 3309.89 622.246V590.41H3294.15C3291.98 590.41 3290.21 588.663 3290.21 586.528V566.417C3290.21 564.281 3291.98 562.534 3294.15 562.534Z" fill="#3F54F5"/>
<path d="M3164.11 594.37H3179.85V576.549C3179.85 575.229 3180.95 574.142 3182.29 574.142C3183.63 574.142 3184.73 575.229 3184.73 576.549V594.37H3200.47C3202.64 594.37 3204.41 596.117 3204.41 598.252V717.483C3204.41 719.618 3202.64 721.365 3200.47 721.365H3184.73V753.201C3184.73 754.56 3183.63 755.609 3182.29 755.609C3180.95 755.609 3179.85 754.521 3179.85 753.201V721.365H3164.11C3161.94 721.365 3160.17 719.618 3160.17 717.483V598.252C3160.17 596.117 3161.94 594.37 3164.11 594.37Z" fill="#3F54F5"/>
<path d="M3097.7 413.331H3113.45V364.024C3113.45 362.704 3114.55 361.617 3115.89 361.617C3117.23 361.617 3118.33 362.704 3118.33 364.024V413.331H3134.07C3136.24 413.331 3138.01 415.078 3138.01 417.214V586.489C3138.01 588.624 3136.24 590.371 3134.07 590.371H3118.33V677.028C3118.33 678.387 3117.23 679.435 3115.89 679.435C3114.55 679.435 3113.45 678.348 3113.45 677.028V590.371H3097.7C3095.54 590.371 3093.77 588.624 3093.77 586.489V417.214C3093.77 415.078 3095.54 413.331 3097.7 413.331Z" fill="#3F54F5"/>
<path d="M3033.15 392.366H3049.17V365.654C3049.17 364.296 3050.27 363.247 3051.61 363.247C3052.95 363.247 3054.05 364.334 3054.05 365.654V392.366H3069.48C3071.64 392.366 3073.41 394.113 3073.41 396.248V407.313C3073.41 409.449 3071.64 411.196 3069.48 411.196H3054.05V443.032C3054.05 444.352 3052.95 445.439 3051.61 445.439C3050.27 445.439 3049.17 444.352 3049.17 443.032V411.196H3033.15C3030.98 411.196 3029.21 409.449 3029.21 407.313V396.248C3029.21 394.113 3030.98 392.366 3033.15 392.366Z" fill="#3F54F5"/>
<path d="M2971.36 260.983H2987.1V176.656C2987.1 175.297 2988.21 174.249 2989.54 174.249C2990.88 174.249 2991.98 175.336 2991.98 176.656V260.983H3007.73C3009.89 260.983 3011.66 262.73 3011.66 264.866V385.494C3011.66 387.629 3009.89 389.376 3007.73 389.376H2991.98V421.212C2991.98 422.571 2990.88 423.619 2989.54 423.619C2988.21 423.619 2987.1 422.532 2987.1 421.212V389.376H2971.36C2969.19 389.376 2967.42 387.629 2967.42 385.494V264.866C2967.42 262.73 2969.19 260.983 2971.36 260.983Z" fill="#3F54F5"/>
<path d="M2710.64 335.565H2726.38V260.983C2726.38 259.663 2727.48 258.576 2728.82 258.576C2730.16 258.576 2731.26 259.663 2731.26 260.983V335.565H2747.01C2749.17 335.565 2750.94 337.312 2750.94 339.448V411.39C2750.94 413.525 2749.17 415.272 2747.01 415.272H2731.26V447.108C2731.26 448.428 2730.16 449.516 2728.82 449.516C2727.48 449.516 2726.38 448.428 2726.38 447.108V415.272H2710.64C2708.47 415.272 2706.7 413.525 2706.7 411.39V339.448C2706.7 337.312 2708.47 335.565 2710.64 335.565Z" fill="#3F54F5"/>
<path d="M2648.84 312.698H2664.58V283.851C2664.58 282.531 2665.68 281.444 2667.02 281.444C2668.36 281.444 2669.46 282.531 2669.46 283.851V312.698H2685.2C2687.37 312.698 2689.14 314.445 2689.14 316.58V334.517C2689.14 336.653 2687.37 338.4 2685.2 338.4H2669.46V370.236C2669.46 371.556 2668.36 372.643 2667.02 372.643C2665.68 372.643 2664.58 371.556 2664.58 370.236V338.4H2648.84C2646.67 338.4 2644.9 336.653 2644.9 334.517V316.58C2644.9 314.445 2646.67 312.698 2648.84 312.698Z" fill="#3F54F5"/>
<path d="M2389.73 383.32H2405.48V306.913C2405.48 305.593 2406.58 304.506 2407.92 304.506C2409.26 304.506 2410.36 305.593 2410.36 306.913V383.32H2426.1C2428.27 383.32 2430.04 385.067 2430.04 387.202V586.489C2430.04 588.624 2428.27 590.371 2426.1 590.371H2410.36V622.207C2410.36 623.527 2409.26 624.614 2407.92 624.614C2406.58 624.614 2405.48 623.527 2405.48 622.207V590.371H2389.73C2387.57 590.371 2385.8 588.624 2385.8 586.489V387.202C2385.8 385.067 2387.57 383.32 2389.73 383.32Z" fill="#3F54F5"/>
<path d="M2256.93 501.928H2272.67V467.996C2272.67 466.637 2273.78 465.589 2275.11 465.589C2276.45 465.589 2277.55 466.676 2277.55 467.996V501.928H2293.3C2295.46 501.928 2297.23 503.676 2297.23 505.811V655.169C2297.23 657.304 2295.46 659.052 2293.3 659.052H2277.55V690.888C2277.55 692.208 2276.45 693.295 2275.11 693.295C2273.78 693.295 2272.67 692.208 2272.67 690.888V659.052H2256.93C2254.76 659.052 2252.99 657.304 2252.99 655.169V505.811C2252.99 503.676 2254.76 501.928 2256.93 501.928Z" fill="#3F54F5"/>
<path d="M2193.95 457.009H2209.7V426.182C2209.7 424.862 2210.8 423.775 2212.14 423.775C2213.48 423.775 2214.58 424.862 2214.58 426.182V457.009H2230.32C2232.49 457.009 2234.26 458.756 2234.26 460.891V491.912C2234.26 494.047 2232.49 495.795 2230.32 495.795H2214.58V545.102C2214.58 546.461 2213.48 547.509 2212.14 547.509C2210.8 547.509 2209.7 546.422 2209.7 545.102V495.795H2193.95C2191.79 495.795 2190.02 494.047 2190.02 491.912V460.891C2190.02 458.756 2191.79 457.009 2193.95 457.009Z" fill="#3F54F5"/>
<path d="M2131.25 413.331H2146.99V402.887C2146.99 401.567 2148.1 400.48 2149.43 400.48C2150.77 400.48 2151.87 401.567 2151.87 402.887V413.331H2167.62C2169.78 413.331 2171.55 415.078 2171.55 417.213V455.067C2171.55 457.203 2169.78 458.95 2167.62 458.95H2151.87V490.786C2151.87 492.106 2150.77 493.193 2149.43 493.193C2148.1 493.193 2146.99 492.106 2146.99 490.786V458.95H2131.25C2129.08 458.95 2127.31 457.203 2127.31 455.067V417.213C2127.31 415.078 2129.08 413.331 2131.25 413.331Z" fill="#3F54F5"/>
<path d="M2066.7 383.32H2082.44V359.753C2082.44 358.394 2083.55 357.346 2084.88 357.346C2086.22 357.346 2087.32 358.433 2087.32 359.753V383.32H2103.07C2105.23 383.32 2107 385.067 2107 387.202V411.39C2107 413.525 2105.23 415.272 2103.07 415.272H2087.32V447.108C2087.32 448.467 2086.22 449.516 2084.88 449.516C2083.55 449.516 2082.44 448.428 2082.44 447.108V415.272H2066.7C2064.53 415.272 2062.76 413.525 2062.76 411.39V387.202C2062.76 385.067 2064.53 383.32 2066.7 383.32Z" fill="#3F54F5"/>
<path d="M1935.75 368.411H1951.49V325.549C1951.49 324.229 1952.6 323.142 1953.93 323.142C1955.27 323.142 1956.37 324.229 1956.37 325.549V368.411H1972.12C1974.28 368.411 1976.05 370.158 1976.05 372.294V454.136C1976.05 456.271 1974.28 458.018 1972.12 458.018H1956.37V516.838C1956.37 518.158 1955.27 519.245 1953.93 519.245C1952.6 519.245 1951.49 518.158 1951.49 516.838V458.018H1935.75C1933.58 458.018 1931.81 456.271 1931.81 454.136V372.294C1931.81 370.158 1933.58 368.411 1935.75 368.411Z" fill="#3F54F5"/>
<path d="M1873.95 239.125H1889.69V191.487C1889.69 190.128 1890.8 189.08 1892.13 189.08C1893.47 189.08 1894.57 190.167 1894.57 191.487V239.125H1910.32C1912.48 239.125 1914.25 240.872 1914.25 243.007V364.528C1914.25 366.664 1912.48 368.411 1910.32 368.411H1894.57V431.695C1894.57 433.054 1893.47 434.102 1892.13 434.102C1890.8 434.102 1889.69 433.015 1889.69 431.695V368.411H1873.95C1871.78 368.411 1870.01 366.664 1870.01 364.528V243.007C1870.01 240.872 1871.78 239.125 1873.95 239.125Z" fill="#3F54F5"/>
<path d="M1742.09 245.958H1757.84V209.23C1757.84 207.872 1758.94 206.823 1760.28 206.823C1761.62 206.823 1762.72 207.91 1762.72 209.23V245.958H1778.46C1780.63 245.958 1782.4 247.706 1782.4 249.841V274.029C1782.4 276.164 1780.63 277.911 1778.46 277.911H1762.72V309.747C1762.72 311.106 1761.62 312.154 1760.28 312.154C1758.94 312.154 1757.84 311.067 1757.84 309.747V277.911H1742.09C1739.93 277.911 1738.16 276.164 1738.16 274.029V249.841C1738.16 247.706 1739.93 245.958 1742.09 245.958Z" fill="#3F54F5"/>
<path d="M1679.35 174.793H1695.1V130.96C1695.1 129.601 1696.2 128.553 1697.54 128.553C1698.87 128.553 1699.98 129.64 1699.98 130.96V174.832H1715.72C1717.89 174.832 1719.66 176.579 1719.66 178.714V242.231C1719.66 244.367 1717.89 246.114 1715.72 246.114H1699.98V292.82C1699.98 294.14 1698.87 295.227 1697.54 295.227C1696.2 295.227 1695.1 294.14 1695.1 292.82V246.114H1679.35C1677.19 246.114 1675.42 244.367 1675.42 242.231V178.675C1675.42 176.54 1677.19 174.793 1679.35 174.793Z" fill="#3F54F5"/>
</g>
<defs>
<clipPath id="clip0_12_303">
<rect width="2952" height="673" fill="white" transform="matrix(-1 0 0 1 2952 174)"/>
</clipPath>
</defs>
</svg>
