<svg width="648" height="648" viewBox="0 0 648 648" fill="none" xmlns="http://www.w3.org/2000/svg">
<path opacity="0.5" d="M51.1325 155.387C49.6103 154.446 47.6118 154.918 46.6864 156.449C15.4278 208.185 -0.746414 267.656 0.0264474 328.14C0.813117 389.704 19.1252 449.77 52.8181 501.303C86.511 552.836 134.19 593.701 190.27 619.114C245.366 644.081 306.331 653.116 366.26 645.232C368.035 644.999 369.268 643.357 369.017 641.585C368.766 639.814 367.125 638.583 365.351 638.816C306.641 646.528 246.919 637.67 192.945 613.212C137.986 588.307 91.2608 548.259 58.2417 497.757C25.2227 447.255 7.27683 388.39 6.5059 328.057C5.74877 268.804 21.5877 210.544 52.1992 159.856C53.1242 158.324 52.6547 156.328 51.1325 155.387Z" fill="white"/>
<path opacity="0.5" d="M489.787 49.4066C490.712 47.8748 490.221 45.8816 488.68 44.9721C449.182 21.661 405.174 6.9946 359.564 1.95773C313.953 -3.07914 267.805 1.63123 224.173 15.7621C222.471 16.3135 221.556 18.1514 222.124 19.8481C222.693 21.5449 224.529 22.4579 226.231 21.9069C268.973 8.07415 314.175 3.4648 358.852 8.39855C403.529 13.3323 446.637 27.694 485.33 50.5197C486.872 51.4289 488.863 50.9385 489.787 49.4066Z" fill="white"/>
<circle cx="314.943" cy="324" r="251.553" fill="white"/>
</svg>
