<svg width="49" height="49" viewBox="0 0 49 49" fill="none" xmlns="http://www.w3.org/2000/svg">
<path d="M33.8239 34.1984C35.6392 37.2625 37.4343 40.2918 39.228 43.3178C31.2852 49.2326 18.9277 49.9475 9.77974 43.136C-0.74761 35.2913 -2.47787 21.906 3.15831 12.2707C9.64073 1.18801 21.7715 -1.26299 29.582 0.534237C29.3707 0.98059 24.6928 10.4203 24.6928 10.4203C24.6928 10.4203 24.323 10.4439 24.1138 10.4479C21.8052 10.543 20.0857 11.0655 18.2428 11.9924C16.2208 13.0187 14.488 14.511 13.1959 16.3391C11.9038 18.1671 11.0916 20.2752 10.8305 22.479C10.558 24.714 10.8757 26.9797 11.7536 29.0621C12.4959 30.8226 13.546 32.3861 14.9537 33.7061C17.1131 35.7331 19.6829 36.9881 22.6616 37.4036C25.4824 37.7975 28.1952 37.4076 30.7373 36.165C31.6908 35.6996 32.502 35.1857 33.4501 34.4807C33.5709 34.4045 33.6782 34.308 33.8239 34.1984Z" fill="#FF492C"/>
<path d="M33.838 7.32663C33.377 6.88553 32.9499 6.47856 32.5247 6.06896C32.271 5.82478 32.0267 5.57076 31.7669 5.33248C31.6738 5.24649 31.5645 5.129 31.5645 5.129C31.5645 5.129 31.6529 4.94652 31.6906 4.87169C32.188 3.90087 32.9674 3.1913 33.8919 2.6268C34.9143 1.99783 36.1054 1.6778 37.3147 1.70718C38.8621 1.73672 40.3008 2.11152 41.5148 3.12107C42.411 3.86608 42.8705 4.8113 42.9515 5.93965C43.0865 7.84322 42.2767 9.30108 40.6686 10.3185C39.7238 10.9171 38.7048 11.3799 37.6831 11.928C37.1196 12.2306 36.6378 12.4964 36.0872 13.0439C35.6026 13.5933 35.579 14.1112 35.579 14.1112L42.8989 14.102V17.2731H31.6002C31.6002 17.2731 31.6002 17.0565 31.6002 16.9665C31.557 15.4082 31.744 13.9418 32.4775 12.5266C33.1523 11.2283 34.201 10.2778 35.4609 9.54592C36.4313 8.98207 37.453 8.50224 38.4254 7.94102C39.0254 7.5951 39.4492 7.0877 39.4458 6.35187C39.4458 5.72041 38.9734 5.15919 38.2986 4.98393C36.7073 4.56646 35.0877 5.23271 34.2455 6.64922C34.1227 6.85599 33.9972 7.06144 33.838 7.32663Z" fill="#FF492C"/>
<path d="M48.002 30.8273L41.8334 20.4653H29.6264L23.418 30.9343H35.7147L41.7828 41.247L48.002 30.8273Z" fill="#FF492C"/>
</svg>
