<svg width="40" height="40" viewBox="0 0 40 40" fill="none" xmlns="http://www.w3.org/2000/svg">
<path d="M19.9987 6.61683C12.6487 6.61683 6.61536 12.6502 6.61536 20.0002C6.61536 27.3502 12.6487 33.3835 19.9987 33.3835C27.3487 33.3835 33.382 27.3502 33.382 20.0002C33.382 12.6502 27.3487 6.61683 19.9987 6.61683ZM19.9987 3.3335C29.232 3.3335 36.6654 10.7668 36.6654 20.0002C36.6654 29.2335 29.232 36.6668 19.9987 36.6668C10.7654 36.6668 3.33203 29.2335 3.33203 20.0002C3.33203 10.7668 10.7654 3.3335 19.9987 3.3335ZM23.132 19.2168L26.6654 22.7335V13.3335H17.2654L20.782 16.8668L12.4987 25.1668L14.832 27.5002" fill="#FFD400"/>
</svg>
