<svg width="166" height="103" viewBox="0 0 166 103" fill="none" xmlns="http://www.w3.org/2000/svg">
<g clip-path="url(#clip0_4355_2162)">
<path fill-rule="evenodd" clip-rule="evenodd" d="M135.464 69.8343C135.704 69.5612 135.929 69.3041 136.138 69.063V69.047C136.218 68.0668 136.33 67.0705 136.475 66.0743C136.232 66.5597 135.961 67.0452 135.675 67.5576L135.624 67.649C135.496 68.356 135.416 69.0952 135.367 69.9308L135.464 69.8343ZM119.433 75.8762C120.252 75.2816 121.166 74.1568 121.792 72.2607C121.815 71.8454 121.845 71.383 121.877 70.8846C121.892 70.6695 121.906 70.4476 121.921 70.22C120.589 71.7786 119.642 73.6908 119.433 75.8762ZM69.16 67.8579C69.7056 67.7936 70.2351 67.7615 70.7486 67.7936L70.7326 67.7776C71.4065 66.8456 71.8398 65.6726 71.8719 63.6801C71.8879 63.2623 71.8077 63.0534 71.7595 63.0052C71.7595 63.0052 71.1979 62.5392 69.2563 62.6677C69.4328 63.439 69.4328 64.2425 69.4328 64.9495C69.4168 65.8333 69.3205 66.8134 69.16 67.8579ZM49.9364 64.3389C50.0006 61.0448 54.0604 57.4133 55.2959 56.3688V56.3849C56.371 55.469 57.7671 54.4567 59.452 53.5247C58.5213 53.2836 57.751 52.9462 57.1092 52.5766C55.0231 54.296 52.5681 55.5493 49.9044 55.951C47.6258 56.3046 45.4755 55.7261 43.8709 54.312C43.6142 54.7298 43.2932 55.1476 42.9242 55.5493C44.0314 55.4529 45.1225 55.8064 45.9569 56.5295C46.679 57.1562 47.5134 58.3453 47.4813 60.4181C47.4332 62.6838 46.663 66.8295 45.5879 72.5821C45.5009 73.0263 45.4186 73.4752 45.336 73.9262C45.2661 74.3074 45.196 74.69 45.1225 75.0727C47.9467 74.6549 49.8402 74.6228 51.3967 75.9726C51.9101 76.4386 52.3113 77.001 52.552 77.6276C53.5629 74.3336 54.7825 71.0234 56.0822 68.1471C55.681 68.2757 55.2478 68.3882 54.7985 68.4524C53.4827 68.6613 52.2471 68.3239 51.3164 67.5044C50.4178 66.717 49.9204 65.5601 49.9364 64.3389ZM29.4452 28.7629C30.1833 28.6504 30.8252 28.6986 31.3547 28.8432C31.7719 27.6381 32.478 26.6097 33.4247 25.7902C32.2499 25.9705 30.8177 26.1843 29.2934 26.412C28.236 26.5699 27.1343 26.7344 26.0434 26.8989C25.8508 27.6702 25.6422 28.4897 25.4015 29.3253C27.2147 29.0843 28.7392 28.8754 29.4452 28.7629ZM8.39022 33.724C8.51859 33.6623 8.64801 33.6001 8.77743 33.5353H8.79348L9.03417 32.764L8.88975 32.9086C8.58487 33.23 8.26394 33.5674 7.94302 33.8888C7.92109 33.9217 7.89166 33.9472 7.86499 33.9702C7.85263 33.9809 7.84085 33.9911 7.83069 34.0013C8.01262 33.9054 8.20027 33.8152 8.39022 33.724ZM99.162 17.6873C98.6871 17.9552 98.1966 18.1767 97.6905 18.3826C97.8831 18.6236 98.0596 18.8646 98.2201 19.1217C98.4722 18.6641 98.7861 18.1911 99.162 17.6873ZM103.172 13.8846C102.642 14.7564 101.999 15.5265 101.269 16.1812C101.397 16.1329 101.526 16.1008 101.67 16.0847C101.731 16.0746 101.797 16.0628 101.866 16.0504C102.015 16.0237 102.179 15.9942 102.344 15.9723C102.61 15.2311 102.891 14.531 103.172 13.8846ZM98.7576 30.9402C98.8017 30.888 98.8459 30.8358 98.894 30.7875C98.9392 30.2297 99.0126 29.6718 99.0878 29.1006L99.1026 28.9879C98.9582 29.6949 98.7977 30.4019 98.6212 31.0928C98.6694 31.0446 98.7135 30.9924 98.7576 30.9402ZM113.921 25.7822C113.829 25.7902 113.737 25.7982 113.641 25.8063L113.625 25.8223C113.4 27.3167 113.223 28.8432 113.079 30.193C114.138 28.2166 115.646 26.5615 117.476 25.8384C117.444 25.6295 117.428 25.4367 117.412 25.2278C117.107 25.3724 116.754 25.4688 116.369 25.5331C115.919 25.5974 115.245 25.6616 114.202 25.7581C114.106 25.7661 114.014 25.7741 113.921 25.7822ZM161.106 62.957C162.309 62.7641 163.529 63.1177 164.428 63.905L164.395 63.9211C165.972 65.2971 165.969 67.373 165.968 68.2388L165.968 68.3078C165.84 74.9602 158.426 82.866 151.253 83.9747C150.226 84.1354 149.216 84.2158 148.253 84.2158C144.995 84.2158 142.155 83.3159 140.037 81.6127C137.133 84.505 133.41 86.7225 129.896 87.2688C128.997 87.3974 126.863 87.5098 124.985 85.903C122.707 87.8473 119.931 89.0524 116.641 89.5666C115.919 89.6791 115.197 89.7273 114.507 89.7273C111.94 89.7273 109.629 88.956 107.848 87.4938C105.152 89.663 101.108 91.8484 95.2996 92.7482C94.4171 92.8928 93.5345 92.9571 92.7001 92.9571C90.0203 92.9571 87.6455 92.2662 85.8001 90.9325C83.1204 93.2464 79.9432 94.9657 76.9104 95.4317C74.3751 95.8334 72.2249 95.3513 70.524 94.0337C67.4899 91.6671 67.0938 87.5182 66.7105 83.5031L66.7049 83.4445C66.5926 82.2554 66.4642 81.0181 66.2877 79.8772C66.031 80.8735 65.8224 81.7412 65.7903 82.0947L65.6619 89.647C65.5817 93.5999 63.4636 95.737 61.6985 96.8297L61.6981 96.8299C61.5377 96.9262 61.3774 97.0226 61.2331 97.1189C59.8852 97.9705 58.3448 98.9186 56.4031 99.2239C56.0983 99.2721 55.8094 99.2882 55.5206 99.2882C54.269 99.2882 53.0976 98.8704 52.1669 98.0509C50.1611 96.2994 49.9364 93.4553 49.9846 90.9164C50.0167 89.1328 50.3055 86.9474 50.7869 84.5532C49.6476 86.4011 48.0109 87.4456 45.7162 87.7991C45.1867 87.8794 44.24 87.9919 42.9402 88.1365C42.4428 91.7841 42.1539 94.9818 42.1058 97.5045C42.0577 100.252 40.0198 102.325 36.8907 102.807C36.1526 102.92 35.3021 103.016 34.4035 103.016C32.7187 103.016 30.8733 102.663 29.3971 101.361C27.2147 99.4489 27.0061 96.5404 27.0382 94.5158C27.0543 93.5356 27.1666 92.3304 27.3752 90.9164C26.8457 91.061 26.3482 91.2056 25.8668 91.3503C24.198 91.8484 22.7538 92.2662 21.4541 92.5233C21.4059 92.5393 21.3097 92.5393 21.3097 92.5393L20.6678 92.6357C20.1222 92.7161 19.5606 92.6679 19.0311 92.5072C15.3565 91.3503 13.1581 89.4542 11.8744 86.3529C11.6818 85.8869 11.6016 85.3888 11.6016 84.8907C11.6818 80.8735 14.9072 75.362 19.1274 68.5649C20.0741 67.0384 20.8764 65.7368 21.438 64.7406L21.4403 64.7365C22.1317 63.4968 23.7682 60.5622 26.8457 60.0807C28.0812 59.8879 29.3329 60.2574 30.2796 61.093C31.4349 62.1053 32.0768 63.7122 32.0447 65.4797C32.0126 67.3276 31.1943 69.6094 29.7501 73.4659C29.634 73.7807 29.5154 74.0999 29.3953 74.4229C29.0007 75.4846 28.591 76.5868 28.2096 77.708C28.9317 77.5634 29.6859 77.4348 30.4722 77.3063C32.2212 71.168 34.2591 65.1905 35.7354 61.9286C36.1205 61.093 36.8426 59.679 37.9498 58.4095C37.5486 58.506 37.1314 58.6024 36.6982 58.6666C36.3933 58.7148 36.1044 58.7309 35.8156 58.7309C34.5479 58.7309 33.3926 58.3131 32.4619 57.4936C30.424 55.7261 30.2154 52.7212 30.2636 50.3109C30.3438 46.4705 30.5203 43.4496 31.114 40.6216C30.4401 41.1036 29.6538 41.4089 28.7552 41.5535C28.2899 41.6339 27.1826 41.7464 25.2731 41.9392C24.9176 41.9762 24.5434 42.0145 24.1675 42.053C23.237 42.1483 22.2957 42.2447 21.5985 42.3248C20.5234 46.2777 19.3841 51.1947 19.3199 55.1958C19.2718 57.9757 17.619 61.5429 10.0932 62.6999C9.78835 62.7481 9.51556 62.7641 9.22673 62.7641C8.0393 62.7641 6.94814 62.3624 6.08163 61.6072C4.11032 59.8899 4.15595 57.1788 4.20403 54.3224L4.20421 54.312C4.2363 52.3999 4.66955 49.5075 5.40768 46.101C4.2363 46.1974 3.14514 45.8439 2.29468 45.1047C1.41213 44.3334 0.914694 43.1925 0.93074 42.0035C0.962833 40.1395 1.94166 37.6167 5.84094 35.11C5.68047 35.1582 5.52001 35.1904 5.3435 35.2225C4.09188 35.4153 2.80817 35.0297 1.82934 34.178C0.609812 33.1175 -0.032044 31.4464 4.88413e-05 29.486C0.144466 21.2428 11.2646 15.8598 22.2243 14.1565C25.7967 13.6084 29.6407 13.0991 32.665 12.6984C33.0096 12.6527 33.3436 12.6084 33.6654 12.5657C34.2085 12.4926 34.7308 12.4234 35.2209 12.3584C36.4541 12.195 37.4833 12.0586 38.1263 11.9551C39.7951 11.698 41.1751 12.0354 42.2342 12.9674C43.213 13.8351 43.7425 15.0885 43.7104 16.4865C43.6944 17.4963 43.2952 18.3783 42.7516 19.579L42.7477 19.5877C42.686 19.7296 42.6221 19.8739 42.5603 20.0133C42.4611 20.2369 42.3676 20.4478 42.2984 20.6161C41.7528 21.998 41.0146 23.0746 40.0519 23.8459C42.4588 24.2155 44.4165 25.8866 45.6521 27.9916C46.0948 27.7771 46.563 27.4734 47.0113 27.1826C47.0667 27.1467 47.1218 27.111 47.1765 27.0757C48.2676 26.3526 49.4069 25.6295 50.819 25.4046C51.9904 25.2278 54.2208 25.3563 56.0822 28.2487L56.0823 28.2488C56.2106 28.4577 56.339 28.6665 56.4513 28.8754L56.8043 26.2401C56.9166 25.4046 57.3338 24.6333 57.9596 24.0548C60.2703 21.9337 63.8808 21.291 64.5868 21.1785C66.9135 20.825 68.4379 21.6606 69.3044 22.4158C70.0265 23.0425 70.5079 23.7816 70.8449 24.6011C71.5189 22.4158 73.5086 19.6359 79.173 18.7682C81.3392 18.4308 82.7353 19.186 83.5216 19.8769C84.9978 21.1624 85.3027 22.9782 85.3508 24.3601C86.779 20.2626 88.7045 17.6916 91.0955 16.6953C90.4696 15.5384 89.571 13.4013 89.6192 10.6696C89.6673 8.2111 91.4806 0.835596 96.6315 0.048233C98.3003 -0.208865 99.9691 0.305331 101.333 1.51048C103.419 3.3423 104.671 6.65244 104.639 8.67709C104.623 9.97865 104.382 11.1517 103.981 12.2122C105.698 8.86992 107.607 7.16664 109.886 6.81313C112.261 6.44355 114.395 7.32733 115.743 9.20736C116.625 10.4607 117.026 11.939 117.331 13.2245C117.338 13.2639 117.346 13.304 117.354 13.3446C117.382 13.4863 117.412 13.6334 117.412 13.7709C118.422 13.8673 119.161 14.3011 119.626 14.7189C120.091 15.1206 120.396 15.5866 120.605 16.0365C122.98 13.3852 126.398 11.6819 129.767 11.1677C133.554 10.5893 136.491 11.1838 138.513 12.9514C140.069 14.3172 140.887 16.2615 140.855 18.4468C140.791 21.5963 139.572 24.4565 137.437 26.6579C138.609 28.1523 139.475 29.952 139.443 32.1534C139.331 38.5808 134.116 43.2247 125.483 44.5584C124.263 44.7512 123.14 44.8315 122.129 44.8315C119.305 44.8315 117.283 44.1888 115.839 43.3693C113.159 45.2815 110.223 46.6473 107.623 47.049C107.238 47.0972 106.869 47.1294 106.5 47.1294C104.863 47.1294 103.339 46.567 102.119 45.4904C101.847 45.2493 101.606 44.9922 101.365 44.7191C98.6052 47.2418 95.4119 48.913 92.3952 49.379C91.9138 49.4593 91.4645 49.4914 91.0313 49.4914C88.8329 49.4914 87.3085 48.5916 86.3618 47.7721C86.1692 47.6114 85.9767 47.4186 85.8001 47.2258C83.8425 48.9933 81.6602 50.327 79.4939 51.1144C81.0665 51.6607 82.4304 52.432 83.5536 53.4122C85.2546 54.9066 87.2604 57.6382 87.1801 62.2178C87.0839 67.9865 84.2597 73.0802 79.3495 76.5992C79.5607 77.296 79.7431 77.9832 79.9189 78.6457C79.9702 78.8388 80.0209 79.0299 80.0716 79.2184L80.0716 79.2186C80.1518 79.5399 80.2481 79.9255 80.3604 80.3111C81.035 79.5895 81.7536 78.7799 82.2641 78.2046L82.3341 78.1258C83.0883 74.2372 84.725 70.5574 87.1159 67.4562C90.4055 63.198 94.738 60.4663 99.3112 59.7593C103.355 59.1487 105.778 60.386 107.094 61.5429C108.105 62.4267 108.827 63.5515 109.212 64.8531C110.945 62.6195 115.662 57.349 122.274 56.3367C123.445 56.1599 124.697 56.0796 125.964 56.1117C126.959 55.1476 128.018 54.778 128.853 54.6495C131.003 54.312 133.442 55.1315 135.384 56.8348C136.507 57.8311 137.293 58.9398 137.71 60.1128C138.609 56.7223 139.844 53.4604 141.337 50.552C145.284 42.9033 150.836 38.1791 156.966 37.2311C160.32 36.7169 162.406 37.8256 163.561 38.8379C164.668 39.8181 165.984 41.6339 165.936 44.7351C165.84 50.3431 161.58 55.4239 156.639 61.3157L156.597 61.3662C154.687 63.6479 152.714 66.01 150.804 68.5489V69.4648C150.788 70.0754 150.852 70.4771 150.916 70.702C150.965 70.686 151.013 70.686 151.077 70.686C153.5 70.3003 155.249 68.3239 156.773 66.2189C158.169 64.2585 159.581 63.198 161.106 62.957ZM100.98 8.62885C100.996 7.34336 99.4396 3.31013 97.161 3.66364C94.8343 4.01715 93.2617 8.85381 93.2296 10.7499C93.1815 13.5941 94.5775 15.4902 94.5775 15.4902C97.3375 15.0724 100.916 12.871 100.996 8.62885H100.98ZM127.457 20.134C127.457 20.134 129.157 19.3627 130.008 19.2181C131.548 18.977 132.062 19.668 132.046 20.5036C132.03 21.5802 130.826 23.2192 129.863 24.3922C128.451 23.1228 127.424 21.7248 127.457 20.134ZM131.885 26.1919C134.758 24.826 137.132 22.1426 137.213 18.3664C137.261 15.6348 134.966 14.0279 130.297 14.751C125.627 15.4741 121.07 19.0574 120.99 24.1672C120.927 27.4647 122.957 29.1002 125.045 30.7817C126.68 32.0991 128.351 33.4448 129.077 35.6402C122.921 36.5933 121.934 33.5287 121.205 31.2663C120.778 29.9432 120.44 28.8945 119.209 29.0842C117.845 29.2931 116.288 31.2856 115.566 33.6156C113.592 35.3671 111.218 36.9096 110.351 37.0543C109.501 37.1828 109.164 35.8491 109.196 33.6799C109.228 31.4624 109.741 26.5936 110.512 22.5121C111.411 22.3714 112.776 22.2471 113.925 22.1424L113.925 22.1424L113.925 22.1424L113.925 22.1424L113.926 22.1423L113.926 22.1423C114.744 22.0678 115.453 22.0032 115.807 21.9497C116.609 21.8212 117.347 18.8324 117.347 18.1575C117.347 17.5309 117.315 17.338 116.786 17.4184C115.849 17.5597 114.615 17.7216 112.911 17.9451L112.907 17.9456C112.481 18.0015 112.026 18.0612 111.538 18.1254L113.785 14.0761C113.288 11.9872 112.694 10.075 110.415 10.4285C108.506 10.7178 106.644 14.3011 105.072 19.1859C103.947 19.402 102.985 19.5587 102.299 19.6704L102.216 19.6841C100.964 21.2588 100.803 22.1104 100.771 23.7655C100.771 24.0708 100.98 24.2476 101.397 24.1833L103.788 23.8137C103.082 26.7061 102.601 29.7109 102.408 32.4104C101.883 32.9011 101.153 33.7396 100.342 34.6698L100.342 34.6698C98.5512 36.7252 96.3702 39.2283 95.1551 39.4164C94.1442 39.577 93.3098 39.1271 93.3258 38.0987C93.3473 36.8488 93.8691 34.9084 94.4554 32.7284C95.1805 30.0319 96.0042 26.9689 96.1018 24.3922C96.1179 23.2031 95.2835 19.5716 93.0691 19.9251C89.6191 20.4554 87.3566 28.7789 86.8431 34.9332C86.3251 35.4376 85.6412 36.2223 84.89 37.0842C83.1042 39.1332 80.9383 41.6183 79.7185 41.8106C79.3013 41.8749 79.1408 41.5856 79.1568 41.0232C79.1858 39.3931 79.6878 37.1553 80.2391 34.6972C80.9106 31.7038 81.6553 28.3837 81.7082 25.4366C81.7403 23.3156 81.4996 22.1265 79.7024 22.3997C75.8834 22.9942 74.1664 24.5368 74.1343 26.7061C74.1343 26.8627 74.132 27.0838 74.1292 27.3465C74.1174 28.4585 74.0977 30.3153 74.2146 31.1731C73.5566 35.4956 71.4064 43.6103 67.4751 44.2048C65.6137 44.494 65.1002 43.8031 65.1162 42.7104C65.1582 40.1698 65.882 37.7482 66.5736 35.4339C67.203 33.3277 67.8059 31.3105 67.8441 29.3735C67.8923 26.7382 67.6195 24.4082 65.1323 24.7939C64.0251 24.9706 61.6823 25.5813 60.3986 26.7543L58.6977 39.1914C58.1759 39.6843 57.4609 40.5037 56.6694 41.4109C54.8804 43.4613 52.7005 45.9597 51.4768 46.1491C51.0596 46.2134 50.8991 45.9242 50.9152 45.3618C50.9331 44.3185 51.5492 42.2988 52.3275 39.7477L52.3275 39.7477C52.9397 37.7407 53.6523 35.4048 54.2528 32.9568C53.6591 31.141 52.5359 28.8432 51.3645 29.0199C50.7233 29.1176 49.9823 29.6003 49.1414 30.148C48.046 30.8613 46.7813 31.6851 45.3471 31.9123C44.5448 32.0409 43.9189 32.0891 43.3413 31.9605C43.0043 30.3697 41.4157 27.0114 38.4471 27.4613C35.7995 27.863 34.612 29.3413 34.5639 31.3499C34.5478 32.6354 35.5267 33.9852 36.9227 35.0457C34.6281 39.6253 34.0344 43.1121 33.906 50.3912C33.8418 53.5407 34.4034 55.3564 36.1525 55.0833C39.6987 54.5369 41.1269 52.2552 41.1269 51.4839C41.1406 50.8654 41.0985 49.9999 41.0497 48.9944L41.0497 48.9941C40.9843 47.6488 40.9068 46.0527 40.9343 44.4619C40.9618 43.0014 41.5911 40.5365 42.1948 38.1717L42.1954 38.1694C42.2955 37.7772 42.395 37.3877 42.4908 37.0061C42.908 37.0061 43.3894 36.9739 43.8066 36.9096C44.3843 36.8132 46.5185 36.3312 47.2085 35.9295C45.668 39.0468 44.5929 42.9675 44.5287 46.5348C44.4645 49.9895 46.005 52.8979 49.3426 52.3838C52.3914 51.9178 55.1675 49.861 57.1412 47.3543C58.0879 49.8931 61.0244 50.6805 64.8595 50.0859C68.7267 49.4914 71.1497 47.0008 72.626 44.253C72.8506 46.7919 73.7653 48.6076 76.4129 48.2059C80.4887 47.5792 84.6928 43.9959 86.8431 40.3805C87.2603 43.9316 88.6403 46.3259 91.8335 45.8277C96.0377 45.185 100.37 41.4089 102.456 37.6809C102.906 41.441 104.334 43.9156 107.045 43.4817C109.918 43.0318 113.255 41.0714 115.887 38.6451C117.107 40.5572 119.931 41.7463 124.889 40.975C131.725 39.9145 135.688 36.6847 135.785 32.0891C135.833 29.7591 133.843 27.9594 131.869 26.2079L131.885 26.1919ZM30.0067 32.3462C29.0296 32.5001 26.61 32.827 23.9766 33.1829C22.7613 33.3471 21.5004 33.5175 20.3147 33.6799C21.5503 29.727 22.6093 26.1758 23.0266 23.6852C26.4137 23.161 30.2998 22.5842 32.9253 22.1945L32.9262 22.1944L32.9277 22.1941C34.4055 21.9748 35.4835 21.8148 35.8476 21.7569C37.4844 21.4998 38.3027 20.8089 38.8964 19.2824C39.0349 18.9299 39.2232 18.5151 39.4076 18.1089L39.4076 18.1088C39.7359 17.3855 40.0518 16.6897 40.0518 16.4221C40.0518 15.6026 39.5383 15.4259 38.6397 15.5544C37.767 15.6867 36.2986 15.8786 34.4807 16.1161L34.4803 16.1162C31.2174 16.5426 26.8287 17.1161 22.7377 17.7558C12.2434 19.3788 3.70669 24.1994 3.61041 29.5663C3.57832 30.9161 4.15599 31.7516 4.7818 31.6552C4.94226 31.6231 5.15086 31.5427 5.31133 31.366C5.61506 31.0618 5.91547 30.7457 6.22192 30.4233C8.24679 28.2927 10.5353 25.8846 15.7896 24.81C14.4738 27.8469 13.0136 31.9284 11.7299 36.2026C6.72341 38.2594 4.57319 40.493 4.5411 42.0998C4.5411 42.4051 4.79784 42.5819 5.21505 42.5176C6.43457 42.3248 8.23177 41.8909 10.3178 41.3125C8.84153 46.6955 7.8627 51.7249 7.81456 54.4245C7.75038 57.5739 7.78247 59.4218 9.53153 59.1487C12.5001 58.6827 15.6292 57.6864 15.6773 55.1636C15.7575 50.4073 17.1375 44.6387 18.7101 39.1432C19.1052 39.0377 19.4895 38.9755 19.8807 38.9122L19.8807 38.9121C19.9662 38.8983 20.0519 38.8844 20.1382 38.87C20.8769 38.7582 22.8707 38.5543 24.7047 38.3668L24.7048 38.3668C26.2969 38.2039 27.7685 38.0535 28.1935 37.9863C29.2044 37.8256 29.6858 37.1828 30.087 35.7849C30.1746 35.4527 30.3037 35.0496 30.4296 34.6566L30.4296 34.6566C30.6264 34.0422 30.8153 33.4526 30.8251 33.1978C30.8251 32.4265 30.5202 32.2658 29.9907 32.3462H30.0067ZM125.387 72.9034C124.039 77.483 121.134 79.6844 118.711 80.054C116.32 80.4236 115.727 78.5596 115.759 76.551C115.887 69.5772 121.471 64.5477 126.622 62.8284C125.772 66.251 125.483 70.7824 125.387 72.9034ZM97.7226 68.2596C98.8298 68.0828 99.3593 68.5167 99.3433 69.3041C99.318 70.974 97.751 72.136 95.6212 73.7153L95.621 73.7154L95.6205 73.7158L95.6202 73.7161C95.0451 74.1425 94.4291 74.5993 93.7912 75.1048C94.3849 71.7626 95.6045 68.597 97.7226 68.2757V68.2596ZM155.666 46.1491C156.308 46.0527 156.565 46.3741 156.549 47.1454C156.511 49.048 155.228 50.7287 153.165 53.4332L153.165 53.4333L153.165 53.4336L153.164 53.434C151.76 55.2747 149.994 57.5897 148.012 60.7716C149.697 51.966 153.388 46.5027 155.666 46.1491ZM161.635 66.5403C161.218 66.6045 160.512 67.183 159.694 68.3239C157.8 70.927 155.361 73.6747 151.606 74.2532C148.959 74.6549 147.081 73.1927 147.146 69.3844L147.178 67.3115C149.335 64.3059 151.64 61.5597 153.782 59.0068C158.362 53.5484 162.201 48.9742 162.277 44.6387C162.325 41.7463 160.512 40.3323 157.479 40.7983C146.921 42.4212 140.262 58.0881 139.636 70.5574C139.2 71.0197 138.684 71.6087 138.126 72.2449L138.123 72.2478L138.123 72.2484L138.123 72.2485C136.257 74.3759 133.932 77.0281 132.624 77.2259C131.821 77.3544 131.548 75.5387 131.581 73.1605C131.629 70.5253 131.725 68.4042 132.126 66.3796C132.944 64.9655 133.65 63.6158 134.373 61.9607C134.405 60.2574 131.532 57.8632 129.366 58.2006C128.628 58.3131 128.034 58.9719 127.537 59.9682C127.168 59.8236 126.638 59.7432 125.964 59.695C124.857 59.6629 123.798 59.7271 122.787 59.8718C118.39 60.5466 114.523 63.8247 112.036 67.0384C109.886 69.8504 108.634 73.1766 108.153 76.3582C106.211 78.5435 103.034 81.9179 98.3324 82.641C96.3747 82.9463 93.2617 82.8017 93.3098 79.9736V78.6881C94.5265 77.9619 95.7948 77.305 97.0377 76.6612C101.598 74.2991 105.818 72.1132 105.906 67.3276C105.954 64.4353 103.82 62.6998 99.8407 63.3265C93.1815 64.3549 86.9876 71.1519 85.7199 79.7326C85.5157 79.9625 85.3029 80.204 85.084 80.4526C83.2218 82.5673 80.9145 85.1875 79.6223 85.3888C77.9965 85.6345 77.3285 83.1073 76.5429 80.1353L76.5429 80.1353C76.0957 78.4433 75.6104 76.6072 74.8886 75.0566C79.1088 72.8552 83.4092 68.597 83.5215 62.1374C83.666 54.4406 76.1241 52.9301 68.7589 54.071C59.2273 55.5493 53.5469 62.6998 53.5148 64.4031C53.5148 64.7566 53.7715 64.9334 54.1887 64.8691C55.4692 64.669 56.5333 63.9575 57.8305 63.0902C59.8658 61.7293 62.4752 59.9847 67.3949 59.229C73.1716 58.3452 75.5144 60.4502 75.4502 63.7604C75.37 67.8418 73.9739 69.8665 71.9842 71.7626C71.3102 71.4573 70.4598 71.3287 69.497 71.4733C67.5875 71.7626 65.8866 72.6945 65.8545 74.0925C65.8224 75.7958 67.3949 76.6796 69.2402 76.7117C69.8361 78.6847 70.0492 80.9343 70.2531 83.0873C70.7301 88.1238 71.1571 92.6315 76.3167 91.8323C79.6864 91.3181 83.4734 88.5864 85.9606 85.5173C87.2443 88.7632 90.9189 89.7434 94.7059 89.1488C101.622 88.0883 105.89 84.9388 108.281 81.9179C109.292 85.0192 112.18 86.5618 116.064 85.9672C120.942 85.212 123.734 82.6732 125.643 79.4434C126.173 82.1911 127.312 83.9747 129.318 83.6694C133.281 83.0588 137.823 79.3952 140.149 75.7154C141.674 79.9415 146.038 81.0984 150.676 80.3754C156.452 79.4916 162.229 72.7267 162.309 68.2275C162.325 67.0384 162.133 66.4599 161.603 66.5403H161.635ZM42.0009 72.0178C41.5656 74.3538 41.0966 76.8708 40.6455 79.4434L40.6776 79.4113C41.8565 79.2533 42.9545 79.077 43.9446 78.9179C47.1864 78.3972 49.271 78.0624 49.2464 79.1702C49.2366 79.4148 48.9533 80.0166 48.6571 80.6458C48.4667 81.0502 48.271 81.466 48.1392 81.8055C47.5294 83.2356 46.7752 83.9265 45.1867 84.1676C44.3362 84.2961 42.0095 84.5532 39.779 84.7943C39.0569 89.3417 38.5595 93.7927 38.4953 97.4081C38.4632 98.5329 37.2918 99.0311 36.3451 99.1757C31.8842 99.8666 30.6005 98.5169 30.6647 94.5479C30.6968 92.5875 31.2263 89.4702 32.0286 85.9512C29.2231 86.5577 26.8476 87.2532 24.8529 87.8374L24.8528 87.8374C23.2537 88.3056 21.8993 88.7022 20.764 88.9239L20.1222 89.0203C17.4906 88.2008 16.0945 87.0278 15.228 84.9389C15.2886 81.6243 19.206 75.31 22.1764 70.5221C23.1373 68.9733 23.9991 67.5843 24.5991 66.5081C25.241 65.3351 26.1717 63.8568 27.3912 63.664C27.9689 63.5836 28.4342 64.4353 28.4182 65.4155C28.3952 66.7209 27.4706 69.1898 26.3468 72.1907C25.1191 75.469 23.6536 79.3822 22.8661 83.107C25.3212 81.8055 29.1403 81.1627 33.3284 80.52C35.1416 73.8515 37.4362 66.9581 39.0248 63.423C39.8432 61.5911 41.3676 59.454 43.1648 59.1808C43.6462 59.1166 43.8388 59.5986 43.8388 60.3699C43.8053 62.3339 42.9903 66.7081 42.0009 72.0178ZM61.4096 65.7368C62.1157 64.5959 63.624 62.973 65.1645 62.732H65.1966C65.6619 62.6677 65.8705 63.5033 65.8384 64.9012C65.7807 67.868 64.4948 72.6364 63.467 76.4475L63.467 76.4476L63.4669 76.4478C62.7802 78.9942 62.2087 81.1133 62.1959 81.9822L62.0515 89.5666C62.0194 91.2217 61.4578 92.7 59.805 93.7284C59.6366 93.832 59.4697 93.9364 59.3039 94.0401C58.1584 94.7568 57.0631 95.442 55.8576 95.6245C54.1085 95.8977 53.5469 94.1301 53.6111 90.9807C53.7234 84.4728 57.7029 71.9232 61.4096 65.7368Z" fill="white"/>
</g>
<defs>
<clipPath id="clip0_4355_2162">
<rect width="166" height="103" fill="white"/>
</clipPath>
</defs>
</svg>
