<svg width="24" height="23" viewBox="0 0 24 23" fill="none" xmlns="http://www.w3.org/2000/svg">
<path d="M16.5354 16.213C17.3735 17.6583 18.2022 19.0871 19.0302 20.5145C15.3634 23.3045 9.65851 23.6416 5.43528 20.4287C0.575272 16.7285 -0.223515 10.4147 2.37846 5.86983C5.37111 0.642221 10.9713 -0.513897 14.5771 0.33384C14.4796 0.544381 12.32 4.99701 12.32 4.99701C12.32 4.99701 12.1493 5.00816 12.0527 5.01002C10.9869 5.05491 10.1931 5.30137 9.3423 5.73855C8.40883 6.22263 7.60889 6.92658 7.01237 7.78886C6.41585 8.65113 6.04092 9.64549 5.92035 10.685C5.79455 11.7393 5.94123 12.808 6.34654 13.7902C6.68923 14.6206 7.17398 15.3581 7.82385 15.9807C8.82078 16.9368 10.0071 17.5288 11.3823 17.7248C12.6845 17.9106 13.9369 17.7267 15.1104 17.1406C15.5506 16.9211 15.9251 16.6786 16.3628 16.3461C16.4186 16.3102 16.4681 16.2647 16.5354 16.213Z" fill="#FF492C"/>
<path d="M16.5422 3.538C16.3295 3.32993 16.1323 3.13797 15.936 2.94477C15.8189 2.82959 15.7061 2.70977 15.5861 2.59738C15.5431 2.55681 15.4927 2.50139 15.4927 2.50139C15.4927 2.50139 15.5335 2.41532 15.5509 2.38002C15.7805 1.9221 16.1404 1.5874 16.5672 1.32113C17.0391 1.02445 17.589 0.873493 18.1473 0.88735C18.8617 0.901283 19.5259 1.07808 20.0863 1.55427C20.5 1.90569 20.7122 2.35154 20.7496 2.88377C20.8119 3.78167 20.438 4.46933 19.6956 4.94924C19.2595 5.23161 18.7891 5.44989 18.3174 5.70843C18.0573 5.85116 17.8348 5.97656 17.5806 6.23478C17.3569 6.49393 17.346 6.73822 17.346 6.73822L20.7253 6.73388V8.22965H15.5092C15.5092 8.22965 15.5092 8.12748 15.5092 8.08506C15.4892 7.35002 15.5755 6.65834 15.9142 5.9908C16.2257 5.37837 16.7099 4.93004 17.2915 4.58482C17.7395 4.31886 18.2112 4.09252 18.6601 3.8278C18.937 3.66463 19.1327 3.4253 19.1311 3.07821C19.1311 2.78036 18.9131 2.51564 18.6015 2.43297C17.8669 2.23605 17.1192 2.55031 16.7304 3.21847C16.6737 3.316 16.6158 3.41291 16.5422 3.538Z" fill="#FF492C"/>
<path d="M23.0803 14.6232L20.2325 9.7356H14.5971L11.731 14.6737H17.4078L20.2092 19.5381L23.0803 14.6232Z" fill="#FF492C"/>
</svg>
