<svg width="338" height="98" viewBox="0 0 338 98" fill="none" xmlns="http://www.w3.org/2000/svg">
<mask id="mask0_4355_1913" style="mask-type:luminance" maskUnits="userSpaceOnUse" x="159" y="9" width="63" height="83">
<path d="M221.731 9.37674H159.756V91.814H221.731V9.37674Z" fill="white"/>
</mask>
<g mask="url(#mask0_4355_1913)">
<path d="M195.886 91.8139C195.626 91.6837 195.43 91.4884 195.365 91.1628C194.845 89.2093 194.063 87.1907 193.087 85.107L192.891 85.0419C191.589 87.7116 189.962 89.9256 187.879 91.5535C187.683 91.5535 187.488 91.5535 187.358 91.3581C186.251 88.4279 185.014 85.0419 183.192 82.3721H183.061C182.866 82.5674 182.736 82.893 182.541 83.0884C181.694 84.4558 180.588 85.3023 179.611 86.4744C178.83 87.1256 178.179 88.3628 176.942 88.1023C176.747 88.1023 176.616 87.9721 176.551 87.8419C176.486 86.8651 176.616 85.9535 176.486 84.9116C176.421 82.1116 175.119 79.3767 173.752 76.707L173.622 76.7721C172.19 78.0744 170.953 79.3767 169.26 80.4186C168.87 80.5488 168.544 80.1581 168.284 79.8977C168.088 79.5721 168.023 79.2465 168.088 78.8558C168.935 74.8837 166.266 71.0419 165.81 67.0698H165.745C164.833 68.1116 163.531 68.9581 162.425 69.9349C162.034 69.9349 161.578 69.9349 161.188 69.7395C161.643 67.1349 161.709 64.4 161.383 61.7953C160.927 57.8884 161.643 53.3302 164.638 50.5953V50.5302C163.076 50.8558 161.513 52.1581 159.886 51.4419C159.821 51.3767 159.756 51.3116 159.69 51.2465C160.016 48.707 160.537 46.2326 160.992 43.6279C161.058 43.4977 161.058 43.3023 161.123 43.1721C161.643 40.5674 162.88 37.8977 164.638 36.2698L164.573 36.2046C163.011 36.3349 161.513 37.7674 159.951 37.507C159.69 37.2465 159.821 36.7907 159.756 36.4651C161.188 33.6651 160.992 30.5395 162.88 28L163.596 26.7628C164.117 25.9814 164.768 25.2 165.419 24.614C165.745 24.4186 165.94 24.1581 166.266 24.0279C168.674 22.5953 171.083 23.507 173.427 21.9442C172.645 20.3163 170.432 18.0372 170.823 15.8884C171.083 15.5628 171.669 15.3674 172.059 15.3674C174.533 15.8884 177.072 15.5628 179.546 15.4326L181.108 15.3023L182.28 15.4977C183.126 13.8698 181.043 12.2419 181.304 10.4837C181.434 10.2884 181.824 10.1581 182.085 10.2233C185.535 10.7442 188.725 12.4372 190.027 15.8884C191.264 13.6744 193.738 12.6326 195.365 10.8744C196.212 10.3535 196.798 9.24651 197.904 9.31163C198.23 9.44186 198.295 9.57209 198.425 9.83256C198.425 11.3953 198.36 12.893 198.49 14.4558L198.555 14.5209C200.118 14.3256 201.68 13.2837 203.177 13.4791C203.438 13.6744 203.438 14.0651 203.438 14.3256C203.047 15.107 202.787 15.9535 202.722 16.8C204.544 17.3209 206.563 15.4977 208.19 16.5395C208.32 16.8 208.32 17.1907 208.06 17.386C207.604 17.907 207.083 18.5581 206.628 19.1442C206.432 19.3395 206.172 19.6651 206.237 19.9907C206.823 19.9907 207.539 19.8605 208.19 19.7302C210.078 19.3395 212.096 20.0558 213.528 21.293C214.765 22.3349 215.416 23.8977 216.848 24.8093C217.369 25.5256 218.671 25.8512 218.606 26.9581C217.369 27.8047 215.286 28.0651 214.309 29.2372V29.3674C216.262 30.214 217.76 31.3209 218.476 33.4698C218.606 34.5767 218.997 35.6837 219.257 36.7256C219.648 39.3302 220.364 41.8698 221.275 44.2791C221.015 44.6046 220.624 45.0605 220.038 44.9953C219.322 44.8651 218.671 44.8651 217.955 44.8651C217.825 44.8651 217.63 44.8 217.434 44.8651L217.304 44.9302C219.843 49.0326 220.559 53.5256 220.689 57.8884C220.754 59.7767 221.601 61.6651 221.21 63.3581C220.689 63.6186 220.299 63.8791 219.843 63.5535L218.606 63.0326L218.476 63.0977C218.346 62.9023 218.02 62.9674 217.89 62.8372L217.825 62.9023C217.63 66.8744 214.505 70.586 214.309 74.493C214.114 74.6884 213.919 75.0139 213.528 74.9488C212.877 74.6232 212.682 73.7116 211.836 73.6465C211.51 74.0372 211.25 74.4279 210.989 74.8837C210.469 76.4465 209.948 77.8791 209.557 79.3116C209.362 80.093 209.427 81.1349 208.711 81.7209C208.255 81.8512 207.93 81.4605 207.539 81.2C207.344 81.0046 207.083 80.7442 206.888 80.5488L206.758 80.6139C205 82.5674 204.805 85.9535 203.242 87.8419C202.917 87.8419 202.591 87.6465 202.396 87.3209C201.875 86.6046 201.55 85.6279 200.834 85.0419L200.704 85.107L197.188 89.9256C197.123 90.5767 196.863 91.4884 195.886 91.8139Z" fill="white"/>
</g>
<mask id="mask1_4355_1913" style="mask-type:luminance" maskUnits="userSpaceOnUse" x="159" y="9" width="63" height="83">
<path d="M221.731 9.37674H159.756V91.814H221.731V9.37674Z" fill="white"/>
</mask>
<g mask="url(#mask1_4355_1913)">
<path d="M195.886 91.8139C195.626 91.6837 195.43 91.4884 195.365 91.1628C194.845 89.2093 194.063 87.1907 193.087 85.107L192.891 85.0419C191.589 87.7116 189.962 89.9256 187.879 91.5535C187.683 91.5535 187.488 91.5535 187.358 91.3581C186.251 88.4279 185.014 85.0419 183.192 82.3721H183.061C182.866 82.5674 182.736 82.893 182.541 83.0884C181.694 84.4558 180.588 85.3023 179.611 86.4744C178.83 87.1256 178.179 88.3628 176.942 88.1023C176.747 88.1023 176.616 87.9721 176.551 87.8418C176.486 86.8651 176.616 85.9535 176.486 84.9116C176.421 82.1116 175.119 79.3767 173.752 76.707L173.622 76.7721C172.19 78.0744 170.953 79.3767 169.26 80.4186C168.87 80.5488 168.544 80.1581 168.284 79.8977C168.088 79.5721 168.023 79.2465 168.088 78.8558C168.935 74.8837 166.266 71.0419 165.81 67.0698H165.745C164.833 68.1116 163.531 68.9581 162.425 69.9349C162.034 69.9349 161.578 69.9349 161.188 69.7395C161.643 67.1349 161.709 64.4 161.383 61.7953C160.927 57.8884 161.643 53.3302 164.638 50.5953V50.5302C163.076 50.8558 161.513 52.1581 159.886 51.4419C159.821 51.3767 159.756 51.3116 159.69 51.2465C160.016 48.707 160.537 46.2326 160.992 43.6279C161.058 43.4977 161.058 43.3023 161.123 43.1721C161.643 40.5674 162.88 37.8977 164.638 36.2698L164.573 36.2046C163.011 36.3349 161.513 37.7674 159.951 37.507C159.69 37.2465 159.821 36.7907 159.756 36.4651C161.188 33.6651 160.992 30.5395 162.88 28L163.596 26.7628C164.117 25.9814 164.768 25.2 165.419 24.614C165.745 24.4186 165.94 24.1581 166.266 24.0279C168.674 22.5953 171.083 23.507 173.427 21.9442C172.645 20.3163 170.432 18.0372 170.823 15.8884C171.083 15.5628 171.669 15.3674 172.059 15.3674C174.533 15.8884 177.072 15.5628 179.546 15.4326L181.108 15.3023L182.28 15.4977C183.126 13.8698 181.043 12.2419 181.304 10.4837C181.434 10.2884 181.824 10.1581 182.085 10.2233C185.535 10.7442 188.725 12.4372 190.027 15.8884C191.264 13.6744 193.738 12.6326 195.365 10.8744C196.212 10.3535 196.798 9.24651 197.904 9.31163C198.23 9.44186 198.295 9.57209 198.425 9.83256C198.425 11.3953 198.36 12.893 198.49 14.4558L198.555 14.5209C200.118 14.3256 201.68 13.2837 203.177 13.4791C203.438 13.6744 203.438 14.0651 203.438 14.3256C203.047 15.107 202.787 15.9535 202.722 16.8C204.544 17.3209 206.563 15.4977 208.19 16.5395C208.32 16.8 208.32 17.1907 208.06 17.386C207.604 17.907 207.083 18.5581 206.628 19.1442C206.432 19.3395 206.172 19.6651 206.237 19.9907C206.823 19.9907 207.539 19.8605 208.19 19.7302C210.078 19.3395 212.096 20.0558 213.528 21.293C214.765 22.3349 215.416 23.8977 216.848 24.8093C217.369 25.5256 218.671 25.8512 218.606 26.9581C217.369 27.8047 215.286 28.0651 214.309 29.2372V29.3674C216.262 30.214 217.76 31.3209 218.476 33.4698C218.606 34.5767 218.997 35.6837 219.257 36.7256C219.648 39.3302 220.364 41.8698 221.275 44.2791C221.015 44.6046 220.624 45.0605 220.038 44.9953C219.322 44.8651 218.671 44.8651 217.955 44.8651C217.825 44.8651 217.63 44.8 217.434 44.8651L217.304 44.9302C219.843 49.0326 220.559 53.5256 220.689 57.8884C220.754 59.7767 221.601 61.6651 221.21 63.3581C220.689 63.6186 220.299 63.8791 219.843 63.5535L218.606 63.0326L218.476 63.0977C218.346 62.9023 218.02 62.9674 217.89 62.8372L217.825 62.9023C217.63 66.8744 214.505 70.586 214.309 74.493C214.114 74.6884 213.919 75.0139 213.528 74.9488C212.877 74.6232 212.682 73.7116 211.836 73.6465C211.51 74.0372 211.25 74.4279 210.989 74.8837C210.469 76.4465 209.948 77.8791 209.557 79.3116C209.362 80.093 209.427 81.1349 208.711 81.7209C208.255 81.8512 207.93 81.4605 207.539 81.2C207.344 81.0046 207.083 80.7442 206.888 80.5488L206.758 80.6139C205 82.5674 204.805 85.9535 203.242 87.8418C202.917 87.8418 202.591 87.6465 202.396 87.3209C201.875 86.6046 201.55 85.6279 200.834 85.0419L200.704 85.107L197.188 89.9256C197.123 90.5767 196.863 91.4884 195.886 91.8139Z" stroke="white" stroke-width="0.0149" stroke-miterlimit="2.613"/>
</g>
<path d="M195.886 89.5349C194.649 86.7349 193.543 83.5442 192.957 80.5488C193.022 80.4837 193.022 80.3535 193.087 80.2884L193.217 80.1581C193.803 80.2233 194.064 80.8744 194.78 80.7442C195.756 78.4651 195.431 75.6651 196.668 73.2558C196.733 73.1907 196.798 73.1256 196.863 73.1907C197.709 74.1023 197.709 75.6 198.165 76.5116C198.49 76.5767 198.881 76.3163 199.011 75.9907C199.076 75.8605 199.206 75.7953 199.206 75.6651H199.337C199.467 75.9256 199.467 76.186 199.467 76.5116C199.402 79.7674 201.745 83.5442 198.49 85.9535C197.644 87.1907 196.928 88.493 195.886 89.5349Z" fill="#001140"/>
<path d="M187.619 89.4046L187.488 89.2744C187.098 87.9721 186.642 86.6698 186.056 85.3674C184.494 82.307 181.825 79.7023 181.955 76.1209C181.825 75.2093 181.304 74.1674 181.369 73.1907L181.434 73.1256L181.564 73.1907C183.127 74.3628 183.192 76.9023 184.494 78.5953C184.949 79.1814 184.494 79.9628 185.014 80.4837C185.21 80.6139 185.47 80.4837 185.6 80.3535C185.665 80.2884 185.731 80.2884 185.731 80.1581C186.121 78.3349 185.926 76.186 187.228 74.6884H187.358C187.879 75.4046 188.27 76.4465 188.855 77.1628C189.572 77.8791 190.288 78.7256 191.394 79.0512C191.459 79.1163 191.524 79.1814 191.59 79.2465C192.501 81.6558 191.264 84.1953 190.027 86.5395C189.181 87.7116 188.335 88.4279 187.619 89.4046Z" fill="#001140"/>
<path d="M177.463 86.0837C178.83 81.786 173.166 77.6837 175.705 73.5814C175.77 73.5814 175.77 73.4512 175.9 73.386L176.031 73.4512C177.007 74.8186 176.747 76.7721 177.463 78.0093C177.723 78.0744 177.984 77.814 178.114 77.6186C178.7 76.3814 179.481 75.4698 180.067 74.3628H180.262C180.653 75.2093 180.523 76.2512 180.783 77.1628C181.76 79.7674 181.369 82.9581 179.155 84.586C178.57 85.107 178.049 85.5628 177.463 86.0837Z" fill="#001140"/>
<path d="M203.177 85.2372C202.396 84 201.941 82.5023 201.224 81.2651C200.573 78.7256 201.029 76.2512 200.508 73.6465C200.573 73.386 200.704 73.2558 200.769 72.9953C201.159 72.6046 201.485 72.0837 201.81 71.5628C202.071 71.3023 202.201 70.8465 202.526 70.7163L202.722 70.7814C203.959 73.4512 204.284 76.8372 206.367 79.1163C206.302 79.507 205.977 79.8977 205.847 80.3535C204.74 81.6558 203.894 83.5442 203.177 85.2372Z" fill="#001140"/>
<path d="M208.19 79.2465C206.953 77.8791 205.716 76.4465 205 74.5581C204.87 73.1907 204.284 71.7581 203.894 70.3907C203.373 69.8046 203.243 69.0884 203.698 68.4372C204.545 66.2233 206.042 63.9442 205.13 61.7302C204.87 61.2093 204.61 60.6233 204.805 60.1023C205.13 59.5814 205.847 59.3209 206.172 58.8C206.367 58.6698 206.498 58.5395 206.693 58.3442H206.823C207.409 59.1907 207.344 60.2326 207.604 61.2093C207.93 64.2046 207.669 67.5907 209.622 70.2605C210.013 71.1721 211.38 71.5628 210.924 72.6698C209.883 74.7535 208.581 76.7721 208.32 79.0512C208.32 79.0512 208.32 79.1814 208.19 79.2465Z" fill="#001140"/>
<path d="M193.543 79.0512C193.022 78.7907 192.371 78.4 191.785 78.1395C191.004 77.5535 190.353 76.6419 189.637 75.8605C189.116 75.014 188.53 74.1674 188.204 73.1907C188.139 72.8651 188.4 72.5395 188.53 72.214C188.595 72.1488 188.66 72.1488 188.725 72.1488C188.92 72.4744 189.181 72.7349 189.637 72.8651C189.897 72.8651 190.222 72.6698 190.418 72.5395C190.678 72.0837 190.678 71.3674 191.199 71.107H191.394C191.72 71.3674 192.241 71.8884 192.761 71.6279C193.282 71.3023 193.152 70.3907 193.738 70.0651C194.324 70.3256 194.975 71.3674 195.886 70.9116C196.147 70.7163 196.407 70.3907 196.472 70.1302C196.407 69.6093 196.147 68.8279 196.667 68.3721C196.798 68.307 196.928 68.2419 197.058 68.307C197.253 68.8279 196.928 69.414 196.732 69.9349C196.081 70.6512 195.886 71.8233 195.365 72.8651C194.194 74.8186 194.194 77.0326 193.543 79.0512Z" fill="#001140"/>
<path d="M169.065 78.7256C169.391 75.1442 168.089 71.4326 166.982 67.8512C166.917 66.2233 167.828 64.3349 168.87 62.9023C169.13 63.1628 169.065 63.6837 169.195 64.0744C169.065 64.2698 169.13 64.5302 169.325 64.7256C169.651 64.9209 170.042 64.9209 170.367 64.6605C171.018 64.2698 171.604 63.8139 172.32 63.4884L172.45 63.5535C172.646 64.7256 172.711 65.8326 173.231 67.0046C173.882 68.7628 175.054 70.5209 175.119 72.214C173.622 74.9488 171.669 77.1628 169.065 78.7256Z" fill="#001140"/>
<path d="M185.145 76.1209C184.559 75.3395 184.168 74.2326 183.387 73.5814C182.28 72.9302 182.866 71.4977 181.89 70.8465C181.759 69.8698 182.28 68.8279 182.41 67.8512C182.606 67.4605 182.41 67.0047 182.801 66.6791C183.517 67.2 184.363 67.9163 185.21 68.4372C185.275 68.5674 185.405 68.6326 185.535 68.6326C185.991 69.2186 185.796 70.0651 186.121 70.7163C186.186 70.7814 186.316 70.8465 186.382 70.9116C186.512 70.9116 186.707 70.7814 186.837 70.7814C187.033 70.586 187.163 70.2605 187.358 69.9349C187.423 69.9349 187.423 69.8698 187.553 69.8698L187.749 69.9349C187.749 70.3907 187.618 70.8465 187.553 71.3023C187.228 72.9302 185.991 74.2977 185.47 75.9256C185.405 75.9907 185.275 76.1209 185.275 76.1209H185.145Z" fill="#001140"/>
<path d="M178.309 74.8837C176.747 71.107 173.296 67.0698 173.687 62.9674C173.882 61.9907 174.143 61.0139 174.533 59.9721C174.598 59.907 174.598 59.907 174.729 59.8419C174.794 59.8419 174.859 59.9721 174.924 59.9721C176.291 61.6 178.83 63.0977 181.174 63.2279C181.825 63.9442 181.694 64.986 181.629 65.8326C180.718 68.893 180.718 72.4093 178.439 74.9488L178.309 74.8837Z" fill="#001140"/>
<path d="M198.881 73.3209C198.425 72.6046 198.035 71.7581 197.644 71.0419C198.1 69.8046 198.23 68.5023 198.425 67.2651C199.662 65.7023 200.639 63.8791 201.029 61.8605C201.615 61.4046 202.592 61.2093 203.373 60.8186C203.503 60.8186 203.568 60.8186 203.698 60.8837C204.48 63.7488 203.763 66.7442 201.876 69.2837C201.42 69.8047 201.029 70.3907 200.639 70.9767C200.118 71.8233 199.532 72.7349 198.881 73.4512V73.3209Z" fill="#001140"/>
<path d="M213.138 72.0837C212.617 71.7581 212.356 71.1721 211.901 70.7163C211.51 70.1953 211.185 69.6093 210.729 69.1535C210.403 68.6977 210.078 68.307 209.752 67.786C209.492 67.2 209.101 66.5488 209.101 65.8326C208.776 63.0326 208.971 60.1674 207.865 57.3674C207.669 57.107 207.669 56.8465 207.799 56.586C207.865 56.5209 207.93 56.586 207.995 56.5209C208.646 57.1721 209.036 57.8233 209.883 58.2791C210.403 58.8 210.859 59.386 211.445 59.9721C211.575 59.9721 211.771 59.9721 211.901 59.9721C212.031 59.907 212.096 59.8419 212.161 59.7116C212.161 58.6046 211.901 57.4977 212.356 56.3256H212.422H212.552C212.617 56.3907 212.682 56.5209 212.747 56.586C213.268 58.9302 214.309 60.8837 216.328 61.9256C216.653 62.9023 216.328 63.814 216.197 64.8558C215.416 67.0698 214.049 69.4791 213.528 71.8884C213.463 71.9535 213.463 72.0837 213.333 72.0837H213.268H213.138Z" fill="#001140"/>
<path d="M189.702 71.4977C189.311 70.3256 188.856 69.2837 187.619 68.7628C187.358 68.6977 187.163 68.9581 186.903 69.1535L186.707 69.0884C186.577 68.7628 186.512 68.4372 186.252 68.1767C185.405 67.4605 184.168 67.0698 183.648 66.093C182.28 65.1814 183.127 62.707 181.434 62.186C180.458 62.186 179.221 61.9907 178.244 61.3395C177.593 61.0791 177.138 60.6884 176.552 60.2977C175.901 59.7767 175.445 58.9953 174.989 58.214C174.794 57.693 174.403 57.1721 174.468 56.6512C175.705 56.3907 177.007 56.1302 178.244 56.1302C178.765 56.2605 179.481 56.1302 179.742 56.6512C180.588 58.5395 181.955 59.5814 183.322 60.8186C185.796 63.3581 189.897 64.4651 193.282 63.2279C194.845 62.8372 196.537 62.0558 197.774 61.0791C198.816 60.2326 199.923 59.2558 200.834 58.214C200.964 58.0186 201.029 57.7581 201.159 57.6279C202.071 55.6744 204.48 56 206.302 55.6093C206.367 55.6744 206.498 55.6744 206.628 55.7395C206.823 56.586 205.977 57.3023 205.586 57.9535C204.219 59.5814 201.68 60.3628 199.662 61.2093C200.053 63.0977 198.816 65.4419 197.449 66.614C196.472 67.2651 195.235 68.1116 195.3 69.5442C195.235 69.6093 195.235 69.6744 195.105 69.7395C194.454 69.6744 194.454 68.893 193.868 68.6326C193.673 68.6977 193.608 68.7628 193.543 68.6977C193.022 69.1535 192.827 70 192.306 70.3907C192.241 70.4558 192.111 70.3256 192.111 70.3256C191.915 70.1302 191.915 69.6093 191.525 69.6093C190.874 69.7395 190.613 70.3907 190.158 70.8465L189.702 71.4977Z" fill="#001140"/>
<path d="M162.49 67.7209L162.36 67.6558C163.206 62.6419 160.472 56.3256 164.834 52.1581C165.419 51.6372 165.81 50.8558 166.591 50.3349L166.721 50.4C166.591 52.4186 166.982 54.4372 167.438 56.4558C167.372 56.586 167.177 56.6512 166.982 56.7163C166.201 57.107 165.224 57.0419 164.768 57.693C164.703 57.8233 164.703 57.8884 164.703 58.0186L164.834 58.1488C165.81 58.214 166.852 57.4326 167.828 57.6279C168.414 58.4744 168.74 59.6465 168.674 60.6233C166.917 63.3581 165.615 66.4186 162.49 67.7209Z" fill="#001140"/>
<path d="M189.897 66.4837C189.116 66.4186 188.27 65.9628 187.684 65.3767C187.619 65.2465 187.553 65.1163 187.553 64.986C187.619 64.7907 187.814 64.7256 188.074 64.6605C190.288 65.7023 192.827 65.3767 195.04 64.0093C195.235 63.9442 195.431 64.0744 195.626 64.2047C195.756 64.4 195.691 64.6605 195.561 64.8558C194.324 65.8977 192.631 66.093 191.134 66.4186C190.743 66.4186 190.288 66.4837 189.897 66.4837Z" fill="white"/>
<path d="M189.897 66.4837C189.116 66.4186 188.27 65.9628 187.684 65.3767C187.619 65.2465 187.553 65.1163 187.553 64.986C187.619 64.7907 187.814 64.7256 188.074 64.6605C190.288 65.7023 192.827 65.3767 195.04 64.0093C195.235 63.9442 195.431 64.0744 195.626 64.2047C195.756 64.4 195.691 64.6605 195.561 64.8558C194.324 65.8977 192.631 66.093 191.134 66.4186C190.743 66.4186 190.288 66.4837 189.897 66.4837Z" stroke="white" stroke-width="0.0149" stroke-miterlimit="2.613"/>
<path d="M170.432 63.1628C170.237 61.2744 169.586 59.2558 169.195 57.2372C170.562 56.7163 171.995 56.7163 173.427 56.8465C173.622 57.2372 173.817 57.7581 173.687 58.214C172.45 59.7767 172.19 62.3163 170.432 63.1628Z" fill="#001140"/>
<path d="M193.543 61.8605C192.696 61.7302 191.85 61.4046 191.59 60.5581C191.525 60.1023 191.264 59.7116 191.199 59.1907C191.459 57.9535 190.874 56.3907 191.98 55.4791C193.087 55.2186 194.324 54.9581 195.235 54.1767C196.016 53.8512 196.472 53.2 196.798 52.4837C198.035 49.4233 195.626 46.2326 195.626 43.107C196.407 42.9116 197.188 42.7163 198.035 42.7163C199.271 42.586 200.639 42 201.355 41.0884C202.331 39.4605 201.745 37.3116 203.177 35.814C203.177 35.6186 203.112 35.5535 203.047 35.3581C202.917 35.2279 202.722 35.2279 202.526 35.293C199.857 36.5953 195.365 34.7721 194.259 38.4186C193.933 40.307 194.454 42.3256 194.649 44.214C195.04 45.7116 195.626 47.0791 195.756 48.5116L195.626 48.5767C192.436 47.4698 189.181 47.3395 186.121 49.0977L185.991 49.0326C185.796 47.7302 186.512 46.2326 186.577 44.8651C186.772 43.693 187.033 42.6512 186.902 41.4791C187.098 40.6977 186.772 39.9163 186.837 39.2C186.707 39.0698 186.707 38.8744 186.642 38.6791C186.251 37.8326 185.926 36.8558 185.08 36.4651C184.429 36.2698 183.778 36.0744 183.062 36.0093C181.499 35.8139 179.481 36.3349 178.114 35.0977H177.854L177.723 35.1628C177.593 35.293 177.593 35.4233 177.593 35.5535C178.895 36.8558 178.049 38.6791 178.7 40.1767C178.96 41.3488 179.546 42.1953 180.523 42.7814C182.215 43.5628 183.908 42.4558 185.6 43.0419C185.991 43.5628 185.535 44.2791 185.535 44.8651C185.34 47.8605 183.062 51.3767 185.275 53.9814C186.317 54.6977 187.619 54.7628 188.79 54.893C189.181 54.893 189.637 55.1535 189.897 55.4791C190.223 56.8465 189.962 58.2791 189.962 59.6465L189.376 60.8186C188.465 61.6651 186.968 61.9256 185.731 61.4046C185.145 61.2093 184.624 60.8837 184.168 60.5581L182.345 58.9302C181.825 58.4093 181.109 57.8233 180.978 56.9767L181.043 56.8465C182.345 56.9767 183.908 57.4977 185.015 58.3442C185.275 58.5395 185.535 58.8651 185.861 59.0605C186.056 59.1256 186.251 59.0605 186.382 58.8651C186.382 58.8 186.447 58.6698 186.512 58.6698C186.382 58.1488 185.991 57.9535 185.666 57.693C184.103 56.4558 182.02 55.8698 180.197 55.4139C180.002 55.0884 180.262 54.6977 180.132 54.3721L179.937 54.1767C179.481 53.9814 179.09 53.9814 178.57 54.2419C178.179 54.4372 178.439 55.0884 177.919 55.2837C176.682 55.3488 175.315 55.8046 174.078 55.3488C174.013 55.0884 174.013 54.893 174.013 54.6326C174.078 53.7209 174.078 52.8744 174.273 52.0279C174.403 51.7023 174.468 51.1814 174.794 51.0512C177.137 51.5721 179.611 52.614 181.694 53.9814C182.671 54.5023 183.322 55.6093 184.364 55.8698C184.559 55.8046 184.624 55.6744 184.689 55.5442C184.754 55.2837 184.559 55.0233 184.364 54.893C181.89 52.8744 178.765 50.9209 175.445 50.2046C175.25 50.0744 175.315 49.8791 175.38 49.6837C175.51 49.5535 175.575 49.4233 175.705 49.293C176.226 48.5116 177.658 48.5116 177.919 47.6L177.854 47.4698C177.593 47.2744 177.203 47.4698 176.877 47.6C176.552 47.6651 176.356 47.3395 176.226 47.0791C174.533 43.8233 174.924 40.307 174.989 37.2465C174.208 36.986 173.427 36.7256 173.036 36.0093C172.255 34.6419 172.32 33.1442 172.841 31.7116C173.362 30.5395 174.078 29.7581 175.184 29.1721C175.445 29.0419 175.705 29.0419 176.031 29.0419C177.137 29.0419 178.505 28.9767 179.286 29.8233C180.132 30.6698 180.132 32.7535 181.89 32.493C182.801 32.2977 183.192 31.6465 183.778 30.9302H184.038C184.559 31.2558 185.275 31.386 185.861 31.1256C186.382 30.9953 186.642 30.214 187.163 30.4744C187.619 30.8651 188.27 30.9302 188.725 30.8651C189.246 30.6698 189.832 30.3442 190.157 29.8233C190.288 29.8233 190.353 29.7581 190.418 29.8233C190.743 30.3442 191.264 30.9302 191.98 30.8C192.957 30.5395 193.347 29.7581 193.933 29.0419C194.063 29.0419 194.129 28.9767 194.194 29.0419C194.324 30.0186 195.04 30.8 196.147 30.9302L197.904 31.0605C198.555 30.9953 199.076 30.8651 199.532 30.9302C199.662 30.9953 199.727 30.8651 199.857 30.8651C201.29 30.2791 202.526 28.7163 204.154 28.9767C205.456 29.3674 206.432 30.214 207.018 31.386C207.279 32.493 207.083 33.7953 206.302 34.7721C206.107 35.0977 205.716 35.293 205.391 35.5535C205 35.8791 204.479 35.6837 204.024 35.8791C203.959 35.9442 203.828 35.9442 203.828 36.0744C205.065 38.8744 204.61 41.9349 203.568 44.8651C203.373 45.386 203.373 45.7767 202.917 46.0372C202.722 46.0372 202.461 45.9721 202.201 46.1023C202.136 46.1674 202.006 46.3628 202.006 46.5581C202.852 47.0791 204.479 47.2093 204.74 48.4465C202.266 50.2046 199.271 51.4419 197.709 53.7209C197.318 54.0465 196.863 54.3721 196.733 54.9581L196.863 55.0884C197.123 55.2837 197.449 55.2837 197.839 55.0884C199.792 52.8744 202.461 50.5953 205.586 49.4233L205.716 49.4884C205.977 49.8791 206.302 50.3349 206.498 50.9209C206.888 52.1581 207.083 53.3953 206.693 54.5674C205.847 54.7628 205 54.7628 204.154 54.8279C203.894 54.4372 203.633 53.7209 202.982 53.8512C202.461 54.0465 202.006 54.1767 201.81 54.6977C201.745 54.893 201.81 55.0884 201.615 55.2837C198.816 56.0651 195.691 56.9116 193.217 58.6698C193.087 58.8651 193.217 59.0605 193.412 59.1907C193.608 59.3209 193.803 59.386 193.998 59.2558C195.561 58.2791 197.384 57.4977 199.206 57.0419C199.662 56.9116 200.053 56.8465 200.378 56.8465C200.443 56.9116 200.508 56.9767 200.508 57.0419C200.378 57.4977 200.053 57.693 199.857 58.0837C198.946 58.9953 197.969 59.8419 196.602 60.6233C195.756 60.9488 194.584 61.6651 193.543 61.8605Z" fill="#001140"/>
<path d="M219.973 61.8605C218.151 60.8186 215.546 60.493 214.7 58.4744C214.505 57.7581 213.919 57.0419 214.179 56.3256C214.375 56.1953 214.7 56.3256 214.961 56.1302C215.091 56.0651 214.961 55.8698 214.896 55.8046C214.635 55.5442 214.244 55.4791 213.854 55.2837C211.445 51.6372 215.742 47.7302 214.049 43.8884L214.179 43.7581L215.677 44.1488C216.002 44.4093 216.067 44.9954 216.263 45.4512C216.653 46.2977 217.369 47.014 217.565 47.9256C219.778 52.5488 219.257 57.1721 220.038 61.8605H219.973Z" fill="#001140"/>
<path d="M210.859 57.8884L209.818 57.107C209.557 56.7814 208.971 56.3907 209.102 55.8046C209.622 55.7395 210.339 55.7395 210.859 55.9349C211.055 56 211.12 56.1302 211.25 56.3256L210.99 57.8884C210.99 57.8233 210.924 57.8884 210.859 57.8884Z" fill="#001140"/>
<path d="M168.804 56.2605C168.153 55.414 168.219 54.307 167.828 53.3302C167.633 51.1163 167.698 48.3814 169.455 46.5581C169.846 46.0372 170.106 45.5163 170.692 45.0605L171.083 44.4744C171.539 43.9535 171.929 43.3023 172.32 42.7163C172.906 42.0651 173.296 41.2186 174.078 40.7628H174.208C174.403 43.1721 174.989 45.6465 176.031 48.1209L175.054 49.0977C174.794 49.4884 174.533 49.8791 174.078 49.9442C172.515 49.8139 171.148 49.9442 169.586 50.5302C169.521 50.5953 169.39 50.6605 169.39 50.7256V50.9209L169.455 51.0512C169.586 51.1814 169.781 51.1814 169.911 51.2465C170.627 51.2465 171.343 50.986 172.059 51.0512C172.58 50.7256 173.231 50.7907 173.817 50.8558C173.882 50.8558 173.882 50.9209 174.012 50.986C173.817 52.5488 173.492 54.0465 173.492 55.6093C172.906 56.0651 172.059 55.8046 171.408 56.1302C170.888 56.0651 170.302 56.2605 169.716 56.3256C169.521 56.3256 169.39 56.4558 169.195 56.4558L168.804 56.2605Z" fill="#001140"/>
<path d="M211.25 54.6977C210.273 54.5023 209.362 54.6326 208.32 54.4372C208.32 52.614 207.8 50.7907 207.018 48.8372C208.646 47.6651 211.445 47.2744 212.682 45.7116C212.617 45.5814 212.487 45.5163 212.357 45.4512C210.208 45.6465 208.385 47.1442 206.302 47.9256C205.716 47.6 205.456 47.014 204.805 46.6884C204.675 46.5581 204.545 46.5581 204.479 46.4279C204.545 45.907 204.805 45.386 205 44.8651C205.977 42.0651 205.912 39.3302 205.586 36.5953C205.847 36.4651 206.107 36.2698 206.432 36.2698C207.083 38.614 208.19 41.2837 210.339 42.4558C211.055 42.9767 211.966 43.1721 212.812 43.4977C213.528 44.9302 213.268 46.5581 213.138 48.1209L212.617 49.6837C212.161 51.3116 212.161 53.3302 211.25 54.6977Z" fill="#001140"/>
<path d="M186.968 52.0279L186.837 51.9628C186.642 51.7674 186.642 51.4419 186.707 51.1163C187.358 50.2698 188.53 49.9442 189.637 49.8791L189.767 50.0093V50.1395C188.855 50.7256 187.944 51.3767 187.163 52.0279H186.968Z" fill="#001140"/>
<path d="M186.968 52.0279L186.837 51.9628C186.642 51.7674 186.642 51.4419 186.707 51.1163C187.358 50.2698 188.53 49.9442 189.637 49.8791L189.767 50.0093V50.1395C188.855 50.7256 187.944 51.3767 187.163 52.0279H186.968Z" stroke="#001140" stroke-width="0.0149" stroke-miterlimit="2.613"/>
<path d="M160.993 49.9442C160.862 49.3581 161.383 48.4465 161.318 47.7302C161.383 43.107 163.401 37.8977 167.372 35.4884C168.87 35.293 170.302 35.1628 171.864 34.6419L171.995 34.707C172.255 35.6186 172.646 36.5953 173.492 37.1814C173.687 37.3767 174.013 37.507 174.338 37.7023C174.533 37.8977 174.273 38.2233 174.143 38.4186L173.687 39.1349C173.427 39.6558 173.101 39.9163 172.841 40.3721C171.995 41.4791 171.148 42.5209 170.302 43.6279C168.219 46.5581 165.159 49.293 161.188 49.8791L160.993 49.9442Z" fill="#001140"/>
<path d="M219.387 43.5628C217.174 42.7163 214.83 42.1302 212.552 41.8046C210.989 41.4791 210.078 40.307 209.232 39.2C208.776 38.614 208.516 37.8326 208.19 37.1163C206.953 34.7721 209.883 32.1023 207.669 29.8233C207.279 29.4326 206.888 29.107 206.432 28.6512V28.5209L206.563 28.4558C207.474 28.586 208.45 28.7163 209.427 28.8465C211.315 28.9116 213.203 29.8884 214.83 30.7349C216.588 31.5814 216.979 33.7953 217.76 35.6186C218.346 38.2233 218.736 40.8279 219.778 43.3674L219.713 43.5628C219.648 43.6279 219.517 43.5628 219.387 43.5628Z" fill="#001140"/>
<path d="M188.009 42.4558C187.944 42.3907 187.879 42.3256 187.814 42.2605C187.814 41.7395 188.335 41.6093 188.595 41.3488C189.376 40.8279 190.223 40.5674 191.004 40.8279C191.134 40.893 191.329 40.9581 191.394 41.0884V41.2837L191.329 41.414C191.329 41.4791 191.199 41.4791 191.134 41.5442C190.288 41.2837 189.246 41.8047 188.53 42.3907C188.4 42.3256 188.205 42.5209 188.009 42.4558Z" fill="white"/>
<path d="M188.009 42.4558C187.944 42.3907 187.879 42.3256 187.814 42.2605C187.814 41.7395 188.335 41.6093 188.595 41.3488C189.376 40.8279 190.223 40.5674 191.004 40.8279C191.134 40.893 191.329 40.9581 191.394 41.0884V41.2837L191.329 41.414C191.329 41.4791 191.199 41.4791 191.134 41.5442C190.288 41.2837 189.246 41.8047 188.53 42.3907C188.4 42.3256 188.205 42.5209 188.009 42.4558Z" stroke="white" stroke-width="0.0149" stroke-miterlimit="2.613"/>
<path d="M182.215 42.3907C181.564 42.2605 180.653 42.1302 180.327 41.414C179.741 40.5023 179.611 39.4605 180.002 38.4837C180.392 37.8326 180.978 37.3116 181.825 36.986H181.955L182.02 37.0512C181.434 38.093 180.978 39.3302 181.304 40.5023C181.499 40.893 181.825 41.2186 182.345 41.3488C182.866 41.414 183.517 41.2837 183.908 40.8279C184.494 39.786 183.713 38.3535 184.754 37.507C184.819 37.507 184.884 37.5721 184.949 37.5721C185.535 38.4186 186.186 39.4605 185.926 40.5023C185.535 41.4791 184.689 41.8698 183.713 42.3256C183.192 42.3256 182.736 42.3256 182.215 42.3907Z" fill="#001140"/>
<path d="M182.215 42.3907C181.564 42.2605 180.653 42.1302 180.327 41.414C179.741 40.5023 179.611 39.4605 180.002 38.4837C180.392 37.8326 180.978 37.3116 181.825 36.986H181.955L182.02 37.0512C181.434 38.093 180.978 39.3302 181.304 40.5023C181.499 40.893 181.825 41.2186 182.345 41.3488C182.866 41.414 183.517 41.2837 183.908 40.8279C184.494 39.786 183.713 38.3535 184.754 37.507C184.819 37.507 184.884 37.5721 184.949 37.5721C185.535 38.4186 186.186 39.4605 185.926 40.5023C185.535 41.4791 184.689 41.8698 183.713 42.3256C183.192 42.3256 182.736 42.3256 182.215 42.3907Z" stroke="#001140" stroke-width="0.0149" stroke-miterlimit="2.613"/>
<path d="M197.188 41.9349C196.537 41.8698 195.951 41.5442 195.431 41.0884C194.845 40.0465 195.105 38.9395 195.496 37.8326C195.691 37.4419 196.147 37.1163 196.667 37.1814C196.733 37.2465 196.667 37.3767 196.733 37.3767C196.212 38.2233 196.147 39.1349 196.212 39.9814C196.472 40.5023 196.928 40.893 197.514 40.9581C197.904 41.0233 198.36 40.9581 198.62 40.5674C199.467 39.4605 198.1 37.9628 199.141 36.986C199.597 36.9209 200.118 36.9209 200.574 37.2465C201.029 37.6372 201.094 38.4186 201.094 38.9395C201.029 39.786 200.704 40.6977 199.857 41.0884C199.206 41.4791 198.62 41.5442 197.969 41.6744C197.709 41.8698 197.449 41.9349 197.188 41.9349Z" fill="#001140"/>
<path d="M197.188 41.9349C196.537 41.8698 195.951 41.5442 195.431 41.0884C194.845 40.0465 195.105 38.9395 195.496 37.8326C195.691 37.4419 196.147 37.1163 196.667 37.1814C196.733 37.2465 196.667 37.3767 196.733 37.3767C196.212 38.2233 196.147 39.1349 196.212 39.9814C196.472 40.5023 196.928 40.893 197.514 40.9581C197.904 41.0233 198.36 40.9581 198.62 40.5674C199.467 39.4605 198.1 37.9628 199.141 36.986C199.597 36.9209 200.118 36.9209 200.574 37.2465C201.029 37.6372 201.094 38.4186 201.094 38.9395C201.029 39.786 200.704 40.6977 199.857 41.0884C199.206 41.4791 198.62 41.5442 197.969 41.6744C197.709 41.8698 197.449 41.9349 197.188 41.9349Z" stroke="#001140" stroke-width="0.0149" stroke-miterlimit="2.613"/>
<path d="M188.79 40.2419C188.66 40.1767 188.595 40.1767 188.595 40.0465C188.53 39.6558 188.921 39.4605 189.116 39.2C189.246 39.1349 189.311 39.0698 189.441 39.0046C189.637 39.0046 189.832 38.8744 190.027 39.0046C190.027 39.0046 190.092 39.0698 190.092 39.1349C189.767 39.5907 189.376 40.1116 188.79 40.2419Z" fill="white"/>
<path d="M188.79 40.2419C188.66 40.1767 188.595 40.1767 188.595 40.0465C188.53 39.6558 188.921 39.4605 189.116 39.2C189.246 39.1349 189.311 39.0698 189.441 39.0046C189.637 39.0046 189.832 38.8744 190.027 39.0046C190.027 39.0046 190.092 39.0698 190.092 39.1349C189.767 39.5907 189.376 40.1116 188.79 40.2419Z" stroke="white" stroke-width="0.0149" stroke-miterlimit="2.613"/>
<path d="M161.448 35.814C161.644 34.5116 161.774 33.0791 162.099 31.7116C163.011 29.4326 164.182 27.414 165.81 26.0465C166.526 25.4605 167.372 24.9395 168.349 24.4837L169.325 24.093L169.521 24.1581C168.739 25.4605 167.763 26.9581 166.917 28.5209C166.396 29.4977 165.289 30.0186 164.768 30.9953C164.899 31.1907 164.964 31.3209 165.159 31.386C166.201 30.9953 167.242 30.6698 168.414 30.5395C169.846 30.0837 171.083 29.6279 172.385 30.4744C172.45 31.3209 172.06 32.1674 171.864 33.014C171.343 33.5349 170.497 33.4046 169.781 33.6C167.047 34.3814 164.313 34.4465 161.578 35.6186L161.448 35.814Z" fill="#001140"/>
<path d="M185.6 35.3581C184.233 34.5116 182.801 34.5116 181.434 34.5767C181.434 34.5767 181.369 34.4465 181.304 34.3814C181.239 34.0558 181.564 33.9256 181.825 33.7953C182.671 33.2744 183.713 32.7535 184.754 32.5581C185.405 32.5581 186.382 32.4279 186.837 33.0791C187.293 33.6 187.228 34.3163 186.968 34.9674C186.642 35.3581 186.056 35.293 185.6 35.3581Z" fill="white"/>
<path d="M185.6 35.3581C184.233 34.5116 182.801 34.5116 181.434 34.5767C181.434 34.5767 181.369 34.4465 181.304 34.3814C181.239 34.0558 181.564 33.9256 181.825 33.7953C182.671 33.2744 183.713 32.7535 184.754 32.5581C185.405 32.5581 186.382 32.4279 186.837 33.0791C187.293 33.6 187.228 34.3163 186.968 34.9674C186.642 35.3581 186.056 35.293 185.6 35.3581Z" stroke="white" stroke-width="0.0149" stroke-miterlimit="2.613"/>
<path d="M194.649 35.3581C194.389 35.3581 194.063 35.1628 193.868 34.8372C193.673 34.3814 193.412 33.9256 193.738 33.4047C194.129 32.6884 195.105 32.1674 195.951 32.1023C196.667 32.0372 197.384 32.1023 198.035 32.2977C198.36 32.3628 198.751 32.493 198.881 32.8186C198.946 32.9488 199.011 33.014 199.011 33.1442L198.881 33.2744C198.686 33.2744 198.49 33.2093 198.295 33.1442C196.993 33.1442 196.407 34.4465 195.561 35.0977C195.235 35.2279 194.975 35.3581 194.649 35.3581Z" fill="white"/>
<path d="M194.649 35.3581C194.389 35.3581 194.063 35.1628 193.868 34.8372C193.673 34.3814 193.412 33.9256 193.738 33.4047C194.129 32.6884 195.105 32.1674 195.951 32.1023C196.667 32.0372 197.384 32.1023 198.035 32.2977C198.36 32.3628 198.751 32.493 198.881 32.8186C198.946 32.9488 199.011 33.014 199.011 33.1442L198.881 33.2744C198.686 33.2744 198.49 33.2093 198.295 33.1442C196.993 33.1442 196.407 34.4465 195.561 35.0977C195.235 35.2279 194.975 35.3581 194.649 35.3581Z" stroke="white" stroke-width="0.0149" stroke-miterlimit="2.613"/>
<path d="M176.812 35.1628C176.682 35.1628 176.682 35.0977 176.617 35.0326C176.877 34.0558 177.658 33.2093 177.137 32.1674C176.942 31.7767 176.291 31.907 176.031 31.5163C175.966 31.4512 176.031 31.386 176.096 31.3209C176.812 30.7349 177.723 30.8 178.57 31.1256L179.286 31.4512C179.611 31.7116 179.741 32.2977 179.741 32.6884C179.741 32.9488 179.546 33.2093 179.221 33.2744C177.984 33.3395 177.723 34.6419 176.812 35.1628Z" fill="white"/>
<path d="M176.812 35.1628C176.682 35.1628 176.682 35.0977 176.617 35.0326C176.877 34.0558 177.658 33.2093 177.137 32.1674C176.942 31.7767 176.291 31.907 176.031 31.5163C175.966 31.4512 176.031 31.386 176.096 31.3209C176.812 30.7349 177.723 30.8 178.57 31.1256L179.286 31.4512C179.611 31.7116 179.741 32.2977 179.741 32.6884C179.741 32.9488 179.546 33.2093 179.221 33.2744C177.984 33.3395 177.723 34.6419 176.812 35.1628Z" stroke="white" stroke-width="0.0149" stroke-miterlimit="2.613"/>
<path d="M203.178 33.6651C202.982 33.6 202.982 33.5349 202.852 33.4046C202.722 32.8186 202.331 32.2977 201.876 31.9721C201.615 31.907 201.159 31.9721 200.899 31.7116C200.899 31.6465 200.834 31.5814 200.834 31.5163C201.029 31.1907 201.355 30.9953 201.68 30.7349C202.592 30.3442 203.503 30.0186 204.48 30.5395C204.74 30.7349 205.326 30.9302 205.196 31.386C205.066 31.5814 204.805 31.6465 204.61 31.5814C204.349 31.4512 204.089 31.5163 203.763 31.7116C203.112 32.2977 203.763 33.1442 203.373 33.7302C203.308 33.7302 203.178 33.6651 203.178 33.6651Z" fill="white"/>
<path d="M203.178 33.6651C202.982 33.6 202.982 33.5349 202.852 33.4046C202.722 32.8186 202.331 32.2977 201.876 31.9721C201.615 31.907 201.159 31.9721 200.899 31.7116C200.899 31.6465 200.834 31.5814 200.834 31.5163C201.029 31.1907 201.355 30.9953 201.68 30.7349C202.592 30.3442 203.503 30.0186 204.48 30.5395C204.74 30.7349 205.326 30.9302 205.196 31.386C205.066 31.5814 204.805 31.6465 204.61 31.5814C204.349 31.4512 204.089 31.5163 203.763 31.7116C203.112 32.2977 203.763 33.1442 203.373 33.7302C203.308 33.7302 203.178 33.6651 203.178 33.6651Z" stroke="white" stroke-width="0.0149" stroke-miterlimit="2.613"/>
<path d="M181.825 31.6465C181.759 31.5814 181.629 31.5814 181.499 31.5163C181.434 31.4512 181.369 31.386 181.304 31.2558C181.174 30.4093 180.653 29.4326 180.002 28.9767C178.244 28.0651 176.356 28.0651 174.598 28.7814C174.143 29.107 173.557 29.2372 173.036 28.9767C171.474 28.586 169.911 28.7814 168.414 29.1721L168.349 28.9767C168.87 28.3907 169.195 27.3488 169.911 26.7628C170.432 25.1349 171.278 24.093 172.645 23.2465C173.817 23.0512 174.989 22.7256 176.226 23.0512C176.942 23.7023 177.528 24.2884 178.049 25.1349C179.416 27.2837 180.718 29.107 183.062 30.2791C183.192 30.4744 183.127 30.6698 182.996 30.8651C182.801 31.1907 182.476 31.4512 182.085 31.5814C182.085 31.6465 181.955 31.5814 181.825 31.6465Z" fill="#001140"/>
<path d="M197.774 29.9535C197.058 29.8233 196.147 29.5628 195.756 28.8465C195.561 28.4558 195.886 28 195.951 27.5442C196.472 26.307 197.188 25.1349 198.685 24.9395C200.769 25.1349 202.396 22.5954 204.219 22.9209C205.781 23.5721 206.823 24.8093 208.581 25.3953C208.581 25.3953 208.581 25.4605 208.646 25.5907L208.581 25.7209C207.669 26.5023 206.758 27.5442 205.326 27.6093C204.805 27.8047 204.219 27.8047 203.633 27.9349C203.047 28 202.396 28.4558 201.875 28.6512C201.68 28.7163 201.55 28.7814 201.355 28.9116C200.248 29.6279 199.011 29.7581 197.774 29.9535Z" fill="#001140"/>
<path d="M184.689 29.8884L184.559 29.8233C184.038 29.4977 183.257 29.3023 182.736 28.9116C182.085 28.3907 181.499 27.7395 180.848 27.1535C179.872 26.307 179.546 24.614 178.7 23.5721C178.374 23.0512 177.789 22.6605 177.203 22.2046C176.812 21.9442 176.356 21.6837 175.901 21.3581C174.078 20.3814 172.45 19.1442 171.995 16.9953V16.8C172.06 16.7349 172.125 16.7349 172.19 16.6698C174.859 16.8651 177.593 16.6047 180.262 16.6047C181.044 16.4744 181.564 17.1256 182.215 17.386C182.411 19.2744 182.411 21.3581 183.517 23.1814C184.494 25.0698 185.08 27.1535 186.252 28.8465C186.382 29.0419 186.382 29.1721 186.252 29.3674C185.861 29.693 185.275 29.8884 184.689 29.8884Z" fill="#001140"/>
<path d="M188.595 29.8884C187.684 29.7581 187.423 28.6512 186.837 28C185.6 25.4605 184.168 22.986 183.517 20.3814C183.062 17.4512 184.559 14.4558 182.736 11.5256C183.582 11.7209 184.559 12.307 185.47 12.307C186.512 12.893 187.228 13.7395 187.879 14.7814C188.595 16.214 189.246 17.6465 190.092 18.7535C191.134 19.4698 191.525 20.9674 191.525 22.3349C191.199 23.9628 190.743 25.5907 190.613 27.2837C190.353 27.8698 190.157 28.6512 189.767 29.1721C189.506 29.4977 189.181 29.8884 188.725 29.9535L188.595 29.8884Z" fill="#001140"/>
<path d="M192.045 29.1721C191.72 28.9767 191.655 28.586 191.394 28.3256C191.394 28.1953 191.524 28.0651 191.59 27.8698C191.915 26.0465 192.11 24.1581 193.022 22.4651C193.673 21.4233 194.259 20.3814 195.235 19.7302C195.365 19.6 195.561 19.4698 195.756 19.3395C198.816 17.5163 202.331 18.2977 205.586 17.8419L205.781 17.907C205.847 18.0372 205.912 18.1023 205.781 18.2326C204.935 19.7302 203.633 20.6419 202.526 21.7488C202.331 22.0093 202.006 22.1395 201.81 22.2698L200.704 22.9209C199.141 23.9628 196.993 24.093 195.431 25.2651C195.04 25.5907 194.779 25.9814 194.324 26.3721C193.933 26.893 193.477 27.5442 193.087 28.1302C192.826 28.6512 192.501 29.0419 192.045 29.1721Z" fill="#001140"/>
<path d="M212.617 28.586C211.315 28.0651 209.818 28 208.646 27.4791L208.711 27.2837C208.906 27.0884 209.167 27.0233 209.362 26.8279C209.883 26.3721 210.794 26.1767 211.12 25.5907C211.12 25.2 210.729 25.0698 210.469 24.9395C208.06 24.6791 206.758 22.7907 204.61 21.9442C204.479 21.7488 204.61 21.4233 204.74 21.293C204.935 21.0977 205.261 20.9674 205.521 21.0326C206.758 21.2279 208.06 20.7721 209.297 20.8372C210.534 20.707 211.901 21.2279 212.812 22.0744C213.333 22.7907 213.789 23.5721 214.375 24.1581C214.961 25.0698 216.393 25.3953 216.848 26.3721C216.002 27.2186 214.31 27.414 213.463 28.3907C213.138 28.4558 212.877 28.586 212.617 28.586Z" fill="#001140"/>
<path d="M192.566 20.6419C192.175 19.6 191.394 18.7535 190.939 17.7116L190.613 16.9953C191.134 15.7581 191.915 14.8465 192.892 14.0651L193.543 13.5442C194.714 12.8279 195.561 11.6558 196.798 11.0047C196.993 12.0465 196.928 13.0884 197.058 14.1302C196.667 16.7349 194.779 18.8186 193.087 20.2512C192.957 20.4465 192.826 20.6419 192.566 20.6419Z" fill="#001140"/>
<path d="M197.318 17.386C197.383 16.9954 197.709 16.7349 197.839 16.4093C198.555 15.0419 200.378 14.8465 201.745 14.9116C201.875 15.3674 201.615 15.9535 201.355 16.3442C200.443 16.8651 199.141 16.5395 198.165 17.1907C197.904 17.2558 197.644 17.386 197.318 17.386Z" fill="#001140"/>
<path d="M1.23682 64.0744L7.55153 33.9907H13.736L8.52803 58.9953H23.8266L22.7199 64.0744H1.23682Z" fill="#001140"/>
<path d="M22.9802 64.4H0.846191L7.29111 33.6651H14.1266L8.91861 58.6698H24.2171L22.9802 64.4ZM1.62739 63.7488H22.4594L23.4359 59.3209H8.13741L13.3454 34.3163H7.81191L1.62739 63.7488Z" fill="#001140"/>
<path d="M52.4054 36.986C50.1269 34.707 47.1323 33.5349 43.4216 33.5349C40.6223 33.5349 38.1485 34.1209 36.0002 35.2279C33.8518 36.3349 32.029 37.8977 30.5968 39.8512C29.1646 41.8046 28.123 44.0837 27.4069 46.6884C26.8861 48.6419 26.6257 50.5302 26.6257 52.2884C26.6257 54.1767 27.0163 56.1302 27.7975 57.9535C28.5787 59.8419 29.9458 61.4047 31.8337 62.707C33.7216 64.0093 36.0653 64.5953 38.8646 64.5953C42.1196 64.5953 44.984 63.814 47.5229 62.186C50.0618 60.5581 52.0799 58.2791 53.5772 55.3488C55.0745 52.3535 55.7906 49.293 55.7906 46.1674C55.8557 42.3907 54.6839 39.3302 52.4054 36.986ZM48.1739 52.8093C47.1974 55.0233 45.8954 56.7163 44.333 57.8233C42.7706 58.9302 41.2082 59.4512 39.5156 59.4512C37.4975 59.4512 35.8049 58.7349 34.5679 57.3674C33.331 56 32.68 54.2419 32.68 52.1581C32.68 48.7721 33.6565 45.7116 35.5445 42.9116C37.4324 40.1116 39.9062 38.6791 42.9008 38.6791C44.8538 38.6791 46.4813 39.3302 47.7833 40.6977C49.0853 42.0651 49.6712 43.8884 49.6712 46.2326C49.6712 48.3814 49.1504 50.5953 48.1739 52.8093Z" fill="#001140"/>
<path d="M38.8646 64.9209C35.9351 64.9209 33.5264 64.2698 31.6385 62.9674C29.6204 61.6 28.2533 59.9721 27.4721 58.0837C26.6909 56.2605 26.3003 54.2419 26.3003 52.2884C26.3003 50.4651 26.5607 48.5767 27.0815 46.6233C27.7976 43.8884 28.9043 41.6093 30.3365 39.6558C31.8338 37.6372 33.6566 36.0744 35.87 34.9674C38.0834 33.7953 40.6223 33.2093 43.4216 33.2093C47.1974 33.2093 50.2571 34.3814 52.6659 36.7256C55.0095 39.1349 56.1813 42.3256 56.1162 46.1674C56.1162 49.3581 55.335 52.4837 53.8377 55.4791C52.3404 58.4744 50.2571 60.8186 47.6531 62.4465C45.1142 64.0744 42.2498 64.9209 38.8646 64.9209ZM43.4216 33.8605C40.7525 33.8605 38.2787 34.4465 36.1304 35.4884C34.0472 36.5953 32.2244 38.093 30.8573 40.0465C29.4902 41.9349 28.4486 44.1488 27.7325 46.7535C27.2117 48.6419 26.9513 50.5302 26.9513 52.2884C26.9513 54.1767 27.3419 56.0651 28.1231 57.8233C28.8392 59.6465 30.1412 61.1442 32.0291 62.4465C33.7868 63.6837 36.0653 64.2698 38.8646 64.2698C42.1196 64.2698 44.8538 63.4884 47.3276 61.9256C49.8014 60.3628 51.8196 58.0837 53.2518 55.2186C54.684 52.3535 55.4001 49.293 55.4001 46.1674C55.4652 42.5209 54.3585 39.5256 52.08 37.2465C49.9316 34.9674 47.0021 33.8605 43.4216 33.8605ZM39.5156 59.7767C37.4324 59.7767 35.6096 58.9953 34.3076 57.5628C33.0056 56.1302 32.3546 54.307 32.3546 52.1581C32.3546 48.7721 33.3311 45.5814 35.2841 42.7163C37.2371 39.786 39.776 38.3535 42.9008 38.3535C44.984 38.3535 46.6766 39.0698 48.0437 40.5023C49.3457 41.8698 49.9967 43.7581 49.9967 46.2326C49.9967 48.3814 49.4759 50.6605 48.4994 52.9395C47.5229 55.2186 46.1558 56.9116 44.5283 58.0837C42.9008 59.1907 41.2733 59.7767 39.5156 59.7767ZM42.9008 39.0047C40.0364 39.0047 37.6277 40.3721 35.8049 43.107C33.917 45.907 33.0056 48.9023 33.0056 52.1581C33.0056 54.1767 33.5915 55.8047 34.8284 57.1721C36.0002 58.4744 37.6277 59.1256 39.5156 59.1256C41.1431 59.1256 42.6404 58.6047 44.1377 57.5628C45.635 56.4558 46.937 54.8279 47.8484 52.6791C48.8249 50.4651 49.3457 48.3163 49.3457 46.2326C49.3457 43.9535 48.7598 42.1953 47.5229 40.893C46.3511 39.5907 44.7887 39.0047 42.9008 39.0047Z" fill="#001140"/>
<path d="M39.711 25.7209H44.7888L43.7472 30.7349H38.6694L39.711 25.7209Z" fill="#001140"/>
<path d="M44.0076 31.0605H38.2788L39.4506 25.3953H45.1794L44.0076 31.0605ZM39.06 30.4093H43.4868L44.3982 26.0465H39.9714L39.06 30.4093Z" fill="#001140"/>
<path d="M48.0438 25.7209H53.0565L52.0149 30.7349H47.0022L48.0438 25.7209Z" fill="#001140"/>
<path d="M52.2753 31.0605H46.6116L47.7834 25.3953H53.4471L52.2753 31.0605ZM47.3928 30.4093H51.7545L52.6659 26.0465H48.3042L47.3928 30.4093Z" fill="#001140"/>
<path d="M84.6952 64.0744H78.4456L77.7946 42.1302L66.7927 64.0744H60.4129L59.3062 33.9907H65.3605L65.6209 55.0233L75.9067 33.9907H82.612L83.3281 54.8279L93.2233 33.9907H99.2125L84.6952 64.0744Z" fill="#001140"/>
<path d="M84.8906 64.4H78.1202L77.4692 43.4326L66.9229 64.4H60.0874L58.9807 33.6651H65.686L65.9464 53.6558L75.7115 33.6651H82.9376L83.5886 53.4605L93.0281 33.6651H99.7334L84.8906 64.4ZM78.7712 63.7488H84.5L98.6918 34.3163H93.4187L83.0678 56.1954L82.2866 34.3163H76.1021L65.2954 56.3907L65.035 34.3163H59.6317L60.7384 63.7488H66.5974L78.0551 40.8279L78.7712 63.7488Z" fill="#001140"/>
<path d="M96.4133 64.0744L102.663 33.9907H124.927L123.886 39.0047H107.806L106.374 45.8419H121.933L120.891 50.8558H105.332L103.444 59.0605H120.956L119.914 64.0744H96.4133Z" fill="#001140"/>
<path d="M120.175 64.4H96.0227L102.403 33.6651H125.318L124.146 39.3302H108.066L106.764 45.5163H122.323L121.151 51.1814H105.592L103.835 58.7349H121.347L120.175 64.4ZM96.8039 63.7488H119.654L120.565 59.386H103.054L105.072 50.5302H120.631L121.542 46.1674H105.983L107.545 38.6791H123.625L124.537 34.3163H102.923L96.8039 63.7488Z" fill="#001140"/>
<path d="M148.949 64.0744H143.155L135.017 43.8884L130.786 64.0744H125.057L131.307 33.9907H137.101L145.238 54.1116L149.47 33.9907H155.198L148.949 64.0744Z" fill="#001140"/>
<path d="M149.209 64.4H142.96L135.148 44.9953L131.111 64.4H124.732L131.111 33.6651H137.361L145.173 53.0047L149.209 33.6651H155.589L149.209 64.4ZM143.35 63.7488H148.689L154.808 34.3163H149.73L145.303 55.2186L136.84 34.3163H131.502L125.383 63.7488H130.46L134.887 42.7814L143.35 63.7488Z" fill="#001140"/>
<path d="M233.905 64.0744H227.72L234.035 33.9907H246.274C248.422 33.9907 250.18 34.2512 251.417 34.7721C252.654 35.293 253.695 36.1395 254.411 37.3116C255.127 38.4837 255.518 39.9163 255.518 41.5442C255.518 43.0419 255.192 44.5395 254.607 45.9721C254.021 47.4046 253.305 48.5767 252.458 49.4233C251.612 50.2698 250.701 50.9209 249.724 51.3767C248.748 51.8326 247.446 52.1581 245.753 52.4186C244.776 52.5488 242.954 52.614 240.285 52.614H236.313L233.905 64.0744ZM237.29 47.6651H239.178C242.433 47.6651 244.646 47.4698 245.688 47.0791C246.795 46.6884 247.641 46.0372 248.292 45.1256C248.943 44.214 249.203 43.2372 249.203 42.1302C249.203 41.414 249.073 40.8279 248.748 40.3721C248.422 39.9163 247.966 39.5907 247.38 39.3302C246.795 39.1349 245.493 39.0047 243.474 39.0047H239.048L237.29 47.6651Z" fill="#001140"/>
<path d="M234.165 64.4H227.33L233.775 33.6651H246.274C248.487 33.6651 250.245 33.9256 251.547 34.4465C252.849 35.0326 253.956 35.9442 254.672 37.1163C255.453 38.3535 255.843 39.8512 255.843 41.5442C255.843 43.0419 255.518 44.6047 254.932 46.1023C254.346 47.6 253.565 48.7721 252.719 49.6837C251.872 50.5302 250.896 51.2465 249.919 51.7023C248.943 52.1581 247.641 52.4837 245.883 52.7442C244.907 52.8744 243.019 52.9395 240.35 52.9395H236.639L234.165 64.4ZM228.111 63.7488H233.644L236.053 52.2884H240.285C242.954 52.2884 244.776 52.2233 245.688 52.093C247.446 51.8326 248.682 51.507 249.594 51.0512C250.505 50.5954 251.417 50.0093 252.263 49.1628C253.044 48.3814 253.76 47.2093 254.346 45.8419C254.932 44.4093 255.258 42.9767 255.258 41.5442C255.258 39.9814 254.932 38.614 254.216 37.507C253.565 36.4 252.588 35.6186 251.352 35.0977C250.18 34.5767 248.487 34.3163 246.339 34.3163H234.36L228.111 63.7488ZM239.178 47.9907H236.899L238.787 38.6791H243.474C245.427 38.6791 246.795 38.8093 247.511 39.0047C248.227 39.3302 248.682 39.6558 249.008 40.1767C249.333 40.6326 249.529 41.2837 249.529 42.1302C249.529 43.3674 249.203 44.4093 248.552 45.3209C247.836 46.2977 246.925 47.014 245.818 47.4047C244.711 47.7954 242.498 47.9907 239.178 47.9907ZM237.681 47.3395H239.178C243.214 47.3395 244.907 47.014 245.558 46.7535C246.599 46.3628 247.38 45.7767 248.031 44.9302C248.617 44.1488 248.878 43.2372 248.878 42.1302C248.878 41.414 248.748 40.9581 248.487 40.5674C248.227 40.1767 247.836 39.9163 247.25 39.6558C246.664 39.4605 245.297 39.3302 243.474 39.3302H239.308L237.681 47.3395Z" fill="#001140"/>
<path d="M260.01 33.9907H266.195L260.987 58.9953H276.285L275.243 64.0093H253.695L260.01 33.9907Z" fill="#001140"/>
<path d="M275.504 64.3349H253.305L259.75 33.6651H266.585L261.377 58.6698H276.676L275.504 64.3349ZM254.086 63.6837H274.983L275.894 59.3209H260.596L265.804 34.3163H260.27L254.086 63.6837Z" fill="#001140"/>
<path d="M301.739 57.4326H289.826L286.245 64.0744H279.865L296.857 33.9907H303.692L308.575 64.0744H302.716L301.739 57.4326ZM300.958 52.4837L299.2 40.3721L291.974 52.4837H300.958Z" fill="#001140"/>
<path d="M308.965 64.4H302.455L301.479 57.7581H290.021L286.441 64.4H279.28L296.661 33.6651H303.952L304.018 33.9256L308.965 64.4ZM302.976 63.7488H308.184L303.432 34.3163H297.052L280.451 63.7488H286.05L289.63 57.107H301.999L302.976 63.7488ZM301.348 52.8093H291.388L299.395 39.3953L301.348 52.8093ZM292.56 52.1581H300.567L299.005 41.3488L292.56 52.1581Z" fill="#001140"/>
<path d="M319.902 64.0744H313.717L316.126 52.3535L307.858 34.0558H314.434L318.144 42.5209C319.056 44.5395 319.642 46.0372 319.902 46.9488C320.423 46.0372 321.009 45.1256 321.66 44.1488L324.524 40.1767L328.756 34.1209H335.917L322.115 53.0698L319.902 64.0744Z" fill="#001140"/>
<path d="M320.162 64.4H313.327L315.801 52.4186L307.338 33.7302H314.629L318.405 42.3907C319.121 43.9535 319.642 45.1907 319.967 46.1674C320.358 45.5163 320.813 44.8651 321.334 43.9535L324.199 39.9814L328.495 33.7954H336.568L322.441 53.2L320.162 64.4ZM314.108 63.7488H319.642L321.855 52.8744L335.266 34.4465H328.886L324.719 40.3721L321.855 44.3442C321.074 45.5163 320.553 46.2977 320.097 47.1442L319.707 47.7954L319.511 47.0791C319.251 46.1674 318.665 44.6047 317.754 42.7163L314.108 34.4465H308.249L316.321 52.3535V52.4837L314.108 63.7488Z" fill="#001140"/>
<path d="M258.578 83.0233C256.69 83.0233 255.713 82.0465 255.713 80.0279C255.713 78.0744 256.429 76.3814 257.862 74.9488C259.294 73.5163 260.596 72.4093 261.833 71.7581C263.07 71.107 264.176 70.7814 265.283 70.7814C266.26 70.7814 266.976 71.107 267.562 71.693C268.082 72.3442 268.343 73.2558 268.343 74.4279C268.343 75.014 268.278 75.5349 268.213 76.0558C268.147 76.5767 268.017 77.0977 267.822 77.6837C267.496 78.7907 266.976 80.0279 266.194 81.4605C265.413 82.8279 263.916 84.9116 261.768 87.6465C259.619 90.3814 256.755 91.7488 253.174 91.7488C251.352 91.7488 249.985 91.293 249.008 90.3814C248.032 89.4698 247.511 88.2326 247.511 86.6046C247.511 84.4558 248.032 82.6326 249.073 81.1349C250.115 79.6372 250.896 78.5302 251.482 77.9442L252.719 76.6419L253.891 75.5349L255.844 73.907L257.666 72.8C258.057 72.5395 258.448 72.4093 258.903 72.3442L259.164 72.4744C259.164 72.6047 258.773 72.8651 257.992 73.3209C257.406 73.5814 256.625 74.2326 255.583 75.3395C254.607 76.3814 253.825 77.3581 253.109 78.3349C252.589 79.1814 252.133 79.9628 251.872 80.614C251.547 81.2651 251.287 81.9814 251.091 82.8279C250.961 83.2186 250.896 83.6093 250.831 83.9349C250.766 84.2605 250.766 84.6512 250.766 85.0419C250.766 86.2791 251.221 87.3209 252.068 88.1674C252.914 88.9488 254.021 89.4047 255.388 89.4047C256.169 89.4047 257.015 89.1442 258.057 88.6884C259.099 88.2326 260.205 87.4512 261.507 86.4093C262.809 85.3023 263.981 83.7395 265.088 81.6558C266.194 79.5721 266.715 77.6186 266.715 75.7953C266.715 73.2558 265.674 72.0186 263.656 72.0186C262.679 72.0186 261.703 72.4093 260.726 73.1256C259.75 73.8419 258.968 74.6884 258.448 75.7302C257.862 76.7721 257.601 77.7488 257.601 78.7256C257.601 79.5721 257.797 80.2233 258.252 80.7442C258.708 81.2651 259.294 81.5256 260.075 81.5256C260.531 81.5256 260.791 81.5256 260.986 81.4605C261.182 81.3953 261.442 81.3302 261.898 81.2C262.288 81.0698 262.744 80.8093 263.2 80.4186L263.916 79.8977L264.046 80.093L263.786 80.4186L263.525 80.7442L262.549 81.6558C262.028 82.0465 261.442 82.4372 260.661 82.6977C259.815 82.893 259.164 83.0233 258.578 83.0233Z" fill="#001140"/>
<path d="M268.148 82.307C268.278 82.0465 268.408 81.8512 268.473 81.5256L268.408 81.2H271.988L272.054 81.5907C272.054 81.786 271.988 81.9814 271.793 82.307L270.817 83.6744L272.054 82.6326L273.551 81.5907C274.267 81.1349 275.113 80.8744 276.025 80.8744C276.676 80.8744 277.196 81.0698 277.652 81.3953C278.043 81.7209 278.238 82.1767 278.238 82.6326C278.238 83.0233 278.043 83.5442 277.652 84.1953L276.155 86.2791L274.527 88.493C274.267 88.8837 274.137 89.2093 274.137 89.4698C274.137 89.7953 274.332 89.9256 274.723 89.9256C275.113 89.9256 275.634 89.6651 276.35 89.1442C277.066 88.6233 277.782 87.9721 278.498 87.1256L279.41 86.0837L279.996 85.1721C280.061 84.9116 280.191 84.8465 280.386 84.7814L280.582 84.9116L280.386 85.3023L279.67 86.2139C278.759 87.5163 277.652 88.6884 276.285 89.6651C274.918 90.6419 273.746 91.1628 272.835 91.1628C271.533 91.1628 270.882 90.6419 270.882 89.5349C270.882 89.2093 271.012 88.7535 271.337 88.1674C271.598 87.6465 272.249 86.7349 273.16 85.4977L274.853 83.3488C274.983 83.0884 275.113 82.8279 275.178 82.5023C275.178 82.1116 274.983 81.9163 274.592 81.9163C273.811 81.9163 272.9 82.307 271.988 83.1535L270.947 84.0651L270.231 84.7814L266.129 90.8372H262.419L268.148 82.307Z" fill="#001140"/>
<path d="M290.998 73.9721C290.998 74.1674 290.802 74.6233 290.412 75.2093L282.014 87.6465C281.363 88.493 281.037 89.0791 281.037 89.4698C281.037 89.8605 281.233 90.0558 281.558 90.0558C282.144 90.0558 283.055 89.4698 284.292 88.3628C285.529 87.2558 286.375 86.3442 286.701 85.8233L287.222 84.9767L287.482 84.8465L287.612 84.9767L287.417 85.3674L286.636 86.3442L285.855 87.2558L283.641 89.5349C282.535 90.6419 281.233 91.2279 279.8 91.2279C279.084 91.2279 278.563 91.0977 278.173 90.7721C277.782 90.4465 277.587 89.9907 277.587 89.3395C277.587 89.0139 277.652 88.6233 277.847 88.2326C277.978 87.8419 278.303 87.3209 278.759 86.6046L286.831 74.6884C287.092 74.2977 287.157 74.0372 287.157 73.907V73.5814H290.737L290.998 73.9721Z" fill="#001140"/>
<path d="M293.146 81.5907C293.146 81.786 292.951 82.1767 292.56 82.7628L289.045 88.0372C288.589 88.7535 288.329 89.3395 288.329 89.7302C288.329 90.1209 288.459 90.3163 288.784 90.3163C289.11 90.3163 289.565 90.1209 290.086 89.7302C290.672 89.3395 291.128 88.9488 291.518 88.493L292.755 87.1907L293.667 86.1488C294.057 85.693 294.253 85.3674 294.383 85.1721C294.448 84.9767 294.578 84.8465 294.708 84.7814L294.839 84.9116L294.643 85.3674L293.992 86.3442C293.927 86.4744 293.862 86.6046 293.732 86.7349C293.602 86.8651 293.406 87.0605 293.146 87.386L291.518 89.0139C290.998 89.6 290.282 90.1209 289.5 90.5767C288.719 90.9674 288.003 91.1628 287.287 91.1628C286.571 91.1628 286.05 90.9674 285.594 90.6419C285.139 90.3163 284.943 89.7953 284.943 89.2093C284.943 88.8186 285.008 88.5581 285.139 88.2977C285.269 88.0372 285.529 87.5814 285.92 86.9302L288.98 82.4372C289.305 81.9814 289.435 81.6558 289.435 81.5256V81.0698H293.016L293.146 81.5907ZM291.518 78.0093C291.518 77.5535 291.779 76.9674 292.365 76.3163C292.886 75.6651 293.602 75.3395 294.448 75.3395C294.839 75.3395 295.164 75.4698 295.359 75.6651C295.62 75.8605 295.75 76.1209 295.75 76.5116C295.75 76.9674 295.49 77.4884 294.904 78.2046C294.318 78.9209 293.667 79.2465 292.82 79.2465C292.104 79.2465 291.649 78.986 291.584 78.4L291.518 78.0093Z" fill="#001140"/>
<path d="M296.726 82.307C296.857 82.0465 296.987 81.8512 297.052 81.5256L296.987 81.2H300.567L300.632 81.5907C300.632 81.786 300.567 81.9814 300.372 82.307L299.395 83.6744L300.632 82.6326L302.13 81.5907C302.846 81.1349 303.692 80.8744 304.603 80.8744C305.254 80.8744 305.775 81.0698 306.231 81.3953C306.622 81.7209 306.817 82.1767 306.817 82.6326C306.817 83.0233 306.622 83.5442 306.231 84.1953L304.734 86.2791L303.106 88.493C302.846 88.8837 302.716 89.2093 302.716 89.4698C302.716 89.7953 302.911 89.9256 303.301 89.9256C303.692 89.9256 304.213 89.6651 304.929 89.1442C305.645 88.6233 306.361 87.9721 307.077 87.1256L307.989 86.0837L308.575 85.1721C308.64 84.9116 308.77 84.8465 308.965 84.7814L309.16 84.9116L308.965 85.3023L308.249 86.2139C307.338 87.5163 306.231 88.6884 304.864 89.6651C303.497 90.6419 302.325 91.1628 301.414 91.1628C300.112 91.1628 299.461 90.6419 299.461 89.5349C299.461 89.2093 299.591 88.7535 299.916 88.1674C300.177 87.6465 300.828 86.7349 301.739 85.4977L303.432 83.3488C303.562 83.0884 303.692 82.8279 303.757 82.5023C303.757 82.1116 303.562 81.9163 303.171 81.9163C302.39 81.9163 301.479 82.307 300.567 83.1535L299.526 84.0651L298.81 84.7814L294.708 90.8372H290.998L296.726 82.307Z" fill="#001140"/>
<path d="M310.397 89.4047C310.397 90.186 310.853 90.5767 311.699 90.5767C313.392 90.5767 315.215 89.4698 317.168 87.2558L317.949 86.2139L318.6 85.3023L318.795 84.9767L318.926 84.8465L319.056 84.9116L319.121 85.0419L318.86 85.4326L318.209 86.4093L317.363 87.386C316.452 88.493 315.475 89.4046 314.434 90.186C313.392 90.9674 312.09 91.293 310.528 91.293C308.184 91.293 307.012 90.3814 307.012 88.493C307.012 87.7767 307.208 87.0605 307.663 86.2791C308.054 85.4977 308.705 84.6512 309.551 83.8046C310.332 82.9581 311.374 82.2419 312.611 81.7209C313.848 81.1349 315.085 80.8744 316.191 80.8744C316.973 80.8744 317.558 81.0047 318.014 81.2651C318.47 81.5256 318.73 81.8512 318.73 82.3721C318.73 83.2837 318.014 84.1302 316.647 84.9116C315.28 85.693 313.457 86.2791 311.309 86.6698L310.528 88.2326C310.463 88.6884 310.397 89.014 310.397 89.4047ZM311.569 86.2139L313.001 85.8884L313.978 85.5628L314.824 85.0419L316.191 84C316.842 83.4791 317.168 82.8279 317.168 82.0465C317.168 81.6558 316.973 81.4605 316.582 81.4605C316.191 81.4605 315.866 81.5907 315.475 81.8512C315.085 82.1116 314.629 82.5023 314.043 83.0884L312.806 84.4558L311.569 86.2139Z" fill="#001140"/>
</svg>
