<svg width="216" height="74" viewBox="0 0 216 74" fill="none" xmlns="http://www.w3.org/2000/svg">
<g clip-path="url(#clip0_4355_2392)">
<path d="M190.762 62.1251L187.109 50.0937L190.74 41.3273C192.735 36.4968 194.393 32.5385 194.393 32.5385C194.393 32.5385 196.074 36.4744 198.092 41.3273L201.767 50.1384L198.136 61.9909C196.142 68.521 194.483 73.9329 194.461 74.0223C194.416 74.1565 193.43 70.9586 190.74 62.1475L190.762 62.1251Z" fill="#001140"/>
<path d="M21.6516 51.1895C13.3137 50.6528 6.14133 46.0012 2.53274 38.8226C1.29999 36.3403 0.537927 33.858 0.134482 30.906C-0.0448272 29.4971 -0.0448272 25.8743 0.134482 24.4654C0.672408 20.4847 1.83792 17.2868 3.92238 14.1336C7.17236 9.23602 12.5068 5.72499 18.5361 4.5621C20.2395 4.22665 21.0016 4.15956 23.3774 4.15956C25.9326 4.15956 26.6946 4.22665 28.7118 4.65156C35.4359 6.0828 41.129 10.3765 44.1324 16.3028C46.0824 20.1493 46.8669 23.705 46.7548 28.3342C46.6876 31.398 46.2841 33.612 45.3203 36.2732C42.5186 44.0109 35.8394 49.4899 27.5912 50.854C25.686 51.1671 23.5119 51.2789 21.6516 51.1671V51.1895ZM26.1791 47.0076C28.5774 46.6945 30.7739 45.9341 32.8808 44.7041C36.9376 42.3336 39.7618 38.6213 41.1514 33.8132C42.2048 30.1904 42.2497 25.919 41.3083 22.162C40.2324 17.8906 37.8566 14.223 34.5842 11.7854C33.6877 11.1145 32.7463 10.5555 31.5808 9.97401C29.2049 8.81112 27.0308 8.29677 24.0946 8.20731C19.8809 8.07313 16.4516 8.99003 13.1792 11.1145C8.92062 13.8876 6.05168 18.4273 5.1103 23.884C4.14652 29.5195 5.37927 35.4458 8.40511 39.6948C10.0861 42.0429 12.2602 43.8991 14.9051 45.2409C17.0343 46.3143 19.0964 46.8957 21.5843 47.1194C22.6602 47.2088 25.0584 47.1417 26.1791 47.0076ZM172.943 50.049C172.943 50.049 174.288 46.9181 175.902 43.1387C177.538 39.3593 179.399 35.0432 180.071 33.5225C180.721 32.0018 182.85 27.1266 184.755 22.6763C186.683 18.226 189.664 11.3158 191.412 7.31278C193.161 3.2874 194.595 0 194.617 0C194.617 0 195.245 1.38652 195.985 3.08613C196.702 4.78574 197.935 7.62587 198.674 9.39256C200.96 14.715 205.578 25.5388 208.133 31.5098C209.455 34.5959 211.741 39.9631 213.243 43.4742C214.745 46.9628 215.978 49.8924 216 49.9371C216.045 50.0266 215.709 50.049 213.512 50.049H210.979L210.509 48.9084C210.24 48.2823 208.245 43.4742 206.048 38.2412C203.874 33.0082 200.535 25.0468 198.674 20.5518C194.483 10.466 194.416 10.3095 194.393 10.3542C194.393 10.3542 193.317 12.9036 192.04 16.0121C190.762 19.1206 189.014 23.3025 188.162 25.3376C185.562 31.5993 184.038 35.2892 182.783 38.2859C182.133 39.8737 181.057 42.4454 180.407 44.0109C179.757 45.5763 178.928 47.5666 178.569 48.4612L177.897 50.0713H175.409C174.042 50.0713 172.921 50.0713 172.921 50.0266L172.943 50.049ZM151.695 45.9565C149.095 45.7776 146.652 45.0843 144.388 43.8991C142.707 43.0269 141.564 42.1995 140.197 40.8353C137.552 38.2188 135.804 34.7078 135.199 30.7047C135.02 29.5642 134.952 26.9924 135.087 25.7625C135.759 18.4944 140.264 12.6576 146.966 10.3765C150.507 9.16893 154.833 9.01239 158.644 9.99637C161.221 10.6673 164 12.2103 165.726 13.9547L166.152 14.3796L164.65 15.8779L163.149 17.3762L162.544 16.7948C160.459 14.8268 158.083 13.7087 155.147 13.3732C153.578 13.1943 151.269 13.3061 149.88 13.6416C148.602 13.9323 147.19 14.5361 146.025 15.2294C142.506 17.3986 140.107 21.3345 139.592 25.8519C139.48 26.8583 139.502 28.7815 139.637 29.7878C140.511 36.4745 145.173 41.2378 151.561 41.9758C153.04 42.1547 155.237 42.0429 157.052 41.7522C158.599 41.4838 160.571 40.8577 161.602 40.2986L161.983 40.0749V35.1998L162.028 30.3246H154.071V26.4334H166.376V42.4454L166.04 42.6467C165.345 43.094 163.956 43.7649 162.947 44.1674C160.392 45.1961 157.725 45.7552 154.699 45.9341C153.264 46.0236 152.928 46.0236 151.673 45.9341L151.695 45.9565ZM55.8996 27.6857V10.1753H61.884L64.2822 15.9897C68.6529 26.6346 70.446 31.0178 71.8132 34.3723C72.5529 36.2061 73.1805 37.7044 73.2029 37.7044C73.2029 37.7044 73.4494 37.2125 73.696 36.6086C73.9425 36.0048 74.7494 33.9698 75.5115 32.1136C76.2735 30.2575 77.4614 27.3055 78.1563 25.5836C78.8511 23.8616 79.7925 21.5582 80.2183 20.4847C81.8545 16.437 83.9166 11.3829 84.051 11.0027C84.1407 10.8014 84.2528 10.5107 84.32 10.3989L84.4321 10.1753H87.4131L90.3941 10.22V45.129H88.2424L86.0907 45.1738V31.152L86.0459 17.1302L82.1459 26.4781C79.9942 31.6216 77.3718 37.9281 76.2959 40.4775L74.346 45.1514H71.9477L66.0977 31.1296L60.2478 17.1079V31.152L60.203 45.1961H55.922V27.7081L55.8996 27.6857ZM103.439 27.6857V10.1753H114.444L125.449 10.22V12.188L125.494 14.1559H107.72V24.9574H124.306V28.9157H107.72V41.1931H126.032V45.1514H103.439V27.6633V27.6857Z" fill="#001140"/>
</g>
<defs>
<clipPath id="clip0_4355_2392">
<rect width="216" height="74" fill="white"/>
</clipPath>
</defs>
</svg>
