<svg width="165" height="226" viewBox="0 0 165 226" fill="none" xmlns="http://www.w3.org/2000/svg">
<style>

.svg-line-transform {
    transform-origin: top;
    transform-box: fill-box;
}
.svg-line-1-animation {
    animation: line-1-animation 20s ease-in-out infinite;
}
.svg-line-2-animation {
    animation: line-2-animation 20s ease-in-out infinite;
}
.svg-line-3-animation {
    animation: line-3-animation 20s ease-in-out infinite;
}
.svg-line-4-animation {
    animation: line-4-animation 20s ease-in-out infinite;
}

@keyframes line-1-animation {
    5% {
        transform: none;
    }
    15% {
        transform: scaleY(1.22);
    }
    25%{
        transform: scaleY(1.22);
    }
    35%{
        transform: none;
    }
}
@keyframes line-2-animation {
    5% {
        transform: none;
    }
    15% {
        transform: scaleY(1.25);
    }
    25%{
        transform: scaleY(1.25);
    }
    35%{
        transform: none;
    }
}
@keyframes line-3-animation {
    5% {
        transform: none;
    }
    15% {
        transform: scaleY(1.55);
    }
    26%{
        transform: scaleY(1.55);
    }
    35%{
        transform: none;
    }
}
@keyframes line-4-animation {
    5% {
        transform: none;
    }
    15% {
        transform: scaleY(1.92);
    }
    25%{
        transform: scaleY(1.92);
    }
    35%{
        transform: none;
    }
}





.svg-cube-transform {
    transform-origin: 50% 50%;
    transform-box: fill-box;
}
.svg-cube-side-1-3d-animation {
    animation: cube-side-1-3d-animation 20s ease-in-out infinite;
}
.svg-cube-side-2-3d-animation {
    animation: cube-side-2-3d-animation 20s ease-in-out infinite;
}
.svg-cube-top-3d-animation {
    animation: cube-top-3d-animation 20s ease-in-out infinite;
}
.svg-cube-top-2-3d-animation {
    animation: cube-top-2-3d-animation 20s ease-in-out infinite;
}
.svg-cube-top-3-3d-animation {
    animation: cube-top-3-3d-animation 20s ease-in-out infinite;
}
.svg-cube-top-4-3d-animation {
    animation: cube-top-4-3d-animation 20s ease-in-out infinite;
}


@keyframes cube-side-1-3d-animation {
  5%{
    transform: none;
  }
  15%{
    transform: translateY(calc(44% - 3px)) skewY(27deg) scaleY(0.1);
  }
  25%{
    transform: translateY(calc(44% - 3px)) skewY(27deg) scaleY(0.1);
  }
  35%{
    transform: none;
  }
}

@keyframes cube-side-2-3d-animation {
  5%{
    transform: none;
  }
  15%{
    transform: translateY(calc(44% - 3px)) skewY(-27deg) scaleY(0.1);
  }
  25%{
    transform: translateY(calc(44% - 3px)) skewY(-27deg) scaleY(0.1);
  }
  35%{
    transform: none;
  }
}

@keyframes cube-top-3d-animation {
  5%{
    transform: none;
  }
  15%{
    transform: translateY(124%);
  }
  25%{
    transform: translateY(124%);
  }
  35%{
    transform: none;
  }
}

@keyframes cube-top-2-3d-animation {
  5%{
    transform: none;
  }
  15%{
    transform: translateY(138%);
  }
  25%{
    transform: translateY(138%);
  }
  35%{
    transform: none;
  }
}
@keyframes cube-top-3-3d-animation {
  5%{
    transform: none;
  }
  15%{
    transform: translateY(237%);
  }
  25%{
    transform: translateY(237%);
  }
  35%{
    transform: none;
  }
}
@keyframes cube-top-4-3d-animation {
  5%{
    transform: none;
  }
  15%{
    transform: translateY(338%);
  }
  25%{
    transform: translateY(338%);
  }
  35%{
    transform: none;
  }
}




.svg-animation-delay-10 {
    animation-delay: 8s;
}
.svg-animation-delay-4 {
    animation-delay: 4s;
}

</style>
<path opacity="0.3" d="M145.067 130.714L8.93262 209.337V93.2271C8.93262 91.3038 10.0981 89.0657 11.5444 88.2317L142.455 12.6289C143.902 11.7949 145.067 12.6799 145.067 14.6032V130.714Z" fill="url(#paint0_linear_2507_6804)"/>
<path d="M142.77 137.164L11.2296 213.124C9.96201 213.856 8.93262 213.082 8.93262 211.388V209.337L145.067 130.714V132.765C145.067 134.458 144.038 136.424 142.77 137.156V137.164Z" fill="#0A1B30"/>
<path d="M9.89395 213.329L15.2366 216.418L15.7045 213.226L14.9813 211.703L8.93262 209.337L9.89395 213.329Z" fill="#0A1B30"/>
<path d="M14.4369 212.512L8.93262 209.337L145.067 130.714L150.571 133.888L14.4369 212.512Z" fill="#3F54F5"/>
<path opacity="0.3" d="M9.00851 93.3573V209.468L14.5043 212.633V96.5315C14.5043 95.5699 14.802 94.5231 15.2699 93.6211C13.2282 92.9999 11.331 92.0808 9.51895 91C9.19567 91.7659 9 92.5914 9 93.3658L9.00851 93.3573Z" fill="url(#paint1_linear_2507_6804)"/>
<path opacity="0.6" d="M144.174 12.5013C143.715 12.246 143.119 12.2545 142.464 12.6289L11.5445 88.2402C10.6852 88.7338 9.92807 89.738 9.45166 90.8698C11.2637 91.9506 13.1524 92.8782 15.2026 93.4909C15.679 92.5889 16.3256 91.823 17.0487 91.406L147.96 15.8032C148.615 15.4287 149.202 15.4202 149.653 15.6755V15.6585L144.174 12.5013Z" fill="#4281EE"/>
<path opacity="0.3" d="M14.4371 96.4014C14.4371 94.4781 15.6026 92.24 17.0489 91.406L147.96 15.8032C148.462 15.5138 148.921 15.4458 149.321 15.5394C148.845 15.1054 148.156 15.0458 147.381 15.4883L16.4619 91.0911C15.0156 91.9251 13.8501 94.1632 13.8501 96.0865V212.197L14.4286 212.512V96.4014H14.4371Z" fill="#F8C65B"/>
<path d="M15.5003 91.8995L10.5831 89.0571C10.1322 89.5592 9.73233 90.1804 9.44308 90.8612C9.23039 91.3718 9.07726 91.908 8.99219 92.4356L13.9094 95.2779C14.1051 94.0355 14.7006 92.776 15.4918 91.8995H15.5003Z" fill="#25AFF4"/>
<path d="M14.4966 95.6098C14.5476 95.2864 14.6327 94.9545 14.7348 94.6311C14.6327 94.9545 14.5476 95.2779 14.4966 95.6098Z" fill="url(#paint2_linear_2507_6804)"/>
<path d="M16.0704 92.2229C15.7471 92.5888 15.4493 93.0143 15.2026 93.4739C15.4493 93.0058 15.7386 92.5803 16.0704 92.2229Z" fill="url(#paint3_linear_2507_6804)"/>
<path d="M14.8027 94.4268C14.9133 94.1034 15.0409 93.7886 15.2026 93.4907C15.0494 93.7886 14.9133 94.112 14.8027 94.4268Z" fill="url(#paint4_linear_2507_6804)"/>
<path opacity="0.3" d="M150.572 133.888L14.437 212.512V96.4014C14.437 94.4781 15.6025 92.24 17.0488 91.406L147.96 15.8032C149.406 14.9692 150.572 15.8543 150.572 17.7775V133.888Z" fill="url(#paint5_linear_2507_6804)"/>
<path opacity="0.3" d="M147.645 135.267L17.278 210.563C16.0104 211.295 14.4365 210.384 14.4365 208.921V96.095C14.4365 94.1717 15.602 91.9336 17.0483 91.0996L147.959 15.4968C149.406 14.6628 150.571 15.5479 150.571 17.4711V130.203C150.571 132.297 149.457 134.228 147.645 135.267Z" fill="#3F54F5"/>
<mask id="mask0_2507_6804" style="mask-type:luminance" maskUnits="userSpaceOnUse" x="14" y="15" width="137" height="196">
<path d="M147.645 135.267L17.278 210.563C16.0104 211.295 14.4365 210.384 14.4365 208.921V96.095C14.4365 94.1717 15.602 91.9336 17.0483 91.0996L147.959 15.4968C149.406 14.6628 150.571 15.5479 150.571 17.4711V130.203C150.571 132.297 149.457 134.228 147.645 135.267Z" fill="white"/>
</mask>
<g mask="url(#mask0_2507_6804)">
<path d="M26.364 80.4791C26.364 80.8536 26.1003 81.2961 25.7855 81.4833C25.4623 81.6705 25.207 81.5174 25.207 81.1514C25.207 80.7855 25.4708 80.3345 25.7855 80.1473C26.1088 79.96 26.364 80.1132 26.364 80.4791Z" fill="#4281EE"/>
<path d="M38.9719 73.203C38.9719 73.5775 38.7082 74.02 38.3934 74.2072C38.0702 74.3944 37.8149 74.2412 37.8149 73.8753C37.8149 73.5094 38.0787 73.0583 38.3934 72.8711C38.7167 72.6839 38.9719 72.8371 38.9719 73.203Z" fill="#FAD86A"/>
<path d="M51.5716 65.9271C51.5716 66.3016 51.3078 66.7441 50.9931 66.9313C50.6783 67.1185 50.4146 66.9654 50.4146 66.5994C50.4146 66.2335 50.6783 65.7825 50.9931 65.5952C51.3163 65.408 51.5716 65.5612 51.5716 65.9271Z" fill="#FAD86A"/>
<path d="M64.1795 58.6425C64.1795 59.0169 63.9157 59.4594 63.601 59.6466C63.2777 59.8339 63.0225 59.6807 63.0225 59.3148C63.0225 58.9488 63.2862 58.4978 63.601 58.3106C63.9242 58.1234 64.1795 58.2765 64.1795 58.6425Z" fill="#FAD86A"/>
<path d="M76.7786 51.3666C76.7786 51.741 76.5149 52.1836 76.2001 52.3708C75.8768 52.558 75.6216 52.4048 75.6216 52.0389C75.6216 51.673 75.8853 51.2219 76.2001 51.0347C76.5234 50.8475 76.7786 51.0007 76.7786 51.3666Z" fill="#FAD86A"/>
<path d="M89.3865 44.0905C89.3865 44.4649 89.1228 44.9074 88.808 45.0947C88.4847 45.2819 88.2295 45.1287 88.2295 44.7628C88.2295 44.3968 88.4932 43.9458 88.808 43.7586C89.1313 43.5714 89.3865 43.7245 89.3865 44.0905Z" fill="#FAD86A"/>
<path d="M101.986 36.8058C101.986 37.1802 101.722 37.6228 101.408 37.81C101.084 37.9972 100.829 37.844 100.829 37.4781C100.829 37.1122 101.093 36.6611 101.408 36.4739C101.731 36.2867 101.986 36.4399 101.986 36.8058Z" fill="#FAD86A"/>
<path d="M114.594 29.5299C114.594 29.9044 114.33 30.3469 114.015 30.5341C113.7 30.7213 113.437 30.5681 113.437 30.2022C113.437 29.8363 113.7 29.3853 114.015 29.198C114.33 29.0108 114.594 29.164 114.594 29.5299Z" fill="#FAD86A"/>
<path d="M127.193 22.2538C127.193 22.6282 126.929 23.0708 126.615 23.258C126.291 23.4452 126.036 23.292 126.036 22.9261C126.036 22.5602 126.3 22.1091 126.615 21.9219C126.938 21.7347 127.193 21.8879 127.193 22.2538Z" fill="#FAD86A"/>
<path d="M139.793 14.9691C139.793 15.3436 139.529 15.7861 139.214 15.9733C138.891 16.1605 138.636 16.0073 138.636 15.6414C138.636 15.2755 138.899 14.8245 139.214 14.6372C139.538 14.45 139.793 14.6032 139.793 14.9691Z" fill="#FAD86A"/>
<path d="M26.364 92.2912C26.364 92.6656 26.1003 93.1081 25.7855 93.2953C25.4623 93.4826 25.207 93.3294 25.207 92.9634C25.207 92.5975 25.4708 92.1465 25.7855 91.9593C26.1088 91.772 26.364 91.9252 26.364 92.2912Z" fill="#FAD86A"/>
<path d="M38.9719 85.0065C38.9719 85.3809 38.7082 85.8234 38.3934 86.0107C38.0702 86.1979 37.8149 86.0447 37.8149 85.6788C37.8149 85.3128 38.0787 84.8618 38.3934 84.6746C38.7167 84.4874 38.9719 84.6406 38.9719 85.0065Z" fill="#FAD86A"/>
<path d="M51.5716 77.7306C51.5716 78.105 51.3078 78.5476 50.9931 78.7348C50.6783 78.922 50.4146 78.7688 50.4146 78.4029C50.4146 78.037 50.6783 77.5859 50.9931 77.3987C51.3078 77.2115 51.5716 77.3647 51.5716 77.7306Z" fill="#FAD86A"/>
<path d="M64.1795 70.4545C64.1795 70.8289 63.9157 71.2714 63.601 71.4587C63.2777 71.6459 63.0225 71.4927 63.0225 71.1268C63.0225 70.7608 63.2862 70.3098 63.601 70.1226C63.9242 69.9354 64.1795 70.0886 64.1795 70.4545Z" fill="#FAD86A"/>
<path d="M76.7786 63.1701C76.7786 63.5445 76.5149 63.987 76.2001 64.1742C75.8768 64.3615 75.6216 64.2083 75.6216 63.8423C75.6216 63.4764 75.8853 63.0254 76.2001 62.8382C76.5234 62.6509 76.7786 62.8041 76.7786 63.1701Z" fill="#FAD86A"/>
<path d="M89.3865 55.8939C89.3865 56.2684 89.1228 56.7109 88.808 56.8981C88.4847 57.0853 88.2295 56.9322 88.2295 56.5662C88.2295 56.2003 88.4932 55.7493 88.808 55.562C89.1313 55.3748 89.3865 55.528 89.3865 55.8939Z" fill="#FAD86A"/>
<path d="M101.986 48.6178C101.986 48.9923 101.722 49.4348 101.408 49.622C101.084 49.8092 100.829 49.656 100.829 49.2901C100.829 48.9242 101.093 48.4731 101.408 48.2859C101.731 48.0987 101.986 48.2519 101.986 48.6178Z" fill="#FAD86A"/>
<path d="M114.594 41.3334C114.594 41.7078 114.33 42.1503 114.015 42.3376C113.7 42.5248 113.437 42.3716 113.437 42.0057C113.437 41.6397 113.7 41.1887 114.015 41.0015C114.33 40.8143 114.594 40.9675 114.594 41.3334Z" fill="#FAD86A"/>
<path d="M127.193 34.0573C127.193 34.4317 126.929 34.8742 126.615 35.0614C126.291 35.2487 126.036 35.0955 126.036 34.7296C126.036 34.3636 126.3 33.9126 126.615 33.7254C126.938 33.5382 127.193 33.6913 127.193 34.0573Z" fill="#FAD86A"/>
<path d="M139.793 26.7811C139.793 27.1556 139.529 27.5981 139.214 27.7853C138.891 27.9725 138.636 27.8194 138.636 27.4534C138.636 27.0875 138.899 26.6365 139.214 26.4493C139.538 26.262 139.793 26.4152 139.793 26.7811Z" fill="#FAD86A"/>
<path d="M26.364 104.094C26.364 104.469 26.1003 104.911 25.7855 105.099C25.4623 105.286 25.207 105.133 25.207 104.767C25.207 104.401 25.4708 103.95 25.7855 103.762C26.1088 103.575 26.364 103.728 26.364 104.094Z" fill="#FAD86A"/>
<path d="M38.9719 96.8183C38.9719 97.1927 38.7082 97.6352 38.3934 97.8224C38.0702 98.0097 37.8149 97.8565 37.8149 97.4905C37.8149 97.1246 38.0787 96.6736 38.3934 96.4864C38.7167 96.2991 38.9719 96.4523 38.9719 96.8183Z" fill="#FAD86A"/>
<path d="M51.5716 89.5338C51.5716 89.9083 51.3078 90.3508 50.9931 90.538C50.6698 90.7252 50.4146 90.572 50.4146 90.2061C50.4146 89.8402 50.6783 89.3892 50.9931 89.2019C51.3078 89.0147 51.5716 89.1679 51.5716 89.5338Z" fill="#FAD86A"/>
<path d="M64.1795 82.2577C64.1795 82.6321 63.9157 83.0747 63.601 83.2619C63.2777 83.4491 63.0225 83.2959 63.0225 82.93C63.0225 82.5641 63.2862 82.113 63.601 81.9258C63.9242 81.7386 64.1795 81.8918 64.1795 82.2577Z" fill="#FAD86A"/>
<path d="M76.7786 74.9816C76.7786 75.356 76.5149 75.7985 76.2001 75.9858C75.8768 76.173 75.6216 76.0198 75.6216 75.6539C75.6216 75.2879 75.8853 74.8369 76.2001 74.6497C76.5234 74.4625 76.7786 74.6157 76.7786 74.9816Z" fill="#FAD86A"/>
<path d="M89.3865 67.6972C89.3865 68.0716 89.1228 68.5141 88.808 68.7013C88.4847 68.8886 88.2295 68.7354 88.2295 68.3694C88.2295 68.0035 88.4932 67.5525 88.808 67.3653C89.1313 67.178 89.3865 67.3312 89.3865 67.6972Z" fill="#FAD86A"/>
<path d="M101.986 60.421C101.986 60.7955 101.722 61.238 101.408 61.4252C101.084 61.6124 100.829 61.4593 100.829 61.0933C100.829 60.7274 101.093 60.2764 101.408 60.0891C101.731 59.9019 101.986 60.0551 101.986 60.421Z" fill="#FAD86A"/>
<path d="M114.594 53.1449C114.594 53.5194 114.33 53.9619 114.015 54.1491C113.692 54.3363 113.437 54.1831 113.437 53.8172C113.437 53.4513 113.7 53.0002 114.015 52.813C114.33 52.6258 114.594 52.779 114.594 53.1449Z" fill="#FAD86A"/>
<path d="M127.193 45.8605C127.193 46.2349 126.929 46.6774 126.615 46.8647C126.291 47.0519 126.036 46.8987 126.036 46.5328C126.036 46.1668 126.3 45.7158 126.615 45.5286C126.938 45.3414 127.193 45.4946 127.193 45.8605Z" fill="#FAD86A"/>
<path d="M139.793 38.5844C139.793 38.9588 139.529 39.4013 139.214 39.5885C138.891 39.7758 138.636 39.6226 138.636 39.2567C138.636 38.8907 138.899 38.4397 139.214 38.2525C139.538 38.0653 139.793 38.2184 139.793 38.5844Z" fill="#FAD86A"/>
<path d="M26.364 115.898C26.364 116.272 26.1003 116.715 25.7855 116.902C25.4623 117.089 25.207 116.936 25.207 116.57C25.207 116.204 25.4708 115.753 25.7855 115.566C26.1088 115.379 26.364 115.532 26.364 115.898Z" fill="#FAD86A"/>
<path d="M38.9719 108.622C38.9719 108.996 38.7082 109.439 38.3934 109.626C38.0702 109.813 37.8149 109.66 37.8149 109.294C37.8149 108.928 38.0787 108.477 38.3934 108.29C38.7167 108.103 38.9719 108.256 38.9719 108.622Z" fill="#FAD86A"/>
<path d="M51.5716 101.346C51.5716 101.72 51.3078 102.163 50.9931 102.35C50.6698 102.537 50.4146 102.384 50.4146 102.018C50.4146 101.652 50.6783 101.201 50.9931 101.014C51.3078 100.827 51.5716 100.98 51.5716 101.346Z" fill="#FAD86A"/>
<path d="M64.1795 94.0612C64.1795 94.4356 63.9157 94.8781 63.601 95.0654C63.2777 95.2526 63.0225 95.0994 63.0225 94.7335C63.0225 94.3675 63.2862 93.9165 63.601 93.7293C63.9242 93.5421 64.1795 93.6952 64.1795 94.0612Z" fill="#FAD86A"/>
<path d="M76.7786 86.7853C76.7786 87.1597 76.5149 87.6023 76.2001 87.7895C75.8768 87.9767 75.6216 87.8235 75.6216 87.4576C75.6216 87.0917 75.8853 86.6406 76.2001 86.4534C76.5234 86.2662 76.7786 86.4194 76.7786 86.7853Z" fill="#FAD86A"/>
<path d="M89.3865 79.5092C89.3865 79.8836 89.1228 80.3261 88.808 80.5133C88.4847 80.7006 88.2295 80.5474 88.2295 80.1815C88.2295 79.8155 88.4932 79.3645 88.808 79.1773C89.1313 78.9901 89.3865 79.1432 89.3865 79.5092Z" fill="#FAD86A"/>
<path d="M101.986 72.2245C101.986 72.5989 101.722 73.0415 101.408 73.2287C101.084 73.4159 100.829 73.2627 100.829 72.8968C100.829 72.5309 101.093 72.0798 101.408 71.8926C101.731 71.7054 101.986 71.8586 101.986 72.2245Z" fill="#FAD86A"/>
<path d="M114.594 64.9486C114.594 65.3231 114.33 65.7656 114.015 65.9528C113.692 66.14 113.437 65.9868 113.437 65.6209C113.437 65.255 113.7 64.804 114.015 64.6167C114.33 64.4295 114.594 64.5827 114.594 64.9486Z" fill="#FAD86A"/>
<path d="M127.193 57.6725C127.193 58.0469 126.929 58.4895 126.615 58.6767C126.291 58.8639 126.036 58.7107 126.036 58.3448C126.036 57.9789 126.3 57.5278 126.615 57.3406C126.938 57.1534 127.193 57.3066 127.193 57.6725Z" fill="#FAD86A"/>
<path d="M139.793 50.3878C139.793 50.7623 139.529 51.2048 139.214 51.392C138.891 51.5792 138.636 51.4261 138.636 51.0601C138.636 50.6942 138.899 50.2432 139.214 50.0559C139.538 49.8687 139.793 50.0219 139.793 50.3878Z" fill="#FAD86A"/>
<path d="M26.364 127.71C26.364 128.084 26.1003 128.527 25.7855 128.714C25.4623 128.901 25.207 128.748 25.207 128.382C25.207 128.016 25.4708 127.565 25.7855 127.378C26.1088 127.19 26.364 127.344 26.364 127.71Z" fill="#FAD86A"/>
<path d="M38.9719 120.425C38.9719 120.799 38.7082 121.242 38.3934 121.429C38.0702 121.616 37.8149 121.463 37.8149 121.097C37.8149 120.731 38.0787 120.28 38.3934 120.093C38.7167 119.906 38.9719 120.059 38.9719 120.425Z" fill="#FAD86A"/>
<path d="M51.5716 113.149C51.5716 113.524 51.3078 113.966 50.9931 114.153C50.6783 114.34 50.4146 114.187 50.4146 113.821C50.4146 113.455 50.6783 113.004 50.9931 112.817C51.3163 112.63 51.5716 112.783 51.5716 113.149Z" fill="#FAD86A"/>
<path d="M64.1795 105.873C64.1795 106.247 63.9157 106.69 63.601 106.877C63.2777 107.064 63.0225 106.911 63.0225 106.545C63.0225 106.179 63.2862 105.728 63.601 105.541C63.9242 105.354 64.1795 105.507 64.1795 105.873Z" fill="#FAD86A"/>
<path d="M76.7786 98.5885C76.7786 98.963 76.5149 99.4055 76.2001 99.5927C75.8768 99.7799 75.6216 99.6267 75.6216 99.2608C75.6216 98.8949 75.8853 98.4438 76.2001 98.2566C76.5234 98.0694 76.7786 98.2226 76.7786 98.5885Z" fill="#FAD86A"/>
<path d="M89.3865 91.3124C89.3865 91.6868 89.1228 92.1294 88.808 92.3166C88.4847 92.5038 88.2295 92.3506 88.2295 91.9847C88.2295 91.6187 88.4932 91.1677 88.808 90.9805C89.1313 90.7933 89.3865 90.9465 89.3865 91.3124Z" fill="#FAD86A"/>
<path d="M101.986 84.0363C101.986 84.4107 101.722 84.8532 101.408 85.0404C101.084 85.2277 100.829 85.0745 100.829 84.7086C100.829 84.3426 101.093 83.8916 101.408 83.7044C101.731 83.5172 101.986 83.6703 101.986 84.0363Z" fill="#FAD86A"/>
<path d="M114.594 76.7518C114.594 77.1263 114.33 77.5688 114.015 77.756C113.7 77.9432 113.437 77.7901 113.437 77.4241C113.437 77.0582 113.7 76.6072 114.015 76.42C114.338 76.2327 114.594 76.3859 114.594 76.7518Z" fill="#FAD86A"/>
<path d="M127.193 69.4757C127.193 69.8502 126.929 70.2927 126.615 70.4799C126.291 70.6671 126.036 70.5139 126.036 70.148C126.036 69.7821 126.3 69.3311 126.615 69.1438C126.938 68.9566 127.193 69.1098 127.193 69.4757Z" fill="#FAD86A"/>
<path d="M139.793 62.1996C139.793 62.574 139.529 63.0166 139.214 63.2038C138.891 63.391 138.636 63.2378 138.636 62.8719C138.636 62.506 138.899 62.0549 139.214 61.8677C139.538 61.6805 139.793 61.8337 139.793 62.1996Z" fill="#FAD86A"/>
<path d="M26.364 139.513C26.364 139.888 26.1003 140.33 25.7855 140.517C25.4623 140.704 25.207 140.551 25.207 140.185C25.207 139.819 25.4708 139.368 25.7855 139.181C26.1088 138.994 26.364 139.147 26.364 139.513Z" fill="#FAD86A"/>
<path d="M38.9719 132.237C38.9719 132.611 38.7082 133.054 38.3934 133.241C38.0702 133.428 37.8149 133.275 37.8149 132.909C37.8149 132.543 38.0787 132.092 38.3934 131.905C38.7167 131.718 38.9719 131.871 38.9719 132.237Z" fill="#FAD86A"/>
<path d="M51.5716 124.953C51.5716 125.327 51.3078 125.769 50.9931 125.957C50.6783 126.144 50.4146 125.991 50.4146 125.625C50.4146 125.259 50.6783 124.808 50.9931 124.621C51.3163 124.433 51.5716 124.587 51.5716 124.953Z" fill="#FAD86A"/>
<path d="M64.1795 117.676C64.1795 118.051 63.9157 118.493 63.601 118.681C63.2777 118.868 63.0225 118.715 63.0225 118.349C63.0225 117.983 63.2862 117.532 63.601 117.345C63.9242 117.157 64.1795 117.31 64.1795 117.676Z" fill="#FAD86A"/>
<path d="M76.7786 110.4C76.7786 110.775 76.5149 111.217 76.2001 111.404C75.8768 111.592 75.6216 111.439 75.6216 111.073C75.6216 110.707 75.8853 110.256 76.2001 110.068C76.5234 109.881 76.7786 110.034 76.7786 110.4Z" fill="#FAD86A"/>
<path d="M89.3865 103.116C89.3865 103.49 89.1228 103.933 88.808 104.12C88.4847 104.307 88.2295 104.154 88.2295 103.788C88.2295 103.422 88.4932 102.971 88.808 102.784C89.1313 102.597 89.3865 102.75 89.3865 103.116Z" fill="#FAD86A"/>
<path d="M101.986 95.8397C101.986 96.2142 101.722 96.6567 101.408 96.8439C101.084 97.0311 100.829 96.878 100.829 96.512C100.829 96.1461 101.093 95.6951 101.408 95.5078C101.731 95.3206 101.986 95.4738 101.986 95.8397Z" fill="#FAD86A"/>
<path d="M114.594 88.5639C114.594 88.9383 114.33 89.3808 114.015 89.568C113.7 89.7553 113.437 89.6021 113.437 89.2361C113.437 88.8702 113.7 88.4192 114.015 88.232C114.33 88.0447 114.594 88.1979 114.594 88.5639Z" fill="#FAD86A"/>
<path d="M127.193 81.2877C127.193 81.6622 126.929 82.1047 126.615 82.2919C126.291 82.4791 126.036 82.326 126.036 81.96C126.036 81.5941 126.3 81.1431 126.615 80.9558C126.938 80.7686 127.193 80.9218 127.193 81.2877Z" fill="#FAD86A"/>
<path d="M139.793 74.0031C139.793 74.3775 139.529 74.82 139.214 75.0072C138.891 75.1945 138.636 75.0413 138.636 74.6754C138.636 74.3094 138.899 73.8584 139.214 73.6712C139.538 73.484 139.793 73.6371 139.793 74.0031Z" fill="#FAD86A"/>
<path d="M26.364 151.316C26.364 151.691 26.1003 152.133 25.7855 152.32C25.4623 152.508 25.207 152.355 25.207 151.989C25.207 151.623 25.4708 151.172 25.7855 150.984C26.1088 150.797 26.364 150.95 26.364 151.316Z" fill="#FAD86A"/>
<path d="M38.9719 144.04C38.9719 144.415 38.7082 144.857 38.3934 145.044C38.0702 145.232 37.8149 145.078 37.8149 144.712C37.8149 144.347 38.0787 143.896 38.3934 143.708C38.7167 143.521 38.9719 143.674 38.9719 144.04Z" fill="#FAD86A"/>
<path d="M51.5716 136.764C51.5716 137.139 51.3078 137.581 50.9931 137.768C50.6783 137.956 50.4146 137.803 50.4146 137.437C50.4146 137.071 50.6783 136.62 50.9931 136.432C51.3078 136.245 51.5716 136.398 51.5716 136.764Z" fill="#FAD86A"/>
<path d="M64.1795 129.48C64.1795 129.854 63.9157 130.297 63.601 130.484C63.2777 130.671 63.0225 130.518 63.0225 130.152C63.0225 129.786 63.2862 129.335 63.601 129.148C63.9242 128.961 64.1795 129.114 64.1795 129.48Z" fill="#FAD86A"/>
<path d="M76.7786 122.204C76.7786 122.578 76.5149 123.021 76.2001 123.208C75.8768 123.395 75.6216 123.242 75.6216 122.876C75.6216 122.51 75.8853 122.059 76.2001 121.872C76.5234 121.685 76.7786 121.838 76.7786 122.204Z" fill="#FAD86A"/>
<path d="M89.3865 114.928C89.3865 115.302 89.1228 115.745 88.808 115.932C88.4847 116.119 88.2295 115.966 88.2295 115.6C88.2295 115.234 88.4932 114.783 88.808 114.596C89.1313 114.409 89.3865 114.562 89.3865 114.928Z" fill="#FAD86A"/>
<path d="M101.986 107.652C101.986 108.026 101.722 108.468 101.408 108.656C101.084 108.843 100.829 108.69 100.829 108.324C100.829 107.958 101.093 107.507 101.408 107.32C101.731 107.132 101.986 107.286 101.986 107.652Z" fill="#FAD86A"/>
<path d="M114.594 100.367C114.594 100.742 114.33 101.184 114.015 101.371C113.7 101.558 113.437 101.405 113.437 101.039C113.437 100.673 113.7 100.222 114.015 100.035C114.33 99.848 114.594 100.001 114.594 100.367Z" fill="#FAD86A"/>
<path d="M127.193 93.091C127.193 93.4654 126.929 93.9079 126.615 94.0951C126.291 94.2824 126.036 94.1292 126.036 93.7632C126.036 93.3973 126.3 92.9463 126.615 92.7591C126.938 92.5718 127.193 92.725 127.193 93.091Z" fill="#FAD86A"/>
<path d="M139.793 85.8148C139.793 86.1893 139.529 86.6318 139.214 86.819C138.891 87.0062 138.636 86.8531 138.636 86.4871C138.636 86.1212 138.899 85.6702 139.214 85.4829C139.538 85.2957 139.793 85.4489 139.793 85.8148Z" fill="#FAD86A"/>
<path d="M26.364 163.128C26.364 163.503 26.1003 163.945 25.7855 164.132C25.4623 164.32 25.207 164.167 25.207 163.801C25.207 163.435 25.4708 162.984 25.7855 162.796C26.1088 162.609 26.364 162.762 26.364 163.128Z" fill="#FAD86A"/>
<path d="M38.9719 155.852C38.9719 156.227 38.7082 156.669 38.3934 156.856C38.0702 157.044 37.8149 156.89 37.8149 156.524C37.8149 156.159 38.0787 155.708 38.3934 155.52C38.7167 155.333 38.9719 155.486 38.9719 155.852Z" fill="#FAD86A"/>
<path d="M51.5716 148.568C51.5716 148.942 51.3078 149.385 50.9931 149.572C50.6783 149.759 50.4146 149.606 50.4146 149.24C50.4146 148.874 50.6783 148.423 50.9931 148.236C51.3078 148.049 51.5716 148.202 51.5716 148.568Z" fill="#FAD86A"/>
<path d="M64.1795 141.292C64.1795 141.666 63.9157 142.109 63.601 142.296C63.2777 142.483 63.0225 142.33 63.0225 141.964C63.0225 141.598 63.2862 141.147 63.601 140.96C63.9242 140.773 64.1795 140.926 64.1795 141.292Z" fill="#FAD86A"/>
<path d="M76.7786 134.016C76.7786 134.39 76.5149 134.832 76.2001 135.02C75.8768 135.207 75.6216 135.054 75.6216 134.688C75.6216 134.322 75.8853 133.871 76.2001 133.684C76.5234 133.496 76.7786 133.65 76.7786 134.016Z" fill="#FAD86A"/>
<path d="M89.3865 126.731C89.3865 127.106 89.1228 127.548 88.808 127.735C88.4847 127.923 88.2295 127.769 88.2295 127.403C88.2295 127.037 88.4932 126.586 88.808 126.399C89.1313 126.212 89.3865 126.365 89.3865 126.731Z" fill="#FAD86A"/>
<path d="M101.986 119.455C101.986 119.829 101.722 120.272 101.408 120.459C101.084 120.646 100.829 120.493 100.829 120.127C100.829 119.761 101.093 119.31 101.408 119.123C101.731 118.936 101.986 119.089 101.986 119.455Z" fill="#FAD86A"/>
<path d="M114.594 112.179C114.594 112.553 114.33 112.996 114.015 113.183C113.692 113.37 113.437 113.217 113.437 112.851C113.437 112.485 113.7 112.034 114.015 111.847C114.33 111.66 114.594 111.813 114.594 112.179Z" fill="#FAD86A"/>
<path d="M127.193 104.894C127.193 105.269 126.929 105.711 126.615 105.899C126.291 106.086 126.036 105.933 126.036 105.567C126.036 105.201 126.3 104.75 126.615 104.563C126.938 104.375 127.193 104.528 127.193 104.894Z" fill="#FAD86A"/>
<path d="M139.793 97.6183C139.793 97.9927 139.529 98.4353 139.214 98.6225C138.891 98.8097 138.636 98.6565 138.636 98.2906C138.636 97.9247 138.899 97.4736 139.214 97.2864C139.538 97.0992 139.793 97.2524 139.793 97.6183Z" fill="#FAD86A"/>
<path d="M26.364 174.932C26.364 175.306 26.1003 175.748 25.7855 175.936C25.4623 176.123 25.207 175.97 25.207 175.604C25.207 175.238 25.4708 174.787 25.7855 174.6C26.1088 174.412 26.364 174.566 26.364 174.932Z" fill="#FAD86A"/>
<path d="M38.9719 167.655C38.9719 168.03 38.7082 168.472 38.3934 168.66C38.0702 168.847 37.8149 168.694 37.8149 168.328C37.8149 167.962 38.0787 167.511 38.3934 167.324C38.7167 167.136 38.9719 167.289 38.9719 167.655Z" fill="#FAD86A"/>
<path d="M51.5716 160.38C51.5716 160.754 51.3078 161.196 50.9931 161.384C50.6698 161.571 50.4146 161.418 50.4146 161.052C50.4146 160.686 50.6783 160.235 50.9931 160.048C51.3078 159.86 51.5716 160.014 51.5716 160.38Z" fill="#FAD86A"/>
<path d="M64.1795 153.095C64.1795 153.469 63.9157 153.912 63.601 154.099C63.2777 154.286 63.0225 154.133 63.0225 153.767C63.0225 153.401 63.2862 152.95 63.601 152.763C63.9242 152.576 64.1795 152.729 64.1795 153.095Z" fill="#FAD86A"/>
<path d="M76.7786 145.819C76.7786 146.193 76.5149 146.636 76.2001 146.823C75.8768 147.01 75.6216 146.857 75.6216 146.491C75.6216 146.125 75.8853 145.674 76.2001 145.487C76.5234 145.3 76.7786 145.453 76.7786 145.819Z" fill="#FAD86A"/>
<path d="M89.3865 138.543C89.3865 138.917 89.1228 139.36 88.808 139.547C88.4847 139.734 88.2295 139.581 88.2295 139.215C88.2295 138.849 88.4932 138.398 88.808 138.211C89.1313 138.024 89.3865 138.177 89.3865 138.543Z" fill="#FAD86A"/>
<path d="M101.986 131.258C101.986 131.633 101.722 132.075 101.408 132.262C101.084 132.45 100.829 132.296 100.829 131.93C100.829 131.565 101.093 131.114 101.408 130.926C101.731 130.739 101.986 130.892 101.986 131.258Z" fill="#FAD86A"/>
<path d="M114.594 123.982C114.594 124.357 114.33 124.799 114.015 124.986C113.692 125.174 113.437 125.021 113.437 124.655C113.437 124.289 113.7 123.838 114.015 123.65C114.33 123.463 114.594 123.616 114.594 123.982Z" fill="#FAD86A"/>
<path d="M127.193 116.706C127.193 117.081 126.929 117.523 126.615 117.71C126.291 117.898 126.036 117.744 126.036 117.378C126.036 117.013 126.3 116.562 126.615 116.374C126.938 116.187 127.193 116.34 127.193 116.706Z" fill="#FAD86A"/>
<path d="M139.793 109.422C139.793 109.796 139.529 110.238 139.214 110.426C138.891 110.613 138.636 110.46 138.636 110.094C138.636 109.728 138.899 109.277 139.214 109.09C139.538 108.902 139.793 109.056 139.793 109.422Z" fill="#FAD86A"/>
<path d="M26.364 186.744C26.364 187.118 26.1003 187.56 25.7855 187.748C25.4623 187.935 25.207 187.782 25.207 187.416C25.207 187.05 25.4708 186.599 25.7855 186.412C26.1088 186.224 26.364 186.378 26.364 186.744Z" fill="#FAD86A"/>
<path d="M38.9719 179.459C38.9719 179.833 38.7082 180.276 38.3934 180.463C38.0702 180.65 37.8149 180.497 37.8149 180.131C37.8149 179.765 38.0787 179.314 38.3934 179.127C38.7167 178.94 38.9719 179.093 38.9719 179.459Z" fill="#FAD86A"/>
<path d="M51.5716 172.183C51.5716 172.557 51.3078 173 50.9931 173.187C50.6783 173.374 50.4146 173.221 50.4146 172.855C50.4146 172.489 50.6783 172.038 50.9931 171.851C51.3163 171.664 51.5716 171.817 51.5716 172.183Z" fill="#FAD86A"/>
<path d="M64.1795 164.907C64.1795 165.281 63.9157 165.724 63.601 165.911C63.2777 166.098 63.0225 165.945 63.0225 165.579C63.0225 165.213 63.2862 164.762 63.601 164.575C63.9242 164.388 64.1795 164.541 64.1795 164.907Z" fill="#FAD86A"/>
<path d="M76.7786 157.622C76.7786 157.997 76.5149 158.439 76.2001 158.627C75.8768 158.814 75.6216 158.661 75.6216 158.295C75.6216 157.929 75.8853 157.478 76.2001 157.291C76.5234 157.103 76.7786 157.257 76.7786 157.622Z" fill="#FAD86A"/>
<path d="M89.3865 150.346C89.3865 150.721 89.1228 151.163 88.808 151.351C88.4847 151.538 88.2295 151.385 88.2295 151.019C88.2295 150.653 88.4932 150.202 88.808 150.014C89.1313 149.827 89.3865 149.98 89.3865 150.346Z" fill="#FAD86A"/>
<path d="M101.986 143.07C101.986 143.445 101.722 143.887 101.408 144.074C101.084 144.262 100.829 144.108 100.829 143.743C100.829 143.377 101.093 142.926 101.408 142.738C101.731 142.551 101.986 142.704 101.986 143.07Z" fill="#FAD86A"/>
<path d="M114.594 135.786C114.594 136.16 114.33 136.603 114.015 136.79C113.7 136.977 113.437 136.824 113.437 136.458C113.437 136.092 113.7 135.641 114.015 135.454C114.338 135.267 114.594 135.42 114.594 135.786Z" fill="#FAD86A"/>
<path d="M127.193 128.51C127.193 128.884 126.929 129.327 126.615 129.514C126.291 129.701 126.036 129.548 126.036 129.182C126.036 128.816 126.3 128.365 126.615 128.178C126.938 127.991 127.193 128.144 127.193 128.51Z" fill="#FAD86A"/>
<path d="M139.793 121.234C139.793 121.608 139.529 122.05 139.214 122.238C138.891 122.425 138.636 122.272 138.636 121.906C138.636 121.54 138.899 121.089 139.214 120.902C139.538 120.714 139.793 120.868 139.793 121.234Z" fill="#FAD86A"/>
<path d="M26.364 198.547C26.364 198.921 26.1003 199.364 25.7855 199.551C25.4623 199.738 25.207 199.585 25.207 199.219C25.207 198.853 25.4708 198.402 25.7855 198.215C26.1088 198.028 26.364 198.181 26.364 198.547Z" fill="#FAD86A"/>
<path d="M38.9719 191.271C38.9719 191.645 38.7082 192.088 38.3934 192.275C38.0702 192.462 37.8149 192.309 37.8149 191.943C37.8149 191.577 38.0787 191.126 38.3934 190.939C38.7167 190.752 38.9719 190.905 38.9719 191.271Z" fill="#FAD86A"/>
<path d="M51.5716 183.986C51.5716 184.361 51.3078 184.803 50.9931 184.99C50.6783 185.178 50.4146 185.024 50.4146 184.659C50.4146 184.293 50.6783 183.842 50.9931 183.654C51.3163 183.467 51.5716 183.62 51.5716 183.986Z" fill="#FAD86A"/>
<path d="M64.1795 176.71C64.1795 177.085 63.9157 177.527 63.601 177.714C63.2777 177.902 63.0225 177.748 63.0225 177.382C63.0225 177.016 63.2862 176.565 63.601 176.378C63.9242 176.191 64.1795 176.344 64.1795 176.71Z" fill="#FAD86A"/>
<path d="M76.7786 169.434C76.7786 169.809 76.5149 170.251 76.2001 170.438C75.8768 170.626 75.6216 170.472 75.6216 170.107C75.6216 169.741 75.8853 169.29 76.2001 169.102C76.5234 168.915 76.7786 169.068 76.7786 169.434Z" fill="#FAD86A"/>
<path d="M89.3865 162.15C89.3865 162.524 89.1228 162.967 88.808 163.154C88.4847 163.341 88.2295 163.188 88.2295 162.822C88.2295 162.456 88.4932 162.005 88.808 161.818C89.1313 161.63 89.3865 161.784 89.3865 162.15Z" fill="#FAD86A"/>
<path d="M101.986 154.873C101.986 155.248 101.722 155.69 101.408 155.878C101.084 156.065 100.829 155.912 100.829 155.546C100.829 155.18 101.093 154.729 101.408 154.542C101.731 154.354 101.986 154.507 101.986 154.873Z" fill="#FAD86A"/>
<path d="M114.594 147.598C114.594 147.972 114.33 148.415 114.015 148.602C113.7 148.789 113.437 148.636 113.437 148.27C113.437 147.904 113.7 147.453 114.015 147.266C114.338 147.078 114.594 147.232 114.594 147.598Z" fill="#FAD86A"/>
<path d="M127.193 140.313C127.193 140.687 126.929 141.13 126.615 141.317C126.291 141.504 126.036 141.351 126.036 140.985C126.036 140.619 126.3 140.168 126.615 139.981C126.938 139.794 127.193 139.947 127.193 140.313Z" fill="#FAD86A"/>
<path d="M139.793 133.037C139.793 133.411 139.529 133.854 139.214 134.041C138.891 134.228 138.636 134.075 138.636 133.709C138.636 133.343 138.899 132.892 139.214 132.705C139.538 132.518 139.793 132.671 139.793 133.037Z" fill="#FAD86A"/>
<path d="M26.364 210.35C26.364 210.725 26.1003 211.167 25.7855 211.354C25.4623 211.542 25.207 211.388 25.207 211.023C25.207 210.657 25.4708 210.206 25.7855 210.018C26.1088 209.831 26.364 209.984 26.364 210.35Z" fill="#FAD86A"/>
<path d="M38.9719 203.074C38.9719 203.449 38.7082 203.891 38.3934 204.078C38.0702 204.266 37.8149 204.112 37.8149 203.746C37.8149 203.38 38.0787 202.929 38.3934 202.742C38.7167 202.555 38.9719 202.708 38.9719 203.074Z" fill="#FAD86A"/>
<path d="M51.5716 195.798C51.5716 196.173 51.3078 196.615 50.9931 196.802C50.6783 196.99 50.4146 196.836 50.4146 196.471C50.4146 196.105 50.6783 195.654 50.9931 195.466C51.3078 195.279 51.5716 195.432 51.5716 195.798Z" fill="#FAD86A"/>
<path d="M64.1795 188.514C64.1795 188.888 63.9157 189.331 63.601 189.518C63.2777 189.705 63.0225 189.552 63.0225 189.186C63.0225 188.82 63.2862 188.369 63.601 188.182C63.9242 187.994 64.1795 188.148 64.1795 188.514Z" fill="#FAD86A"/>
<path d="M76.7786 181.238C76.7786 181.612 76.5149 182.055 76.2001 182.242C75.8768 182.429 75.6216 182.276 75.6216 181.91C75.6216 181.544 75.8853 181.093 76.2001 180.906C76.5234 180.719 76.7786 180.872 76.7786 181.238Z" fill="#FAD86A"/>
<path d="M89.3865 173.962C89.3865 174.336 89.1228 174.779 88.808 174.966C88.4847 175.153 88.2295 175 88.2295 174.634C88.2295 174.268 88.4932 173.817 88.808 173.63C89.1313 173.442 89.3865 173.596 89.3865 173.962Z" fill="#FAD86A"/>
<path d="M101.986 166.677C101.986 167.051 101.722 167.494 101.408 167.681C101.084 167.868 100.829 167.715 100.829 167.349C100.829 166.983 101.093 166.532 101.408 166.345C101.731 166.158 101.986 166.311 101.986 166.677Z" fill="#FAD86A"/>
<path d="M114.594 159.401C114.594 159.775 114.33 160.218 114.015 160.405C113.7 160.592 113.437 160.439 113.437 160.073C113.437 159.707 113.7 159.256 114.015 159.069C114.33 158.882 114.594 159.035 114.594 159.401Z" fill="#FAD86A"/>
<path d="M127.193 152.125C127.193 152.499 126.929 152.942 126.615 153.129C126.291 153.316 126.036 153.163 126.036 152.797C126.036 152.431 126.3 151.98 126.615 151.793C126.938 151.606 127.193 151.759 127.193 152.125Z" fill="#FAD86A"/>
<path d="M139.793 144.849C139.793 145.223 139.529 145.666 139.214 145.853C138.891 146.04 138.636 145.887 138.636 145.521C138.636 145.155 138.899 144.704 139.214 144.517C139.538 144.33 139.793 144.483 139.793 144.849Z" fill="#FAD86A"/>
</g>
<path d="M16.3253 211.661C15.8574 211.661 15.381 211.533 14.9556 211.286C14.0964 210.793 13.5859 209.908 13.5859 208.912V96.0949C13.5859 93.8653 14.9216 91.3549 16.6231 90.3677L147.534 14.7649C148.436 14.2458 149.346 14.1947 150.086 14.6287C150.929 15.1138 151.413 16.152 151.413 17.4711V130.203C151.413 132.586 150.129 134.807 148.062 136.007L17.695 211.295C17.2696 211.542 16.7932 211.669 16.3253 211.669V211.661ZM148.989 16.0244C148.768 16.0244 148.521 16.135 148.376 16.2201L17.4653 91.8314C16.2743 92.5207 15.2789 94.4695 15.2789 96.0949V208.92C15.2789 209.465 15.6447 209.737 15.8064 209.831C15.968 209.925 16.3849 210.103 16.8613 209.831L147.228 134.543C148.768 133.65 149.729 131.99 149.729 130.212V17.4711C149.729 16.6541 149.482 16.2286 149.253 16.0924C149.176 16.0499 149.091 16.0329 148.997 16.0329L148.989 16.0244Z" fill="url(#paint6_linear_2507_6804)"/>
<g>
    <path class='svg-cube-transform svg-cube-side-1-3d-animation svg-animation-delay-10' opacity="0.5" d="M123.603 55.0681V113.583L137.079 121.361V62.8548L123.603 55.0681Z" fill="url(#paint7_linear_2507_6804)"/>
    <path class='svg-cube-transform svg-cube-side-2-3d-animation svg-animation-delay-10' opacity="0.5" d="M123.603 55.0681V113.583L110.127 121.361V62.8548L123.603 55.0681Z" fill="url(#paint8_linear_2507_6804)"/>
    <g class='svg-cube-transform svg-cube-top-4-3d-animation svg-animation-delay-10'>
        <path opacity="0.5" d="M123.603 70.6329L110.127 62.8548L123.603 55.0681L137.079 62.8548L123.603 70.6329Z" fill="url(#paint9_linear_2507_6804)"/>
        <path opacity="0.5" d="M123.603 70.2669L110.451 62.6675L110.127 62.8547L123.603 70.6328L137.079 62.8547L136.764 62.6675L123.603 70.2669Z" fill="url(#paint10_linear_2507_6804)"/>
    </g>
    <path opacity="0.6" d="M123.603 129.148L110.127 121.361L123.603 113.583L137.079 121.361L123.603 129.148Z" fill="#4281EE"/>
    <path class='svg-cube-transform svg-cube-side-1-3d-animation svg-animation-delay-10' opacity="0.5" d="M110.127 62.8547V121.361L123.603 129.148V70.6329L110.127 62.8547Z" fill="url(#paint11_linear_2507_6804)"/>
    <path class='svg-cube-transform svg-cube-side-2-3d-animation svg-animation-delay-10' opacity="0.5" d="M137.079 62.8547V121.361L123.603 129.148V70.6329L137.079 62.8547Z" fill="url(#paint12_linear_2507_6804)"/>
</g>
<g>
    <path class='svg-cube-transform svg-cube-side-1-3d-animation svg-animation-delay-2' opacity="0.5" d="M96.6348 88.2146V129.088L110.11 136.866V96.0012L96.6348 88.2146Z" fill="url(#paint13_linear_2507_6804)"/>
    <path class='svg-cube-transform svg-cube-side-2-3d-animation svg-animation-delay-2' opacity="0.5" d="M96.6348 88.2146V129.088L83.1592 136.866V96.0012L96.6348 88.2146Z" fill="url(#paint14_linear_2507_6804)"/>
    <g class='svg-cube-transform svg-cube-top-3-3d-animation svg-animation-delay-2'>
        <path opacity="0.5" d="M96.6348 103.779L83.1592 96.0012L96.6348 88.2146L110.11 96.0012L96.6348 103.779Z" fill="url(#paint15_linear_2507_6804)"/>
        <path opacity="0.5" d="M96.6348 103.413L83.4825 95.814L83.1592 96.0012L96.6348 103.779L110.11 96.0012L109.796 95.814L96.6348 103.413Z" fill="url(#paint16_linear_2507_6804)"/>
    </g>
    <path opacity="0.6" d="M96.6348 144.653L83.1592 136.866L96.6348 129.088L110.11 136.866L96.6348 144.653Z" fill="#4281EE"/>
    <path class='svg-cube-transform svg-cube-side-1-3d-animation svg-animation-delay-2' opacity="0.5" d="M83.1592 96.0012V136.866L96.6348 144.653V103.779L83.1592 96.0012Z" fill="url(#paint17_linear_2507_6804)"/>   
    <path class='svg-cube-transform svg-cube-side-2-3d-animation svg-animation-delay-2' opacity="0.5" d="M110.11 96.0012V136.866L96.6348 144.653V103.779L110.11 96.0012Z" fill="url(#paint18_linear_2507_6804)"/>
</g>
<g>  
    <path class='svg-cube-transform svg-cube-side-1-3d-animation svg-animation-delay-4' opacity="0.5" d="M69.6665 121.148V144.585L83.1421 152.372V128.927L69.6665 121.148Z" fill="url(#paint19_linear_2507_6804)"/>
    <path class='svg-cube-transform svg-cube-side-2-3d-animation svg-animation-delay-4' opacity="0.5" d="M69.6666 121.148V144.585L56.1909 152.372V128.927L69.6666 121.148Z" fill="url(#paint20_linear_2507_6804)"/>
    <g class='svg-cube-transform svg-cube-top-2-3d-animation svg-animation-delay-4'>
        <path opacity="0.5" d="M69.6666 136.713L56.1909 128.927L69.6666 121.148L83.1422 128.927L69.6666 136.713Z" fill="url(#paint21_linear_2507_6804)"/>
        <path opacity="0.5" d="M69.6666 136.347L56.5142 128.748L56.1909 128.927L69.6666 136.713L83.1422 128.927L82.8274 128.748L69.6666 136.347Z" fill="url(#paint22_linear_2507_6804)"/>
    </g>
    <path opacity="0.6" d="M69.6666 160.15L56.1909 152.372L69.6666 144.585L83.1422 152.372L69.6666 160.15Z" fill="#4281EE"/>
    <path class='svg-cube-transform svg-cube-side-1-3d-animation svg-animation-delay-4' opacity="0.5" d="M56.1909 128.927V152.372L69.6666 160.15V136.713L56.1909 128.927Z" fill="url(#paint23_linear_2507_6804)"/>
    <path class='svg-cube-transform svg-cube-side-2-3d-animation svg-animation-delay-4' opacity="0.5" d="M83.1421 128.927V152.372L69.6665 160.15V136.713L83.1421 128.927Z" fill="url(#paint24_linear_2507_6804)"/>
</g>
<g>
    <path class='svg-cube-transform svg-cube-side-1-3d-animation ' opacity="0.5" d="M42.6982 138.849V160.124L56.1739 167.911V146.627L42.6982 138.849Z" fill="url(#paint25_linear_2507_6804)"/>
    <path class='svg-cube-transform svg-cube-side-2-3d-animation ' opacity="0.5" d="M42.6983 138.849V160.124L29.2227 167.911V146.627L42.6983 138.849Z" fill="url(#paint26_linear_2507_6804)"/>
    <g class='svg-cube-transform svg-cube-top-3d-animation '>
        <path opacity="0.5" d="M42.6983 154.414L29.2227 146.627L42.6983 138.849L56.1739 146.627L42.6983 154.414Z" fill="url(#paint27_linear_2507_6804)"/>
        <path opacity="0.5" d="M42.6983 154.048L29.5459 146.448L29.2227 146.627L42.6983 154.414L56.1739 146.627L55.8592 146.448L42.6983 154.048Z" fill="url(#paint28_linear_2507_6804)"/>
    </g>
    <path opacity="0.6" d="M42.6983 175.689L29.2227 167.911L42.6983 160.124L56.1739 167.911L42.6983 175.689Z" fill="#4281EE"/>
    <path class='svg-cube-transform svg-cube-side-1-3d-animation ' opacity="0.5" d="M29.2227 146.627V167.911L42.6983 175.689V154.414L29.2227 146.627Z" fill="url(#paint29_linear_2507_6804)"/>
    <path class='svg-cube-transform svg-cube-side-2-3d-animation ' opacity="0.5" d="M56.1739 146.627V167.911L42.6982 175.689V154.414L56.1739 146.627Z" fill="url(#paint30_linear_2507_6804)"/>
</g>

<path class='svg-line-transform svg-line-1-animation' d="M42.6981 146.968C42.4089 146.968 42.1792 146.738 42.1792 146.448V60.4549C42.1792 60.1656 42.4089 59.9358 42.6981 59.9358C42.9874 59.9358 43.2171 60.1656 43.2171 60.4549V146.448C43.2171 146.738 42.9874 146.968 42.6981 146.968Z" fill="#FFD400"/>
<path class='svg-line-transform svg-line-2-animation svg-animation-delay-4' d="M69.6669 129.267C69.3776 129.267 69.1479 129.037 69.1479 128.748V42.7542C69.1479 42.4649 69.3776 42.2351 69.6669 42.2351C69.9561 42.2351 70.1858 42.4649 70.1858 42.7542V128.748C70.1858 129.037 69.9561 129.267 69.6669 129.267Z" fill="#FFD400"/>
<path class='svg-line-transform svg-line-3-animation svg-animation-delay-2' d="M96.6352 96.4182C96.3459 96.4182 96.1162 96.1884 96.1162 95.899V29.8189C96.1162 29.5296 96.3459 29.2998 96.6352 29.2998C96.9244 29.2998 97.1541 29.5296 97.1541 29.8189V95.899C97.1541 96.1884 96.9244 96.4182 96.6352 96.4182Z" fill="#FFD400"/>
<path class='svg-line-transform svg-line-4-animation svg-animation-delay-10' d="M123.603 63.3738C123.314 63.3738 123.084 63.1441 123.084 62.8547V6.5611C123.084 6.27176 123.314 6.04199 123.603 6.04199C123.893 6.04199 124.122 6.27176 124.122 6.5611V62.8547C124.122 63.1441 123.893 63.3738 123.603 63.3738Z" fill="#FFD400"/>
<defs>
<linearGradient id="paint0_linear_2507_6804" x1="-118.101" y1="191.461" x2="9.77685" y2="222.422" gradientUnits="userSpaceOnUse">
<stop stop-color="#4281EE"/>
<stop offset="1" stop-color="#3F54F5"/>
</linearGradient>
<linearGradient id="paint1_linear_2507_6804" x1="12.1392" y1="94.3955" x2="12.1392" y2="211.459" gradientUnits="userSpaceOnUse">
<stop stop-color="#4281EE"/>
<stop offset="1" stop-color="#3F54F5"/>
</linearGradient>
<linearGradient id="paint2_linear_2507_6804" x1="14.6752" y1="94.3333" x2="14.5901" y2="95.4736" gradientUnits="userSpaceOnUse">
<stop stop-color="#1E394F"/>
<stop offset="1" stop-color="#112D3D"/>
</linearGradient>
<linearGradient id="paint3_linear_2507_6804" x1="15.7131" y1="91.8059" x2="15.6024" y2="93.3122" gradientUnits="userSpaceOnUse">
<stop stop-color="#1E394F"/>
<stop offset="1" stop-color="#112D3D"/>
</linearGradient>
<linearGradient id="paint4_linear_2507_6804" x1="15.058" y1="93.1929" x2="14.9813" y2="94.2992" gradientUnits="userSpaceOnUse">
<stop stop-color="#1E394F"/>
<stop offset="1" stop-color="#112D3D"/>
</linearGradient>
<linearGradient id="paint5_linear_2507_6804" x1="-143.037" y1="193.206" x2="21.3772" y2="214.311" gradientUnits="userSpaceOnUse">
<stop stop-color="#4281EE"/>
<stop offset="1" stop-color="#3F54F5"/>
</linearGradient>
<linearGradient id="paint6_linear_2507_6804" x1="18.0098" y1="84.632" x2="147.156" y2="141.304" gradientUnits="userSpaceOnUse">
<stop stop-color="#4281EE"/>
<stop offset="1" stop-color="#3F54F5"/>
</linearGradient>
<linearGradient id="paint7_linear_2507_6804" x1="106.707" y1="60.9741" x2="137.651" y2="96.6214" gradientUnits="userSpaceOnUse">
<stop stop-color="#25AFF4"/>
<stop offset="1" stop-color="#3F54F5"/>
</linearGradient>
<linearGradient id="paint8_linear_2507_6804" x1="103.806" y1="80.8704" x2="147.047" y2="105.163" gradientUnits="userSpaceOnUse">
<stop stop-color="#4281EE"/>
<stop offset="1" stop-color="#3F54F5"/>
</linearGradient>
<linearGradient id="paint9_linear_2507_6804" x1="314.271" y1="174.777" x2="333.984" y2="181.333" gradientUnits="userSpaceOnUse">
<stop stop-color="#4281EE"/>
<stop offset="1" stop-color="#3F54F5"/>
</linearGradient>
<linearGradient id="paint10_linear_2507_6804" x1="119.834" y1="66.48" x2="150.384" y2="66.9902" gradientUnits="userSpaceOnUse">
<stop stop-color="#25AFF4"/>
<stop offset="1" stop-color="#3F54F5"/>
</linearGradient>
<linearGradient id="paint11_linear_2507_6804" x1="103.875" y1="88.806" x2="139.783" y2="99.5042" gradientUnits="userSpaceOnUse">
<stop stop-color="#39A1FF"/>
<stop offset="1" stop-color="#3F54F5"/>
</linearGradient>
<linearGradient id="paint12_linear_2507_6804" x1="116.219" y1="79.1343" x2="144.436" y2="86.6024" gradientUnits="userSpaceOnUse">
<stop stop-color="#3F54F5"/>
<stop offset="1" stop-color="#3F54F5"/>
</linearGradient>
<linearGradient id="paint13_linear_2507_6804" x1="85.0903" y1="91.4654" x2="109.03" y2="119.047" gradientUnits="userSpaceOnUse">
<stop stop-color="#25AFF4"/>
<stop offset="1" stop-color="#3F54F5"/>
</linearGradient>
<linearGradient id="paint14_linear_2507_6804" x1="79.9264" y1="106.937" x2="112.957" y2="125.488" gradientUnits="userSpaceOnUse">
<stop stop-color="#25AFF4"/>
<stop offset="1" stop-color="#3F54F5"/>
</linearGradient>
<linearGradient id="paint15_linear_2507_6804" x1="287.302" y1="207.923" x2="307.016" y2="214.479" gradientUnits="userSpaceOnUse">
<stop stop-color="#4281EE"/>
<stop offset="1" stop-color="#3F54F5"/>
</linearGradient>
<linearGradient id="paint16_linear_2507_6804" x1="92.8661" y1="99.6264" x2="123.416" y2="100.137" gradientUnits="userSpaceOnUse">
<stop stop-color="#39A1FF"/>
<stop offset="1" stop-color="#3F54F5"/>
</linearGradient>
<linearGradient id="paint17_linear_2507_6804" x1="76.9063" y1="115.047" x2="110.471" y2="128.672" gradientUnits="userSpaceOnUse">
<stop stop-color="#39A1FF"/>
<stop offset="1" stop-color="#3F54F5"/>
</linearGradient>
<linearGradient id="paint18_linear_2507_6804" x1="89.2504" y1="107.949" x2="115.969" y2="117.584" gradientUnits="userSpaceOnUse">
<stop stop-color="#3F54F5"/>
<stop offset="1" stop-color="#3F54F5"/>
</linearGradient>
<linearGradient id="paint19_linear_2507_6804" x1="63.3966" y1="121.761" x2="80.4258" y2="141.38" gradientUnits="userSpaceOnUse">
<stop stop-color="#39A1FF"/>
<stop offset="1" stop-color="#3F54F5"/>
</linearGradient>
<linearGradient id="paint20_linear_2507_6804" x1="56.0038" y1="132.858" x2="78.9515" y2="145.753" gradientUnits="userSpaceOnUse">
<stop stop-color="#25AFF4"/>
<stop offset="1" stop-color="#3F54F5"/>
</linearGradient>
<linearGradient id="paint21_linear_2507_6804" x1="260.334" y1="240.857" x2="280.047" y2="247.413" gradientUnits="userSpaceOnUse">
<stop stop-color="#4281EE"/>
<stop offset="1" stop-color="#3F54F5"/>
</linearGradient>
<linearGradient id="paint22_linear_2507_6804" x1="65.8978" y1="132.56" x2="96.4477" y2="133.062" gradientUnits="userSpaceOnUse">
<stop stop-color="#FAE673"/>
<stop offset="0.0001" stop-color="#25AFF4"/>
<stop offset="1" stop-color="#3F54F5"/>
</linearGradient>
<linearGradient id="paint23_linear_2507_6804" x1="49.938" y1="141.149" x2="77.8611" y2="158.812" gradientUnits="userSpaceOnUse">
<stop stop-color="#39A1FF"/>
<stop offset="1" stop-color="#3F54F5"/>
</linearGradient>
<linearGradient id="paint24_linear_2507_6804" x1="62.2821" y1="136.594" x2="85.2299" y2="149.489" gradientUnits="userSpaceOnUse">
<stop stop-color="#3F54F5"/>
<stop offset="1" stop-color="#3F54F5"/>
</linearGradient>
<linearGradient id="paint25_linear_2507_6804" x1="37.0834" y1="139.138" x2="53.2616" y2="157.77" gradientUnits="userSpaceOnUse">
<stop stop-color="#25AFF4"/>
<stop offset="1" stop-color="#3F54F5"/>
</linearGradient>
<linearGradient id="paint26_linear_2507_6804" x1="29.4183" y1="149.699" x2="51.1068" y2="161.88" gradientUnits="userSpaceOnUse">
<stop stop-color="#39A1FF"/>
<stop offset="1" stop-color="#3F54F5"/>
</linearGradient>
<linearGradient id="paint27_linear_2507_6804" x1="233.366" y1="258.558" x2="253.079" y2="265.114" gradientUnits="userSpaceOnUse">
<stop stop-color="#4281EE"/>
<stop offset="1" stop-color="#3F54F5"/>
</linearGradient>
<linearGradient id="paint28_linear_2507_6804" x1="38.9295" y1="150.261" x2="69.4794" y2="150.763" gradientUnits="userSpaceOnUse">
<stop stop-color="#FAE673"/>
<stop offset="0.0001" stop-color="#25AFF4"/>
<stop offset="1" stop-color="#3F54F5"/>
</linearGradient>
<linearGradient id="paint29_linear_2507_6804" x1="22.9698" y1="158.004" x2="49.7136" y2="176.179" gradientUnits="userSpaceOnUse">
<stop stop-color="#39A1FF"/>
<stop offset="1" stop-color="#3F54F5"/>
</linearGradient>
<linearGradient id="paint30_linear_2507_6804" x1="35.3139" y1="153.764" x2="57.4423" y2="167.123" gradientUnits="userSpaceOnUse">
<stop stop-color="#3F54F5"/>
<stop offset="1" stop-color="#3F54F5"/>
</linearGradient>
</defs>
</svg>
