<svg width="282" height="68" viewBox="0 0 282 68" fill="none" xmlns="http://www.w3.org/2000/svg">
<g clip-path="url(#clip0_4355_2440)">
<path d="M276.426 0.142018C274.926 0.385528 273.649 1.37986 273.02 2.75974C272.777 3.26706 272.716 3.65261 272.716 4.78899C272.716 6.39209 272.96 7.06174 273.831 8.05607C275.574 9.98386 279.122 9.98386 280.885 8.05607C281.777 7.06174 282 6.39209 282 4.78899C282 3.6729 281.939 3.26706 281.696 2.75974C281.047 1.31898 279.811 0.40582 278.169 0.142018C277.683 0.081141 277.257 0.0202637 277.216 0.0202637C277.176 0.0202637 276.811 0.081141 276.406 0.162311L276.426 0.142018ZM278.737 0.913132C280.338 1.37986 281.25 2.80033 281.25 4.78899C281.25 6.16888 280.885 7.14291 280.095 7.89373C278.615 9.27362 276.02 9.23304 274.601 7.79227C273.811 7.00087 273.487 6.14858 273.487 4.78899C273.487 3.4294 273.811 2.57711 274.601 1.76541C275.615 0.750792 277.135 0.426113 278.737 0.913132Z" fill="#001140"/>
<path d="M275.595 4.66725L275.635 7.00088L276.101 7.04147L276.547 7.08205V5.25573L277.013 5.29632C277.399 5.3369 277.52 5.45866 277.905 6.18918C278.331 7.00088 278.392 7.06176 278.858 7.06176C279.101 7.06176 279.324 7.04147 279.324 7.00088C279.324 6.9603 279.101 6.55445 278.838 6.08772C278.574 5.621 278.351 5.19485 278.351 5.15427C278.351 5.11368 278.513 4.91076 278.696 4.66725C279.061 4.22082 279.162 3.51058 278.899 3.00327C278.655 2.55684 277.905 2.33362 276.689 2.33362H275.574V4.64696L275.595 4.66725ZM277.784 3.26707C278.453 3.7338 277.966 4.56579 277.013 4.56579H276.547V3.04385H277.013C277.257 3.04385 277.601 3.14532 277.784 3.26707Z" fill="#001140"/>
<path d="M7.54053 6.65588C4.43918 7.1226 2.16891 9.2736 1.05405 12.8857C0.425669 14.8946 0.243237 16.4774 0.222966 19.4401C0.222966 22.5449 0.405399 23.7827 1.25675 26.4207C2.3108 29.6472 3.52702 31.8794 7.64189 38.1295C11.4527 43.9128 12.4662 45.7391 13.4595 48.5395C14.4527 51.4007 14.7973 54.9519 14.2297 56.7174C13.6824 58.4625 12.527 59.3351 10.8649 59.3351C9.64864 59.3351 8.89864 59.0104 8.20945 58.219C7.21621 57.1029 7.05405 56.3115 6.99324 52.4154L6.93243 49.0671L3.93243 48.9048C2.29053 48.8236 0.709453 48.7018 0.48648 48.6613L0.0202637 48.6004V51.7254C0.0202637 55.1751 0.222966 57.3261 0.790534 59.4163C1.98648 63.9415 4.31756 66.6201 8.00675 67.6753C9.58783 68.1217 12.3851 68.1217 13.9662 67.6753C18.3446 66.4374 20.8378 63.1298 21.6892 57.4479C21.9324 55.7839 21.8919 52.2936 21.6284 50.6499C21.1419 47.8496 19.8243 44.6028 17.8784 41.3357C17.3716 40.4834 15.8716 38.2309 14.554 36.3437C10.7432 30.8242 9.46621 28.5717 8.4527 25.5279C7.74324 23.4377 7.49999 21.8143 7.60135 19.7445C7.66216 17.695 7.92567 16.8833 8.67567 16.1325C9.36486 15.4425 10.277 15.2193 11.3513 15.4425C12.8716 15.7469 13.9662 16.8224 14.4527 18.4255C14.6554 19.156 14.9189 21.7738 14.9189 23.3566V24.2697L18.0811 24.6553C19.8243 24.8582 21.3446 25.0814 21.4865 25.122C21.7297 25.1829 21.7297 25.0814 21.6689 22.4434C21.5473 17.7356 20.7365 14.712 18.8716 11.9116C17.7162 10.1462 16.2973 8.90834 14.4122 8.01547C12.7095 7.20377 11.777 6.91968 10.0338 6.69646C8.75675 6.53412 8.63513 6.53412 7.60135 6.69646L7.54053 6.65588Z" fill="#001140"/>
<path d="M261.71 6.73709C260.351 6.9603 258.406 7.67054 257.291 8.34019C255.608 9.35481 253.764 11.3841 252.831 13.251C251.554 15.8078 250.987 18.4255 250.906 22.2202C250.824 25.3453 250.987 26.6846 251.757 28.9776C252.831 32.1635 254.189 34.3348 258.811 40.1993C263.372 45.9624 264.811 49.0671 264.973 53.3894C265.034 55.6013 264.851 56.6768 264.203 57.732C262.885 59.8627 259.5 59.9439 258.284 57.8944C257.635 56.7783 257.514 55.9057 257.514 52.598V49.5542L255.466 49.6556C254.331 49.6962 252.791 49.7774 252.02 49.8383L250.622 49.9194L250.541 51.6037C250.378 54.9722 250.824 58.9699 251.615 61.0803C253.034 64.8344 255.101 66.8027 258.689 67.7768C260.007 68.142 262.966 68.0812 264.385 67.6956C267.385 66.8433 269.554 64.8344 270.851 61.6688C271.358 60.4512 271.845 58.5843 272.108 56.9812C272.392 55.1549 272.351 50.1223 272.047 48.6816C271.196 44.6637 269.514 41.6198 265.074 35.9379C261.933 31.8794 260.412 29.6067 259.48 27.4557C257.98 24.0263 257.676 19.9881 258.73 17.7559C259.48 16.1731 260.514 15.4425 262.216 15.3411C263.128 15.3005 263.311 15.3411 263.737 15.6252C264.933 16.4369 265.277 17.5124 265.358 20.7795L265.419 23.2348L265.865 23.174C266.493 23.0725 272.068 22.2811 272.21 22.2811C272.372 22.2811 272.372 19.5213 272.189 17.4921C271.946 14.57 271.237 12.0131 270.183 10.2071C269.595 9.17218 268.095 7.772 267.162 7.34586C265.581 6.61533 263.858 6.45299 261.689 6.81825L261.71 6.73709Z" fill="#001140"/>
<path d="M24.0406 30.3575C24.1014 41.7009 24.1419 54.6881 24.1419 59.1727V67.3303H37.3176V59.4568L34.4392 59.3554C32.8581 59.2945 31.5406 59.2539 31.5203 59.2133C31.5203 59.2133 31.4392 48.3163 31.3784 35.0247L31.277 10.8564L28.0135 10.3491C26.2297 10.065 24.5676 9.8012 24.3446 9.76061L23.9392 9.67944L24.0203 30.3372L24.0406 30.3575Z" fill="#001140"/>
<path d="M233.716 11.9523C231.122 12.3176 228.487 12.7031 227.878 12.7843L226.743 12.9466L226.662 32.8941C226.622 43.8723 226.561 56.1087 226.5 60.1063L226.419 67.371H233.737L233.818 63.3937C233.878 61.2224 233.919 56.1493 233.919 52.1516V44.9072L234.304 44.8261C234.507 44.7652 235.439 44.7246 236.372 44.7246C237.973 44.7246 238.095 44.7246 238.865 45.1102C240.162 45.7595 240.831 46.9771 241.135 49.331C241.196 49.8992 241.277 53.5315 241.277 57.3871C241.277 63.9821 241.338 65.5649 241.703 66.8637L241.845 67.3913H245.595C249.122 67.3913 249.345 67.3913 249.264 67.1478C248.797 65.9302 248.737 65.0982 248.635 56.6363C248.534 48.0323 248.473 47.2612 247.926 45.1102C247.358 42.8374 246.081 40.9096 244.622 40.0776C244.277 39.8747 243.973 39.6921 243.932 39.6718C243.892 39.6515 244.419 39.1239 245.047 38.4948C246.365 37.1758 247.014 36.1409 247.622 34.274C248.351 32.123 248.493 30.8243 248.574 26.1164C248.635 23.3364 248.574 21.2868 248.493 20.2925C248.047 15.9905 246.75 13.4336 244.378 12.1755C242.311 11.0797 240.426 11.0391 233.716 12.0132V11.9523ZM239.615 19.7446C240.203 20.0693 240.669 20.6983 240.973 21.6115C241.176 22.1797 241.196 23.0117 241.216 27.2122C241.216 32.4274 241.155 32.955 240.527 34.2943C240.122 35.1669 239.23 35.9988 238.419 36.3032C237.689 36.567 234.081 36.9526 233.98 36.77C233.878 36.6076 234.081 19.8461 234.182 19.8461C234.223 19.8461 235.115 19.7243 236.149 19.6025C238.216 19.3184 238.905 19.359 239.615 19.7649V19.7446Z" fill="#001140"/>
<path d="M45.9934 12.7234C43.115 13.1293 40.9055 14.7324 39.6285 17.3501C39.2839 18.0806 38.8582 19.1764 38.7163 19.7852C38.1285 22.1391 38.1082 22.8493 38.1893 39.9356C38.2501 53.7142 38.2907 56.3928 38.4731 57.5697C39.0204 61.06 40.0136 63.2516 41.8785 65.1388C43.0947 66.3564 44.5542 67.1883 46.2772 67.6754C47.7569 68.0609 50.7569 68.1015 52.3582 67.7363C55.865 66.9246 58.3988 64.6315 59.615 61.1006C60.5474 58.4423 60.5272 58.767 60.4866 42.1475C60.4866 33.8884 60.4055 26.4411 60.3244 25.5685C59.7772 19.1561 57.0001 15.0976 51.9934 13.4134C50.2096 12.8046 47.5744 12.5205 45.9934 12.7234ZM50.3312 20.8201C51.1217 21.1448 51.7299 21.7536 52.1555 22.5653C52.8447 23.8843 52.8447 23.9654 52.8853 41.0314C52.9258 56.5754 52.9055 57.0421 52.642 57.8335C52.3177 58.8684 51.3853 59.8831 50.5542 60.1063C49.8245 60.3092 48.6488 60.3092 47.9393 60.1063C47.0474 59.8222 46.1353 58.8482 45.7704 57.6915C45.4663 56.7377 45.4663 56.6972 45.3447 43.0606C45.1826 26.5223 45.2434 23.7016 45.588 22.6667C45.9123 21.7536 46.6623 20.881 47.392 20.6172C48.1217 20.3534 49.4596 20.4548 50.3515 20.8404L50.3312 20.8201Z" fill="#001140"/>
<path d="M222.912 13.4133C220.237 13.7785 212.209 14.712 208.459 15.0975L204.669 15.4628V21.165C204.669 24.3103 204.608 35.9785 204.527 47.0784C204.466 58.1987 204.466 67.3303 204.507 67.3912C204.568 67.452 209.088 67.452 214.561 67.3912L224.514 67.31V59.68L218.209 59.7815L211.905 59.883V44.481L213.345 44.3795C214.115 44.3389 216.203 44.2172 217.946 44.1563C219.709 44.0751 221.351 43.9737 221.595 43.9331L222.041 43.8722V40.0572C222.041 37.9671 222 36.2423 221.959 36.2423C221.757 36.2423 213.669 36.7902 212.878 36.8713L211.966 36.9525L212.027 29.6269C212.047 25.5887 212.088 22.2811 212.108 22.2608C212.108 22.2608 214.642 21.9767 217.743 21.6723C220.845 21.3476 223.703 21.0635 224.108 21.0026L224.838 20.9215V17.0659C224.838 13.4538 224.838 13.19 224.595 13.2103C224.453 13.2103 223.723 13.3118 222.953 13.4133H222.912Z" fill="#001140"/>
<path d="M61.7432 18.5676V22.3217L62.4729 22.4029C62.858 22.4434 64.2161 22.5652 65.4729 22.6869C66.7297 22.8087 67.7837 22.9102 67.804 22.9305C67.8242 22.9507 67.9053 32.9955 67.9864 45.1913C68.0472 57.4073 68.1283 67.4115 68.1283 67.4318C68.1283 67.4521 69.7702 67.4724 71.7972 67.4724H75.4661L75.4053 55.2157C75.3648 48.4787 75.304 38.5962 75.2634 33.2796C75.2229 27.963 75.2432 23.5798 75.2837 23.5392C75.3445 23.5189 76.4594 23.5595 77.7567 23.661C79.054 23.7624 80.3715 23.8436 80.7161 23.8436H81.304V20.2519C81.304 17.4515 81.2634 16.6398 81.1418 16.6398C80.1891 16.6398 64.1148 15.1382 62.3513 14.8946L61.7634 14.8135V18.5676H61.7432Z" fill="#001140"/>
<path d="M198.669 16.0107L195.507 16.2948V25.1221C195.486 29.972 195.426 36.7699 195.385 40.2196L195.304 46.49L191.635 31.6968L187.966 16.9036L187.135 16.9645C186.669 17.0051 184.601 17.1471 182.534 17.2892L178.784 17.5327L178.703 27.0498C178.642 32.2853 178.601 43.507 178.581 51.9893L178.541 67.4115L181.845 67.4521H185.128V62.724C185.128 60.1062 185.189 51.9284 185.23 44.5622L185.311 31.1489L188.453 43.7911C190.196 50.7311 192.203 58.909 192.953 61.9529L194.311 67.4724H198.041C200.899 67.4724 201.791 67.4318 201.831 67.2898C201.973 66.8839 202.115 15.6658 201.973 15.6658C201.912 15.6658 200.412 15.8281 198.689 15.9905L198.669 16.0107Z" fill="#001140"/>
<path d="M84.8513 34.9436C84.8919 44.8666 84.9527 56.2303 85.0135 60.2279L85.0946 67.4926H92.4527L92.3513 58.077L92.25 48.6815H95.2905C98.8378 48.6815 99.7905 48.5192 101.635 47.606C104.068 46.3885 105.568 44.2375 106.399 40.8284C106.743 39.4079 106.824 29.6066 106.5 27.4759C105.73 22.1187 102.932 18.9937 98.0473 17.9791C97.4392 17.8573 95.4932 17.6747 93.75 17.5529C89.4121 17.2688 86.554 17.0862 85.5811 16.9847L84.7905 16.9036L84.8513 34.9436ZM95.5338 24.7973C96.9324 24.8988 97.5405 25.122 98.1892 25.7917C99.223 26.8266 99.2635 27.131 99.2635 33.5434V39.1035L98.8986 39.8746C98.1689 41.4168 97.277 41.7415 94.2567 41.5995L92.25 41.498V24.5741L93.4054 24.635C94.0338 24.6756 94.9662 24.7365 95.5135 24.7973H95.5338Z" fill="#001140"/>
<path d="M173.23 17.8371C168.973 18.1009 164.25 18.3038 160.439 18.4256L157.074 18.5067V25.5279L160.155 25.4467L163.216 25.3656L163.115 46.4291L163.013 67.4927H170.372V63.698C170.392 61.6282 170.453 52.0704 170.493 42.4924L170.574 25.0612L173.594 24.9394L176.615 24.8177V21.2259C176.615 17.8777 176.615 17.6342 176.372 17.6342C176.23 17.6342 174.811 17.7356 173.209 17.8371H173.23Z" fill="#001140"/>
<path d="M111.507 28.4703C110.676 33.9898 109.014 45.0289 107.818 52.9633L105.649 67.4115L108.973 67.4521C110.797 67.4521 112.318 67.4521 112.358 67.4318C112.399 67.3709 113.635 58.9089 113.635 58.6249C113.635 58.6249 115.662 58.6046 118.135 58.6046C122.311 58.6046 122.635 58.6046 122.716 58.8481C122.737 58.9901 123.041 60.9788 123.385 63.2921L123.973 67.4927H131.432L131.351 67.0259C131.189 66.1534 123.912 19.0952 123.912 18.9328C123.912 18.8314 123.02 18.7502 120.628 18.6893C118.804 18.6487 116.351 18.5676 115.176 18.527L113.027 18.4458L111.507 28.4906V28.4703ZM119.878 39.5905C120.831 46.1044 121.622 51.5428 121.662 51.6848C121.723 51.9283 121.48 51.9283 118.155 51.9283H114.568L114.628 51.4616C114.669 51.2181 115.439 45.7797 116.351 39.3673C117.243 32.9752 118.034 27.7397 118.074 27.7397C118.115 27.7397 118.926 33.0767 119.858 39.5702L119.878 39.5905Z" fill="#001140"/>
<path d="M138.507 18.8314L133.601 18.872V30.5807C133.601 37.0135 133.642 47.9511 133.703 54.8708L133.784 67.4927H141.101V47.6264H142.662C143.534 47.6264 144.608 47.6873 145.054 47.7887C146.615 48.0931 147.628 49.128 148.115 50.8935C148.318 51.6037 148.358 52.7604 148.439 58.6655C148.5 64.7532 148.54 65.7273 148.763 66.539L149.007 67.4927H156.507L156.426 67.168C156.365 67.0057 156.223 66.5187 156.101 66.0925C155.899 65.4635 155.858 64.2053 155.777 58.2394C155.696 52.3545 155.635 50.9544 155.453 49.9803C155.169 48.5396 154.662 47.2003 154.115 46.348C153.588 45.516 152.392 44.3796 151.662 44.0144C151.338 43.852 151.074 43.6694 151.095 43.6085C151.095 43.5476 151.48 43.2635 151.946 42.9388C153.466 41.9445 154.703 40.0776 155.25 37.9063C155.676 36.2423 155.838 33.8275 155.757 30.3778C155.655 26.7049 155.412 25.2438 154.581 23.519C153.628 21.51 152.088 20.1707 150 19.4808C147.831 18.7705 146.797 18.7097 138.507 18.7908V18.8314ZM146.513 26.1367C147.284 26.5223 147.953 27.476 148.155 28.45C148.257 28.8762 148.318 30.7837 148.318 33.097C148.318 37.6019 148.196 38.3122 147.284 39.3877C146.412 40.4023 145.804 40.6052 143.311 40.6458L141.122 40.7067V25.8323L142.622 25.7714C144.851 25.7106 145.824 25.7714 146.534 26.1367H146.513Z" fill="#001140"/>
</g>
<defs>
<clipPath id="clip0_4355_2440">
<rect width="282" height="68" fill="white"/>
</clipPath>
</defs>
</svg>
