<svg width="254" height="251" viewBox="0 0 254 251" fill="none" xmlns="http://www.w3.org/2000/svg">
<style>
.svg-card-3d-jump {
    animation: svg-card-3d-jump-animation 10s cubic-bezier(.25,.67,.51,.86) infinite;
}
.svg-card-2-3d-jump {
    animation: svg-card-2-3d-jump-animation 10s cubic-bezier(.25,.67,.51,.86) infinite;
}
.svg-card-shadow {
    animation: svg-card-shadow-animation 10s cubic-bezier(.25,.67,.51,.86) infinite;
}
@keyframes svg-card-shadow-animation {
    0% {
        transform: translateY(7%);
    }
    2% {
        transform: translateY(7%);
    }
    
    20% {
        transform: none;
    }
    60% {
        transform: none;
    }
    80% {
        transform: translateY(7%);
    }
    100%{
        transform: translateY(7%);
    }
}
@keyframes svg-card-3d-jump-animation {
    0% {
        transform: translateY(13%);
    }
    2% {
        transform: translateY(13%);
    }
    20% {
        transform: none;
    }
    60% {
        transform: none;
    }
    80% {
        transform: translateY(13%);
    }
    100%{
        transform: translateY(13%);
    }
}
@keyframes svg-card-2-3d-jump-animation {
    0% {
        transform: translate(-12%, 38%);
    }
    22% {
        transform: none;
    }
    62% {
        transform: none;
    }
    82% {
        transform: translate(-12%, 38%);
    }
    100%{
        transform: translate(-12%, 38%);
    }
}

</style>
<path d="M222.106 184.647L159.068 221.047C158.055 221.622 156.835 221.622 155.822 221.047L37.8043 152.921C35.6401 151.677 32.9463 148.661 36.2617 144.955L94.8099 110.742C98.6779 108.417 104.319 106.966 108.785 107.542C110.765 107.795 113.252 108.279 114.38 108.923L224.984 172.629C229.634 175.322 226.78 181.953 222.129 184.647H222.106Z" fill="#3F54F5"/>
<path d="M235.321 181.285C235.321 183.473 233.871 185.683 230.993 187.341L173.481 220.563C167.725 223.879 158.423 223.902 152.691 220.563L38.4029 154.647C35.571 152.99 34.1435 150.826 34.1435 148.661V153.842C34.1666 156.006 35.594 158.17 38.4259 159.828L152.714 225.743C158.446 229.059 167.748 229.059 173.504 225.743L231.016 192.521C233.917 190.84 235.367 188.653 235.344 186.466V181.285H235.321Z" fill="url(#paint0_linear_34_11063)"/>
<path d="M231.039 175.299L116.751 109.384C111.041 106.068 101.717 106.068 95.9611 109.384L38.4489 142.606C32.6931 145.922 32.6701 151.332 38.3798 154.647L152.667 220.563C158.4 223.879 167.702 223.879 173.458 220.563L230.97 187.341C236.726 184.025 236.772 178.615 231.039 175.299ZM150.895 217.432L37.505 151.977C34.7882 150.411 34.7882 146.497 37.505 144.932L50.6282 137.357L61.1269 136.137L85.0481 122.323L89.0771 115.139L97.1813 110.466C102.96 107.127 110.074 107.127 115.876 110.466L225.329 173.642C226.25 174.171 226.25 175.53 225.329 176.059L153.657 217.455C152.806 217.939 151.747 217.939 150.895 217.455V217.432Z" fill="#2437C5"/>
<path d="M204.562 196.389L201.914 194.869C200.602 194.109 198.369 194.178 196.872 195.053L187.41 200.51C186.903 200.809 186.512 201.155 186.305 201.546C185.798 202.444 186.12 203.411 187.087 203.986L189.735 205.506C191.047 206.266 193.281 206.197 194.777 205.322L204.24 199.865C204.746 199.566 205.138 199.221 205.345 198.829C205.851 197.931 205.529 196.964 204.562 196.389Z" fill="#1E1F27"/>
<g opacity="0.9">
<path d="M204.562 197.379L201.914 195.859C200.602 195.099 198.369 195.191 196.872 196.043L187.41 201.5C186.903 201.799 186.512 202.145 186.305 202.536C186.235 202.674 186.212 202.812 186.166 202.95C186.305 203.365 186.627 203.733 187.087 204.009L189.735 205.529C191.047 206.289 193.281 206.22 194.777 205.345L204.24 199.888C204.746 199.589 205.138 199.244 205.345 198.852C205.414 198.714 205.437 198.576 205.483 198.438C205.345 198.023 205.022 197.655 204.562 197.379Z" fill="#23252E"/>
</g>
<path d="M75.9769 123.244L64.3041 129.99C63.7285 130.312 63.6824 130.818 64.1659 131.095C64.6494 131.371 65.5243 131.348 66.0999 131.026L77.7727 124.28C78.3483 123.957 78.3943 123.451 77.9108 123.175C77.4274 122.898 76.5525 122.921 75.9769 123.244Z" fill="#191414"/>
<path d="M59.8145 134.778C59.1699 135.147 58.1108 135.147 57.4661 134.778C56.8215 134.41 56.8215 133.788 57.4661 133.42C58.1108 133.052 59.1699 133.052 59.8145 133.42C60.4592 133.788 60.4592 134.41 59.8145 134.778Z" fill="#191414"/>
<path opacity="0.1" d="M57.8115 134.617C58.295 134.87 59.0778 134.87 59.5382 134.571C59.9987 134.272 59.9987 133.834 59.5152 133.581C59.0317 133.328 58.2489 133.328 57.7885 133.627C57.328 133.927 57.328 134.364 57.8115 134.64V134.617Z" fill="#CFD5D5"/>
<path opacity="0.1" d="M58.1799 134.341C58.4331 134.479 58.8706 134.479 59.1238 134.318C59.3771 134.157 59.3771 133.926 59.1238 133.765C58.8706 133.627 58.4331 133.627 58.1799 133.788C57.9266 133.95 57.9266 134.18 58.1799 134.341Z" fill="#CFD5D5"/>
<g style="mix-blend-mode:screen" opacity="0.2">
<path d="M58.4792 134.157C58.4792 134.157 58.7324 134.203 58.8245 134.157C58.9166 134.088 58.9166 134.019 58.8245 133.95C58.7324 133.903 58.5713 133.903 58.4792 133.95C58.3871 134.019 58.3871 134.088 58.4792 134.157Z" fill="#CFD5D5"/>
</g>
<path d="M204.24 206.933L197.494 210.824C196.711 211.285 196.066 211.009 196.066 210.226C196.066 209.443 196.711 208.43 197.494 207.992L204.24 204.102C205.022 203.641 205.667 203.917 205.667 204.7C205.667 205.483 205.022 206.496 204.24 206.933Z" fill="#32353F"/>
<mask id="mask0_34_11063" style="mask-type:luminance" maskUnits="userSpaceOnUse" x="196" y="203" width="10" height="9">
<path d="M204.24 206.933L197.494 210.824C196.711 211.285 196.066 211.009 196.066 210.226C196.066 209.443 196.711 208.43 197.494 207.992L204.24 204.102C205.022 203.641 205.667 203.917 205.667 204.7C205.667 205.483 205.022 206.496 204.24 206.933Z" fill="white"/>
</mask>
<g mask="url(#mask0_34_11063)">
<path d="M194.938 208.016L193.994 208.545L197.333 210.456L198.277 209.903L194.938 207.992V208.016ZM197.01 206.818L196.066 207.371L199.382 209.282L200.326 208.729L196.987 206.818H197.01ZM199.082 205.621L198.138 206.174L201.454 208.085L202.398 207.555L199.082 205.644V205.621ZM201.155 204.424L200.211 204.976L203.549 206.887L204.493 206.358L201.178 204.447L201.155 204.424Z" fill="#98782E"/>
</g>


<g style="mix-blend-mode:screen">
<path d="M213.587 172.283L118.616 117.442L53.391 155.108L148.362 209.949L213.587 172.283Z" fill="#3F54F5"/>
</g>
<g clip-path="url(#clip0_34_11063)">
    <g style="mix-blend-mode:multiply" class='svg-card-shadow' opacity="0.2">
        <path d="M124.305 103.25L215.9 156.343C218.54 157.858 218.815 160.173 216.532 161.495L161.658 193.153C159.375 194.475 155.386 194.31 152.746 192.767L61.1782 139.701C58.5376 138.186 58.2626 135.872 60.5456 134.549L115.42 102.892C117.703 101.569 121.691 101.734 124.332 103.277L124.305 103.25Z" fill="#50197C"/>
    </g>
    <g style="mix-blend-mode:multiply" opacity="0.6">
        <path d="M125.327 121.215L216.922 174.309C219.562 175.824 219.838 178.138 217.555 179.461L162.68 211.118C160.397 212.441 156.409 212.275 153.768 210.733L62.173 157.639C59.5324 156.124 59.2573 153.81 61.5403 152.487L116.415 120.83C118.698 119.507 122.686 119.673 125.327 121.215Z" fill="#50197C"/>
    </g>

    <g class='svg-card-3d-jump'>
        <path d="M60.1375 120.692C60.1375 121.684 60.8802 122.731 62.283 123.558L153.878 176.651C156.519 178.166 160.507 178.331 162.79 177.036L217.665 145.379C218.792 144.718 219.287 143.836 219.177 142.927C219.122 142.403 219.122 141.962 219.04 141.356C218.93 140.419 218.215 139.483 216.894 138.711L125.327 85.5906C122.686 84.0752 118.698 83.9099 116.415 85.2049L61.5403 116.862C60.5776 117.413 60.055 118.157 60 118.956C59.945 119.59 60.1375 120.141 60.1375 120.665V120.692Z" fill="url(#paint1_linear_34_11063)" fill-opacity="0.5"/>
        <path d="M125.327 85.5904L216.922 138.683C219.562 140.199 219.837 142.513 217.554 143.836L162.68 175.493C160.397 176.816 156.408 176.65 153.768 175.107L62.1728 122.014C59.5322 120.499 59.2572 118.185 61.5402 116.862L116.415 85.2046C118.698 83.8821 122.686 84.0474 125.327 85.5904Z" fill="url(#paint2_linear_34_11063)" fill-opacity="0.5"/>
        <path d="M207.212 139.758C208.01 140.226 208.478 140.805 208.56 141.411C208.643 142.017 208.285 142.568 207.625 142.954L203.994 145.048C202.591 145.875 200.116 145.764 198.493 144.828L185.345 137.223C184.547 136.755 184.08 136.176 183.997 135.57C183.915 134.964 184.272 134.413 184.932 134.027L188.563 131.933C189.966 131.107 192.442 131.217 194.064 132.154L207.212 139.758Z" fill="#FEDCFF"/>
        <path d="M97.5457 121.656C98.3434 122.125 98.811 122.703 98.8935 123.309C98.976 123.916 98.6185 124.467 97.9583 124.852L90.9993 128.875C89.5965 129.701 87.1209 129.591 85.4981 128.654L71.1674 120.361C70.3698 119.893 69.9022 119.314 69.8197 118.708C69.7371 118.102 70.0947 117.551 70.7549 117.165L77.7139 113.143C79.1167 112.316 81.5922 112.426 83.2151 113.363L97.5457 121.656Z" fill="#2E3EB7"/>
        <path d="M71.6626 120.471L85.9932 128.765C87.341 129.536 89.3764 129.619 90.5317 128.958L97.4907 124.935C98.646 124.274 98.5084 123.089 97.1606 122.29L82.83 113.997C81.4822 113.225 79.4468 113.143 78.2915 113.804L71.3325 117.826C70.1772 118.488 70.3148 119.672 71.6626 120.444V120.471Z" fill="#39A1FF"/>
        <g opacity="0.6">
            <path d="M82.3624 113.776C82.1974 113.694 82.0048 113.639 81.8123 113.583L70.9199 119.865C70.9199 119.865 71.1124 120.086 71.25 120.168L73.9731 118.598L78.4841 121.215C77.5488 122.042 77.8239 123.254 79.2542 124.081C80.6845 124.907 82.8025 125.073 84.2328 124.549L88.9914 127.304L86.2683 128.875C86.4333 128.958 86.5983 129.013 86.7634 129.095L97.7658 122.758C97.7658 122.758 97.5457 122.565 97.4082 122.455L94.41 124.191L89.6515 121.436C90.6967 120.609 90.4217 119.342 88.9638 118.488C87.4785 117.634 85.3055 117.468 83.8752 118.074L79.3642 115.457L82.3624 113.721V113.776ZM84.7279 124.356L89.3214 121.711L94.025 124.439L89.3489 127.139L84.6454 124.411C84.6454 124.411 84.7004 124.411 84.7279 124.384V124.356ZM79.6393 123.916C78.429 123.227 78.1815 122.207 78.9241 121.491L83.8202 124.329C82.61 124.77 80.8496 124.604 79.6393 123.916ZM88.6063 118.736C89.844 119.452 90.0916 120.499 89.2389 121.215L84.3153 118.378C85.5256 117.909 87.341 118.047 88.5788 118.763L88.6063 118.736ZM83.9027 118.543L88.9088 121.436L84.3153 124.081L79.2542 121.243C79.3092 121.188 83.9027 118.543 83.9027 118.543ZM83.4626 118.295L78.8691 120.94L74.3306 118.378L79.0067 115.677L83.4901 118.267L83.4626 118.295Z" fill="#D88C1D"/>
        </g>
        <path d="M153.768 163.232C151.513 164.527 147.854 164.527 145.599 163.232C143.343 161.938 143.343 159.816 145.599 158.493C147.854 157.199 151.513 157.199 153.768 158.493C156.024 159.788 156.024 161.91 153.768 163.232Z" fill="#9B2C2C"/>
        <path d="M163.148 168.66C160.892 169.955 157.234 169.955 154.978 168.66C152.723 167.365 152.723 165.244 154.978 163.921C157.234 162.626 160.892 162.626 163.148 163.921C165.403 165.216 165.403 167.338 163.148 168.66Z" fill="#F4AC1C"/>
        <path d="M185.042 151.853C184.575 151.853 184.135 151.964 183.75 152.212L180.696 153.975C180.284 154.223 180.091 154.471 180.091 154.719C180.091 154.994 180.284 155.242 180.696 155.463L181.577 155.959C181.962 156.179 182.402 156.317 182.869 156.317C183.337 156.317 183.777 156.207 184.19 155.959L187.243 154.195C187.655 153.975 187.848 153.699 187.848 153.451C187.848 153.203 187.655 152.928 187.243 152.708L186.363 152.212C185.978 151.991 185.538 151.853 185.07 151.853H185.042ZM184.355 152.597C184.877 152.294 185.372 152.294 185.868 152.597L186.583 153.011C187.078 153.286 187.05 153.589 186.555 153.865L183.557 155.6C183.034 155.904 182.539 155.904 182.072 155.6L181.357 155.187C180.861 154.912 180.861 154.609 181.357 154.306L184.355 152.57V152.597Z" fill="white"/>
        <path d="M180.559 149.263C180.091 149.263 179.651 149.374 179.266 149.622L176.213 151.385C175.8 151.633 175.608 151.881 175.608 152.129C175.608 152.404 175.8 152.652 176.213 152.873L177.093 153.369C177.478 153.589 177.918 153.727 178.386 153.727C178.854 153.727 179.294 153.617 179.706 153.369L182.759 151.605C183.172 151.385 183.365 151.109 183.365 150.862C183.365 150.614 183.172 150.338 182.759 150.118L181.879 149.622C181.467 149.401 181.054 149.263 180.586 149.263H180.559ZM179.871 150.007C180.394 149.704 180.889 149.704 181.384 150.007L182.099 150.421C182.594 150.696 182.567 150.999 182.072 151.275L179.074 153.011C178.551 153.314 178.056 153.314 177.588 153.011L176.873 152.597C176.378 152.322 176.378 152.019 176.873 151.716L179.871 149.98V150.007Z" fill="white"/>
        <path d="M176.075 146.674C175.608 146.674 175.168 146.784 174.783 147.032L171.729 148.795C171.317 149.043 171.124 149.291 171.124 149.539C171.124 149.815 171.317 150.063 171.729 150.283L172.61 150.779C173.022 150.999 173.435 151.137 173.902 151.137C174.37 151.137 174.81 151.027 175.223 150.779L178.276 149.016C178.689 148.795 178.881 148.52 178.881 148.272C178.881 148.024 178.689 147.748 178.276 147.528L177.396 147.032C177.011 146.811 176.571 146.674 176.103 146.674H176.075ZM175.388 147.417C175.91 147.114 176.406 147.114 176.901 147.417L177.616 147.831C178.111 148.106 178.083 148.409 177.588 148.685L174.59 150.421C174.067 150.724 173.572 150.724 173.105 150.421L172.39 150.007C171.895 149.732 171.895 149.429 172.39 149.126L175.388 147.39V147.417Z" fill="white"/>
        <path d="M171.592 144.084C171.124 144.084 170.684 144.194 170.299 144.442L167.246 146.205C166.833 146.453 166.641 146.701 166.641 146.949C166.641 147.225 166.833 147.473 167.246 147.693L168.126 148.189C168.511 148.409 168.951 148.547 169.419 148.547C169.887 148.547 170.327 148.437 170.739 148.189L173.792 146.426C174.205 146.205 174.398 145.93 174.398 145.682C174.398 145.434 174.205 145.158 173.792 144.938L172.912 144.442C172.527 144.221 172.087 144.084 171.619 144.084H171.592ZM170.904 144.828C171.427 144.525 171.922 144.525 172.417 144.828L173.132 145.241C173.627 145.516 173.6 145.819 173.105 146.095L170.107 147.831C169.584 148.134 169.089 148.134 168.621 147.831L167.906 147.417C167.411 147.142 167.411 146.839 167.906 146.536L170.904 144.8V144.828Z" fill="white"/>
        <path d="M160.672 137.747C160.204 137.747 159.764 137.857 159.379 138.105L156.326 139.868C155.914 140.116 155.721 140.364 155.721 140.612C155.721 140.888 155.914 141.136 156.326 141.356L157.206 141.852C157.591 142.072 158.031 142.21 158.499 142.21C158.967 142.21 159.407 142.1 159.819 141.852L162.873 140.089C163.285 139.868 163.478 139.593 163.478 139.345C163.478 139.097 163.285 138.821 162.873 138.601L161.992 138.105C161.607 137.884 161.167 137.747 160.7 137.747H160.672ZM159.984 138.491C160.507 138.187 161.002 138.187 161.497 138.491L162.212 138.904C162.708 139.179 162.68 139.482 162.185 139.758L159.187 141.494C158.664 141.797 158.169 141.797 157.701 141.494L156.986 141.08C156.491 140.805 156.491 140.502 156.986 140.199L159.984 138.463V138.491Z" fill="white"/>
        <path d="M156.189 135.157C155.721 135.157 155.281 135.267 154.896 135.515L151.843 137.278C151.43 137.526 151.237 137.774 151.237 138.022C151.237 138.298 151.43 138.546 151.843 138.766L152.723 139.262C153.108 139.482 153.548 139.62 154.016 139.62C154.483 139.62 154.923 139.51 155.336 139.262L158.389 137.499C158.802 137.278 158.994 137.003 158.994 136.755C158.994 136.507 158.802 136.231 158.389 136.011L157.509 135.515C157.124 135.295 156.684 135.157 156.216 135.157H156.189ZM155.501 135.901C156.024 135.598 156.519 135.598 157.014 135.901L157.729 136.314C158.224 136.589 158.197 136.893 157.701 137.168L154.703 138.904C154.181 139.207 153.686 139.207 153.218 138.904L152.503 138.491C152.008 138.215 152.008 137.912 152.503 137.609L155.501 135.873V135.901Z" fill="white"/>
        <path d="M151.705 132.567C151.237 132.567 150.797 132.677 150.412 132.925L147.359 134.688C146.947 134.936 146.754 135.184 146.754 135.432C146.754 135.708 146.947 135.956 147.359 136.176L148.239 136.672C148.624 136.893 149.065 137.03 149.532 137.03C150 137.03 150.44 136.92 150.852 136.672L153.906 134.909C154.318 134.688 154.511 134.413 154.511 134.165C154.511 133.917 154.318 133.641 153.906 133.421L153.025 132.925C152.64 132.705 152.2 132.567 151.733 132.567H151.705ZM151.017 133.311C151.54 133.008 152.035 133.008 152.53 133.311L153.245 133.724C153.741 134 153.713 134.303 153.218 134.578L150.22 136.314C149.697 136.617 149.202 136.617 148.734 136.314L148.019 135.901C147.524 135.625 147.524 135.322 148.019 135.019L151.017 133.283V133.311Z" fill="white"/>
        <path d="M147.222 129.977C146.754 129.977 146.314 130.087 145.929 130.335L142.876 132.098C142.463 132.346 142.271 132.594 142.271 132.842C142.271 133.118 142.463 133.366 142.876 133.586L143.756 134.082C144.141 134.303 144.581 134.44 145.049 134.44C145.516 134.44 145.956 134.33 146.369 134.082L149.422 132.319C149.835 132.098 150.027 131.823 150.027 131.575C150.027 131.327 149.835 131.051 149.422 130.831L148.542 130.335C148.157 130.115 147.717 129.977 147.249 129.977H147.222ZM146.534 130.721C147.057 130.418 147.552 130.418 148.047 130.721L148.762 131.134C149.257 131.41 149.23 131.713 148.734 131.988L145.736 133.724C145.214 134.027 144.719 134.027 144.251 133.724L143.536 133.311C143.041 133.035 143.041 132.732 143.536 132.429L146.534 130.693V130.721Z" fill="white"/>
        <path d="M136.302 123.64C135.834 123.64 135.394 123.75 135.009 123.998L131.956 125.761C131.543 126.009 131.351 126.257 131.351 126.505C131.351 126.781 131.543 127.029 131.956 127.249L132.836 127.745C133.221 127.966 133.661 128.103 134.129 128.103C134.596 128.103 135.036 127.993 135.449 127.745L138.502 125.982C138.915 125.761 139.107 125.486 139.107 125.238C139.107 124.99 138.915 124.714 138.502 124.494L137.622 123.998C137.237 123.778 136.797 123.64 136.329 123.64H136.302ZM135.614 124.384C136.137 124.081 136.632 124.081 137.127 124.384L137.842 124.797C138.337 125.073 138.31 125.376 137.815 125.651L134.816 127.387C134.294 127.69 133.799 127.69 133.331 127.387L132.616 126.974C132.121 126.698 132.121 126.395 132.616 126.092L135.614 124.356V124.384Z" fill="white"/>
        <path d="M131.791 121.05C131.323 121.05 130.883 121.16 130.498 121.408L127.445 123.172C127.032 123.42 126.84 123.668 126.84 123.915C126.84 124.191 127.032 124.439 127.445 124.659L128.325 125.155C128.71 125.376 129.15 125.514 129.618 125.514C130.085 125.514 130.525 125.403 130.938 125.155L133.991 123.392C134.404 123.172 134.596 122.896 134.596 122.648C134.596 122.4 134.404 122.125 133.991 121.904L133.111 121.408C132.726 121.188 132.286 121.05 131.818 121.05H131.791ZM131.103 121.794C131.626 121.491 132.121 121.491 132.616 121.794L133.331 122.207C133.826 122.483 133.799 122.786 133.304 123.061L130.305 124.797C129.783 125.1 129.288 125.1 128.82 124.797L128.105 124.384C127.61 124.108 127.61 123.805 128.105 123.502L131.103 121.766V121.794Z" fill="white"/>
        <path d="M127.307 118.46C126.84 118.46 126.4 118.57 126.014 118.818L122.961 120.582C122.549 120.83 122.356 121.078 122.356 121.326C122.356 121.601 122.549 121.849 122.961 122.069L123.841 122.565C124.227 122.786 124.667 122.924 125.134 122.924C125.602 122.924 126.042 122.813 126.455 122.565L129.508 120.802C129.92 120.582 130.113 120.306 130.113 120.058C130.113 119.81 129.92 119.535 129.508 119.314L128.628 118.818C128.242 118.598 127.802 118.46 127.335 118.46H127.307ZM126.62 119.204C127.142 118.901 127.637 118.901 128.132 119.204L128.848 119.617C129.343 119.893 129.315 120.196 128.82 120.471L125.822 122.207C125.299 122.51 124.804 122.51 124.337 122.207L123.621 121.794C123.126 121.518 123.126 121.215 123.621 120.912L126.62 119.177V119.204Z" fill="white"/>
        <path d="M122.824 115.87C122.356 115.87 121.916 115.98 121.531 116.228L118.478 117.992C118.065 118.24 117.873 118.488 117.873 118.736C117.873 119.011 118.065 119.259 118.478 119.48L119.358 119.976C119.743 120.196 120.183 120.334 120.651 120.334C121.118 120.334 121.558 120.223 121.971 119.976L125.024 118.212C125.437 117.992 125.629 117.716 125.629 117.468C125.629 117.22 125.437 116.945 125.024 116.724L124.144 116.228C123.731 116.008 123.319 115.87 122.851 115.87H122.824ZM122.136 116.614C122.659 116.311 123.154 116.311 123.649 116.614L124.364 117.027C124.859 117.303 124.832 117.606 124.337 117.882L121.338 119.617C120.816 119.92 120.321 119.92 119.853 119.617L119.138 119.204C118.643 118.929 118.643 118.625 119.138 118.322L122.136 116.587V116.614Z" fill="white"/>
        <path d="M111.904 109.561C111.436 109.561 110.996 109.671 110.611 109.919L107.558 111.682C107.145 111.93 106.953 112.178 106.953 112.426C106.953 112.702 107.145 112.95 107.558 113.17L108.438 113.666C108.823 113.886 109.263 114.024 109.731 114.024C110.198 114.024 110.639 113.914 111.051 113.666L114.104 111.903C114.517 111.682 114.709 111.407 114.709 111.159C114.709 110.911 114.517 110.635 114.104 110.415L113.224 109.919C112.839 109.699 112.399 109.561 111.931 109.561H111.904ZM111.216 110.305C111.739 110.002 112.234 110.002 112.729 110.305L113.444 110.718C113.939 110.994 113.912 111.297 113.417 111.572L110.419 113.308C109.896 113.611 109.401 113.611 108.933 113.308L108.218 112.895C107.723 112.619 107.723 112.316 108.218 112.013L111.216 110.277V110.305Z" fill="white"/>
        <path d="M107.42 106.971C106.953 106.971 106.513 107.081 106.128 107.329L103.074 109.092C102.662 109.34 102.469 109.588 102.469 109.836C102.469 110.112 102.662 110.36 103.074 110.58L103.955 111.076C104.34 111.297 104.78 111.434 105.247 111.434C105.715 111.434 106.155 111.324 106.568 111.076L109.621 109.313C110.033 109.092 110.226 108.817 110.226 108.569C110.226 108.321 110.033 108.045 109.621 107.825L108.741 107.329C108.356 107.109 107.915 106.971 107.448 106.971H107.42ZM106.733 107.715C107.255 107.412 107.75 107.412 108.246 107.715L108.961 108.128C109.456 108.404 109.428 108.707 108.933 108.982L105.935 110.718C105.412 111.021 104.917 111.021 104.45 110.718L103.735 110.305C103.239 110.029 103.239 109.726 103.735 109.423L106.733 107.687V107.715Z" fill="white"/>
        <path d="M102.937 104.353C102.469 104.353 102.029 104.464 101.644 104.712L98.591 106.475C98.1784 106.723 97.9858 106.971 97.9858 107.219C97.9858 107.494 98.1784 107.742 98.591 107.963L99.4711 108.459C99.8562 108.679 100.296 108.817 100.764 108.817C101.232 108.817 101.672 108.707 102.084 108.459L105.137 106.695C105.55 106.475 105.743 106.199 105.743 105.951C105.743 105.703 105.55 105.428 105.137 105.208L104.257 104.712C103.872 104.491 103.432 104.353 102.964 104.353H102.937ZM102.249 105.097C102.772 104.794 103.267 104.794 103.762 105.097L104.477 105.511C104.972 105.786 104.945 106.089 104.45 106.365L101.452 108.1C100.929 108.404 100.434 108.404 99.9663 108.1L99.2511 107.687C98.756 107.412 98.756 107.109 99.2511 106.806L102.249 105.07V105.097Z" fill="white"/>
        <path d="M97.1606 102.122L94.1075 103.885C93.6949 104.133 93.5023 104.381 93.5023 104.629C93.5023 104.904 93.6949 105.152 94.1075 105.373L94.9877 105.869C95.3728 106.089 95.8128 106.227 96.2804 106.227C96.7481 106.227 97.1881 106.117 97.6007 105.869L100.654 104.105C101.066 103.885 101.259 103.609 101.259 103.362C101.259 103.114 101.066 102.838 100.654 102.618L99.7737 102.122C99.3886 101.901 98.9485 101.763 98.4809 101.763C98.0133 101.763 97.5732 101.874 97.1882 102.122H97.1606ZM97.7658 102.507C98.2884 102.204 98.7835 102.204 99.2786 102.507L99.9938 102.921C100.489 103.196 100.461 103.499 99.9663 103.775L96.9681 105.511C96.4455 105.814 95.9504 105.814 95.4828 105.511L94.7676 105.097C94.2725 104.822 94.2725 104.519 94.7676 104.216L97.7658 102.48V102.507Z" fill="white"/>
        <path d="M116.855 93.0019L116.002 92.506C115.645 92.2855 115.452 92.0651 115.452 91.8447C115.452 91.6243 115.645 91.4039 116.002 91.1834L118.478 89.7507C118.835 89.5303 119.22 89.4201 119.633 89.4201C120.046 89.4201 120.403 89.5303 120.788 89.7507L121.641 90.2467C121.999 90.4671 122.191 90.6875 122.191 90.9079C122.191 91.1283 121.999 91.3488 121.641 91.5692L121.283 91.762C121.283 91.762 121.118 91.8171 121.008 91.762L120.541 91.4865C120.541 91.4865 120.458 91.3763 120.541 91.3488L120.871 91.1559C121.228 90.9355 121.228 90.7426 120.871 90.5222L120.238 90.1365C119.881 89.9436 119.523 89.9436 119.165 90.1365L116.772 91.5141C116.415 91.7345 116.415 91.9274 116.772 92.1478L117.405 92.5335C117.763 92.7264 118.12 92.7264 118.478 92.5335L118.808 92.3406C118.808 92.3406 118.973 92.2855 119.055 92.3406L119.523 92.6162C119.523 92.6162 119.606 92.7264 119.523 92.7815L119.165 92.9743C118.808 93.1948 118.423 93.2774 118.01 93.2774C117.598 93.2774 117.213 93.1672 116.855 92.9743V93.0019Z" fill="white"/>
        <path d="M119.496 94.5448L119.028 94.2693C119.028 94.2693 118.945 94.1591 119.028 94.1315L123.539 91.5141C123.539 91.5141 123.704 91.4589 123.786 91.5141L125.519 92.5059C125.877 92.7264 126.069 92.9468 126.069 93.1672C126.069 93.3876 125.877 93.6356 125.519 93.8284L124.887 94.1866C124.309 94.5172 123.731 94.5999 123.099 94.407C123.071 94.407 122.164 95.8949 122.164 95.8949C122.109 95.9775 122.026 96.0051 121.916 95.9224L121.448 95.6469C121.448 95.6469 121.283 95.5091 121.338 95.454L122.246 94.0213L121.503 93.5805C121.503 93.5805 121.393 93.5529 121.338 93.5805L119.716 94.5172C119.716 94.5172 119.551 94.5723 119.468 94.5172L119.496 94.5448ZM122.109 93.2774L123.044 93.8284C123.401 94.0489 123.759 94.0489 124.144 93.8284L124.777 93.4703C125.134 93.2498 125.134 93.057 124.777 92.8366L123.841 92.2855C123.841 92.2855 123.731 92.258 123.676 92.2855L122.109 93.1947C122.109 93.1947 122.054 93.2498 122.109 93.2774Z" fill="white"/>
        <path d="M125.409 97.9613L123.044 96.5837C123.044 96.5837 122.961 96.4735 123.044 96.4459L127.555 93.8284C127.555 93.8284 127.72 93.7733 127.802 93.8284L130.168 95.2061C130.168 95.2061 130.25 95.2887 130.168 95.3438L129.783 95.5642C129.783 95.5642 129.618 95.6193 129.535 95.5642L127.857 94.5999C127.857 94.5999 127.747 94.5724 127.692 94.5999L126.455 95.3163L127.885 96.2255C127.967 96.2806 127.967 96.3357 127.885 96.3632L127.5 96.5837C127.5 96.5837 127.335 96.6388 127.252 96.5837L125.822 95.7571C125.822 95.7571 125.712 95.7296 125.657 95.7571L124.337 96.5286L126.042 97.6031C126.124 97.6582 126.124 97.6858 126.042 97.7409L125.657 97.9613C125.657 97.9613 125.492 98.0164 125.409 97.9613Z" fill="white"/>
        <path d="M126.592 98.4848L131.103 95.8673C131.103 95.8673 131.268 95.8122 131.351 95.8673L133.166 96.9143C133.524 97.1347 133.716 97.3551 133.716 97.5756C133.716 97.796 133.551 98.044 133.166 98.2368L130.69 99.6695C130.333 99.8899 129.948 99.9726 129.535 99.9726C129.123 99.9726 128.738 99.8624 128.38 99.6695L126.565 98.6225C126.565 98.6225 126.482 98.5123 126.565 98.4848H126.592ZM127.885 98.6501L128.93 99.2563C129.288 99.4491 129.645 99.4491 130.003 99.2563L132.396 97.8786C132.753 97.6582 132.753 97.4654 132.396 97.2449L131.351 96.6388C131.351 96.6388 131.241 96.6112 131.186 96.6388L127.83 98.5674C127.83 98.5674 127.775 98.6225 127.83 98.6501H127.885Z" fill="white"/>
        <path d="M135.972 98.7052L131.461 101.323C131.461 101.323 131.296 101.378 131.213 101.323L130.745 101.047C130.745 101.047 130.663 100.937 130.745 100.909L135.256 98.2919C135.256 98.2919 135.422 98.2368 135.504 98.2919L135.972 98.5675C135.972 98.5675 136.054 98.6501 135.972 98.7052Z" fill="white"/>
        <path d="M133.744 102.783L133.276 102.507C133.276 102.507 133.194 102.397 133.276 102.37L137.209 100.11L136.274 99.4767C136.192 99.4216 136.192 99.3665 136.274 99.3389L136.659 99.1185C136.659 99.1185 136.824 99.0634 136.907 99.1185L139.657 100.717C139.657 100.717 139.74 100.827 139.657 100.854L139.272 101.075C139.272 101.075 139.107 101.13 139.025 101.075L138.09 100.524C138.09 100.524 137.98 100.496 137.925 100.524L133.991 102.783C133.991 102.783 133.826 102.838 133.744 102.783Z" fill="white"/>
        <path d="M139.355 106.007L138.502 105.511C138.145 105.29 137.952 105.07 137.952 104.849C137.952 104.629 138.145 104.409 138.502 104.188L140.978 102.755C141.335 102.535 141.72 102.452 142.133 102.452C142.546 102.452 142.903 102.563 143.288 102.755L144.141 103.251C144.499 103.472 144.691 103.692 144.691 103.913C144.691 104.133 144.499 104.381 144.141 104.574L143.783 104.767C143.783 104.767 143.618 104.822 143.508 104.767L143.041 104.491C143.041 104.491 142.958 104.381 143.041 104.353L143.371 104.161C143.728 103.94 143.728 103.747 143.371 103.527L142.738 103.141C142.381 102.948 142.023 102.948 141.665 103.141L139.272 104.519C138.915 104.739 138.915 104.932 139.272 105.152L139.905 105.538C140.263 105.731 140.62 105.731 140.978 105.538L141.308 105.345C141.308 105.345 141.473 105.29 141.555 105.345L142.023 105.621C142.023 105.621 142.105 105.731 142.023 105.786L141.665 105.979C141.308 106.199 140.923 106.282 140.51 106.282C140.098 106.282 139.712 106.172 139.355 105.979V106.007Z" fill="white"/>
        <path d="M141.665 107.357L141.143 107.054C141.143 107.054 141.088 106.971 141.198 106.943L147.002 105.07C147.002 105.07 147.222 105.07 147.304 105.097L148.047 105.538C148.047 105.538 148.157 105.648 148.102 105.703L144.884 109.065C144.884 109.065 144.746 109.12 144.664 109.065L144.141 108.762C144.141 108.624 144.801 107.88 144.801 107.88L143.178 106.943L141.94 107.329C141.94 107.329 141.748 107.357 141.693 107.329L141.665 107.357ZM146.919 105.731L143.893 106.723L145.241 107.494L146.947 105.731H146.919Z" fill="white"/>
        <path d="M146.066 109.891L145.599 109.616C145.599 109.616 145.516 109.506 145.599 109.478L150.11 106.861C150.11 106.861 150.275 106.806 150.357 106.861L152.09 107.853C152.448 108.073 152.64 108.293 152.64 108.514C152.64 108.734 152.448 108.982 152.09 109.175L151.458 109.533C150.88 109.864 150.302 109.919 149.67 109.754C149.642 109.754 148.734 111.241 148.734 111.241C148.679 111.324 148.597 111.352 148.487 111.269L148.019 110.994C148.019 110.994 147.854 110.856 147.909 110.801L148.817 109.368L148.074 108.927C148.074 108.927 147.964 108.9 147.909 108.927L146.286 109.864C146.286 109.864 146.121 109.919 146.039 109.864L146.066 109.891ZM148.679 108.624L149.615 109.175C149.972 109.395 150.33 109.395 150.715 109.175L151.348 108.817C151.705 108.596 151.705 108.404 151.348 108.183L150.412 107.632C150.412 107.632 150.302 107.605 150.247 107.632L148.679 108.541C148.679 108.541 148.624 108.596 148.679 108.624Z" fill="white"/>
        <path d="M149.615 111.793L154.126 109.175C154.126 109.175 154.291 109.12 154.373 109.175L156.189 110.222C156.546 110.442 156.739 110.663 156.739 110.883C156.739 111.131 156.574 111.352 156.189 111.545L153.713 112.977C153.355 113.198 152.97 113.28 152.558 113.28C152.145 113.28 151.76 113.17 151.403 112.977L149.587 111.93C149.587 111.93 149.505 111.82 149.587 111.793H149.615ZM150.907 111.958L151.953 112.564C152.31 112.757 152.668 112.757 153.025 112.564L155.418 111.186C155.776 110.966 155.776 110.773 155.418 110.553L154.373 109.947C154.373 109.947 154.263 109.919 154.208 109.947L150.852 111.875C150.852 111.875 150.797 111.93 150.852 111.958H150.907Z" fill="white"/>
    </g>

    <g class='svg-card-2-3d-jump'>
        <path d="M91.1473 58.3791C91.1473 59.371 91.89 60.418 93.2928 61.2445L184.888 114.338C187.528 115.853 191.517 116.018 193.8 114.723L248.674 83.0659C249.802 82.4046 250.297 81.523 250.187 80.6137C250.132 80.0902 250.132 79.6494 250.05 79.0433C249.94 78.1065 249.224 77.1697 247.904 76.3983L156.337 23.2776C153.696 21.7622 149.708 21.5969 147.425 22.8919L92.5501 54.5494C91.5874 55.1004 91.0648 55.8443 91.0098 56.6433C90.9548 57.277 91.1473 57.8281 91.1473 58.3516V58.3791Z" fill="url(#paint3_linear_34_11063)" fill-opacity="0.5"/>
        <path d="M156.336 23.2774L247.931 76.3705C250.572 77.8859 250.847 80.2002 248.564 81.5227L193.69 113.18C191.407 114.503 187.418 114.337 184.778 112.795L93.1826 59.7014C90.542 58.186 90.2669 55.8716 92.5499 54.5491L147.424 22.8917C149.707 21.5691 153.696 21.7345 156.336 23.2774Z" fill="url(#paint4_linear_34_11063)" fill-opacity="0.5"/>
        <path d="M238.222 77.445C239.02 77.9134 239.487 78.492 239.57 79.0982C239.652 79.7043 239.295 80.2554 238.635 80.6411L235.004 82.735C233.601 83.5616 231.125 83.4514 229.503 82.5146L216.355 74.9102C215.557 74.4418 215.089 73.8632 215.007 73.2571C214.924 72.6509 215.282 72.0999 215.942 71.7142L219.573 69.6202C220.976 68.7936 223.451 68.9038 225.074 69.8406L238.222 77.445Z" fill="#FEDCFF"/>
        <path d="M128.555 59.3432C129.353 59.8116 129.821 60.3902 129.903 60.9964C129.986 61.6025 129.628 62.1536 128.968 62.5393L122.009 66.5619C120.606 67.3885 118.131 67.2783 116.508 66.3415L102.177 58.0483C101.38 57.5799 100.912 57.0013 100.829 56.3951C100.747 55.789 101.104 55.238 101.765 54.8522L108.724 50.8296C110.126 50.003 112.602 50.1133 114.225 51.05L128.555 59.3432Z" fill="#2E3EB7"/>
        <path d="M102.672 58.1585L117.003 66.4517C118.351 67.2232 120.386 67.3058 121.541 66.6446L128.5 62.6219C129.656 61.9607 129.518 60.7759 128.17 59.9769L113.84 51.6837C112.492 50.9122 110.457 50.8296 109.301 51.4908L102.342 55.5135C101.187 56.1747 101.325 57.3595 102.672 58.1309V58.1585Z" fill="#39A1FF"/>
        <g opacity="0.6">
            <path d="M113.372 51.4633C113.207 51.3807 113.015 51.3256 112.822 51.2704L101.93 57.5523C101.93 57.5523 102.122 57.7728 102.26 57.8554L104.983 56.2849L109.494 58.9024C108.559 59.729 108.834 60.9413 110.264 61.7678C111.694 62.5944 113.812 62.7597 115.243 62.2362L120.001 64.9914L117.278 66.5619C117.443 66.6446 117.608 66.6997 117.773 66.7823L128.776 60.4453C128.776 60.4453 128.555 60.2525 128.418 60.1422L125.42 61.878L120.661 59.1228C121.706 58.2963 121.431 57.0289 119.974 56.1747C118.488 55.3206 116.315 55.1553 114.885 55.7614L110.374 53.144L113.372 51.4082V51.4633ZM115.738 62.0434L120.331 59.3983L125.035 62.126L120.359 64.8261L115.655 62.0985C115.655 62.0985 115.71 62.0985 115.738 62.0709V62.0434ZM110.649 61.6025C109.439 60.9137 109.191 59.8943 109.934 59.1779L114.83 62.0158C113.62 62.4566 111.859 62.2913 110.649 61.6025ZM119.616 56.4227C120.854 57.1391 121.101 58.186 120.249 58.9024L115.325 56.0645C116.535 55.5961 118.351 55.7339 119.589 56.4503L119.616 56.4227ZM114.913 56.2298L119.919 59.1228L115.325 61.7678L110.264 58.93C110.319 58.8749 114.913 56.2298 114.913 56.2298ZM114.472 55.9819L109.879 58.6269L105.34 56.0645L110.016 53.3644L114.5 55.9543L114.472 55.9819Z" fill="#D88C1D"/>
        </g>
        <path d="M184.778 100.919C182.522 102.214 178.864 102.214 176.609 100.919C174.353 99.6245 174.353 97.503 176.609 96.1805C178.864 94.8856 182.522 94.8856 184.778 96.1805C187.033 97.4755 187.033 99.597 184.778 100.919Z" fill="#9B2C2C"/>
        <path d="M194.157 106.347C191.902 107.642 188.244 107.642 185.988 106.347C183.733 105.052 183.733 102.931 185.988 101.608C188.244 100.313 191.902 100.313 194.157 101.608C196.413 102.903 196.413 105.025 194.157 106.347Z" fill="#F4AC1C"/>
        <path d="M216.052 89.5404C215.585 89.5404 215.144 89.6506 214.759 89.8986L211.706 91.6619C211.294 91.9099 211.101 92.1579 211.101 92.4058C211.101 92.6813 211.294 92.9293 211.706 93.1497L212.586 93.6457C212.971 93.8661 213.412 94.0039 213.879 94.0039C214.347 94.0039 214.787 93.8936 215.199 93.6457L218.253 91.8823C218.665 91.6619 218.858 91.3864 218.858 91.1384C218.858 90.8905 218.665 90.6149 218.253 90.3945L217.372 89.8986C216.987 89.6782 216.547 89.5404 216.08 89.5404H216.052ZM215.365 90.2843C215.887 89.9812 216.382 89.9812 216.877 90.2843L217.592 90.6976C218.088 90.9731 218.06 91.2762 217.565 91.5517L214.567 93.2875C214.044 93.5906 213.549 93.5906 213.082 93.2875L212.366 92.8742C211.871 92.5987 211.871 92.2956 212.366 91.9925L215.365 90.2568V90.2843Z" fill="white"/>
        <path d="M211.569 86.9505C211.101 86.9505 210.661 87.0607 210.276 87.3087L207.223 89.072C206.81 89.32 206.618 89.568 206.618 89.8159C206.618 90.0915 206.81 90.3394 207.223 90.5598L208.103 91.0558C208.488 91.2762 208.928 91.414 209.396 91.414C209.863 91.414 210.303 91.3038 210.716 91.0558L213.769 89.2924C214.182 89.072 214.374 88.7965 214.374 88.5485C214.374 88.3006 214.182 88.025 213.769 87.8046L212.889 87.3087C212.476 87.0883 212.064 86.9505 211.596 86.9505H211.569ZM210.881 87.6944C211.404 87.3913 211.899 87.3913 212.394 87.6944L213.109 88.1077C213.604 88.3832 213.577 88.6863 213.082 88.9618L210.083 90.6976C209.561 91.0007 209.066 91.0007 208.598 90.6976L207.883 90.2843C207.388 90.0088 207.388 89.7057 207.883 89.4027L210.881 87.6669V87.6944Z" fill="white"/>
        <path d="M207.085 84.3606C206.618 84.3606 206.177 84.4708 205.792 84.7188L202.739 86.4821C202.327 86.7301 202.134 86.9781 202.134 87.226C202.134 87.5015 202.327 87.7495 202.739 87.9699L203.619 88.4659C204.032 88.6863 204.445 88.824 204.912 88.824C205.38 88.824 205.82 88.7138 206.233 88.4659L209.286 86.7025C209.698 86.4821 209.891 86.2066 209.891 85.9586C209.891 85.7107 209.698 85.4351 209.286 85.2147L208.405 84.7188C208.02 84.4984 207.58 84.3606 207.113 84.3606H207.085ZM206.398 85.1045C206.92 84.8014 207.415 84.8014 207.91 85.1045L208.626 85.5178C209.121 85.7933 209.093 86.0964 208.598 86.3719L205.6 88.1077C205.077 88.4108 204.582 88.4108 204.115 88.1077L203.399 87.6944C202.904 87.4189 202.904 87.1158 203.399 86.8127L206.398 85.0769V85.1045Z" fill="white"/>
        <path d="M202.602 81.7707C202.134 81.7707 201.694 81.8809 201.309 82.1289L198.256 83.8922C197.843 84.1402 197.651 84.3881 197.651 84.6361C197.651 84.9116 197.843 85.1596 198.256 85.38L199.136 85.876C199.521 86.0964 199.961 86.2341 200.429 86.2341C200.896 86.2341 201.336 86.1239 201.749 85.876L204.802 84.1126C205.215 83.8922 205.407 83.6167 205.407 83.3687C205.407 83.1207 205.215 82.8452 204.802 82.6248L203.922 82.1289C203.537 81.9084 203.097 81.7707 202.629 81.7707H202.602ZM201.914 82.5146C202.437 82.2115 202.932 82.2115 203.427 82.5146L204.142 82.9279C204.637 83.2034 204.61 83.5065 204.115 83.782L201.116 85.5178C200.594 85.8209 200.099 85.8209 199.631 85.5178L198.916 85.1045C198.421 84.829 198.421 84.5259 198.916 84.2228L201.914 82.487V82.5146Z" fill="white"/>
        <path d="M191.682 75.4337C191.214 75.4337 190.774 75.5439 190.389 75.7918L187.336 77.5552C186.923 77.8031 186.731 78.0511 186.731 78.2991C186.731 78.5746 186.923 78.8226 187.336 79.043L188.216 79.5389C188.601 79.7594 189.041 79.8971 189.509 79.8971C189.976 79.8971 190.417 79.7869 190.829 79.5389L193.882 77.7756C194.295 77.5552 194.487 77.2797 194.487 77.0317C194.487 76.7837 194.295 76.5082 193.882 76.2878L193.002 75.7918C192.617 75.5714 192.177 75.4337 191.709 75.4337H191.682ZM190.994 76.1776C191.517 75.8745 192.012 75.8745 192.507 76.1776L193.222 76.5909C193.717 76.8664 193.69 77.1695 193.195 77.445L190.197 79.1808C189.674 79.4838 189.179 79.4838 188.711 79.1808L187.996 78.7675C187.501 78.492 187.501 78.1889 187.996 77.8858L190.994 76.15V76.1776Z" fill="white"/>
        <path d="M187.198 72.8438C186.731 72.8438 186.291 72.954 185.906 73.2019L182.852 74.9653C182.44 75.2132 182.247 75.4612 182.247 75.7092C182.247 75.9847 182.44 76.2327 182.852 76.4531L183.733 76.949C184.118 77.1695 184.558 77.3072 185.025 77.3072C185.493 77.3072 185.933 77.197 186.346 76.949L189.399 75.1857C189.811 74.9653 190.004 74.6898 190.004 74.4418C190.004 74.1938 189.811 73.9183 189.399 73.6979L188.519 73.2019C188.134 72.9815 187.693 72.8438 187.226 72.8438H187.198ZM186.511 73.5877C187.033 73.2846 187.528 73.2846 188.024 73.5877L188.739 74.0009C189.234 74.2765 189.206 74.5795 188.711 74.8551L185.713 76.5909C185.19 76.8939 184.695 76.8939 184.228 76.5909L183.513 76.1776C183.017 75.902 183.017 75.599 183.513 75.2959L186.511 73.5601V73.5877Z" fill="white"/>
        <path d="M182.715 70.2538C182.247 70.2538 181.807 70.364 181.422 70.612L178.369 72.3754C177.956 72.6233 177.764 72.8713 177.764 73.1193C177.764 73.3948 177.956 73.6428 178.369 73.8632L179.249 74.3591C179.634 74.5795 180.074 74.7173 180.542 74.7173C181.009 74.7173 181.45 74.6071 181.862 74.3591L184.915 72.5958C185.328 72.3754 185.52 72.0998 185.52 71.8519C185.52 71.6039 185.328 71.3284 184.915 71.108L184.035 70.612C183.65 70.3916 183.21 70.2538 182.742 70.2538H182.715ZM182.027 70.9978C182.55 70.6947 183.045 70.6947 183.54 70.9978L184.255 71.411C184.75 71.6866 184.723 71.9896 184.228 72.2652L181.23 74.0009C180.707 74.304 180.212 74.304 179.744 74.0009L179.029 73.5877C178.534 73.3121 178.534 73.0091 179.029 72.706L182.027 70.9702V70.9978Z" fill="white"/>
        <path d="M178.231 67.6639C177.764 67.6639 177.324 67.7742 176.939 68.0221L173.885 69.7855C173.473 70.0334 173.28 70.2814 173.28 70.5294C173.28 70.8049 173.473 71.0529 173.885 71.2733L174.766 71.7692C175.151 71.9896 175.591 72.1274 176.058 72.1274C176.526 72.1274 176.966 72.0172 177.379 71.7692L180.432 70.0059C180.844 69.7855 181.037 69.5099 181.037 69.262C181.037 69.014 180.844 68.7385 180.432 68.5181L179.552 68.0221C179.167 67.8017 178.726 67.6639 178.259 67.6639H178.231ZM177.544 68.4079C178.066 68.1048 178.561 68.1048 179.057 68.4079L179.772 68.8211C180.267 69.0967 180.239 69.3997 179.744 69.6753L176.746 71.411C176.223 71.7141 175.728 71.7141 175.261 71.411L174.546 70.9978C174.05 70.7222 174.05 70.4192 174.546 70.1161L177.544 68.3803V68.4079Z" fill="white"/>
        <path d="M167.311 61.327C166.844 61.327 166.404 61.4372 166.019 61.6851L162.966 63.4485C162.553 63.6965 162.36 63.9444 162.36 64.1924C162.36 64.4679 162.553 64.7159 162.966 64.9363L163.846 65.4322C164.231 65.6527 164.671 65.7904 165.139 65.7904C165.606 65.7904 166.046 65.6802 166.459 65.4322L169.512 63.6689C169.925 63.4485 170.117 63.173 170.117 62.925C170.117 62.677 169.925 62.4015 169.512 62.1811L168.632 61.6851C168.247 61.4647 167.807 61.327 167.339 61.327H167.311ZM166.624 62.0709C167.146 61.7678 167.642 61.7678 168.137 62.0709L168.852 62.4842C169.347 62.7597 169.319 63.0628 168.824 63.3383L165.826 65.0741C165.304 65.3771 164.808 65.3771 164.341 65.0741L163.626 64.6608C163.131 64.3853 163.131 64.0822 163.626 63.7791L166.624 62.0433V62.0709Z" fill="white"/>
        <path d="M162.8 58.7371C162.333 58.7371 161.893 58.8473 161.508 59.0952L158.455 60.8586C158.042 61.1066 157.849 61.3545 157.849 61.6025C157.849 61.878 158.042 62.126 158.455 62.3464L159.335 62.8423C159.72 63.0628 160.16 63.2005 160.628 63.2005C161.095 63.2005 161.535 63.0903 161.948 62.8423L165.001 61.079C165.414 60.8586 165.606 60.5831 165.606 60.3351C165.606 60.0871 165.414 59.8116 165.001 59.5912L164.121 59.0952C163.736 58.8748 163.296 58.7371 162.828 58.7371H162.8ZM162.113 59.481C162.635 59.1779 163.131 59.1779 163.626 59.481L164.341 59.8942C164.836 60.1698 164.808 60.4728 164.313 60.7484L161.315 62.4842C160.793 62.7872 160.297 62.7872 159.83 62.4842L159.115 62.0709C158.62 61.7954 158.62 61.4923 159.115 61.1892L162.113 59.4534V59.481Z" fill="white"/>
        <path d="M158.317 56.1472C157.849 56.1472 157.409 56.2574 157.024 56.5053L153.971 58.2687C153.558 58.5166 153.366 58.7646 153.366 59.0126C153.366 59.2881 153.558 59.5361 153.971 59.7565L154.851 60.2524C155.236 60.4729 155.676 60.6106 156.144 60.6106C156.612 60.6106 157.052 60.5004 157.464 60.2524L160.517 58.4891C160.93 58.2687 161.123 57.9932 161.123 57.7452C161.123 57.4972 160.93 57.2217 160.517 57.0013L159.637 56.5053C159.252 56.2849 158.812 56.1472 158.345 56.1472H158.317ZM157.629 56.8911C158.152 56.588 158.647 56.588 159.142 56.8911L159.857 57.3044C160.352 57.5799 160.325 57.883 159.83 58.1585L156.832 59.8943C156.309 60.1973 155.814 60.1973 155.346 59.8943L154.631 59.481C154.136 59.2055 154.136 58.9024 154.631 58.5993L157.629 56.8635V56.8911Z" fill="white"/>
        <path d="M153.834 53.5573C153.366 53.5573 152.926 53.6675 152.541 53.9154L149.488 55.6788C149.075 55.9267 148.882 56.1747 148.882 56.4227C148.882 56.6982 149.075 56.9462 149.488 57.1666L150.368 57.6625C150.753 57.883 151.193 58.0207 151.661 58.0207C152.128 58.0207 152.568 57.9105 152.981 57.6625L156.034 55.8992C156.447 55.6788 156.639 55.4033 156.639 55.1553C156.639 54.9073 156.447 54.6318 156.034 54.4114L155.154 53.9154C154.741 53.695 154.329 53.5573 153.861 53.5573H153.834ZM153.146 54.3012C153.668 53.9981 154.164 53.9981 154.659 54.3012L155.374 54.7144C155.869 54.99 155.841 55.293 155.346 55.5686L152.348 57.3044C151.826 57.6074 151.33 57.6074 150.863 57.3044L150.148 56.8911C149.653 56.6155 149.653 56.3125 150.148 56.0094L153.146 54.2736V54.3012Z" fill="white"/>
        <path d="M142.914 47.2478C142.446 47.2478 142.006 47.358 141.621 47.606L138.568 49.3693C138.155 49.6173 137.963 49.8653 137.963 50.1132C137.963 50.3888 138.155 50.6367 138.568 50.8571L139.448 51.3531C139.833 51.5735 140.273 51.7113 140.741 51.7113C141.208 51.7113 141.648 51.6011 142.061 51.3531L145.114 49.5897C145.527 49.3693 145.719 49.0938 145.719 48.8458C145.719 48.5979 145.527 48.3223 145.114 48.1019L144.234 47.606C143.849 47.3856 143.409 47.2478 142.941 47.2478H142.914ZM142.226 47.9917C142.749 47.6886 143.244 47.6886 143.739 47.9917L144.454 48.405C144.949 48.6805 144.922 48.9836 144.426 49.2591L141.428 50.9949C140.906 51.298 140.411 51.298 139.943 50.9949L139.228 50.5816C138.733 50.3061 138.733 50.003 139.228 49.6999L142.226 47.9642V47.9917Z" fill="white"/>
        <path d="M138.43 44.6578C137.963 44.6578 137.522 44.768 137.137 45.016L134.084 46.7794C133.672 47.0273 133.479 47.2753 133.479 47.5233C133.479 47.7988 133.672 48.0468 134.084 48.2672L134.964 48.7631C135.349 48.9835 135.79 49.1213 136.257 49.1213C136.725 49.1213 137.165 49.0111 137.577 48.7631L140.631 46.9998C141.043 46.7794 141.236 46.5038 141.236 46.2559C141.236 46.0079 141.043 45.7324 140.631 45.512L139.75 45.016C139.365 44.7956 138.925 44.6578 138.458 44.6578H138.43ZM137.743 45.4017C138.265 45.0987 138.76 45.0987 139.255 45.4017L139.97 45.815C140.466 46.0906 140.438 46.3936 139.943 46.6691L136.945 48.4049C136.422 48.708 135.927 48.708 135.46 48.4049L134.744 47.9917C134.249 47.7161 134.249 47.4131 134.744 47.11L137.743 45.3742V45.4017Z" fill="white"/>
        <path d="M133.947 42.0404C133.479 42.0404 133.039 42.1506 132.654 42.3986L129.601 44.1619C129.188 44.4099 128.996 44.6579 128.996 44.9058C128.996 45.1814 129.188 45.4293 129.601 45.6497L130.481 46.1457C130.866 46.3661 131.306 46.5039 131.774 46.5039C132.241 46.5039 132.681 46.3937 133.094 46.1457L136.147 44.3823C136.56 44.1619 136.752 43.8864 136.752 43.6384C136.752 43.3905 136.56 43.1149 136.147 42.8945L135.267 42.3986C134.882 42.1782 134.442 42.0404 133.974 42.0404H133.947ZM133.259 42.7843C133.782 42.4812 134.277 42.4812 134.772 42.7843L135.487 43.1976C135.982 43.4731 135.955 43.7762 135.46 44.0517L132.461 45.7875C131.939 46.0906 131.444 46.0906 130.976 45.7875L130.261 45.3742C129.766 45.0987 129.766 44.7956 130.261 44.4926L133.259 42.7568V42.7843Z" fill="white"/>
        <path d="M128.17 39.8087L125.117 41.572C124.705 41.82 124.512 42.068 124.512 42.3159C124.512 42.5914 124.705 42.8394 125.117 43.0598L125.997 43.5558C126.383 43.7762 126.823 43.914 127.29 43.914C127.758 43.914 128.198 43.8037 128.611 43.5558L131.664 41.7924C132.076 41.572 132.269 41.2965 132.269 41.0485C132.269 40.8006 132.076 40.525 131.664 40.3046L130.783 39.8087C130.398 39.5883 129.958 39.4505 129.491 39.4505C129.023 39.4505 128.583 39.5607 128.198 39.8087H128.17ZM128.776 40.1944C129.298 39.8913 129.793 39.8913 130.288 40.1944L131.004 40.6077C131.499 40.8832 131.471 41.1863 130.976 41.4618L127.978 43.1976C127.455 43.5007 126.96 43.5007 126.493 43.1976L125.777 42.7843C125.282 42.5088 125.282 42.2057 125.777 41.9026L128.776 40.1669V40.1944Z" fill="white"/>
        <path d="M147.865 30.6889L147.012 30.193C146.654 29.9725 146.462 29.7521 146.462 29.5317C146.462 29.3113 146.654 29.0909 147.012 28.8705L149.488 27.4377C149.845 27.2173 150.23 27.1071 150.643 27.1071C151.055 27.1071 151.413 27.2173 151.798 27.4377L152.651 27.9337C153.008 28.1541 153.201 28.3745 153.201 28.5949C153.201 28.8154 153.008 29.0358 152.651 29.2562L152.293 29.4491C152.293 29.4491 152.128 29.5042 152.018 29.4491L151.551 29.1735C151.551 29.1735 151.468 29.0633 151.551 29.0358L151.881 28.8429C152.238 28.6225 152.238 28.4296 151.881 28.2092L151.248 27.8235C150.89 27.6306 150.533 27.6306 150.175 27.8235L147.782 29.2011C147.425 29.4215 147.425 29.6144 147.782 29.8348L148.415 30.2205C148.772 30.4134 149.13 30.4134 149.488 30.2205L149.818 30.0277C149.818 30.0277 149.983 29.9725 150.065 30.0277L150.533 30.3032C150.533 30.3032 150.615 30.4134 150.533 30.4685L150.175 30.6614C149.818 30.8818 149.433 30.9644 149.02 30.9644C148.607 30.9644 148.222 30.8542 147.865 30.6614V30.6889Z" fill="white"/>
        <path d="M150.505 32.2318L150.038 31.9563C150.038 31.9563 149.955 31.8461 150.038 31.8185L154.549 29.2011C154.549 29.2011 154.714 29.146 154.796 29.2011L156.529 30.1929C156.887 30.4134 157.079 30.6338 157.079 30.8542C157.079 31.0746 156.887 31.3226 156.529 31.5155L155.896 31.8736C155.319 32.2043 154.741 32.2869 154.109 32.0941C154.081 32.0941 153.173 33.5819 153.173 33.5819C153.118 33.6645 153.036 33.6921 152.926 33.6094L152.458 33.3339C152.458 33.3339 152.293 33.1961 152.348 33.141L153.256 31.7083L152.513 31.2675C152.513 31.2675 152.403 31.2399 152.348 31.2675L150.725 32.2043C150.725 32.2043 150.56 32.2594 150.478 32.2043L150.505 32.2318ZM153.118 30.9644L154.054 31.5155C154.411 31.7359 154.769 31.7359 155.154 31.5155L155.786 31.1573C156.144 30.9369 156.144 30.744 155.786 30.5236L154.851 29.9725C154.851 29.9725 154.741 29.945 154.686 29.9725L153.118 30.8818C153.118 30.8818 153.063 30.9369 153.118 30.9644Z" fill="white"/>
        <path d="M156.419 35.6483L154.054 34.2707C154.054 34.2707 153.971 34.1605 154.054 34.1329L158.565 31.5155C158.565 31.5155 158.73 31.4604 158.812 31.5155L161.178 32.8931C161.178 32.8931 161.26 32.9757 161.178 33.0308L160.793 33.2512C160.793 33.2512 160.628 33.3064 160.545 33.2512L158.867 32.2869C158.867 32.2869 158.757 32.2594 158.702 32.2869L157.464 33.0033L158.895 33.9125C158.977 33.9676 158.977 34.0227 158.895 34.0503L158.51 34.2707C158.51 34.2707 158.345 34.3258 158.262 34.2707L156.832 33.4441C156.832 33.4441 156.722 33.4166 156.667 33.4441L155.346 34.2156L157.052 35.2901C157.134 35.3452 157.134 35.3728 157.052 35.4279L156.667 35.6483C156.667 35.6483 156.502 35.7034 156.419 35.6483Z" fill="white"/>
        <path d="M157.602 36.1718L162.113 33.5543C162.113 33.5543 162.278 33.4992 162.36 33.5543L164.176 34.6013C164.533 34.8217 164.726 35.0422 164.726 35.2626C164.726 35.483 164.561 35.731 164.176 35.9238L161.7 37.3565C161.343 37.577 160.958 37.6596 160.545 37.6596C160.132 37.6596 159.747 37.5494 159.39 37.3565L157.574 36.3096C157.574 36.3096 157.492 36.1994 157.574 36.1718H157.602ZM158.895 36.3371L159.94 36.9433C160.297 37.1361 160.655 37.1361 161.013 36.9433L163.406 35.5657C163.763 35.3452 163.763 35.1524 163.406 34.9319L162.36 34.3258C162.36 34.3258 162.25 34.2982 162.195 34.3258L158.84 36.2545C158.84 36.2545 158.785 36.3096 158.84 36.3371H158.895Z" fill="white"/>
        <path d="M166.981 36.3922L162.47 39.0097C162.47 39.0097 162.305 39.0648 162.223 39.0097L161.755 38.7342C161.755 38.7342 161.673 38.624 161.755 38.5964L166.266 35.979C166.266 35.979 166.431 35.9239 166.514 35.979L166.981 36.2545C166.981 36.2545 167.064 36.3371 166.981 36.3922Z" fill="white"/>
        <path d="M164.753 40.4699L164.286 40.1944C164.286 40.1944 164.203 40.0842 164.286 40.0567L168.219 37.7974L167.284 37.1637C167.201 37.1086 167.201 37.0535 167.284 37.0259L167.669 36.8055C167.669 36.8055 167.834 36.7504 167.917 36.8055L170.667 38.4035C170.667 38.4035 170.75 38.5137 170.667 38.5413L170.282 38.7617C170.282 38.7617 170.117 38.8168 170.035 38.7617L169.099 38.2107C169.099 38.2107 168.989 38.1831 168.934 38.2107L165.001 40.4699C165.001 40.4699 164.836 40.525 164.753 40.4699Z" fill="white"/>
        <path d="M170.365 43.6936L169.512 43.1976C169.154 42.9772 168.962 42.7568 168.962 42.5364C168.962 42.316 169.154 42.0955 169.512 41.8751L171.988 40.4424C172.345 40.222 172.73 40.1393 173.143 40.1393C173.555 40.1393 173.913 40.2495 174.298 40.4424L175.151 40.9384C175.508 41.1588 175.701 41.3792 175.701 41.5996C175.701 41.82 175.508 42.068 175.151 42.2609L174.793 42.4537C174.793 42.4537 174.628 42.5088 174.518 42.4537L174.05 42.1782C174.05 42.1782 173.968 42.068 174.05 42.0404L174.381 41.8476C174.738 41.6272 174.738 41.4343 174.381 41.2139L173.748 40.8281C173.39 40.6353 173.033 40.6353 172.675 40.8281L170.282 42.2058C169.925 42.4262 169.925 42.619 170.282 42.8395L170.915 43.2252C171.272 43.4181 171.63 43.4181 171.988 43.2252L172.318 43.0323C172.318 43.0323 172.483 42.9772 172.565 43.0323L173.033 43.3078C173.033 43.3078 173.115 43.4181 173.033 43.4732L172.675 43.666C172.318 43.8864 171.932 43.9691 171.52 43.9691C171.107 43.9691 170.722 43.8589 170.365 43.666V43.6936Z" fill="white"/>
        <path d="M172.675 45.0436L172.153 44.7405C172.153 44.7405 172.098 44.6579 172.208 44.6303L178.011 42.7568C178.011 42.7568 178.231 42.7568 178.314 42.7843L179.057 43.2252C179.057 43.2252 179.167 43.3354 179.112 43.3905L175.893 46.7518C175.893 46.7518 175.756 46.807 175.673 46.7518L175.151 46.4488C175.151 46.311 175.811 45.5671 175.811 45.5671L174.188 44.6303L172.95 45.0161C172.95 45.0161 172.758 45.0436 172.703 45.0161L172.675 45.0436ZM177.929 43.418L174.903 44.4099L176.251 45.1814L177.956 43.418H177.929Z" fill="white"/>
        <path d="M177.076 47.5784L176.609 47.3029C176.609 47.3029 176.526 47.1927 176.609 47.1651L181.12 44.5477C181.12 44.5477 181.285 44.4926 181.367 44.5477L183.1 45.5396C183.458 45.76 183.65 45.9804 183.65 46.2008C183.65 46.4212 183.458 46.6692 183.1 46.8621L182.467 47.2203C181.89 47.5509 181.312 47.606 180.679 47.4407C180.652 47.4407 179.744 48.9285 179.744 48.9285C179.689 49.0111 179.607 49.0387 179.497 48.956L179.029 48.6805C179.029 48.6805 178.864 48.5428 178.919 48.4877L179.827 47.0549L179.084 46.6141C179.084 46.6141 178.974 46.5865 178.919 46.6141L177.296 47.5509C177.296 47.5509 177.131 47.606 177.049 47.5509L177.076 47.5784ZM179.689 46.311L180.624 46.8621C180.982 47.0825 181.34 47.0825 181.725 46.8621L182.357 46.5039C182.715 46.2835 182.715 46.0906 182.357 45.8702L181.422 45.3191C181.422 45.3191 181.312 45.2916 181.257 45.3191L179.689 46.2284C179.689 46.2284 179.634 46.2835 179.689 46.311Z" fill="white"/>
        <path d="M180.624 49.4795L185.135 46.8621C185.135 46.8621 185.3 46.807 185.383 46.8621L187.198 47.9091C187.556 48.1295 187.748 48.3499 187.748 48.5703C187.748 48.8183 187.583 49.0387 187.198 49.2316L184.723 50.6643C184.365 50.8847 183.98 50.9674 183.568 50.9674C183.155 50.9674 182.77 50.8571 182.412 50.6643L180.597 49.6173C180.597 49.6173 180.514 49.5071 180.597 49.4795H180.624ZM181.917 49.6449L182.962 50.251C183.32 50.4439 183.678 50.4439 184.035 50.251L186.428 48.8734C186.786 48.653 186.786 48.4601 186.428 48.2397L185.383 47.6335C185.383 47.6335 185.273 47.606 185.218 47.6335L181.862 49.5622C181.862 49.5622 181.807 49.6173 181.862 49.6449H181.917Z" fill="white"/>
    </g>
</g>
<defs>
<linearGradient id="paint0_linear_34_11063" x1="153.611" y1="188.446" x2="172.468" y2="188.446" gradientUnits="userSpaceOnUse">
<stop stop-color="#3F54F5"/>
<stop offset="1" stop-color="#4281EE"/>
</linearGradient>
<linearGradient id="paint1_linear_34_11063" x1="60" y1="131.107" x2="219.205" y2="131.107" gradientUnits="userSpaceOnUse">
<stop stop-color="#3F54F5"/>
<stop offset="1" stop-color="#4281EE"/>
</linearGradient>
<linearGradient id="paint2_linear_34_11063" x1="14.8074" y1="130.363" x2="218.352" y2="130.363" gradientUnits="userSpaceOnUse">
<stop stop-color="#3F54F5"/>
<stop offset="0.31" stop-color="#4281EE"/>
<stop offset="1" stop-color="#39A1FF"/>
</linearGradient>
<linearGradient id="paint3_linear_34_11063" x1="91.0098" y1="68.7938" x2="250.215" y2="68.7938" gradientUnits="userSpaceOnUse">
<stop stop-color="#3F54F5"/>
<stop offset="1" stop-color="#4281EE"/>
</linearGradient>
<linearGradient id="paint4_linear_34_11063" x1="45.8172" y1="68.0497" x2="249.362" y2="68.0497" gradientUnits="userSpaceOnUse">
<stop stop-color="#3F54F5"/>
<stop offset="0.31" stop-color="#4281EE"/>
<stop offset="1" stop-color="#39A1FF"/>
</linearGradient>
<clipPath id="clip0_34_11063">
<rect width="194" height="190" fill="white" transform="translate(60 22)"/>
</clipPath>
</defs>
</svg>
