<svg width="349" height="141" viewBox="0 0 349 141" fill="none" xmlns="http://www.w3.org/2000/svg">
<g clip-path="url(#clip0_4355_2051)">
<path d="M144.771 83.5681L145.802 77.7249C145.921 77.0468 146.29 74.9898 144.669 73.5431C143.803 72.8199 142.698 72.4451 141.57 72.492H114.008C113.066 72.463 112.135 72.7063 111.328 73.1927C110.55 72.7075 109.644 72.4636 108.727 72.492H93.2974C91.2053 72.4604 89.1265 72.8267 87.172 73.5714C85.456 74.2394 83.8886 75.2379 82.5595 76.5099C81.3246 77.7113 80.3185 79.1263 79.5903 80.6861C78.9166 82.1246 78.4328 83.6443 78.151 85.2069L75.5218 100.069C75.553 99.5442 75.553 99.0177 75.5218 98.4926C75.4669 97.2975 75.2221 96.1187 74.7965 95.0002C74.4324 94.0413 73.9263 93.1422 73.2949 92.3329C73.6009 91.9939 73.9012 91.6322 74.1846 91.2536C75.4128 89.6753 76.2444 87.8268 76.6098 85.8624C77.0139 83.9018 76.9303 81.8723 76.3661 79.9514C75.8255 78.2396 74.8263 76.7076 73.4762 75.521C72.1421 74.38 70.5616 73.5619 68.8581 73.1306C67.1671 72.6931 65.4259 72.4785 63.679 72.492H50.0796C47.6544 72.492 45.8242 73.1588 44.6342 74.4699C43.6079 75.6846 42.946 77.1634 42.7246 78.7364L37.4832 108.371C37.1205 110.433 37.3132 112.061 38.0498 113.332C39.5231 115.796 42.583 115.796 43.5973 115.796H57.1966C59.313 115.8 61.4166 115.47 63.4297 114.819C65.3854 114.179 67.223 113.225 68.8695 111.993C70.5029 110.778 71.9057 109.281 73.0116 107.574C73.9047 106.18 74.5702 104.655 74.9835 103.053C74.8693 104.079 74.8428 105.113 74.9042 106.144C74.9906 107.828 75.4928 109.464 76.3661 110.908C77.3458 112.481 78.7634 113.736 80.4459 114.519C82.472 115.418 84.6782 115.842 86.8943 115.757H103.129C105.469 115.757 107.254 114.186 107.662 111.756L108.704 105.856C108.835 105.133 109.129 103.443 107.985 102.036C107.563 101.559 107.037 101.184 106.448 100.94C105.859 100.696 105.222 100.59 104.585 100.629H103.378C105.712 100.629 107.503 99.0577 107.911 96.6277L108.874 91.2027C109.026 90.5889 109.054 89.9511 108.957 89.3265C108.859 88.7018 108.639 88.1025 108.308 87.5634L108.223 87.4504C108.833 87.3401 109.412 87.1012 109.923 86.7497C110.685 87.2735 111.592 87.548 112.518 87.5352H117.198L113.107 110.705C112.977 111.327 112.989 111.97 113.141 112.587C113.293 113.204 113.581 113.779 113.985 114.27C114.416 114.765 114.951 115.157 115.553 115.418C116.156 115.679 116.809 115.803 117.465 115.779H124.893C125.547 115.822 126.202 115.73 126.817 115.507C127.433 115.284 127.995 114.936 128.469 114.485C129.13 113.759 129.556 112.851 129.693 111.88L133.994 87.5804H140.085C141.225 87.6078 142.335 87.2129 143.201 86.4719C144.066 85.7309 144.626 84.6964 144.771 83.5681ZM58.2053 100.465C58.059 100.501 57.9082 100.516 57.7576 100.51H55.6724V100.454H58.2166L58.2053 100.465Z" fill="#CCCCCC"/>
<path d="M177.704 100.951C177.633 99.3998 177.351 97.8656 176.866 96.3904C176.771 96.1151 176.662 95.8453 176.537 95.5823C177.172 95.004 177.756 94.3725 178.282 93.6948C179.769 91.789 180.761 89.5473 181.172 87.1678C181.954 82.7487 181.076 79.132 178.566 76.4308C176.152 73.82 172.333 72.475 167.261 72.475H153.922C151.469 72.475 149.616 73.1814 148.415 74.5659C147.431 75.757 146.793 77.1931 146.567 78.7195L140.901 110.755C140.777 111.37 140.792 112.004 140.943 112.611C141.095 113.219 141.381 113.786 141.779 114.27C142.208 114.77 142.745 115.165 143.35 115.427C143.955 115.688 144.611 115.809 145.27 115.779H152.698C153.952 115.863 155.189 115.458 156.149 114.649C156.88 113.917 157.35 112.966 157.487 111.942L159.334 101.493H160.592C160.671 101.866 160.726 102.244 160.756 102.624L161.323 111.343C161.561 114.559 163.765 115.372 164.428 115.548C165.149 115.723 165.89 115.804 166.632 115.791H173.851C176.441 115.791 177.818 114.253 178.203 112.812C178.4 112.147 178.473 111.452 178.418 110.761L177.704 100.951Z" fill="#CCCCCC"/>
<path d="M346.444 74.7468C344.503 73.6812 342.396 72.9477 340.211 72.5767C337.908 72.142 335.569 71.9226 333.225 71.9212C330.771 71.8881 328.328 72.2585 325.994 73.0175C323.946 73.6911 322.04 74.7372 320.373 76.103C318.826 77.3852 317.536 78.9479 316.571 80.7087C315.661 82.3747 315.026 84.1759 314.69 86.0433C314.288 88.0193 314.445 90.0678 315.143 91.9599C315.805 93.6325 316.847 95.1296 318.186 96.3339C319.519 97.523 321.012 98.5198 322.623 99.295C323.382 99.6737 324.181 100.041 325.008 100.425C324.323 100.318 323.654 100.188 323.019 100.047C322.198 99.8545 321.439 99.6511 320.753 99.4363C319.943 99.182 319.455 98.9899 319.189 98.8712C318.477 98.5458 317.705 98.3726 316.922 98.3626C316.54 98.3578 316.158 98.4073 315.789 98.5095C314.51 98.9361 313.453 99.8504 312.848 101.053L312.633 101.409C311.832 100.906 310.899 100.654 309.953 100.685H298.524L302.615 77.5158C302.852 76.4293 302.689 75.2937 302.156 74.3173C301.402 73.0684 300.076 72.4355 298.189 72.4355H290.772C289.744 72.389 288.73 72.6878 287.893 73.2841C287.056 73.8804 286.443 74.7397 286.154 75.7244C286.06 75.0484 285.782 74.4111 285.349 73.8822C284.928 73.4042 284.402 73.0288 283.813 72.7849C283.224 72.5409 282.586 72.435 281.949 72.475H266.548C264.458 72.4433 262.381 72.8097 260.428 73.5544C258.712 74.2211 257.144 75.2198 255.816 76.4929C254.579 77.693 253.573 79.1083 252.847 80.6691C252.169 82.1065 251.683 83.6264 251.402 85.19L248.755 100.064C248.755 99.5437 248.789 99.0181 248.755 98.4926C248.696 97.2975 248.449 96.1192 248.024 95.0002C247.66 94.0413 247.154 93.1422 246.523 92.3329C246.835 91.9882 247.129 91.6322 247.418 91.2536C248.642 89.6726 249.473 87.8252 249.843 85.8624C250.246 83.9014 250.16 81.8718 249.594 79.9514C249.056 78.24 248.058 76.708 246.71 75.521C245.373 74.3809 243.791 73.563 242.086 73.1306C240.395 72.6928 238.654 72.4781 236.907 72.492H223.308C220.882 72.492 219.052 73.1588 217.856 74.4755C217.309 75.0906 216.874 75.7963 216.57 76.5608C216.619 75.5993 216.315 74.6529 215.715 73.8991C215.293 73.4214 214.768 73.0463 214.178 72.8024C213.589 72.5585 212.952 72.4523 212.315 72.492H196.925C194.833 72.4604 192.754 72.8267 190.799 73.5713C187.44 74.8688 184.72 77.421 183.218 80.686C182.541 82.1236 182.058 83.6436 181.778 85.2069L178.826 101.906C178.578 103.317 178.496 104.753 178.583 106.184C178.67 107.869 179.172 109.507 180.045 110.953C181.026 112.524 182.443 113.776 184.124 114.559C186.15 115.459 188.357 115.882 190.573 115.796H206.733C207.683 115.811 208.613 115.522 209.387 114.972C210.161 114.422 210.738 113.639 211.034 112.739C211.122 112.943 211.222 113.141 211.334 113.332C212.808 115.796 215.868 115.796 216.882 115.796H230.481C232.598 115.799 234.701 115.469 236.714 114.819C238.669 114.177 240.506 113.222 242.154 111.993C243.784 110.776 245.185 109.28 246.291 107.574C247.18 106.189 247.846 104.673 248.262 103.081C248.148 104.106 248.122 105.138 248.183 106.167C248.27 107.852 248.773 109.49 249.645 110.936C250.626 112.507 252.044 113.759 253.725 114.542C255.751 115.441 257.957 115.865 260.173 115.779H276.34C278.674 115.779 280.465 114.208 280.873 111.778L281.541 108.003C281.778 109.034 282.178 110.02 282.726 110.925C283.698 112.497 285.11 113.753 286.788 114.536C288.807 115.44 291.008 115.866 293.22 115.779H308.519C309.363 115.799 310.197 115.583 310.924 115.155C311.652 114.728 312.246 114.106 312.639 113.361C314.589 114.411 316.692 115.153 318.872 115.559C321.498 116.076 324.167 116.34 326.844 116.35C332.04 116.35 336.387 115.22 339.747 112.959C343.345 110.558 345.583 106.964 346.41 102.279C346.819 100.263 346.73 98.1778 346.15 96.2039C345.578 94.4115 344.579 92.7844 343.237 91.4627C341.93 90.1966 340.438 89.1354 338.812 88.315C339.106 88.3885 339.378 88.4676 339.667 88.5467C340.273 88.7473 340.905 88.854 341.543 88.8632C342.127 88.8714 342.706 88.7578 343.243 88.5297C344.37 87.9637 345.27 87.0334 345.798 85.8907V85.8398L347.974 81.5224C348.543 80.6401 348.891 79.6341 348.989 78.5895C349.051 77.6853 348.739 75.9618 346.444 74.7468ZM208.212 100.668H207.005C209.34 100.668 211.125 99.0973 211.538 96.6673L212.502 91.2423C212.653 90.6284 212.681 89.9907 212.584 89.366C212.487 88.7413 212.266 88.1421 211.935 87.603L211.85 87.4899C212.664 87.3485 213.419 86.9756 214.026 86.4162C214.325 86.1277 214.579 85.7963 214.78 85.4329L211.788 102.352C211.724 102.262 211.656 102.171 211.584 102.081C211.166 101.606 210.645 101.232 210.061 100.987C209.477 100.742 208.845 100.633 208.212 100.668ZM231.445 100.465C231.3 100.501 231.151 100.517 231.003 100.51H228.923V100.454H231.467L231.445 100.465ZM281.553 101.906C281.553 102.081 281.502 102.256 281.473 102.431C281.398 102.308 281.315 102.189 281.224 102.075C280.802 101.598 280.277 101.223 279.687 100.979C279.098 100.735 278.461 100.629 277.824 100.668H276.617C278.952 100.668 280.742 99.0973 281.15 96.6673L282.108 91.2423C282.261 90.6276 282.289 89.9887 282.192 89.3629C282.095 88.7371 281.874 88.1369 281.541 87.5973L281.456 87.4899C282.27 87.3485 283.026 86.9756 283.632 86.4162C283.945 86.1162 284.209 85.7692 284.414 85.3877L281.553 101.906Z" fill="#CCCCCC"/>
<path d="M17.3392 105.076C19.0125 95.7711 23.4619 87.186 30.1057 80.4431C36.6391 73.8718 45.012 69.4238 54.1256 67.6829C56.8763 67.1554 59.6711 66.8905 62.4722 66.8918C68.7053 66.8952 74.87 68.1883 80.5764 70.6893L83.7949 72.1134L90.9573 54.3803L87.6877 53.1653C80.6559 50.5443 73.209 49.2044 65.7021 49.2096C63.9455 49.2096 62.1964 49.283 60.455 49.43C64.4872 43.4736 67.0892 36.6708 68.0593 29.5495C68.3613 27.2623 68.4958 24.9562 68.4616 22.6495C68.407 20.3617 68.1912 18.0806 67.8156 15.823C67.4044 13.5767 66.8364 11.3617 66.1157 9.1943C65.3851 7.06639 64.5125 4.98967 63.5035 2.97812L62.0586 0L52.131 4.58302L53.3266 7.56679C53.9583 9.15238 54.4845 10.7778 54.9019 12.4324C55.2927 14.0692 55.571 15.7307 55.7348 17.4053C55.8715 19.0765 55.8924 20.7551 55.7972 22.4291C55.6847 24.0845 55.4518 25.7295 55.1002 27.3512C53.6939 33.7528 50.3841 39.5824 45.6033 44.0784C45.0178 44.6322 44.4115 45.1578 43.7844 45.655C44.3161 44.3264 44.5911 42.9095 44.5947 41.4789C44.6239 39.3337 44.0639 37.2215 42.9753 35.3711C41.8868 33.5207 40.3112 32.0027 38.4193 30.9816C36.5273 29.9605 34.3913 29.4752 32.2426 29.5785C30.0939 29.6817 28.0145 30.3694 26.2297 31.5671C24.445 32.7648 23.023 34.4268 22.1178 36.373C21.2125 38.3191 20.8587 40.4753 21.0945 42.6077C21.3304 44.7402 22.1469 46.7676 23.4557 48.4702C24.7644 50.1729 26.5155 51.4858 28.5191 52.2668C27.0985 52.4725 25.665 52.5764 24.2296 52.5776C19.5891 52.5783 15.0096 51.523 10.8398 49.4921L7.63266 47.9211L0 65.5525L3.27519 66.8353C8.32949 68.8141 13.6814 69.9317 19.1071 70.1412L19.0448 70.209C10.9222 79.4736 5.78802 90.9647 4.31214 103.183C3.96558 106.184 3.83681 109.205 3.92682 112.225C4.12239 118.246 5.24224 124.202 7.24734 129.884C8.25174 132.68 9.44441 135.404 10.8172 138.039L12.3471 140.994L22.235 136.134L20.9147 133.156C19.9294 130.953 19.0908 128.688 18.4045 126.375C17.0776 121.759 16.468 116.968 16.5969 112.168C16.6735 109.789 16.9216 107.419 17.3392 105.076Z" fill="#CCCCCC"/>
<path d="M67.5664 90.7789C68.403 91.1508 69.152 91.6937 69.7649 92.3725C70.3236 93.0003 70.7632 93.7241 71.0626 94.5086C71.3605 95.2944 71.5326 96.122 71.5725 96.9612C71.6135 97.8083 71.5603 98.6574 71.4139 99.4929C71.1351 101.119 70.5299 102.672 69.6346 104.059C68.7509 105.43 67.626 106.63 66.3141 107.602C64.9643 108.608 63.4576 109.385 61.8546 109.902C60.1784 110.444 58.4264 110.717 56.6642 110.71H43.0648C41.6312 110.71 40.7586 110.439 40.4356 109.902C40.1126 109.365 40.0559 108.484 40.2713 107.263L45.5127 77.6345C45.6256 76.69 46.0004 75.7957 46.595 75.0519C47.1163 74.4755 48.0909 74.1873 49.5189 74.1873H63.1182C64.5688 74.1724 66.015 74.3491 67.4191 74.7129C68.62 75.0091 69.7355 75.5798 70.6772 76.38C71.5657 77.1616 72.2206 78.1726 72.5698 79.3016C72.9647 80.6952 73.0095 82.1644 72.7001 83.5794C72.4305 85.0223 71.8163 86.3791 70.9096 87.5352C70.0293 88.7377 68.9058 89.7427 67.6117 90.485L67.5664 90.7789ZM53.627 87.6482H59.0838C59.789 87.6448 60.4823 87.4661 61.101 87.1283C61.4526 86.9092 61.748 86.6112 61.9635 86.2579C62.1789 85.9047 62.3086 85.506 62.3419 85.0939C62.4304 84.782 62.4425 84.4535 62.3775 84.1359C62.3124 83.8183 62.172 83.5209 61.968 83.2686C61.7296 83.0457 61.4472 82.8748 61.1389 82.7668C60.8306 82.6588 60.5032 82.6161 60.1774 82.6413H54.511L53.627 87.6482ZM61.3333 98.8147C61.4358 98.3913 61.4463 97.9509 61.3642 97.523C61.2821 97.0951 61.1093 96.6897 60.8573 96.3339C60.3644 95.6897 59.5427 95.3676 58.4038 95.3676H52.2614L51.0545 102.205H57.1912C57.7978 102.221 58.4012 102.113 58.9648 101.889C59.8519 101.52 60.5677 100.832 60.9707 99.9619C61.1375 99.5955 61.2593 99.2103 61.3333 98.8147Z" fill="#001140"/>
<path d="M102.562 110.71H86.3788C84.6843 110.785 82.9943 110.482 81.4321 109.823C80.3356 109.321 79.4072 108.514 78.7575 107.5C78.1701 106.528 77.8351 105.425 77.7829 104.291C77.7093 103.123 77.7759 101.95 77.9812 100.798L80.9334 84.0993C81.161 82.8289 81.5553 81.5938 82.1064 80.4261C82.6616 79.2353 83.4297 78.1553 84.3729 77.2389C85.3864 76.2799 86.5778 75.5274 87.8804 75.0237C89.4311 74.4395 91.0793 74.1556 92.7366 74.1873H108.166C108.586 74.1873 108.846 74.2495 108.948 74.3738C109.044 74.4925 109.044 74.8485 108.948 75.4419L107.911 81.3359C107.881 81.6714 107.75 81.9901 107.537 82.2514C107.3 82.4277 107.005 82.5103 106.71 82.4831H94.2438C93.6637 82.4671 93.0861 82.565 92.5439 82.7713C92.1415 82.9266 91.7779 83.1677 91.4786 83.4777C91.2308 83.751 91.0384 84.0695 90.912 84.4158C90.7843 84.7529 90.6875 85.101 90.623 85.4556L90.2377 87.6482H104.256C104.676 87.6482 104.931 87.7217 105.033 87.8573C105.14 88.2149 105.14 88.596 105.033 88.9536L104.075 94.3786C103.933 95.1811 103.508 95.5767 102.868 95.5767H88.7927L88.1014 99.4928C87.9868 100.007 87.9714 100.538 88.0561 101.058C88.1175 101.395 88.2961 101.699 88.5604 101.917C88.8326 102.119 89.1531 102.245 89.4897 102.284C89.9011 102.339 90.3157 102.365 90.7306 102.364H104.018C104.438 102.364 104.693 102.42 104.795 102.544C104.897 102.669 104.897 103.019 104.795 103.612L103.752 109.507C103.609 110.309 103.212 110.71 102.562 110.71Z" fill="#001140"/>
<path d="M139.547 82.5057H130.6L125.794 109.631C125.763 109.943 125.645 110.24 125.454 110.49C125.307 110.648 124.939 110.727 124.321 110.727H116.927C116.122 110.727 115.793 110.36 115.918 109.631L120.695 82.5057H111.98C111.243 82.5057 110.948 82.1101 111.09 81.3077L112.121 75.4645C112.227 74.8692 112.369 74.5132 112.546 74.3964C112.821 74.2504 113.132 74.1857 113.442 74.2099H141.014C141.303 74.177 141.595 74.2428 141.842 74.3964C141.978 74.5151 141.995 74.8711 141.887 75.4645L140.856 81.3077C140.85 81.4725 140.811 81.6345 140.742 81.7842C140.673 81.934 140.575 82.0686 140.453 82.18C140.331 82.2915 140.188 82.3777 140.033 82.4337C139.877 82.4896 139.712 82.5141 139.547 82.5057Z" fill="#001140"/>
<path d="M174.446 109.354C174.47 109.644 174.435 109.936 174.344 110.213C174.254 110.546 173.891 110.71 173.268 110.71H166.026C165.577 110.721 165.128 110.677 164.689 110.58C164.354 110.49 164.162 110.1 164.122 109.405L163.555 100.691C163.538 99.5474 163.234 98.4264 162.671 97.4302C162.196 96.7521 161.296 96.413 159.974 96.413H155.889L153.56 109.665C153.532 109.969 153.418 110.259 153.231 110.501C152.885 110.688 152.488 110.761 152.098 110.71H144.703C143.899 110.71 143.57 110.36 143.683 109.665L149.35 77.6345C149.473 76.7101 149.843 75.8356 150.421 75.1028C150.95 74.4925 151.928 74.1873 153.356 74.1873H166.695C170.808 74.1873 173.746 75.1292 175.506 77.0129C177.266 78.8965 177.85 81.5149 177.257 84.8678C176.941 86.7032 176.176 88.4325 175.03 89.903C173.938 91.3336 172.507 92.4714 170.865 93.2145V93.3162C171.385 93.5537 171.851 93.8933 172.235 94.3148C172.62 94.7362 172.915 95.2308 173.103 95.7688C173.486 96.9526 173.707 98.1824 173.761 99.425L174.446 109.354ZM166.916 85.6647C167.058 84.9717 166.943 84.2509 166.593 83.6359C166.23 83.0086 165.459 82.6978 164.326 82.6978H158.342L157.277 88.7219H163.244C164.081 88.7208 164.896 88.4558 165.573 87.9646C165.943 87.6943 166.254 87.3504 166.485 86.9546C166.716 86.5588 166.863 86.1196 166.916 85.6647Z" fill="#001140"/>
<path d="M206.167 110.71H190.006C188.311 110.785 186.622 110.482 185.059 109.823C183.961 109.323 183.032 108.517 182.385 107.5C181.797 106.528 181.462 105.425 181.41 104.291C181.337 103.123 181.403 101.95 181.608 100.798L184.561 84.0993C184.788 82.8289 185.183 81.5938 185.734 80.4261C186.289 79.2353 187.057 78.1553 188 77.2389C189.014 76.2799 190.205 75.5274 191.508 75.0237C193.058 74.4395 194.706 74.1556 196.364 74.1873H211.793C212.213 74.1873 212.473 74.2495 212.57 74.3738C212.666 74.4981 212.672 74.8485 212.57 75.4419L211.527 81.3359C211.498 81.6708 211.37 81.9894 211.159 82.2514C210.921 82.4277 210.626 82.5103 210.331 82.4831H197.865C197.285 82.4665 196.707 82.5644 196.165 82.7713C195.762 82.9281 195.397 83.169 195.094 83.4777C194.848 83.7522 194.656 84.0704 194.528 84.4158C194.4 84.7529 194.303 85.101 194.239 85.4556L193.854 87.6482H207.872C208.292 87.6482 208.547 87.7217 208.649 87.8573C208.756 88.2149 208.756 88.596 208.649 88.9536L207.685 94.3786C207.549 95.1811 207.147 95.5767 206.484 95.5767H192.42L191.723 99.4928C191.61 100.007 191.596 100.539 191.683 101.058C191.745 101.395 191.923 101.699 192.188 101.917C192.46 102.119 192.78 102.245 193.117 102.284C193.528 102.339 193.943 102.365 194.358 102.364H207.646C208.065 102.364 208.32 102.42 208.422 102.544C208.524 102.669 208.524 103.019 208.422 103.612L207.391 109.507C207.239 110.309 206.832 110.71 206.167 110.71Z" fill="#001140"/>
<path d="M240.823 90.7789C241.661 91.1507 242.412 91.6936 243.027 92.3725C243.584 93.0018 244.023 93.7252 244.324 94.5086C244.621 95.2947 244.791 96.1223 244.829 96.9612C244.87 97.8083 244.817 98.6574 244.67 99.4929C244.393 101.118 243.79 102.672 242.897 104.059C242.011 105.429 240.887 106.629 239.576 107.602C238.226 108.607 236.719 109.384 235.117 109.902C233.44 110.444 231.688 110.717 229.926 110.71H216.327C214.899 110.71 214.022 110.441 213.698 109.902C213.375 109.337 213.324 108.484 213.539 107.263L218.775 77.6345C218.89 76.6907 219.265 75.797 219.857 75.0519C220.378 74.4755 221.355 74.1873 222.786 74.1873H236.386C237.836 74.1724 239.283 74.3491 240.687 74.7129C241.889 75.0102 243.006 75.5808 243.951 76.38C244.836 77.1634 245.488 78.1739 245.837 79.3016C246.232 80.6951 246.278 82.1637 245.973 83.5794C245.701 85.0226 245.085 86.3793 244.177 87.5352C243.298 88.7362 242.176 89.7409 240.885 90.485L240.823 90.7789ZM226.883 87.6482H232.323C233.026 87.6445 233.718 87.4658 234.335 87.1283C234.686 86.9085 234.982 86.6104 235.198 86.2574C235.414 85.9044 235.545 85.5061 235.581 85.0939C235.669 84.7816 235.68 84.4528 235.614 84.1352C235.548 83.8176 235.407 83.5204 235.202 83.2686C234.964 83.0462 234.683 82.8755 234.375 82.7675C234.068 82.6595 233.742 82.6165 233.417 82.6413H227.79L226.883 87.6482ZM234.59 98.8147C234.693 98.3917 234.704 97.9515 234.623 97.5236C234.542 97.0958 234.37 96.6902 234.119 96.3339C233.624 95.6897 232.805 95.3676 231.66 95.3676H225.523L224.311 102.205H230.453C231.06 102.219 231.663 102.112 232.227 101.889C232.691 101.699 233.111 101.416 233.462 101.058C233.78 100.74 234.041 100.369 234.233 99.9619C234.398 99.5953 234.518 99.2101 234.59 98.8147Z" fill="#001140"/>
<path d="M275.796 110.71H259.629C257.937 110.785 256.249 110.482 254.688 109.823C253.589 109.322 252.659 108.516 252.008 107.5C251.423 106.527 251.088 105.424 251.033 104.291C250.966 103.123 251.032 101.951 251.232 100.798L254.184 84.0993C254.412 82.8289 254.806 81.5938 255.357 80.4261C255.911 79.2344 256.679 78.1541 257.624 77.2389C258.634 76.2787 259.824 75.5261 261.125 75.0237C262.676 74.4395 264.324 74.1556 265.981 74.1873H281.411C281.83 74.1873 282.091 74.2495 282.193 74.3738C282.295 74.4925 282.289 74.8485 282.193 75.4419L281.15 81.3359C281.122 81.672 280.992 81.9914 280.777 82.2514C280.541 82.4269 280.248 82.5094 279.955 82.4831H267.489C266.909 82.4671 266.331 82.565 265.789 82.7713C265.387 82.9281 265.024 83.1689 264.724 83.4777C264.474 83.7494 264.281 84.0684 264.157 84.4158C264.029 84.7529 263.932 85.101 263.868 85.4556L263.477 87.6482H277.496C277.915 87.6482 278.176 87.7217 278.272 87.8573C278.382 88.2145 278.382 88.5964 278.272 88.9536L277.314 94.3786C277.173 95.1811 276.748 95.5767 276.107 95.5767H262.043L261.352 99.4929C261.236 100.007 261.222 100.539 261.312 101.058C261.372 101.394 261.548 101.698 261.811 101.917C262.083 102.119 262.404 102.245 262.74 102.284C263.152 102.339 263.566 102.365 263.981 102.364H277.269C277.688 102.364 277.949 102.42 278.051 102.544C278.153 102.669 278.147 103.019 278.051 103.612L277.014 109.507C276.867 110.309 276.461 110.71 275.796 110.71Z" fill="#001140"/>
<path d="M287.774 109.823C286.68 109.322 285.755 108.515 285.111 107.5C284.528 106.526 284.195 105.424 284.142 104.291C284.074 103.123 284.142 101.95 284.346 100.798L288.811 75.2328C288.83 75.0691 288.88 74.9106 288.961 74.7666C289.041 74.6226 289.149 74.4959 289.278 74.3939C289.408 74.2919 289.557 74.2166 289.716 74.1724C289.875 74.1282 290.041 74.116 290.205 74.1365H297.645C298.212 74.1365 298.575 74.2156 298.671 74.3738C298.762 74.653 298.762 74.9536 298.671 75.2328L294.382 99.4928C294.268 100.007 294.255 100.539 294.342 101.058C294.403 101.395 294.582 101.699 294.846 101.917C295.121 102.121 295.446 102.248 295.787 102.284C296.198 102.339 296.613 102.365 297.028 102.364H309.443C309.731 102.329 310.023 102.393 310.27 102.544C310.406 102.669 310.423 103.019 310.315 103.612L309.279 109.507C309.272 109.672 309.233 109.834 309.163 109.984C309.093 110.134 308.994 110.269 308.872 110.381C308.75 110.493 308.607 110.58 308.451 110.636C308.295 110.693 308.13 110.718 307.964 110.71H292.665C290.989 110.781 289.318 110.478 287.774 109.823Z" fill="#001140"/>
<path d="M317.489 84.9357C317.76 83.4282 318.273 81.9742 319.008 80.6296C319.769 79.2445 320.786 78.0154 322.005 77.0072C323.35 75.909 324.887 75.0679 326.538 74.5264C328.517 73.8907 330.586 73.5833 332.664 73.6166C334.795 73.6162 336.922 73.8167 339.016 74.2156C340.839 74.5165 342.598 75.1242 344.218 76.0126C344.784 76.2952 345.028 76.5777 345.022 76.7981C344.903 77.3172 344.692 77.811 344.399 78.2561L342.251 82.5905C342.059 83.0434 341.746 83.4345 341.345 83.7207C340.939 83.8149 340.515 83.7773 340.132 83.6133C338.67 83.1889 337.18 82.8678 335.673 82.6526C334.23 82.4328 332.774 82.3176 331.315 82.3079C330.091 82.3079 329.253 82.4831 328.788 82.8335C328.361 83.1267 328.066 83.575 327.966 84.0824C327.922 84.3289 327.935 84.5824 328.006 84.8227C328.077 85.0631 328.203 85.2836 328.374 85.4669C328.665 85.788 329.006 86.0608 329.383 86.275C329.993 86.6252 330.632 86.922 331.293 87.1622C333.242 87.9647 334.985 88.7558 336.523 89.5357C337.909 90.215 339.182 91.1032 340.296 92.1691C341.252 93.1156 341.964 94.279 342.37 95.5597C342.781 97.012 342.833 98.5416 342.523 100.018C341.855 103.786 340.117 106.611 337.31 108.495C334.504 110.379 330.834 111.321 326.3 111.321C323.84 111.312 321.387 111.068 318.974 110.592C316.623 110.17 314.386 109.264 312.406 107.93C312.275 107.861 312.163 107.762 312.08 107.639C311.997 107.517 311.945 107.376 311.93 107.229C311.979 106.807 312.131 106.404 312.372 106.054L315.291 101.098C315.642 100.504 315.942 100.177 316.197 100.103C316.588 100.051 316.985 100.124 317.331 100.312C317.818 100.521 318.464 100.747 319.223 100.99C319.982 101.233 320.838 101.459 321.745 101.669C322.651 101.878 323.603 102.053 324.578 102.194C325.564 102.33 326.558 102.4 327.553 102.403C328.237 102.422 328.92 102.342 329.581 102.166C330.027 102.047 330.45 101.856 330.834 101.601C331.12 101.411 331.353 101.152 331.514 100.849C331.634 100.617 331.722 100.37 331.774 100.114C331.823 99.8404 331.838 99.5615 331.82 99.2838C331.788 98.9849 331.665 98.7029 331.468 98.4757C331.157 98.1382 330.791 97.8555 330.386 97.6393C329.716 97.2698 329.021 96.947 328.306 96.673C326.606 96.0118 325.037 95.328 323.592 94.6103C322.268 93.9761 321.04 93.1601 319.943 92.186C318.987 91.3346 318.244 90.2722 317.772 89.0836C317.292 87.7544 317.193 86.3176 317.489 84.9357Z" fill="#001140"/>
<path d="M32.242 47.9889C36.8736 47.9889 40.6283 44.3153 40.6283 39.7836C40.6283 35.2519 36.8736 31.5782 32.242 31.5782C27.6104 31.5782 23.8557 35.2519 23.8557 39.7836C23.8557 44.3153 27.6104 47.9889 32.242 47.9889Z" fill="#001140"/>
<path d="M13.2821 134.789C10.6282 129.793 8.74466 124.427 7.69502 118.87C7.18824 116.07 6.87961 113.237 6.77139 110.394C6.68543 107.543 6.80663 104.689 7.13404 101.855C8.16632 93.1949 11.1601 84.8824 15.889 77.5465C20.6178 70.2105 26.9578 64.0433 34.4291 59.5115C36.941 57.9821 39.5643 56.6428 42.2771 55.5049C43.6201 54.8946 45.0253 54.4425 46.4136 53.9282L48.5328 53.2784C48.8898 53.171 49.2411 53.058 49.5981 52.9619L50.6748 52.6963C62.3523 49.7638 74.6476 50.4398 85.9312 54.6346L81.398 65.8859C72.4551 61.9541 62.5253 60.8249 52.9243 62.6478C43.1329 64.5169 34.1374 69.296 27.1195 76.3574C19.9933 83.586 15.2217 92.7921 13.4294 102.77C12.9874 105.278 12.726 107.815 12.6475 110.36C12.5999 112.922 12.7286 115.484 13.0328 118.028C13.3764 120.575 13.8932 123.096 14.5797 125.573C15.3125 128.051 16.2078 130.479 17.2599 132.84L13.2821 134.789Z" fill="#001140"/>
<path d="M59.9224 2.76338C60.8619 4.64226 61.6759 6.58104 62.3589 8.56704C63.0149 10.5707 63.5299 12.6176 63.9002 14.6928C64.2395 16.7902 64.4288 18.9091 64.4668 21.0333C64.6545 31.9583 60.663 42.5444 53.304 50.6393C47.2827 57.2336 39.4006 61.8554 30.695 63.8967C21.7961 65.9712 12.4752 65.3011 3.96655 61.9754L8.77167 50.8597C14.9513 53.8665 21.9009 54.9307 28.7004 53.9113C35.6953 52.8475 42.2029 49.6951 47.3656 44.8696C52.6569 39.8985 56.3153 33.4464 57.8598 26.3623C58.2437 24.5648 58.4993 22.7425 58.6248 20.909C58.7324 19.0712 58.7096 17.2281 58.5568 15.3935C58.3794 13.5495 58.0746 11.7198 57.6445 9.91764C57.1846 8.10827 56.6034 6.33173 55.9049 4.59998L59.9224 2.76338Z" fill="#001140"/>
</g>
<defs>
<clipPath id="clip0_4355_2051">
<rect width="349" height="141" fill="white"/>
</clipPath>
</defs>
</svg>
