<svg width="368" height="61" viewBox="0 0 368 61" fill="none" xmlns="http://www.w3.org/2000/svg">
<g clip-path="url(#clip0_4355_2134)">
<path d="M126.95 52.976C127.991 52.1726 129.27 51.7368 130.585 51.7368C131.901 51.7368 133.18 52.1726 134.22 52.976C135.089 53.8799 135.574 55.0838 135.574 56.3362C135.574 57.5886 135.089 58.7925 134.22 59.6964C133.18 60.4998 131.901 60.9356 130.585 60.9356C129.27 60.9356 127.991 60.4998 126.95 59.6964C126.085 58.7905 125.603 57.5873 125.603 56.3362C125.603 55.0851 126.085 53.8819 126.95 52.976ZM128.46 59.3141C128.691 59.6609 129.007 59.9434 129.378 60.1349C129.749 60.3265 130.162 60.4208 130.58 60.409C130.998 60.4195 131.413 60.3247 131.785 60.1334C132.158 59.942 132.476 59.6603 132.711 59.3141C133.225 58.4064 133.495 57.3816 133.495 56.3391C133.495 55.2966 133.225 54.2718 132.711 53.3641C132.476 53.0179 132.158 52.7362 131.785 52.5448C131.413 52.3535 130.998 52.2587 130.58 52.2691C130.162 52.2574 129.749 52.3517 129.378 52.5433C129.007 52.7348 128.691 53.0173 128.46 53.3641C127.95 54.273 127.682 55.2974 127.682 56.3391C127.682 57.3808 127.95 58.4051 128.46 59.3141Z" fill="#001140"/>
<path d="M141.88 53.2077H145.439V53.3351H145.225C145.046 53.3284 144.871 53.3906 144.737 53.5089C144.672 53.5664 144.62 53.6369 144.584 53.7157C144.548 53.7945 144.529 53.88 144.528 53.9666V59.4879C144.518 59.9188 144.551 60.3496 144.626 60.774V60.9536H144.516L138.709 55.838V60.0209C138.71 60.1075 138.729 60.193 138.765 60.2718C138.801 60.3506 138.853 60.4211 138.918 60.4786C138.983 60.54 139.06 60.588 139.144 60.6199C139.227 60.6517 139.317 60.6667 139.406 60.664H139.621V60.7393H136.119V60.6118H136.323C136.505 60.6151 136.681 60.5488 136.816 60.4264C136.882 60.3701 136.935 60.2998 136.97 60.2206C137.005 60.1414 137.022 60.0553 137.019 59.9687V54.407C137.027 53.9874 136.992 53.5681 136.915 53.1555V52.976H137.031L142.838 58.0685V53.9087C142.839 53.822 142.823 53.7359 142.789 53.6561C142.755 53.5762 142.704 53.5044 142.641 53.4452C142.507 53.3248 142.332 53.2605 142.153 53.2656H141.938L141.88 53.2077Z" fill="#001140"/>
<path d="M145.991 60.7393V60.6118H146.142C146.232 60.6138 146.321 60.5979 146.405 60.565C146.489 60.5322 146.565 60.4831 146.63 60.4206C146.693 60.3599 146.743 60.287 146.777 60.2063C146.811 60.1256 146.828 60.0389 146.827 59.9514V53.9725C146.828 53.8844 146.811 53.797 146.776 53.7162C146.741 53.6353 146.689 53.5627 146.624 53.5032C146.561 53.4398 146.486 53.3897 146.403 53.3559C146.32 53.322 146.231 53.3051 146.142 53.3062H145.991V53.2077H149.51V53.3352H149.359C149.177 53.3307 149 53.3972 148.865 53.5206C148.799 53.5811 148.746 53.6556 148.711 53.7386C148.675 53.8217 148.659 53.9113 148.662 54.0014V60.2816H150.184C150.672 60.288 151.145 60.1147 151.513 59.7949C151.902 59.4365 152.178 58.9738 152.309 58.4624H152.448L151.955 60.7798L145.991 60.7393Z" fill="#001140"/>
<path d="M152.692 60.635H152.849C153.04 60.64 153.226 60.5692 153.366 60.438C153.434 60.3791 153.489 60.3061 153.526 60.2241C153.563 60.1421 153.581 60.053 153.581 59.963V53.9725C153.584 53.883 153.566 53.7941 153.528 53.7126C153.491 53.6312 153.435 53.5595 153.366 53.5032C153.226 53.372 153.04 53.3012 152.849 53.3062H152.692V53.2077H156.292V53.3352H156.141C155.954 53.3326 155.772 53.3985 155.63 53.5206C155.563 53.5798 155.509 53.6518 155.47 53.7324C155.431 53.813 155.408 53.9005 155.404 53.9898V59.9919C155.407 60.0831 155.429 60.1728 155.468 60.2554C155.507 60.338 155.562 60.412 155.63 60.4728C155.77 60.5989 155.953 60.6672 156.141 60.664H156.292V60.7393H152.692V60.635Z" fill="#001140"/>
<path d="M162.651 53.2077H166.211V53.3351H165.996C165.817 53.3284 165.642 53.3906 165.508 53.5089C165.443 53.5664 165.391 53.6369 165.355 53.7157C165.319 53.7945 165.3 53.88 165.299 53.9666V59.4879C165.289 59.9188 165.323 60.3496 165.398 60.774V60.9536H165.287L159.48 55.838V60.0209C159.481 60.1075 159.5 60.193 159.536 60.2718C159.572 60.3506 159.624 60.4211 159.689 60.4786C159.754 60.54 159.831 60.588 159.915 60.6199C159.998 60.6517 160.088 60.6667 160.177 60.664H160.392V60.7393H156.844V60.6118H157.047C157.229 60.6151 157.406 60.5488 157.541 60.4264C157.607 60.3701 157.659 60.2998 157.695 60.2206C157.73 60.1414 157.747 60.0553 157.744 59.9687V54.407C157.752 53.9874 157.717 53.5681 157.64 53.1555V52.976H157.756L163.563 58.0685V53.9087C163.564 53.822 163.547 53.7359 163.513 53.6561C163.479 53.5762 163.429 53.5044 163.365 53.4452C163.232 53.3248 163.057 53.2605 162.877 53.2656H162.662L162.651 53.2077Z" fill="#001140"/>
<path d="M172.732 60.7393H166.768V60.6118H166.896C166.986 60.6138 167.075 60.5979 167.159 60.5651C167.243 60.5322 167.319 60.4832 167.384 60.4207C167.51 60.2962 167.585 60.1286 167.593 59.9514V53.9609C167.59 53.8721 167.571 53.7847 167.534 53.7036C167.498 53.6225 167.446 53.5495 167.381 53.4886C167.316 53.4277 167.24 53.3803 167.157 53.349C167.073 53.3176 166.985 53.3031 166.896 53.3062H166.745V53.2077H171.199C171.45 53.2052 171.7 53.1839 171.948 53.144C172.146 53.1234 172.34 53.0807 172.529 53.0165V55.0269H172.401V54.911C172.417 54.753 172.399 54.5932 172.347 54.443C172.295 54.2928 172.211 54.1558 172.1 54.0415C171.989 53.9272 171.855 53.8385 171.706 53.7816C171.558 53.7246 171.398 53.7008 171.239 53.7118H169.416V56.7823H170.856C170.986 56.7847 171.115 56.7601 171.235 56.7103C171.355 56.6604 171.463 56.5863 171.553 56.4927C171.642 56.3985 171.712 56.2875 171.758 56.1661C171.804 56.0448 171.825 55.9155 171.82 55.7858V55.6989H171.948V58.3755H171.82V58.2886C171.834 58.1181 171.799 57.9473 171.722 57.7949C171.644 57.6426 171.525 57.5147 171.379 57.4254C171.227 57.3325 171.052 57.2843 170.874 57.2864H169.416V60.2816H170.961C171.45 60.2872 171.925 60.1142 172.296 59.795C172.688 59.4385 172.967 58.9752 173.098 58.4624H173.214L172.732 60.7393Z" fill="#001140"/>
<path d="M181.738 60.9362C180.457 60.9983 179.204 60.5502 178.254 59.6906C177.41 58.7753 176.942 57.577 176.942 56.3333C176.942 55.0896 177.41 53.8913 178.254 52.976C179.229 52.1127 180.506 51.6673 181.808 51.7361C182.467 51.7365 183.125 51.8025 183.771 51.9331C184.3 52.0327 184.814 52.1961 185.304 52.4198V54.5924H185.193C185.044 53.8839 184.642 53.2538 184.061 52.8195C183.501 52.4439 182.837 52.2515 182.162 52.2691C181.715 52.2499 181.27 52.3396 180.865 52.5304C180.461 52.7211 180.109 53.0073 179.839 53.3641C179.244 54.2437 178.954 55.2939 179.015 56.3536C178.954 57.4 179.217 58.4399 179.77 59.3314C180.003 59.678 180.321 59.959 180.694 60.1477C181.068 60.3364 181.483 60.4263 181.901 60.409C182.511 60.4278 183.106 60.2215 183.573 59.8297C183.787 59.6459 183.952 59.4134 184.055 59.1519V57.2168C184.06 57.1378 184.047 57.0586 184.017 56.9853C183.987 56.912 183.94 56.8465 183.881 56.7939C183.742 56.687 183.568 56.6354 183.393 56.649H183.196V56.5216H186.75V56.6838H186.564C186.394 56.6717 186.227 56.7234 186.093 56.8286C186.037 56.8829 185.993 56.9489 185.965 57.022C185.937 57.0951 185.925 57.1735 185.931 57.2516V59.3372C185.491 59.854 184.928 60.2524 184.293 60.4959C183.481 60.8172 182.611 60.9671 181.738 60.9362Z" fill="#001140"/>
<path d="M195.175 60.635H195.274V60.7393H191.552V60.6118H191.656C191.725 60.6173 191.794 60.6065 191.857 60.5804C191.921 60.5542 191.977 60.5133 192.022 60.4612C192.087 60.3823 192.126 60.2851 192.133 60.1831C192.131 60.0924 192.115 60.0025 192.086 59.9166L191.592 58.7579H188.904L188.399 59.9166C188.364 59.9992 188.346 60.0878 188.346 60.1773C188.354 60.2813 188.397 60.3795 188.468 60.4554C188.516 60.5052 188.574 60.5441 188.638 60.5691C188.702 60.5941 188.771 60.6047 188.84 60.6002H188.962V60.7393H186.43V60.6118H186.529C186.719 60.6072 186.904 60.5489 187.063 60.4438C187.251 60.3241 187.4 60.1532 187.493 59.9514L190.123 54.3664C190.37 53.8742 190.565 53.3577 190.704 52.8253H190.814L194.188 59.9282C194.276 60.1457 194.428 60.3316 194.624 60.4612C194.787 60.5715 194.978 60.6319 195.175 60.635ZM189.119 58.2828H191.372L190.263 55.641L189.119 58.2828Z" fill="#001140"/>
<path d="M205.651 60.635H205.825V60.7393H202.318V60.6118H202.492C202.56 60.6172 202.628 60.6044 202.689 60.5749C202.75 60.5454 202.802 60.5001 202.84 60.4438C202.889 60.3575 202.909 60.2583 202.898 60.1599L202.405 56.5448L200.39 59.7428C200.118 60.1193 199.959 60.5655 199.931 61.0289H199.821L196.917 56.6085L196.482 60.1599C196.47 60.2796 196.503 60.3995 196.575 60.4959C196.613 60.551 196.664 60.5953 196.724 60.6248C196.784 60.6542 196.851 60.6677 196.917 60.664H197.092V60.7393H194.688V60.6118H194.862C195.071 60.6224 195.278 60.5565 195.442 60.4264C195.52 60.3667 195.584 60.2916 195.631 60.2059C195.678 60.1201 195.707 60.0255 195.715 59.9282L196.702 52.976H196.807L200.39 58.3176L203.746 52.976H203.862L204.873 59.9745C204.907 60.1571 205.011 60.3193 205.163 60.4264C205.3 60.5452 205.47 60.6182 205.651 60.635Z" fill="#001140"/>
<path d="M212.288 55.0616C212.293 55.3488 212.223 55.6324 212.085 55.8843C211.967 56.0997 211.796 56.2811 211.587 56.411C211.379 56.5409 211.14 56.6149 210.895 56.6259C211.42 56.648 211.921 56.853 212.311 57.2052C212.5 57.3802 212.649 57.5931 212.749 57.8297C212.849 58.0664 212.898 58.3215 212.892 58.5783C212.892 59.6636 212.238 60.3453 210.929 60.6234C210.53 60.7023 210.123 60.7411 209.716 60.7393H206.04V60.6118H206.179C206.269 60.6144 206.359 60.5988 206.443 60.566C206.527 60.5331 206.603 60.4837 206.667 60.4206C206.733 60.359 206.786 60.2845 206.822 60.2018C206.858 60.1191 206.876 60.0299 206.876 59.9398V53.9725C206.881 53.8368 206.842 53.7032 206.764 53.5915C206.687 53.4799 206.575 53.3961 206.447 53.3525C206.361 53.3227 206.27 53.307 206.179 53.3062H206.04V53.2077H209.437C211.33 53.2077 212.288 53.7871 212.288 55.0616ZM210.831 58.4856C210.843 58.1447 210.759 57.8073 210.587 57.5123C210.427 57.2566 210.199 57.0502 209.928 56.9162C209.657 56.7822 209.355 56.7258 209.054 56.7533V56.6433C209.417 56.6572 209.772 56.5283 210.041 56.2841C210.179 56.139 210.284 55.9663 210.35 55.7776C210.416 55.5888 210.442 55.3883 210.424 55.1891C210.424 54.1752 209.96 53.6712 209.042 53.6712H208.688V60.2526H209.193C209.633 60.2724 210.063 60.1183 210.389 59.8239C210.553 59.6439 210.676 59.4319 210.752 59.2014C210.828 58.9709 210.855 58.727 210.831 58.4856Z" fill="#001140"/>
<path d="M213.525 60.7393V60.6118H213.676C213.766 60.6148 213.856 60.5993 213.94 60.5664C214.024 60.5336 214.1 60.484 214.164 60.4206C214.228 60.3608 214.279 60.2881 214.313 60.2072C214.347 60.1263 214.364 60.0391 214.361 59.9514V53.9725C214.366 53.8839 214.35 53.7956 214.314 53.7142C214.279 53.6329 214.226 53.5607 214.158 53.5032C214.096 53.4393 214.02 53.3888 213.938 53.3549C213.855 53.3211 213.766 53.3045 213.676 53.3062H213.525V53.2077H217.05V53.3352H216.893C216.711 53.333 216.535 53.3992 216.4 53.5206C216.334 53.5821 216.282 53.6567 216.247 53.7395C216.212 53.8223 216.195 53.9115 216.196 54.0014V60.2816H217.718C218.206 60.289 218.68 60.1157 219.048 59.7949C219.439 59.4385 219.718 58.9752 219.849 58.4624H219.988L219.495 60.7798L213.525 60.7393Z" fill="#001140"/>
<path d="M220.226 60.635H220.377C220.571 60.6396 220.758 60.569 220.9 60.438C220.967 60.3784 221.021 60.3053 221.058 60.2234C221.095 60.1415 221.115 60.0528 221.115 59.963V53.9725C221.115 53.8834 221.096 53.7954 221.059 53.7145C221.022 53.6335 220.967 53.5614 220.9 53.5032C220.758 53.3722 220.571 53.3016 220.377 53.3062H220.226V53.2077H223.803V53.3352H223.647C223.461 53.334 223.282 53.3999 223.141 53.5206C223.072 53.5782 223.016 53.6499 222.977 53.7308C222.938 53.8117 222.917 53.9 222.915 53.9898V59.9919C222.916 60.0836 222.936 60.174 222.976 60.257C223.015 60.34 223.071 60.4136 223.141 60.4728C223.28 60.5975 223.46 60.6657 223.647 60.664H223.803V60.7393H220.203L220.226 60.635Z" fill="#001140"/>
<path d="M230.191 53.2077H233.745V53.3351H233.53C233.351 53.3307 233.177 53.3927 233.042 53.5089C232.915 53.6284 232.84 53.7927 232.833 53.9666V59.4879C232.825 59.919 232.86 60.3498 232.938 60.774V60.9536H232.827L227.02 55.838V60.0209C227.027 60.1948 227.102 60.3591 227.229 60.4786C227.362 60.6011 227.537 60.6675 227.717 60.664H227.932V60.7393H224.384V60.6118H224.587C224.769 60.6139 224.945 60.5478 225.081 60.4264C225.147 60.3701 225.199 60.2998 225.235 60.2206C225.27 60.1414 225.287 60.0553 225.284 59.9687V54.407C225.292 53.9874 225.257 53.5681 225.18 53.1555V52.976H225.29L231.097 58.0685V53.9087C231.099 53.8223 231.084 53.7364 231.051 53.6566C231.018 53.5767 230.968 53.5047 230.905 53.4452C230.772 53.3248 230.597 53.2605 230.417 53.2656H230.191V53.2077Z" fill="#001140"/>
<path d="M235.33 59.8587C234.941 59.4858 234.637 59.0346 234.437 58.5351C234.236 58.0356 234.145 57.4994 234.169 56.9619C234.142 56.4242 234.232 55.887 234.432 55.3871C234.633 54.8871 234.939 54.4363 235.33 54.0652C236.196 53.3251 237.316 52.9492 238.454 53.0166C239.038 53.0164 239.621 53.0688 240.196 53.173C240.678 53.2475 241.148 53.3899 241.59 53.5959V55.6063H241.485C241.379 54.992 241.048 54.4389 240.557 54.0537C240.066 53.6685 239.449 53.4785 238.826 53.5206C238.442 53.4988 238.059 53.5709 237.71 53.7304C237.361 53.8899 237.056 54.1321 236.822 54.436C236.318 55.1891 236.075 56.0867 236.131 56.9909C236.078 57.8788 236.297 58.7617 236.759 59.5227C236.953 59.8111 237.219 60.0451 237.53 60.2022C237.841 60.3594 238.187 60.4346 238.535 60.4207C238.943 60.432 239.346 60.3275 239.697 60.1194C239.86 60.029 240.004 59.9071 240.119 59.7609C240.235 59.6147 240.32 59.4471 240.37 59.2678V57.7499C240.375 57.6812 240.364 57.6124 240.339 57.5484C240.314 57.4843 240.275 57.4265 240.225 57.3791C240.11 57.2832 239.962 57.2355 239.813 57.2458H239.639V57.1473H242.891V57.2632H242.74C242.352 57.2632 242.159 57.4312 242.159 57.7672V59.4647C241.751 59.9201 241.239 60.27 240.667 60.4844C239.933 60.7982 239.142 60.9542 238.344 60.9421C237.238 60.9761 236.16 60.5887 235.33 59.8587Z" fill="#001140"/>
<path d="M115.348 54.9458C114.599 54.9458 90.3145 56.2261 90.3145 56.2261C90.3145 56.2261 114.599 57.5123 115.348 57.5123C115.524 57.5241 115.701 57.4997 115.867 57.4405C116.034 57.3814 116.186 57.2888 116.315 57.1685C116.444 57.0482 116.547 56.9027 116.617 56.7411C116.687 56.5795 116.724 56.4052 116.724 56.229C116.724 56.0529 116.687 55.8786 116.617 55.717C116.547 55.5554 116.444 55.4099 116.315 55.2896C116.186 55.1692 116.034 55.0767 115.867 55.0175C115.701 54.9584 115.524 54.934 115.348 54.9458Z" fill="#001140"/>
<path d="M251.287 56.2088C251.292 56.3823 251.331 56.5531 251.401 56.7117C251.472 56.8702 251.573 57.0133 251.7 57.1328C251.826 57.2522 251.974 57.3457 252.137 57.4078C252.299 57.47 252.472 57.4996 252.646 57.4949C253.389 57.4949 277.68 56.2088 277.68 56.2088C277.68 56.2088 253.418 54.9458 252.646 54.9458C252.299 54.9378 251.963 55.0655 251.709 55.3014C251.455 55.5374 251.304 55.863 251.287 56.2088Z" fill="#001140"/>
<path d="M78.9447 47.5416L78.5846 47.2983C74.9689 50.2221 70.3234 51.6859 64.6481 51.6898C59.8469 51.6303 55.0997 50.6713 50.6535 48.8626C47.0765 47.4992 43.8904 46.296 41.0954 45.2532C38.1627 44.1695 35.1468 43.3247 32.0773 42.7272C36.8621 41.3986 40.6115 38.9209 43.3252 35.2941C46.039 31.6674 47.3939 27.2044 47.39 21.9053C47.39 15.1655 45.2608 9.82967 41.0025 5.8978C36.7441 1.96593 30.9856 0 23.727 0C16.4683 0 10.6982 1.96593 6.41662 5.8978C2.13501 9.82967 -0.00386601 15.1559 5.24561e-06 21.8763C5.24561e-06 28.5968 2.10017 33.9114 6.30048 37.8201C10.5008 41.7288 16.1799 43.7256 23.3379 43.8106C25.3198 44.0235 27.2547 44.5516 29.0693 45.3749C30.9866 46.185 32.8238 47.1722 34.5568 48.3238C40.3056 52.0162 44.4266 54.4823 46.9197 55.7221C52.4711 58.4257 57.6276 59.7776 62.3892 59.7776C67.1509 59.7776 71.1421 58.474 74.363 55.8669C77.2084 53.565 78.7356 50.7899 78.9447 47.5416ZM23.7037 41.2788C21.0564 41.3334 18.4661 40.508 16.3406 38.9325C14.1202 37.1923 12.4457 34.8542 11.5151 32.1946C10.3301 28.8958 9.75941 25.4088 9.83107 21.9053C9.83107 15.9264 11.0776 11.2027 13.5707 7.73436C14.7218 6.1247 16.2416 4.81261 18.0036 3.90734C19.7657 3.00206 21.7189 2.52977 23.7008 2.52977C25.6827 2.52977 27.636 3.00206 29.398 3.90734C31.16 4.81261 32.6798 6.1247 33.8309 7.73436C36.3279 11.2105 37.5744 15.9341 37.5706 21.9053C37.5667 27.8765 36.3202 32.6001 33.8309 36.0763C32.719 37.7246 31.2076 39.0658 29.4371 39.9753C27.6666 40.8849 25.6944 41.3333 23.7037 41.2788Z" fill="#001140"/>
<path d="M52.1807 15.3123C52.3987 15.4975 52.5727 15.7287 52.6902 15.9892C52.8076 16.2497 52.8657 16.533 52.8601 16.8186V33.1158C52.8601 36.7657 54.0757 39.5949 56.5068 41.6033C58.938 43.6117 62.3466 44.6178 66.7328 44.6217C71.1112 44.6217 74.4017 43.5905 76.6045 41.528C78.8072 39.4655 79.9144 36.6286 79.926 33.0173V16.7954C79.9342 16.5132 80.0008 16.2357 80.1217 15.9805C80.2427 15.7252 80.4153 15.4977 80.6287 15.3123C81.0729 14.9207 81.6505 14.7134 82.243 14.7329H82.9456V14.2289H73.6546V14.7329H74.3108C74.9013 14.7149 75.4765 14.9221 75.9193 15.3123C76.1367 15.5047 76.3118 15.7399 76.4337 16.0031C76.5556 16.2663 76.6217 16.5519 76.6277 16.8418V33.3417C76.6277 36.2385 75.8786 38.5559 74.3862 40.1723C72.8939 41.7887 70.8498 42.6345 68.2658 42.6345C65.6817 42.6345 63.6783 41.7597 62.2498 40.0216C60.8213 38.2836 60.1071 35.8677 60.1071 32.7855V16.8186C60.101 16.5351 60.1565 16.2537 60.2698 15.9937C60.3831 15.7337 60.5514 15.5012 60.7633 15.3123C61.2076 14.9207 61.7851 14.7134 62.3776 14.7329H63.0802V14.2289H49.8347V14.7329H50.5432C51.1426 14.7139 51.7272 14.9207 52.1807 15.3123Z" fill="#001140"/>
<path d="M109.773 34.7321H109.332C108.815 36.7379 107.723 38.5498 106.191 39.9463C104.735 41.1879 102.879 41.8628 100.964 41.8466H95.0356V30.1437H100.726C101.423 30.1349 102.108 30.3238 102.701 30.6883C103.273 31.0323 103.739 31.5278 104.047 32.1199C104.354 32.712 104.491 33.3776 104.443 34.0427V34.3903H104.942V23.9272H104.443V24.2748C104.461 24.7807 104.379 25.2851 104.202 25.7594C104.025 26.2336 103.755 26.6682 103.409 27.0383C103.057 27.4046 102.634 27.6961 102.166 27.8952C101.698 28.0944 101.194 28.197 100.686 28.197H95.0472V16.2045H102.172C102.782 16.1845 103.389 16.2876 103.958 16.5076C104.527 16.7276 105.045 17.06 105.482 17.4848C105.891 17.9487 106.203 18.4883 106.403 19.0728C106.602 19.6573 106.684 20.2753 106.644 20.8914V21.3433H107.137V14.2057H84.6006V14.6981H85.1813C85.8888 14.6794 86.5748 14.9417 87.0887 15.4272C87.6026 15.9128 87.9024 16.582 87.9221 17.2878V40.7516C87.8994 41.4513 87.6003 42.1137 87.0902 42.5945C86.5801 43.0752 85.9002 43.3353 85.1987 43.3181H84.618V43.8106H107.898L109.773 34.7321Z" fill="#001140"/>
<path d="M136.433 34.7321H135.986C135.469 36.7379 134.377 38.5498 132.844 39.9463C131.389 41.1888 129.533 41.8638 127.618 41.8466H121.695V30.1437H127.409C128.107 30.1347 128.794 30.3236 129.389 30.6883C129.962 31.0323 130.428 31.5278 130.735 32.1199C131.043 32.712 131.18 33.3776 131.131 34.0427V34.3903H131.625V23.9272H131.131V24.2748C131.149 24.7811 131.066 25.2858 130.888 25.76C130.709 26.2342 130.439 26.6687 130.092 27.0383C129.741 27.405 129.319 27.6968 128.852 27.896C128.385 28.0951 127.882 28.1976 127.374 28.197H121.736V16.2045H128.855C129.465 16.1844 130.074 16.2874 130.644 16.5074C131.213 16.7274 131.733 17.0599 132.171 17.4848C132.993 18.4229 133.411 19.6475 133.332 20.8914V21.3433H133.797V14.2057H111.26V14.6981H111.841C112.541 14.6825 113.22 14.9433 113.728 15.4239C114.237 15.9045 114.536 16.566 114.558 17.2647V40.7516C114.539 41.4513 114.241 42.1146 113.732 42.5958C113.222 43.0771 112.542 43.3368 111.841 43.3181H111.26V43.8106H134.551L136.433 34.7321Z" fill="#001140"/>
<path d="M151.316 43.3182H150.474C149.772 43.3384 149.09 43.0825 148.575 42.6056C148.325 42.3753 148.123 42.0971 147.982 41.7876C147.842 41.4781 147.765 41.1435 147.756 40.8038V24.4719L169.73 43.8164H170.409V17.1662C170.414 16.8307 170.489 16.4998 170.629 16.1946C170.769 15.8894 170.971 15.6166 171.222 15.3934C171.744 14.9267 172.426 14.6778 173.127 14.6982H173.969V14.2057H160.073V14.6982H160.915C161.618 14.6802 162.299 14.9381 162.814 15.4166C163.063 15.6446 163.261 15.9235 163.393 16.2344C163.525 16.5452 163.589 16.8808 163.58 17.2184V33.4402L141.665 14.1942H140.98V40.7922C140.99 41.1343 140.923 41.4744 140.786 41.7879C140.648 42.1014 140.443 42.3807 140.184 42.6056C139.656 43.0801 138.966 43.335 138.256 43.3182H137.461V43.8106H151.31L151.316 43.3182Z" fill="#001140"/>
<path d="M252.89 42.6519C252.125 42.1375 251.53 41.4074 251.183 40.5547L238.588 14.2H237.118L224.965 40.7517C224.597 41.5368 224.015 42.2031 223.286 42.6751C222.668 43.0804 221.947 43.3033 221.208 43.3182H220.813V43.8106H230.684V43.3182H230.29C230.018 43.3389 229.746 43.2975 229.494 43.1971C229.241 43.0967 229.015 42.9399 228.832 42.7388C228.552 42.442 228.386 42.0565 228.362 41.6496C228.361 41.304 228.428 40.9615 228.559 40.6416L230.539 36.0531H241.021L242.949 40.5894C243.075 40.9208 243.142 41.2719 243.146 41.6265C243.12 42.0257 242.965 42.4057 242.705 42.7099C242.529 42.9138 242.308 43.0728 242.058 43.1736C241.809 43.2745 241.538 43.3141 241.27 43.2892H240.876V43.7817H255.393V43.2892H254.998C254.25 43.2762 253.52 43.0555 252.89 42.6519ZM231.405 34.1354L235.858 23.823L240.208 34.1354H231.405Z" fill="#001140"/>
<path d="M272.842 28.7533L264.98 23.9215C264.225 23.458 263.644 23.0814 263.238 22.7628C262.799 22.4891 262.434 22.1118 262.176 21.6642C261.918 21.2166 261.774 20.7124 261.757 20.1962C261.752 19.6229 261.89 19.0573 262.157 18.5499C262.425 18.0425 262.814 17.6089 263.29 17.2879C264.53 16.4896 265.991 16.1024 267.465 16.1813C268.998 16.1043 270.508 16.577 271.722 17.5138C272.253 17.9578 272.675 18.5181 272.954 19.1511C273.233 19.7842 273.362 20.4729 273.33 21.1637H273.772L274.463 14.2115H264.858C262.775 14.1746 260.748 14.8837 259.144 16.2103C258.335 16.8908 257.675 17.7311 257.208 18.6784C256.74 19.6256 256.474 20.6593 256.426 21.7141C256.392 22.0239 256.375 22.3353 256.374 22.6469C256.374 25.5436 257.859 27.9132 260.828 29.7555L267.849 34.1934C268.886 34.8226 269.842 35.5777 270.694 36.4413C271.293 37.15 271.602 38.0583 271.559 38.9846C271.538 39.544 271.391 40.0914 271.13 40.5867C270.869 41.082 270.499 41.5126 270.049 41.8466C269.045 42.6983 267.616 42.4839 265.77 42.4839C263.203 42.4839 261.202 41.7269 259.765 40.2128C259.076 39.5174 258.532 38.6933 258.162 37.7877C257.792 36.8821 257.605 35.9127 257.611 34.9349C257.612 34.7196 257.63 34.5046 257.663 34.2919H257.268C256.274 35.9442 255.777 37.8463 255.834 39.7725C255.821 40.4733 255.921 41.1717 256.13 41.8408C257.148 42.7426 258.369 43.3865 259.69 43.7179C261.505 44.2384 263.388 44.4883 265.276 44.4595C268.708 44.4595 271.501 44.2799 273.661 42.6345C275.821 40.9892 276.901 38.637 276.901 35.578C276.901 32.6735 275.548 30.3986 272.842 28.7533Z" fill="#001140"/>
<path d="M279.375 14.6982H279.956C280.705 14.6826 281.431 14.9566 281.983 15.4629C282.249 15.6918 282.462 15.9756 282.607 16.2947C282.752 16.6138 282.827 16.9605 282.825 17.311V40.6995C282.827 41.0508 282.753 41.3985 282.607 41.7185C282.462 42.0385 282.249 42.3234 281.983 42.5534C281.431 43.0597 280.705 43.3337 279.956 43.3182H279.375V43.8106H293.416V43.3182H292.836C292.106 43.3281 291.399 43.0634 290.855 42.5766C290.584 42.3427 290.366 42.0549 290.213 41.7317C290.06 41.4084 289.976 41.0568 289.967 40.6995V17.2879C289.981 16.9381 290.066 16.5948 290.219 16.2798C290.372 15.9647 290.589 15.6846 290.855 15.4571C291.399 14.9724 292.106 14.7098 292.836 14.7213H293.416V14.2289H279.375V14.6982Z" fill="#001140"/>
<path d="M317.753 14.6982H318.589C319.293 14.6771 319.977 14.933 320.494 15.4108C320.743 15.6393 320.94 15.9183 321.072 16.229C321.204 16.5398 321.269 16.8751 321.26 17.2126V33.4344L299.339 14.1942H298.66V40.7864C298.669 41.1261 298.603 41.4637 298.466 41.775C298.33 42.0864 298.126 42.364 297.87 42.5882C297.343 43.0643 296.653 43.3213 295.942 43.3066H295.147V43.7991H308.996V43.3066H308.154C307.45 43.3243 306.766 43.0665 306.249 42.5882C305.999 42.3584 305.797 42.0802 305.658 41.7705C305.518 41.4608 305.443 41.126 305.437 40.7864V24.4661L327.404 43.8106H328.089V17.1604C328.094 16.824 328.169 16.4922 328.309 16.1861C328.449 15.88 328.651 15.6061 328.902 15.3818C329.426 14.9182 330.107 14.6716 330.807 14.6924H331.649V14.2H317.753V14.6982Z" fill="#001140"/>
<path d="M363.198 39.6392C366.397 36.8584 368 33.7415 368 29.0081C368 24.2748 366.397 21.1521 363.198 18.3712C359.998 15.5903 355.759 14.2057 350.463 14.2057C345.167 14.2057 340.934 15.5903 337.758 18.3712C334.581 21.1521 332.973 24.269 332.973 29.0081C332.973 33.7473 334.57 36.8584 337.769 39.6392C340.969 42.4201 345.202 43.8106 350.481 43.8106C355.759 43.8106 360.004 42.4201 363.198 39.6392ZM343.245 38.2082C341.445 35.7923 340.551 33.1505 340.551 29.0081C340.551 24.8658 341.445 22.2181 343.245 19.8022C344.081 18.6771 345.17 17.763 346.424 17.1332C347.678 16.5033 349.062 16.1753 350.466 16.1753C351.87 16.1753 353.254 16.5033 354.508 17.1332C355.762 17.763 356.851 18.6771 357.687 19.8022C359.481 22.2181 360.381 24.86 360.381 29.0081C360.381 33.1563 359.481 35.7923 357.687 38.2082C356.851 39.3334 355.762 40.2475 354.508 40.8773C353.254 41.5072 351.87 41.8352 350.466 41.8352C349.062 41.8352 347.678 41.5072 346.424 40.8773C345.17 40.2475 344.081 39.3334 343.245 38.2082Z" fill="#001140"/>
<path d="M218.653 29.6397C216.603 37.0206 211.917 41.2789 204.6 41.2789C199.854 41.2789 196.104 39.564 193.352 36.1342C193.236 35.9952 193.143 35.8446 193.033 35.6997C190.493 32.2236 189.221 27.5753 189.217 21.7547C189.217 15.8183 190.596 11.1352 193.352 7.70541C196.108 4.27564 199.858 2.56076 204.6 2.56076C211.917 2.56076 216.603 6.82479 218.653 14.2057H219.013V3.27917C214.832 1.11625 209.826 0.03479 203.996 0.03479C196.354 0.03479 190.342 1.98914 185.96 5.89783C181.577 9.80653 179.386 15.1482 179.386 21.9227C179.373 23.9088 179.589 25.8897 180.031 27.8263C180.077 28.0175 180.13 28.2087 180.176 28.4057C180.223 28.6027 180.269 28.7649 180.321 28.9387C180.319 28.9501 180.319 28.962 180.321 28.9734C181.3 32.4344 183.253 35.5428 185.948 37.9302C190.33 41.8428 196.342 43.7991 203.984 43.7991C209.814 43.7991 214.82 42.7157 219.001 40.5489V30.4508V29.6397H218.653Z" fill="#001140"/>
</g>
<defs>
<clipPath id="clip0_4355_2134">
<rect width="368" height="61" fill="white"/>
</clipPath>
</defs>
</svg>
