<svg width="224" height="55" viewBox="0 0 224 55" fill="none" xmlns="http://www.w3.org/2000/svg">
<g clip-path="url(#clip0_4355_2027)">
<path d="M98.6863 23.1613H87.9866L87.0176 28.5935H97.5154L96.4252 34.7903H85.9273L84.1104 45.1317H77.6501L82.6164 16.9644H99.7765L98.6863 23.1613ZM116.987 45.1317L116.422 40.7053H105.924L103.663 45.1317H96.5971L111.173 16.9644H119.41L124.053 45.1317H116.987ZM108.953 34.6696H115.695L114.363 24.0062L108.953 34.6696ZM151.214 16.9644L150.367 21.9541L136.638 38.9348H147.54L146.45 45.1317H127.069L127.957 40.1421L141.726 23.1613H131.147L132.237 16.9644H151.214ZM156.465 16.9644H162.926L157.959 45.1317H151.498L156.465 16.9644ZM164.431 45.1317L169.398 16.9644H174.243L182.357 32.7784L185.144 16.9644H191.604L186.638 45.1317H181.792L173.717 29.3177L170.891 45.1317H164.431ZM206.661 45.695C202.569 45.695 199.313 44.2197 196.89 41.2688C194.495 38.3179 193.674 34.7768 194.427 30.6457C195.154 26.4608 197.079 23.0405 200.201 20.3848C203.35 17.7291 207.119 16.4012 211.506 16.4012C215.545 16.4012 218.76 17.8766 221.156 20.8274C223.58 23.7783 224.427 27.3193 223.7 31.4505C222.947 35.6353 221.009 39.0557 217.886 41.7114C214.764 44.3672 211.023 45.695 206.661 45.695ZM207.348 39.4177C209.716 39.4177 211.842 38.6398 213.727 37.0839C215.639 35.5281 216.809 33.516 217.239 31.0481C217.671 28.5801 217.239 26.5682 215.947 25.0122C214.683 23.4564 212.88 22.6784 210.537 22.6784C208.195 22.6784 206.109 23.4564 204.28 25.0122C202.449 26.5682 201.318 28.5801 200.887 31.0481C200.457 33.5429 200.847 35.5682 202.058 37.1242C203.27 38.6532 205.033 39.4177 207.348 39.4177Z" fill="#001140"/>
<path fill-rule="evenodd" clip-rule="evenodd" d="M0.687256 19.5019C2.36091 13.8809 5.86114 8.9409 10.6622 5.42424C15.4631 1.90761 21.3054 0.00420588 27.3114 0H68.0227C56.4942 25.9692 15.8569 2.85861 0.687256 19.5019Z" fill="#001140"/>
<path fill-rule="evenodd" clip-rule="evenodd" d="M3.8753 41.3184C-5.93187 26.1426 4.05044 18.5835 20.656 18.1749C36.5631 18.3064 47.0348 18.3786 47.0348 18.3786C37.7872 44.8247 -4.35733 16.0651 3.8753 41.3184Z" fill="#001140"/>
<path fill-rule="evenodd" clip-rule="evenodd" d="M25.4563 54.2559C13.5799 46.0203 11.1979 38.1579 17.3288 32.2015C-6.6343 28.4916 7.48789 49.0496 25.4563 54.2559Z" fill="#001140"/>
</g>
<defs>
<clipPath id="clip0_4355_2027">
<rect width="224" height="55" fill="white"/>
</clipPath>
</defs>
</svg>
