<svg width="301" height="46" viewBox="0 0 301 46" fill="none" xmlns="http://www.w3.org/2000/svg">
<g clip-path="url(#clip0_4355_1793)">
<path d="M215.387 34.6083C215.6 34.1863 215.302 33.6799 214.834 33.6799C214.834 33.6799 214.834 33.6799 214.791 33.6799L205.307 33.9753C205.307 33.9753 205.307 33.9753 205.264 33.9753C204.839 33.9753 204.541 33.5533 204.627 33.1735L213.771 0.341843H190.846C198.714 3.59125 195.822 14.4366 195.822 14.4366L186.848 45.4115H209.518L215.387 34.6083Z" fill="#001140"/>
<path d="M34.3664 16.9689C34.1112 16.9689 33.856 16.8001 33.7284 16.5047L28.8372 0.384262H12.5471L0 45.4117H14.1634L18.6718 29.2913C18.7569 28.9959 19.0121 28.8271 19.3098 28.8271C19.565 28.8271 19.8202 28.9959 19.9478 29.2913L24.8391 45.4117H40.1508L52.698 0.384262H39.5128L35.0044 16.5047C34.9193 16.8001 34.6216 16.9689 34.3664 16.9689Z" fill="#001140"/>
<path d="M279.311 28.869L300.45 0.341843H285.776L275.781 16.2091C275.653 16.4201 275.441 16.5045 275.228 16.5045C274.93 16.5045 274.207 16.2935 274.165 15.9558L272.505 0.341843H258.13L263.106 28.7003C263.106 28.7847 263.106 28.9113 263.063 28.9956L257.535 45.3693H274.76L279.311 28.869Z" fill="#001140"/>
<path d="M192.674 4.51987C190.887 1.77687 187.697 0.384262 183.231 0.384262H148.567C150.524 1.31266 152.14 2.62087 153.118 4.09786C155.542 7.72709 156.138 12.6644 154.947 19.0366L154.904 19.2055C154.649 20.4715 154.352 21.7797 153.969 23.1723C153.459 24.9447 152.905 26.6327 152.267 28.2363L146.526 45.4539H160.519L165.835 31.4857C165.92 31.1903 166.176 31.0215 166.473 31.0215H174.682C179.191 31.0215 183.146 29.6289 186.549 26.7593C189.866 24.0163 192.206 20.2183 193.482 15.6185C194.8 10.9765 194.587 7.26284 192.674 4.51987ZM177.277 15.7873L169.323 19.0789C168.94 19.2477 168.515 18.9945 168.643 18.6147L170.939 11.0609C171.024 10.7232 171.534 10.5545 171.79 10.8077L177.489 15.0699C177.659 15.2809 177.574 15.6185 177.277 15.7873Z" fill="#001140"/>
<path d="M236.908 0.341843L212.111 45.4115H224.871L227.38 40.3053C227.507 40.0943 227.72 39.9255 227.975 39.9255H239.63C240.013 39.9255 240.31 40.2209 240.267 40.6007L240.097 45.3693H254.983L255.324 0.341843H236.908ZM240.65 27.9407C240.65 28.1095 240.565 28.2783 240.438 28.3627C240.31 28.4893 240.182 28.5315 239.97 28.5315H236.014C235.844 28.5315 235.674 28.447 235.546 28.3627C235.461 28.2783 235.376 28.1517 235.376 28.025C235.333 27.8984 235.376 27.7719 235.418 27.603L239.842 18.2347C239.885 18.1503 239.927 18.1081 239.97 18.0658L240.013 18.0237C240.055 17.9815 240.097 17.9815 240.14 17.9392C240.14 17.9392 240.182 17.9392 240.182 17.897C240.225 17.897 240.267 17.8549 240.31 17.8549H240.353C240.395 17.8549 240.395 17.8549 240.438 17.8549C240.48 17.8549 240.523 17.8549 240.607 17.897C240.65 17.897 240.65 17.897 240.693 17.9392C240.735 17.9815 240.778 17.9815 240.821 18.0237C240.863 18.0237 240.863 18.0658 240.906 18.0658C240.948 18.1081 240.99 18.1503 240.99 18.1924C240.99 18.2347 241.033 18.2347 241.033 18.2769C241.075 18.3613 241.075 18.4457 241.075 18.5301L240.65 27.9407Z" fill="#001140"/>
<path d="M139.124 0.0886383C133.212 0.0886383 128.023 1.98764 123.472 5.74344C118.963 9.49922 115.646 15.0697 113.605 22.4125C111.563 29.7553 111.648 35.4523 113.86 39.4191C116.071 43.3859 120.197 45.4115 126.279 45.4115C132.319 45.4115 137.593 43.4703 142.229 39.5457C146.822 35.5789 150.14 29.8819 152.182 22.5391C154.265 15.0697 154.096 9.49922 151.628 5.74344C149.119 1.98764 144.951 0.0886383 139.124 0.0886383ZM137.805 22.7079C135.849 29.7975 133.17 33.3423 129.682 33.4689C126.449 33.4266 125.812 29.8396 127.768 22.75C129.725 15.6605 132.404 12.1156 135.722 12.1156C139.081 12.1156 139.804 15.6183 137.805 22.7079Z" fill="#001140"/>
<path d="M112.073 12.2003C112.158 11.9049 112.413 11.7361 112.711 11.7361H116.113C117.985 8.52883 120.154 6.03907 122.749 3.88687C124.365 2.57867 126.789 1.27046 128.533 0.384262H90.0411L86.8513 11.7783H96.974C97.3992 11.7783 97.6966 12.2003 97.6117 12.5801L88.4676 45.4117H102.844L112.073 12.2003Z" fill="#001140"/>
<path d="M88.6366 34.0177H59.7571C59.3318 34.0177 59.0341 33.5957 59.1192 33.2159L60.2675 29.0381C60.3526 28.7427 60.6078 28.5739 60.9056 28.5739H78.046C78.3442 28.5739 78.5988 28.3629 78.6844 28.1097L81.4911 18.0239C81.6188 17.6019 81.2785 17.2221 80.8534 17.2221H64.4357C64.0104 17.2221 63.7127 16.8001 63.7977 16.4203L64.9462 12.2424C65.0312 11.9471 65.2864 11.7783 65.5841 11.7783H84.2557C84.5539 11.7783 84.8085 11.5672 84.8941 11.3141L87.9562 0.384262H55.1636L55.0361 0.890659L42.6165 45.4117H86.3399L89.275 34.8617C89.3599 34.4397 89.0625 34.0177 88.6366 34.0177Z" fill="#001140"/>
</g>
<defs>
<clipPath id="clip0_4355_1793">
<rect width="301" height="46" fill="white"/>
</clipPath>
</defs>
</svg>
