<svg width="343" height="41" viewBox="0 0 343 41" fill="none" xmlns="http://www.w3.org/2000/svg">
<g clip-path="url(#clip0_4355_1777)">
<mask id="mask0_4355_1777" style="mask-type:luminance" maskUnits="userSpaceOnUse" x="0" y="0" width="343" height="41">
<path d="M0 0.732147H343V40.2679H0V0.732147Z" fill="white"/>
</mask>
<g mask="url(#mask0_4355_1777)">
<path fill-rule="evenodd" clip-rule="evenodd" d="M46.3386 1.30028C47.8235 1.00743 49.3289 0.837568 50.8416 0.792175H80.3381L73.5895 9.61596H54.3962C53.8025 7.84125 51.9087 3.98285 46.3386 1.30028ZM51.6698 40.2679C50.6437 40.2679 40.6293 40.0687 34.1826 33.7869V33.6874C27.8855 27.5549 26.3845 18.8497 30.3334 11.4507H36.5895C36.7507 11.4507 40.5589 12.0804 40.4372 15.4394C39.7375 16.6912 39.2968 18.0706 39.1411 19.4959C38.9855 20.9211 39.1182 22.3631 39.5314 23.7361C41.0118 28.4818 46.3005 30.9155 49.4241 31.3635C52.089 31.7472 63.4549 31.4763 67.1253 31.3884C67.7541 31.3738 68.1572 31.3635 68.251 31.3635H69.1979V23.515H48.6766L54.7934 16.337H80.1593V40.2679H51.6698Z" fill="#001140"/>
<path fill-rule="evenodd" clip-rule="evenodd" d="M8.1206 0.732147H36.2642C36.9795 0.732147 53.3893 1.54043 53.5212 15.3106L45.1089 25.2824H48.9977C47.7914 26.2475 46.4601 27.0454 45.04 27.6545C43.5343 26.7561 42.3622 25.3925 41.7009 23.7698C41.0436 22.1525 40.9355 20.3645 41.3931 18.6799C42.0014 17.8526 42.3752 16.8788 42.4704 15.8582C42.6815 13.4055 41.3212 10.474 36.8285 9.58668H1.00701L8.1206 0.732147ZM0 20.973H26.3333V20.9832C26.5181 24.0099 27.3423 26.9633 28.7519 29.6489H11.0815V40.2386H0V20.973ZM238.262 30.6856C235.831 31.9678 233.106 32.5922 230.358 32.4969C226.87 32.4969 224.118 31.5407 222.101 29.6298C220.084 27.7175 219.079 25.0832 219.083 21.7271C219.026 20.1988 219.29 18.6756 219.857 17.2551C220.426 15.8311 221.286 14.541 222.381 13.467C224.58 11.3482 227.506 10.2895 231.16 10.2895C233.229 10.2538 235.29 10.5738 237.25 11.2355V15.7777C235.364 14.7669 233.244 14.2714 231.104 14.3412C230.188 14.3031 229.275 14.4556 228.421 14.7891C227.567 15.1226 226.792 15.6298 226.145 16.2785C225.491 16.976 224.984 17.7976 224.653 18.6945C224.323 19.5905 224.178 20.5438 224.227 21.4972C224.112 23.3653 224.728 25.2049 225.945 26.628C226.547 27.2402 227.273 27.7179 228.073 28.0298C228.874 28.3418 229.732 28.4808 230.59 28.4379C231.538 28.4838 232.485 28.3239 233.366 27.9693V23.7449H229.017V19.8835H238.262V30.6856ZM122.785 32.1235H135.714V28.1992H127.672V10.6395H122.787L122.785 32.1235ZM110.179 32.1235V24.7215L112.516 24.7611C114.786 24.8763 117.021 24.1651 118.806 22.7594C119.569 22.1204 120.178 21.3169 120.586 20.4092C120.994 19.5036 121.19 18.517 121.158 17.5246C121.158 12.9619 118.424 10.679 112.957 10.679H105.294V32.1235H110.179ZM110.179 21.0916V14.3939H112.107C114.706 14.3939 116.015 15.435 116.015 17.6988C116.015 19.9626 114.706 21.0901 112.107 21.0901H110.181L110.179 21.0916ZM159.224 32.1235H153.928L152.38 27.3573H144.66L143.135 32.1235H137.8L145.702 10.679H151.52L159.224 32.1235ZM151.2 23.6248L148.865 16.4059C148.679 15.7764 148.558 15.1298 148.503 14.4759H148.383C148.331 15.1105 148.205 15.7367 148.006 16.3414L145.639 23.6248H151.2ZM168.661 14.5784H174.855V10.6395H157.595V14.5784H163.758V32.1235H168.661V14.5784ZM186.489 10.6395V14.3793H184.676V28.3735H186.489V32.122H177.969V28.3735H179.789V14.3793H177.969V10.6395H186.489ZM204.207 32.1235H209.133L209.11 10.6468H204.495V22.5603C204.472 23.5443 204.513 24.5283 204.616 25.5079H204.56C204.215 24.9138 203.851 24.3308 203.469 23.7595L194.85 10.679H189.612V32.1235H194.224V20.3214C194.224 18.7648 194.185 17.6051 194.104 16.851H194.169C194.499 17.4601 194.862 18.0517 195.261 18.6228L204.207 32.1235ZM255.979 32.1235H261.307L253.587 10.679H247.794L239.89 32.1235H245.186L246.718 27.3573H254.439L255.979 32.1235ZM251.02 16.4059L253.282 23.6248L247.762 23.6175L250.122 16.3341C250.321 15.7294 250.447 15.1026 250.498 14.4671H250.619C250.682 15.1261 250.815 15.7762 251.02 16.4059ZM287.666 32.1235H282.852V19.2334C282.852 17.8453 282.91 16.3121 283.028 14.6355H282.908C282.744 15.5993 282.516 16.5513 282.226 17.485L277.138 32.0913H273.126L267.959 17.6446C267.678 16.6594 267.45 15.6598 267.276 14.6502H267.14C267.279 16.7675 267.347 18.6213 267.341 20.2101V32.1235H262.936V10.679H270.093L274.53 23.3861C274.89 24.3862 275.159 25.4141 275.332 26.4611H275.422C275.655 25.4112 275.944 24.3745 276.288 23.3554L280.725 10.6468H287.698L287.666 32.1235ZM299.309 14.3808V10.6395H290.788V14.3793H292.601V28.3735H290.788V32.122H299.309V28.3735H297.495V14.3793H299.309V14.3808ZM321.952 32.1235H317.018L308.071 18.6228C307.681 18.0457 307.318 17.4516 306.981 16.8422H306.923C307.004 17.5963 307.044 18.756 307.044 20.3126V32.1235H302.431V10.679H307.694L316.312 23.7595C316.705 24.3481 317.067 24.928 317.395 25.5079H317.46C317.356 24.529 317.316 23.5444 317.34 22.5603V10.6468H321.952V32.1235ZM334.856 32.4969C337.604 32.5926 340.328 31.9681 342.76 30.6856L342.776 19.8835H333.54V23.7449H337.889V27.9459C337.007 28.3088 336.058 28.4766 335.105 28.4379C334.247 28.4787 333.39 28.3387 332.589 28.0269C331.788 27.7151 331.063 27.2385 330.459 26.628C329.24 25.2111 328.619 23.377 328.726 21.5118C328.678 20.5581 328.823 19.6045 329.152 18.7081C329.482 17.8116 329.989 16.9908 330.643 16.2946C331.289 15.6431 332.063 15.1329 332.917 14.7966C333.771 14.4603 334.685 14.3052 335.602 14.3412C337.742 14.2714 339.862 14.7669 341.748 15.7777V11.2355C339.787 10.5737 337.727 10.2537 335.658 10.2895C332.005 10.2895 329.078 11.3482 326.88 13.467C325.785 14.541 324.924 15.831 324.355 17.2551C323.787 18.6755 323.524 20.1989 323.582 21.7271C323.582 25.0832 324.588 27.7175 326.599 29.6298C328.61 31.5407 331.363 32.4969 334.856 32.4969Z" fill="#001140"/>
</g>
</g>
<defs>
<clipPath id="clip0_4355_1777">
<rect width="343" height="41" fill="white"/>
</clipPath>
</defs>
</svg>
