
<svg width="158" height="214" viewBox="0 0 158 214" fill="none" xmlns="http://www.w3.org/2000/svg">
<style>

.svg-roulette-3d-rotate {
    transform-origin: 50% 50%;
    transform-box: fill-box;
    animation: svg-roulette-3d-rotate-animation 20s cubic-bezier(.25,.67,.51,.86) infinite;
}
.svg-handle-3d-rotate {
    transform-origin: 50% 50%;
    transform-box: fill-box;
    animation: svg-handle-3d-rotate-animation 20s cubic-bezier(.25,.67,.51,.86) infinite;
}
.svg-card-1-3d-outfly {
    transform-origin: 50% 50%;
    transform-box: view-box;
    animation: svg-card-1-3d-outfly-animation 20s infinite cubic-bezier(.25,.67,.51,.86);
}
.svg-card-2-3d-outfly {
    transform-origin: 50% 50%;
    transform-box: view-box;
    animation: svg-card-2-3d-outfly-animation 20s infinite cubic-bezier(.25,.67,.51,.86);
}
.svg-card-3-3d-outfly {
    transform-origin: 50% 50%;
    transform-box: view-box;
    animation: svg-card-3-3d-outfly-animation 20s infinite cubic-bezier(.25,.67,.51,.86);
}
.svg-card-4-3d-outfly {
    transform-origin: 50% 50%;
    transform-box: view-box;
    animation: svg-card-4-3d-outfly-animation 20s infinite cubic-bezier(.25,.67,.51,.86);
}

@keyframes svg-roulette-3d-rotate-animation {
    0%{
        transform: rotateX(54.7deg) rotate(0deg) scaleY(1.7319);
    }
    50%{
        transform: rotateX(54.7deg) rotate(360deg) scaleY(1.7319);
    }
    60% {
        transform: rotateX(54.7deg) rotate(360deg) scaleY(1.7319);
    }
    100% {
        transform: rotateX(54.7deg) rotate(720deg) scaleY(1.7319);
    }
}
@keyframes svg-handle-3d-rotate-animation {
    0%{
        transform: rotateX(48deg) rotate(0deg) scaleY(1.25);
    }
    50% {
        transform: rotateX(48deg) rotate(360deg) scaleY(1.25);
    }
    60% {
        transform: rotateX(48deg) rotate(360deg) scaleY(1.25);
    }
    100%{
        transform: rotateX(48deg) rotate(720deg) scaleY(1.25);
    }
}

@keyframes svg-card-1-3d-outfly-animation {
    0% {
        transform: translate(-16%, 34%) rotate(-60deg) scale(0.2);
    }
    24% {
        transform: translate(-16%, 34%) rotate(-60deg) scale(0.2);
    }
    30%{
        transform: none;
    }
    84%{
        transform: none;
    }
    100%{
         transform: translate(36%, 29%) rotate(233deg) scale(0.2);
    }
}

@keyframes svg-card-2-3d-outfly-animation {
    0% {
        transform: translate(-16%, 34%) rotate(-60deg) scale(0.2);
    }
    16% {
        transform: translate(-16%, 34%) rotate(-60deg) scale(0.2);
    }
    30%{
        transform: none;
    }
    76%{
        transform: none;
    }
    100%{
         transform: translate(36%, 30%) rotate(144deg) scale(0.2);
    }
}
@keyframes svg-card-3-3d-outfly-animation {
    0% {
        transform: translate(-16%, 34%) rotate(-60deg) scale(0.2);
    }
    8% {
        transform: translate(-16%, 34%) rotate(-60deg) scale(0.2);
    }
    30%{
        transform: none;
    }
    68%{
        transform: none;
    }
    100%{
          transform: translate(23%, 27%) rotate(119deg) scale(0.2);
    }
}

@keyframes svg-card-4-3d-outfly-animation {
    0% {
        transform: translate(-16%, 34%) rotate(-60deg) scale(0.2);
    }
    30%{
        transform: none;
    }
    60%{
        transform: none;
    }
    100%{
        transform: translate(22%, 24%) rotate(130deg) scale(0.2);
    }
}

</style>
<g class='svg-card-1-3d-outfly'>
    <path d="M27.3281 113.944C28.7775 117.083 36.9128 117.608 42.5317 115.636C43.9563 115.136 45.2025 114.483 46.1534 113.672C41.4329 117.705 35.9812 132.699 37.7988 136.632C36.3493 133.492 28.2141 132.967 22.5951 134.939C21.1705 135.44 19.9243 136.092 18.9734 136.903C23.6939 132.87 29.143 117.891 27.3281 113.944Z" fill="white"/>
    <path d="M59.6751 128.393C60.0433 129.186 59.475 130.557 58.4312 131.469L25.4362 159.68C25.0862 159.968 24.7353 160.183 24.4033 160.298C23.7222 160.539 23.111 160.41 22.8712 159.877L5.45171 122.183C5.08355 121.389 5.65186 120.018 6.69292 119.121L39.688 90.9099C40.038 90.6211 40.3888 90.4063 40.7209 90.2914C41.4019 90.0501 42.0132 90.1798 42.253 90.7126L59.6635 128.376L59.6751 128.393ZM37.7988 136.632C35.9812 132.699 41.4329 117.705 46.1534 113.672C45.2025 114.483 43.9394 115.147 42.5317 115.636C36.9128 117.609 28.7775 117.083 27.328 113.944C29.1457 117.876 23.6939 132.87 18.9734 136.903C19.9243 136.092 21.1848 135.442 22.5951 134.939C28.2141 132.967 36.3493 133.492 37.7988 136.632ZM56.6533 131.725C56.7266 131.651 56.757 131.568 56.7321 131.386L55.7257 125.655L55.7079 125.592L55.6847 125.558C55.6847 125.558 55.6267 125.473 55.5928 125.497C55.5928 125.497 55.5785 125.494 55.5589 125.52L55.2794 125.748C55.1919 125.82 55.1642 125.889 55.1891 126.071L55.417 127.296L55.4062 127.353L53.925 128.626L53.8822 128.618L53.1999 127.766C53.1392 127.695 53.0678 127.682 53.0196 127.702C52.9884 127.711 52.9545 127.734 52.9348 127.76L52.5991 128.052C52.5991 128.052 52.5375 128.143 52.5669 128.223C52.5758 128.254 52.6044 128.259 52.6418 128.296L55.9365 132.078C56.0088 132.166 56.0802 132.179 56.1426 132.161C56.1569 132.164 56.1766 132.138 56.1935 132.127L56.6507 131.74L56.6533 131.725ZM11.9533 121.884L11.9962 121.892L12.6811 122.73C12.756 122.803 12.8131 122.814 12.8614 122.793C12.8926 122.784 12.9265 122.761 12.9435 122.75L13.2792 122.458C13.2792 122.458 13.3408 122.366 13.3114 122.287C13.3025 122.256 13.2739 122.25 13.2365 122.214L9.95337 118.448C9.88113 118.361 9.80974 118.347 9.74726 118.365C9.73298 118.363 9.71333 118.388 9.69637 118.4L9.23924 118.787C9.16602 118.862 9.13295 118.959 9.16053 119.127L10.1669 124.858L10.1847 124.92L10.2052 124.968C10.2052 124.968 10.2658 125.039 10.2971 125.03C10.2971 125.03 10.3114 125.033 10.331 125.007L10.5962 124.776C10.6837 124.704 10.7114 124.635 10.6865 124.453L10.4587 123.228L10.4694 123.171L11.948 121.912L11.9533 121.884ZM51.8152 121.845L51.0637 125.369L53.7149 125.971L54.4664 122.447L51.8179 121.831L51.8152 121.845ZM14.0943 128.656L14.8458 125.132L12.1974 124.516L11.4459 128.039L14.097 128.641L14.0943 128.656Z" fill="#3F54F5" fill-opacity="0.5"/>
    <path d="M23.0825 160.168L22.294 159.488C22.2048 159.412 22.1209 159.307 22.071 159.18L22.8596 159.86C22.9095 159.988 22.9933 160.092 23.0825 160.168Z" fill="#C0C1C2"/>
    <path d="M12.1974 124.516L14.8458 125.132L14.0943 128.656L11.4459 128.039L12.1974 124.516Z" fill="white"/>
    <path d="M39.7023 90.9125L38.9137 90.2322C39.2637 89.9434 39.6145 89.7286 39.9466 89.6137C40.4687 89.4312 40.9506 89.4627 41.2557 89.727L42.0443 90.4073C41.7392 90.143 41.2716 90.1142 40.7351 90.294C40.4031 90.4089 40.038 90.621 39.7023 90.9125Z" fill="#4281EE"/>
    <path d="M13.3141 122.273C13.3141 122.273 13.3354 122.395 13.2819 122.444L12.9462 122.735C12.9462 122.735 12.8953 122.77 12.864 122.779C12.8016 122.797 12.7444 122.786 12.6838 122.716L11.9988 121.877L11.956 121.869L10.4775 123.128L10.4667 123.185L10.6945 124.41C10.7194 124.592 10.6917 124.661 10.6042 124.733L10.3391 124.964C10.3391 124.964 10.3221 124.976 10.3051 124.987C10.2739 124.996 10.248 124.976 10.2132 124.926L10.1927 124.877L10.1749 124.815L9.16857 119.084C9.14368 118.902 9.17407 118.819 9.24729 118.744L9.70442 118.357C9.70442 118.357 9.73835 118.334 9.75531 118.322C9.81779 118.305 9.8749 118.315 9.96142 118.406L13.2445 122.171C13.2445 122.171 13.299 122.196 13.3195 122.244L13.3141 122.273ZM10.4786 122.729L11.7482 121.638L11.7562 121.595L11.7277 121.59L9.6844 119.092L9.67012 119.09L9.66475 119.118L10.3929 122.713L10.3875 122.742L10.4589 122.755L10.4786 122.729Z" fill="white"/>
    <path d="M22.8596 159.86L22.0567 159.177L4.66315 121.502L5.45171 122.183L22.8596 159.86Z" fill="#4281EE"/>
    <path d="M6.69291 119.121L5.90435 118.44L38.8994 90.2295L39.7022 90.9125L6.69291 119.121Z" fill="#4281EE"/>
    <path d="M5.4517 122.183L4.66313 121.502C4.29497 120.709 4.86328 119.338 5.90434 118.44L6.69291 119.121C5.65185 120.018 5.08085 121.404 5.4517 122.183Z" fill="#4281EE"/>
</g>
<g class='svg-card-2-3d-outfly'>
    <path d="M73.3463 70.5767L73.3634 70.6167L75.38 74.3664L75.3914 74.3931L75.3724 74.3855L72.6589 72.0717L72.6399 72.0641L72.617 72.0107L73.2871 70.5862L73.3463 70.5767Z" fill="#C8C9CB"/>
    <path d="M35.7952 73.6386C36.114 73.2019 36.5795 73.0342 37.0886 73.4481C38.0993 74.295 37.6211 77.3119 37.548 78.6545C36.7734 79.0968 35.1075 80.6317 34.3431 79.2528C33.9676 78.5604 33.9222 77.79 34.1075 77.1893C34.2125 76.8441 34.3443 76.5981 34.4855 76.4112C34.8462 75.925 35.2716 75.885 35.3498 75.8831C35.3213 75.7058 35.1118 74.8475 35.6387 73.8636C35.6826 73.7816 35.7265 73.6996 35.7895 73.6252L35.7952 73.6386Z" fill="white"/>
    <path d="M77.1862 70.4648L47.5667 33.1458C47.0519 32.4973 46.2774 32.6078 45.7258 33.3495C45.6132 33.4925 45.5254 33.6565 45.4299 33.8396L28.0901 70.5554C27.5326 71.7262 27.6006 73.3244 28.2183 74.1026L57.8378 111.422C58.3583 112.083 59.1137 111.965 59.6653 111.224C59.7779 111.081 59.8791 110.911 59.9555 110.72L77.301 74.0177C77.8585 72.8469 77.7962 71.2621 77.1728 70.4705L77.1862 70.4648ZM30.1392 69.6938L30.3835 69.1942C30.3835 69.1942 30.3969 69.1884 30.4045 69.1694C30.4408 69.1064 30.519 69.1045 30.6239 69.2018L34.9239 72.6372C34.9239 72.6372 34.9811 72.6601 35.0116 72.6944C35.0726 72.7631 35.0688 72.828 35.0592 72.8794L34.8874 73.2532C34.8874 73.2532 34.8664 73.278 34.8588 73.2971C34.8168 73.3466 34.75 73.3752 34.6508 73.2913L33.7337 72.515L33.6936 72.5321L32.907 74.1644L32.9356 74.2312L33.595 75.5129C33.6751 75.6998 33.696 75.7856 33.6521 75.8676L33.5032 76.1841C33.5032 76.1841 33.4364 76.2127 33.3888 76.1383L33.3716 76.0983L33.322 76.0563L30.221 70.0695C30.1276 69.8883 30.1277 69.7777 30.1525 69.688L30.1392 69.6938ZM37.5537 78.6679C37.3114 78.8032 36.9775 79.0568 36.6131 79.276C36.4642 79.3714 36.323 79.4476 36.1685 79.5296C36.0884 79.5639 36.0082 79.5982 35.9415 79.6268C35.8213 79.6783 35.7144 79.7241 35.6019 79.7565C35.3767 79.8213 35.1612 79.8346 34.9628 79.7773C34.9304 79.7754 34.8923 79.7601 34.8675 79.7392C34.6768 79.6628 34.4975 79.5026 34.3565 79.247C34.3164 79.1536 34.2821 79.0735 34.2421 78.98C34.2021 78.8866 34.1678 78.8065 34.1469 78.7207C34.103 78.5814 34.0783 78.4498 34.0536 78.3182C34.025 78.1409 34.0156 77.9711 34.0328 77.79C34.029 77.7442 34.0443 77.7061 34.0405 77.6603C34.0634 77.4925 34.0921 77.338 34.1342 77.1778C34.2392 76.8327 34.3709 76.5867 34.5122 76.3998C34.766 76.0699 35.0274 75.9422 35.1991 75.9003C35.2392 75.8831 35.2716 75.885 35.304 75.8869C35.304 75.8869 35.304 75.8869 35.3174 75.8812L35.3441 75.8698C35.3308 75.7649 35.2451 75.454 35.2834 75.0268C35.2777 75.0135 35.293 74.9754 35.2873 74.962C35.3255 74.6454 35.4134 74.2602 35.6387 73.8636C35.6826 73.7816 35.7265 73.6996 35.7895 73.6252C35.9517 73.4136 36.1502 73.2496 36.3677 73.2039C36.3944 73.1924 36.4402 73.1886 36.4726 73.1905C36.4993 73.1791 36.5508 73.1886 36.5832 73.1906C36.5966 73.1848 36.6347 73.2001 36.6538 73.2077C36.7053 73.2173 36.7434 73.2325 36.8006 73.2554C36.896 73.2936 36.9837 73.3508 37.0829 73.4348C37.1134 73.4691 37.1382 73.4901 37.1687 73.5244C37.285 73.6484 37.3803 73.7971 37.447 73.9898C37.9482 75.197 37.5828 77.5179 37.5423 78.6412L37.5537 78.6679ZM59.0757 80.3212C55.2712 82.4718 47.182 89.9327 43.4747 83.1944C41.6411 79.8719 41.4157 76.0978 42.3249 73.1649C42.8254 71.5287 43.4764 70.3178 44.1482 69.414C45.9289 67.04 47.9586 66.8344 48.3745 66.8459C48.2203 65.9324 47.1768 61.7976 49.8055 56.9751C50.025 56.5651 50.2694 56.1761 50.5308 55.8272C52.1207 53.7087 54.3433 52.8833 56.8108 54.9548C61.7457 59.0979 59.3722 73.78 59.0757 80.3212ZM70.2655 70.7268C69.9468 71.1635 69.4813 71.3312 68.9798 70.8982C67.9692 70.0513 68.453 67.0477 68.5204 65.6918C69.295 65.2495 70.9533 63.7337 71.7177 65.1126C72.0874 65.7916 72.1386 66.5754 71.9533 67.1761C71.8425 67.5079 71.7165 67.7673 71.5829 67.9351C71.2222 68.4213 70.7968 68.4613 70.7186 68.4632C70.7528 68.6539 70.9699 69.493 70.4297 70.4827C70.3858 70.5647 70.3285 70.6524 70.2789 70.7211L70.2655 70.7268ZM75.8968 74.6506L75.6658 75.1445C75.6658 75.1445 75.6658 75.1445 75.6524 75.1502C75.6162 75.2132 75.538 75.2151 75.4197 75.1235L71.1331 71.6824C71.1331 71.6824 71.0758 71.6595 71.0453 71.6252C70.9843 71.5565 70.9825 71.4783 70.9977 71.4402L71.1696 71.0664C71.1696 71.0664 71.1906 71.0416 71.1982 71.0225C71.2402 70.973 71.307 70.9444 71.4061 71.0283L72.3233 71.8046L72.3634 71.7875L73.15 70.1552L73.1214 70.0884L72.4619 68.8067C72.3819 68.6198 72.3609 68.534 72.4049 68.452L72.5538 68.1355C72.5538 68.1355 72.6072 68.1126 72.6682 68.1813L72.6854 68.2213L72.7349 68.2633L75.8359 74.2501C75.916 74.437 75.9293 74.5419 75.9045 74.6316L75.8968 74.6506Z" fill="#3F54F5" fill-opacity="0.5"/>
    <path d="M75.8226 74.2559L72.7216 68.269L72.6987 68.2156L72.6549 68.187C72.5939 68.1184 72.5614 68.1164 72.5328 68.1603L72.3972 68.4711C72.359 68.5665 72.3609 68.6447 72.4543 68.8259L73.1271 70.1018L73.1557 70.1686L72.3672 71.8333L72.3271 71.8505L71.3985 71.0474C71.286 70.9692 71.2326 70.9921 71.1906 71.0417C71.1906 71.0417 71.1696 71.0664 71.162 71.0855L70.9901 71.4593C70.9901 71.4593 70.9767 71.5756 71.0377 71.6443C71.0549 71.6843 71.0816 71.6729 71.1254 71.7015L75.4121 75.1426C75.5303 75.2342 75.5952 75.238 75.6448 75.1693C75.6448 75.1693 75.6448 75.1693 75.6582 75.1636L75.8892 74.6697C75.9274 74.5744 75.9141 74.4695 75.8207 74.2883L75.8226 74.2559ZM75.3914 74.3931L72.6589 72.0717L72.6456 72.0775L72.617 72.0107L73.2929 70.5996L73.3463 70.5767L73.3634 70.6168L75.38 74.3664L75.3914 74.3931Z" fill="white"/>
    <path d="M68.507 65.6975C69.2817 65.2552 70.94 63.7394 71.7043 65.1183C72.0741 65.7973 72.1253 66.5811 71.94 67.1818C71.8292 67.5136 71.7032 67.773 71.5696 67.9408C71.2089 68.427 70.7835 68.467 70.7053 68.4689C70.7395 68.6596 70.9566 69.4988 70.4164 70.4884C70.3724 70.5704 70.3152 70.6582 70.2656 70.7268C69.9468 71.1635 69.4813 71.3312 68.9798 70.8982C67.9692 70.0513 68.4531 67.0477 68.5204 65.6918L68.507 65.6975Z" fill="white"/>
    <path d="M58.5225 111.839L57.4886 111.713C57.2369 111.679 57.0042 111.542 56.804 111.296L57.8378 111.422C58.0437 111.681 58.2764 111.818 58.5225 111.839Z" fill="#C0C1C2"/>
    <path d="M50.5387 55.808C52.1286 53.6895 54.3512 52.8641 56.8187 54.9356C61.7536 59.0787 59.3801 73.7608 59.0836 80.3021C55.279 82.4526 47.1898 89.9135 43.4826 83.1752C41.6489 79.8528 41.4235 76.0786 42.3328 73.1457C42.8332 71.5095 43.4842 70.2986 44.1561 69.3948C45.9368 67.0208 47.9665 66.8152 48.3823 66.8267C48.2282 65.9132 47.1846 61.7785 49.8134 56.9559C50.0329 56.5459 50.2772 56.1569 50.5387 55.808Z" fill="white"/>
    <path d="M45.4357 33.853L44.4018 33.7269C44.4973 33.5438 44.5985 33.3741 44.6977 33.2368C45.0374 32.7754 45.4534 32.5657 45.8482 32.602L46.882 32.728C46.4815 32.6784 46.0713 32.9014 45.7315 33.3629C45.6189 33.5059 45.5311 33.6699 45.4357 33.853Z" fill="#4281EE"/>
    <path d="M34.9983 72.7002C35.0593 72.7688 35.0554 72.8337 35.0459 72.8852L34.874 73.2589C34.874 73.2589 34.8531 73.2837 34.8454 73.3028C34.8034 73.3524 34.7367 73.381 34.6375 73.297L33.7203 72.5207L33.6802 72.5378L32.8936 74.1702L32.9222 74.2369L33.5817 75.5186C33.6617 75.7055 33.6827 75.7913 33.6388 75.8733L33.4898 76.1899C33.4898 76.1899 33.4097 76.2242 33.3678 76.1631L33.3506 76.1231L33.301 76.0811L30.2 70.0943C30.1066 69.9131 30.1067 69.8025 30.1315 69.7128L30.3759 69.2132C30.3759 69.2132 30.3893 69.2075 30.3969 69.1884C30.4332 69.1255 30.5114 69.1236 30.6162 69.2209L34.9163 72.6563C34.9163 72.6563 34.9735 72.6792 35.004 72.7135L34.9983 72.7002ZM33.4076 72.307L33.3847 72.2536L33.379 72.2403L30.6522 69.9322L30.6388 69.938L30.6445 69.9513L32.6611 73.701L32.6783 73.741L32.745 73.7124L33.4152 72.288L33.4076 72.307Z" fill="white"/>
    <path d="M57.8379 111.422L56.7983 111.282L27.1845 73.9766L28.2183 74.1026L57.8379 111.422Z" fill="#4281EE"/>
    <path d="M28.0901 70.5554L27.0563 70.4294L44.3885 33.7327L45.4357 33.853L28.0901 70.5554Z" fill="#4281EE"/>
    <path d="M28.2183 74.1026L27.1845 73.9766C26.5668 73.1984 26.5121 71.5945 27.0563 70.4294L28.0901 70.5554C27.5326 71.7263 27.6006 73.3244 28.2183 74.1026Z" fill="#4281EE"/>
</g>
<g class='svg-card-3-3d-outfly svg-animation-delay-8'>
    <path d="M100.875 7.41289L99.8879 7.08115C100.184 6.93173 100.46 6.90488 100.714 6.98636L101.701 7.31811C101.461 7.23372 101.185 7.26057 100.875 7.41289Z" fill="#D9DADB"/>
    <path d="M71.969 87.7989L70.9817 87.4672C70.4881 87.3013 70.175 86.7131 70.1628 85.8558L71.1501 86.1876C71.148 87.0478 71.4753 87.6331 71.969 87.7989Z" fill="#D9DADB"/>
    <path d="M72.6973 21.5363L71.6929 21.1932L99.885 7.06691L100.875 7.41288L72.6973 21.5363Z" fill="#4281EE"/>
    <path d="M72.2796 21.8145L71.2924 21.4827C71.4315 21.3653 71.5593 21.2651 71.7071 21.1904L72.6944 21.5221C72.5465 21.5968 72.4045 21.7 72.2796 21.8145Z" fill="#D9DADB"/>
    <path d="M71.15 86.1876L70.1486 85.8587L70.071 24.3563L71.0582 24.688L71.15 86.1876Z" fill="#4281EE"/>
    <path d="M71.0582 24.688L70.071 24.3563C70.0721 23.2739 70.5885 22.101 71.2782 21.4856L72.2654 21.8173C71.5757 22.4328 71.0593 23.6057 71.0582 24.688Z" fill="#4281EE"/>
    <path d="M72.2796 21.8144C72.4187 21.6971 72.5465 21.5968 72.6944 21.5221L100.875 7.4129C101.776 6.96175 102.509 7.64211 102.506 8.93239L102.583 70.4349C102.582 71.5172 102.066 72.6901 101.376 73.3055C101.237 73.4229 101.095 73.5261 100.961 73.5979L72.7835 87.7213C71.8822 88.1725 71.1499 87.4921 71.153 86.2018L71.0582 24.688C71.0593 23.6057 71.5757 22.4328 72.2654 21.8174L72.2796 21.8144Z" fill="#3F54F5" fill-opacity="0.5"/>
    <path d="M99.2394 57.9997C99.4047 58.0104 99.5156 57.9729 99.669 57.8526C99.7058 57.8154 99.757 57.7753 99.8052 57.721C99.7081 58.3338 99.6022 58.9039 99.6501 59.4278C99.7319 59.248 99.8762 59.0109 100.075 58.8221C100.174 58.7276 100.294 58.6587 100.43 58.6012C100.803 58.4657 101.168 58.6577 101.271 59.452C101.431 60.8127 100.069 62.7071 99.5452 63.5554C99.0082 63.2501 97.6383 62.715 97.8028 61.199C97.8766 60.4724 98.1364 59.93 98.4373 59.661C98.4373 59.661 98.4658 59.6552 98.4629 59.6409C98.92 59.2658 99.2512 59.4352 99.4171 59.594C99.4602 59.0071 99.3642 58.5375 99.2565 58.0111L99.2394 57.9997Z" fill="white"/>
    <path d="M100.792 64.0711C100.792 64.0711 100.855 64.0879 100.853 64.2218L100.865 64.2787L100.854 64.3699L99.8629 72.5773C99.8354 72.8053 99.7959 72.9023 99.7335 72.9596C99.7335 72.9596 99.7193 72.9625 99.705 72.9654L99.3155 73.1636C99.3155 73.1636 99.2072 73.1413 99.1749 72.9107L98.2151 65.6804C98.2151 65.6804 98.1977 65.595 98.186 65.5381C98.1799 65.4356 98.1967 65.3728 98.2336 65.3356L98.5435 65.1833C98.5435 65.1833 98.6716 65.1571 98.7039 65.3877L98.893 66.9648L98.9047 67.0217L100.181 66.3752L100.195 66.2983L100.398 64.5371C100.429 64.3234 100.457 64.2435 100.508 64.2034C100.508 64.2034 100.537 64.1976 100.548 64.1804L100.79 64.0569L100.792 64.0711ZM100.104 67.0136L100.092 66.9567L100.07 66.9169L98.9806 67.4657L98.9638 67.5284L98.9696 67.5569L99.5139 72.2485L100.09 67.0165L100.104 67.0136Z" fill="white"/>
    <path d="M74.4479 32.4888C74.9848 32.794 76.3547 33.3292 76.1902 34.8452C76.1164 35.5718 75.8566 36.1141 75.5558 36.3832C75.5558 36.3832 75.5273 36.389 75.5302 36.4033C75.0731 36.7784 74.7419 36.609 74.5759 36.4502C74.5328 37.0371 74.6289 37.5067 74.7365 38.0331C74.5712 38.0225 74.4603 38.06 74.3069 38.1803C74.2701 38.2175 74.2189 38.2576 74.1707 38.3119C74.2678 37.6991 74.3737 37.129 74.3259 36.6051C74.244 36.7849 74.1139 37.019 73.8982 37.1966C73.7988 37.291 73.6795 37.3599 73.543 37.4175C73.159 37.5701 72.7905 37.3638 72.7017 36.5667C72.5449 35.2201 73.9043 33.3115 74.4307 32.4775L74.4479 32.4888Z" fill="white"/>
    <path d="M86.7116 30.0251C90.0621 31.9785 98.5839 35.2905 97.6015 44.7711C97.1366 49.3133 95.5328 52.7098 93.6509 54.3843C93.5885 54.4415 93.5374 54.4816 93.4749 54.5389C90.6045 56.89 88.5514 55.8423 87.5015 54.8415C87.1925 58.5513 87.8632 61.4678 88.5069 64.7604C87.4637 64.6625 86.7381 64.885 85.8355 65.6922C85.5857 65.9212 85.302 66.2016 85.0099 66.5133C85.6317 62.6654 86.2748 59.1392 86.0098 55.8136C85.4792 56.9895 84.6477 58.4343 83.3676 59.5707C82.7403 60.1289 81.993 60.6079 81.1283 60.9478C78.7645 61.8611 76.4799 60.6236 75.8946 55.6588C74.8867 47.1782 83.3809 35.3461 86.7288 30.0364L86.7116 30.0251Z" fill="white"/>
    <path d="M74.7813 23.1706L75.741 30.401C75.741 30.401 75.7585 30.4864 75.7701 30.5433C75.7763 30.6458 75.7594 30.7085 75.7226 30.7457L75.4269 30.8951C75.4269 30.8951 75.2988 30.9213 75.2665 30.6907L75.0774 29.1136L75.0657 29.0567L73.7863 29.689L73.7581 29.7689L73.5548 31.53C73.5244 31.7437 73.4963 31.8236 73.4451 31.8637C73.4451 31.8637 73.4167 31.8695 73.4054 31.8867L73.1637 32.0102C73.1637 32.0102 73.1009 31.9934 73.1032 31.8595L73.0916 31.8026L73.1026 31.7114L74.0932 23.504C74.1207 23.276 74.1602 23.179 74.2227 23.1218C74.2227 23.1218 74.2369 23.1189 74.2511 23.116L74.6406 22.9177C74.6406 22.9177 74.749 22.94 74.7813 23.1706ZM74.9865 28.5244L74.4422 23.8329L73.8663 29.0649L73.8779 29.1218L73.9009 29.1615L74.9898 28.6127L75.0066 28.55L75.0008 28.5215L74.9865 28.5244Z" fill="white"/>
</g>
<g class='svg-card-4-3d-outfly'>
    <path d="M150.631 80.5803C151.048 80.2612 151.616 80.6281 151.918 81.3934C152.109 81.9065 152.132 82.4733 152.01 82.8786C151.938 83.0808 151.848 83.241 151.709 83.3474C151.776 83.4637 151.852 83.5908 151.906 83.7374C152.097 84.2505 152.121 84.8173 151.998 85.2227C151.927 85.4248 151.837 85.585 151.698 85.6914C151.281 86.0105 150.713 85.6436 150.422 84.8686C150.367 84.722 150.322 84.5861 150.299 84.4307C149.882 84.7499 149.294 84.382 149.012 83.6177C148.821 83.1045 148.797 82.5378 148.92 82.1324C148.992 81.9302 149.082 81.7701 149.221 81.6637C149.488 81.4607 149.813 81.5382 150.087 81.8188C149.911 81.2138 149.616 80.7368 149.302 80.2177C149.517 80.2179 149.624 80.1408 149.75 79.8692C149.894 80.5035 150.009 81.1055 150.27 81.6529C150.261 81.4262 150.291 81.222 150.352 81.0296C150.423 80.8274 150.514 80.6672 150.652 80.5608L150.631 80.5803Z" fill="white"/>
    <path d="M134.768 112.718L133.75 112.936C133.105 113.069 132.364 112.467 131.954 111.388L132.972 111.17C133.382 112.249 134.134 112.862 134.768 112.718Z" fill="#D9DADB"/>
    <path d="M116.978 58.1666C117.394 57.8474 117.963 58.2143 118.254 58.9894C118.445 59.5025 118.469 60.0692 118.346 60.4746C118.274 60.6768 118.184 60.837 118.045 60.9434C117.778 61.1464 117.453 61.0689 117.179 60.7882C117.366 61.3834 117.65 61.8703 117.964 62.3894C117.749 62.3892 117.642 62.4663 117.516 62.7378C117.373 62.083 117.257 61.5016 116.996 60.9542C117.005 61.1809 116.975 61.3851 116.914 61.5775C116.842 61.7797 116.752 61.9398 116.614 62.0462C116.197 62.3654 115.629 61.9985 115.337 61.2234C115.147 60.7103 115.112 60.1533 115.245 59.7382C115.317 59.536 115.407 59.3758 115.546 59.2694C115.48 59.1531 115.404 59.026 115.349 58.8794C115.158 58.3663 115.124 57.8093 115.257 57.3942C115.329 57.192 115.419 57.0318 115.558 56.9254C115.974 56.6063 116.542 56.9732 116.844 57.7385C116.899 57.8851 116.943 58.0415 116.967 58.1763L116.978 58.1666Z" fill="white"/>
    <path d="M131.487 29.7479C132.191 29.2267 133.159 29.8392 133.65 31.1382L157.303 92.6266C157.631 93.4858 157.677 94.4443 157.447 95.1427C157.339 95.4768 157.16 95.7561 156.946 95.9308L135.146 112.551C134.452 113.083 133.475 112.46 132.982 111.181L109.31 49.6711C108.972 48.8012 108.936 47.8534 109.165 47.155C109.274 46.8209 109.443 46.5309 109.667 46.3669L131.466 29.7469L131.487 29.7479ZM142.983 66.6152C141.213 62.0048 137.763 59.8014 135.274 61.7066C135.058 60.8632 134.814 59.967 134.476 59.0971C132.706 54.4867 129.255 52.2833 126.766 54.1884C125.944 54.817 125.33 55.8053 124.942 57.0204C124.142 59.4908 124.275 62.8804 125.471 65.9719C125.809 66.8418 126.203 67.6219 126.632 68.3111C125.81 68.9396 125.196 69.9279 124.807 71.143C124.008 73.6134 124.141 77.003 125.337 80.0945C127.107 84.7049 130.557 86.9083 133.056 85.0139C133.879 84.3854 134.482 83.4069 134.87 82.1917C135.211 81.0977 135.387 79.8208 135.37 78.4831C136.885 81.7752 137.617 85.3276 138.477 89.1946C139.203 87.5948 139.833 87.1214 141.179 87.1353C139.329 83.9709 137.596 81.131 136.457 77.4972C138.133 79.1724 140.116 79.6284 141.697 78.4299C142.519 77.8014 143.133 76.8131 143.511 75.6077C144.31 73.1374 144.177 69.7478 142.981 66.6562L142.983 66.6152ZM153.232 86.2799C153.176 86.1538 153.147 86.1216 153.105 86.1401L152.933 86.2963C152.933 86.2963 152.891 86.3148 152.89 86.3353C152.877 86.3861 152.883 86.479 152.926 86.6558L153.394 88.4472L153.4 88.5195L152.417 89.274L152.378 89.231L151.591 87.6709C151.468 87.449 151.406 87.446 151.354 87.4743L151.13 87.6382C151.13 87.6382 151.119 87.648 151.108 87.6577C151.096 87.688 151.114 87.7506 151.14 87.8444C151.158 87.9069 151.188 87.9187 151.215 87.992L154.918 95.1435C155.04 95.3654 155.1 95.4094 155.142 95.3909L155.441 95.1586C155.441 95.1586 155.463 95.1391 155.464 95.1186C155.487 95.058 155.472 94.9544 155.43 94.757L153.244 86.4656L153.227 86.3825L153.2 86.3092L153.232 86.2799ZM114.043 56.3584C114.088 56.4942 114.137 56.5275 114.17 56.4982L114.342 56.342C114.342 56.342 114.384 56.3235 114.385 56.303C114.398 56.2522 114.392 56.1594 114.349 55.9825L113.87 54.2008L113.864 54.1285L114.847 53.3741L114.886 53.4171L115.673 54.9772C115.796 55.1991 115.868 55.1923 115.91 55.1738L116.134 55.0098C116.134 55.0098 116.145 55.0001 116.156 54.9903C116.168 54.96 116.15 54.8975 116.124 54.8037C116.106 54.7411 116.076 54.7294 116.049 54.6561L112.346 47.5046C112.233 47.2934 112.164 47.2386 112.121 47.2777L111.823 47.4895C111.823 47.4895 111.801 47.509 111.789 47.5393C111.766 47.5998 111.781 47.7034 111.823 47.9008L114.019 56.203L114.057 56.2871L114.074 56.3496L114.043 56.3584ZM115.338 61.2029C115.63 61.978 116.209 62.3351 116.615 62.0257C116.744 61.9086 116.854 61.7494 116.915 61.557C116.965 61.3743 116.996 61.1701 116.997 60.9337C117.258 61.481 117.374 62.0625 117.517 62.7173C117.632 62.4555 117.739 62.3784 117.965 62.3688C117.662 61.84 117.376 61.3737 117.18 60.7677C117.454 61.0484 117.79 61.1161 118.046 60.9228C118.185 60.8164 118.286 60.6465 118.347 60.4541C118.48 60.0389 118.457 59.4722 118.255 58.9688C117.964 58.1938 117.385 57.8366 116.979 58.146C116.945 58.0004 116.911 57.8548 116.856 57.7082C116.565 56.9331 115.986 56.576 115.569 56.8951C115.43 57.0015 115.33 57.1714 115.269 57.3639C115.135 57.779 115.149 58.335 115.361 58.8491C115.415 58.9957 115.481 59.1326 115.558 59.2391C115.429 59.3563 115.318 59.5154 115.246 59.7176C115.113 60.1328 115.127 60.6888 115.338 61.2029ZM151.938 81.3944C151.636 80.6291 151.068 80.2622 150.651 80.5813C150.522 80.6985 150.422 80.8479 150.351 81.0501C150.301 81.2327 150.26 81.4467 150.269 81.6734C150.008 81.126 149.903 80.5348 149.749 79.8898C149.634 80.1515 149.527 80.2286 149.301 80.2382C149.604 80.7671 149.899 81.2441 150.086 81.8393C149.812 81.5587 149.476 81.491 149.22 81.6842C149.081 81.7906 148.98 81.9605 148.919 82.1529C148.786 82.5681 148.809 83.1348 149.011 83.6382C149.313 84.4035 149.881 84.7704 150.298 84.4513C150.332 84.5969 150.376 84.7532 150.431 84.8793C150.733 85.6446 151.302 86.0115 151.707 85.7021C151.846 85.5958 151.947 85.4258 152.008 85.2334C152.141 84.8183 152.118 84.2515 151.916 83.7482C151.861 83.6016 151.785 83.4745 151.719 83.3581C151.858 83.2518 151.959 83.0818 152.02 82.8894C152.153 82.4743 152.129 81.9075 151.928 81.4042L151.938 81.3944Z" fill="#3F54F5" fill-opacity="0.5"/>
    <path d="M153.105 86.1401C153.105 86.1401 153.176 86.1538 153.232 86.2799L153.259 86.3532L153.276 86.4363L155.462 94.7277C155.504 94.9251 155.52 95.0287 155.496 95.0893C155.485 95.099 155.484 95.1196 155.474 95.1293L155.174 95.3616C155.174 95.3616 155.062 95.3459 154.95 95.1142L151.247 87.9627C151.247 87.9627 151.189 87.8982 151.172 87.8151C151.135 87.7311 151.129 87.6587 151.14 87.6285C151.14 87.6285 151.151 87.6187 151.162 87.6089L151.386 87.445C151.386 87.445 151.511 87.4099 151.623 87.6416L152.411 89.2017L152.45 89.2447L153.433 88.4903L153.426 88.4179L152.958 86.6266C152.915 86.4497 152.909 86.3568 152.922 86.306C152.933 86.2963 152.945 86.266 152.956 86.2562L153.128 86.1001L153.105 86.1401ZM153.585 89.1558L153.568 89.0932L153.519 89.0394L152.664 89.6973L152.661 89.7588L152.681 89.7803L154.994 94.4274L155.013 94.4489L155.024 94.4391L153.565 89.1548L153.585 89.1558Z" fill="white"/>
    <path d="M131.487 29.7479L130.468 29.9659C130.576 29.8683 130.701 29.8332 130.826 29.7981L131.845 29.5801C131.72 29.6152 131.604 29.661 131.487 29.7479Z" fill="white"/>
    <path d="M112.079 47.2962C112.079 47.2962 112.191 47.312 112.304 47.5231L116.007 54.6746C116.007 54.6746 116.065 54.7391 116.082 54.8222C116.119 54.9063 116.126 54.9786 116.114 55.0089C116.114 55.0089 116.103 55.0186 116.092 55.0284L115.868 55.1923C115.868 55.1923 115.743 55.2274 115.631 54.9957L114.844 53.4356L114.805 53.3926L113.822 54.1471L113.828 54.2194L114.307 56.001C114.35 56.1779 114.356 56.2707 114.343 56.3215C114.332 56.3313 114.32 56.3615 114.3 56.3606L114.128 56.5167C114.128 56.5167 114.046 56.4922 113.991 56.3661L113.973 56.3036L113.936 56.2195L111.74 47.9174C111.688 47.7297 111.683 47.6164 111.706 47.5558C111.717 47.546 111.718 47.5255 111.74 47.506L112.038 47.2942L112.079 47.2962ZM112.249 48.2402L113.698 53.5138L113.716 53.5764L113.765 53.6301L114.619 52.9723L114.612 52.9205L114.582 52.8883L112.269 48.2412L112.249 48.2402Z" fill="white"/>
    <path d="M109.667 46.3669L108.648 46.5849L130.458 29.9756L131.487 29.7479L109.667 46.3669Z" fill="#4281EE"/>
    <path d="M132.962 111.16L131.933 111.387L108.291 49.8891L109.31 49.6711L132.962 111.16Z" fill="#4281EE"/>
    <path d="M109.31 49.6711L108.291 49.8891C107.953 49.0192 107.917 48.0714 108.147 47.373C108.256 47.0389 108.424 46.7489 108.648 46.5849L109.667 46.3669C109.432 46.5406 109.274 46.8209 109.165 47.155C108.947 47.8436 108.972 48.8012 109.31 49.6711Z" fill="#4281EE"/>
    <path d="M135.22 61.7554C135.047 60.873 134.803 59.9768 134.465 59.1069C132.695 54.4965 129.245 52.2931 126.756 54.1983C125.933 54.8268 125.319 55.8151 124.931 57.0302C124.132 59.5006 124.264 62.8902 125.46 65.9817C125.798 66.8516 126.192 67.6317 126.621 68.3209C125.799 68.9494 125.185 69.9377 124.807 71.1431C124.008 73.6134 124.141 77.003 125.337 80.0946C127.107 84.705 130.557 86.9083 133.056 85.014C133.879 84.3854 134.482 83.4069 134.87 82.1918C135.211 81.0977 135.387 79.8208 135.37 78.4832C136.885 81.7753 137.617 85.3276 138.477 89.1947C139.203 87.5948 139.833 87.1215 141.179 87.1353C139.328 83.9709 137.596 81.131 136.457 77.4973C138.133 79.1724 140.116 79.6285 141.697 78.43C142.519 77.8014 143.133 76.8132 143.511 75.6078C144.31 73.1374 144.177 69.7478 142.981 66.6563C141.211 62.0459 137.761 59.8425 135.229 61.7867L135.22 61.7554Z" fill="white"/>
</g>


<g clip-path="url(#clip0_34_11062)">
<path opacity="0.2" d="M156 178.665V173.336H155.303C153.419 166.141 147.698 159.217 138.133 153.677C114.311 139.877 75.6878 139.877 51.8668 153.677C42.3022 159.217 36.5814 166.14 34.6969 173.334H34V178.74H34.0011C34.0347 187.758 39.9878 196.77 51.8657 203.651C75.6878 217.45 114.31 217.45 138.132 203.651C149.983 196.785 155.936 187.799 155.996 178.801H155.999V178.665H156Z" fill="#4281EE"/>
<path d="M94.9995 208.673C128.689 208.673 155.999 192.852 155.999 173.336C155.999 153.821 128.689 138 94.9995 138C61.3104 138 34 153.821 34 173.336C34 192.852 61.3104 208.673 94.9995 208.673Z" fill="url(#paint0_linear_34_11062)"/>
<path d="M155.499 173.336C155.499 182.841 148.845 191.54 137.882 197.89C126.932 204.233 111.772 208.173 94.9995 208.173C78.227 208.173 63.0668 204.233 52.117 197.89C41.1542 191.54 34.5 182.841 34.5 173.336C34.5 163.832 41.1542 155.133 52.117 148.782C63.0668 142.439 78.227 138.5 94.9995 138.5C111.772 138.5 126.932 142.439 137.882 148.782C148.845 155.133 155.499 163.832 155.499 173.336Z" stroke="white" stroke-opacity="0.1"/>
<path d="M147.572 174.432C147.572 174.432 147.57 174.441 147.572 174.445C147.105 181.873 141.982 189.217 132.197 194.885C111.654 206.785 78.3463 206.785 57.8025 194.885C48.0186 189.217 42.8971 181.872 42.4303 174.445V174.432C41.9266 166.274 47.0492 158.019 57.8025 151.789C78.3463 139.889 111.654 139.889 132.197 151.789C142.951 158.019 148.073 166.274 147.572 174.432Z" fill="#2131AB"/>
<path d="M147.572 174.432C147.572 174.432 147.57 174.441 147.572 174.445C147.105 181.873 141.982 189.217 132.197 194.885C111.654 206.785 78.3463 206.785 57.8025 194.885C48.0186 189.217 42.897 181.872 42.4303 174.445V174.432C42.897 167.006 48.0175 159.663 57.8025 153.995C78.3463 142.094 111.654 142.094 132.197 153.995C141.981 159.663 147.105 167.007 147.572 174.432Z" fill="#4281EE"/>
<g class='svg-roulette-3d-rotate'>
    <path d="M95.019 173.347L64.281 155.541C62.4606 156.596 60.8355 157.722 59.4048 158.901L95.019 173.347Z" fill="#3F54F5"/>
    <path d="M70.0821 152.717C68.0445 153.546 66.1014 154.487 64.281 155.541L95.019 173.347L70.0821 152.716V152.717Z" fill="#25AFF4"/>
    <path d="M95.019 173.347L98.8064 148.267C96.2858 148.139 93.7511 148.138 91.2305 148.264L95.019 173.347Z" fill="#25AFF4"/>
    <path d="M51.7235 175.542C51.9428 176.997 52.3803 178.445 53.037 179.864L95.0201 173.347L51.7246 175.542H51.7235Z" fill="#25AFF4"/>
    <path d="M83.7674 149.021C81.338 149.397 78.9531 149.896 76.6441 150.519L95.0201 173.347L83.7685 149.021H83.7674Z" fill="#25AFF4"/>
    <path d="M95.019 173.347L76.6431 150.52C74.3743 151.132 72.1772 151.865 70.081 152.717L95.0179 173.348L95.019 173.347Z" fill="#3F54F5"/>
    <path d="M95.019 173.347L53.0273 166.83C52.3738 168.25 51.9374 169.697 51.7203 171.154L95.0201 173.348L95.019 173.347Z" fill="#25AFF4"/>
    <path d="M95.019 173.347L51.7192 171.153C51.501 172.612 51.5021 174.081 51.7224 175.541L95.0179 173.346L95.019 173.347Z" fill="#3F54F5"/>
    <path d="M95.019 173.347L55.6119 162.703C54.5361 164.04 53.6742 165.422 53.0262 166.83L95.0179 173.347H95.019Z" fill="#3F54F5"/>
    <path d="M59.4048 158.901C57.9339 160.116 56.6692 161.388 55.6119 162.703L95.019 173.347L59.4048 158.901Z" fill="#25AFF4"/>
    <path d="M95.019 173.347L91.2305 148.264C88.7175 148.391 86.2186 148.642 83.7674 149.021L95.019 173.347Z" fill="#3F54F5"/>
    <path d="M95.019 173.347L106.268 149.027C103.817 148.647 101.319 148.394 98.8075 148.267L95.0201 173.347H95.019Z" fill="#3F54F5"/>
    <path d="M95.019 173.347L130.607 158.911C129.179 157.732 127.556 156.606 125.737 155.551L95.0179 173.346L95.019 173.347Z" fill="#3F54F5"/>
    <path d="M95.019 173.347L119.944 152.727C117.85 151.874 115.655 151.141 113.388 150.528L95.0201 173.347H95.019Z" fill="#3F54F5"/>
    <path d="M113.387 150.529C111.079 149.905 108.697 149.404 106.268 149.028L95.019 173.348L113.387 150.529Z" fill="#25AFF4"/>
    <path d="M125.739 155.552C125.732 155.549 125.726 155.545 125.72 155.541C123.907 154.491 121.973 153.553 119.945 152.727L95.0201 173.347L125.74 155.552H125.739Z" fill="#25AFF4"/>
    <path d="M113.373 196.149C115.64 195.537 117.833 194.805 119.926 193.954L95.019 173.348L113.373 196.149Z" fill="#3F54F5"/>
    <path d="M95.019 173.347L134.379 183.98C135.455 182.643 136.317 181.265 136.966 179.858L95.019 173.347Z" fill="#3F54F5"/>
    <path d="M136.966 179.858C137.621 178.439 138.057 176.994 138.278 175.54L95.0201 173.347L136.967 179.858H136.966Z" fill="#25AFF4"/>
    <path d="M95.019 173.347L130.59 187.776C132.06 186.563 133.323 185.292 134.379 183.98L95.019 173.347Z" fill="#25AFF4"/>
    <path d="M95.019 173.347L119.926 193.952C121.961 193.125 123.901 192.185 125.719 191.131L95.019 173.347Z" fill="#25AFF4"/>
    <path d="M95.019 173.347L134.395 162.711C133.338 161.398 132.076 160.126 130.608 158.912L95.0201 173.348L95.019 173.347Z" fill="#25AFF4"/>
    <path d="M95.019 173.347L53.0359 179.864C53.6851 181.271 54.5492 182.651 55.6271 183.989L95.019 173.347Z" fill="#3F54F5"/>
    <path d="M95.019 173.347L138.281 171.155C138.064 169.7 137.628 168.254 136.976 166.835L95.019 173.347Z" fill="#25AFF4"/>
    <path d="M95.019 173.347L138.276 175.54C138.497 174.081 138.498 172.613 138.28 171.155L95.0179 173.347H95.019Z" fill="#3F54F5"/>
    <path d="M95.019 173.347L136.976 166.835C136.329 165.429 135.469 164.048 134.395 162.711L95.019 173.347Z" fill="#3F54F5"/>
    <path d="M59.4232 187.787C60.8485 188.962 62.4681 190.081 64.281 191.133C64.2875 191.136 64.294 191.14 64.3005 191.143L95.0201 173.348L59.4232 187.787Z" fill="#3F54F5"/>
    <path d="M95.019 173.347L106.259 197.647C108.685 197.271 111.066 196.771 113.373 196.148L95.019 173.347Z" fill="#25AFF4"/>
    <path d="M70.0995 193.963C72.1945 194.814 74.3895 195.546 76.6583 196.157L95.019 173.347L70.0995 193.963Z" fill="#3F54F5"/>
    <path d="M95.019 173.347L55.6271 183.989C56.6855 185.302 57.9512 186.573 59.4232 187.787L95.019 173.348V173.347Z" fill="#25AFF4"/>
    <path d="M95.019 173.347L64.2994 191.142C66.1199 192.196 68.0619 193.136 70.0995 193.963L95.019 173.347Z" fill="#25AFF4"/>
    <path d="M95.019 173.347L98.8032 198.406C101.314 198.279 103.809 198.026 106.259 197.647L95.019 173.347Z" fill="#3F54F5"/>
    <path d="M95.019 173.347L76.6583 196.157C78.9661 196.779 81.3489 197.278 83.7772 197.652L95.019 173.347Z" fill="#25AFF4"/>
    <path d="M91.2337 198.408C93.7522 198.535 96.2847 198.534 98.8032 198.406L95.019 173.347L91.2337 198.408Z" fill="#25AFF4"/>
    <path d="M95.019 173.347L83.7772 197.652C86.2272 198.03 88.7229 198.282 91.2348 198.408L95.0201 173.347H95.019Z" fill="#3F54F5"/>
    <path d="M125.719 191.133C127.537 190.079 129.16 188.955 130.59 187.777L95.019 173.348L125.719 191.133Z" fill="#3F54F5"/>
</g>
<path d="M110.119 182.094C101.769 186.932 88.2301 186.932 79.8812 182.094C78.9574 181.557 78.1346 180.986 77.4138 180.384C71.6333 175.557 72.4562 168.878 79.8812 164.579C85.9884 161.043 94.8681 160.091 102.466 161.729C105.259 162.33 107.876 163.28 110.119 164.579C118.468 169.416 118.468 177.258 110.119 182.096V182.094Z" fill="#4281EE"/>
<path d="M99.9962 177.531C93.8911 181.07 85.0093 182.019 77.4138 180.383C75.9722 179.179 74.942 177.861 74.3222 176.492C72.454 172.371 74.3092 167.805 79.8812 164.578C84.308 162.013 90.1938 160.809 95.9916 160.964C98.1898 161.024 100.376 161.277 102.466 161.728C108.244 166.553 107.419 173.232 99.9962 177.531Z" fill="#3F54F5"/>
<path d="M90.4348 172.879C86.008 175.444 80.12 176.649 74.3222 176.493C72.454 172.372 74.3092 167.807 79.8812 164.579C84.308 162.014 90.1938 160.81 95.9916 160.965C97.8598 165.084 96.0068 169.652 90.4348 172.879Z" fill="#4572EF"/>
<path d="M102.796 170.533V172.285C102.796 173.483 102.009 174.68 100.431 175.594C97.2791 177.42 92.1684 177.42 89.0138 175.594C87.4018 174.66 86.6159 173.428 86.6528 172.204H86.6495V170.534C86.6495 169.337 87.4365 168.139 89.0138 167.227C92.1673 165.399 97.2791 165.399 100.431 167.227C102.009 168.139 102.796 169.337 102.796 170.534V170.533Z" fill="#4281EE"/>
<path d="M102.796 170.533C102.796 171.729 102.009 172.926 100.431 173.84C97.2791 175.665 92.1684 175.665 89.0138 173.84C87.4365 172.926 86.6495 171.73 86.6495 170.533C86.6495 169.336 87.4365 168.138 89.0138 167.226C92.1673 165.398 97.2791 165.398 100.431 167.226C102.009 168.138 102.796 169.336 102.796 170.533Z" fill="#2E40CF"/>
<g class='svg-handle-3d-rotate'>
    <path d="M86.123 157.88C86.123 158.2 86.034 158.502 85.8821 158.757C85.6801 159.093 85.3643 159.355 84.9897 159.488C84.8139 159.552 84.6228 159.585 84.4242 159.585C84.3851 159.585 84.346 159.585 84.3069 159.582C84.1495 159.571 83.9986 159.54 83.8564 159.487C83.4168 159.333 83.0607 159.002 82.8729 158.579C82.7763 158.367 82.7231 158.128 82.7231 157.881C82.7231 157.177 83.1476 156.572 83.7555 156.314C83.7891 156.298 83.8228 156.284 83.8575 156.272C84.0008 156.222 84.1506 156.188 84.308 156.18C84.3449 156.176 84.3862 156.176 84.4253 156.176C84.4937 156.176 84.5631 156.18 84.6293 156.189C84.7553 156.205 84.8758 156.232 84.9908 156.273C85.6519 156.506 86.1252 157.139 86.1252 157.882L86.123 157.88Z" fill="#DDA747"/>
    <path d="M84.7781 156.886C84.7781 157.209 84.689 157.508 84.5371 157.765C84.3352 158.102 84.0214 158.363 83.6448 158.497C83.4689 158.558 83.2779 158.594 83.0792 158.594C83.0401 158.594 83.001 158.592 82.962 158.589C82.9327 158.587 82.9023 158.586 82.8729 158.579C82.7763 158.367 82.7231 158.128 82.7231 157.881C82.7231 157.177 83.1476 156.572 83.7555 156.314C83.7891 156.298 83.8228 156.284 83.8575 156.272C84.0008 156.222 84.1506 156.188 84.308 156.18C84.3449 156.176 84.3862 156.176 84.4253 156.176C84.4937 156.176 84.5631 156.18 84.6293 156.189C84.726 156.402 84.7791 156.638 84.7791 156.888L84.7781 156.886Z" fill="#FFE655"/>
    <path d="M95.4011 163.891C95.3371 163.865 95.2513 163.878 95.1536 163.933C95.1178 163.953 95.083 163.98 95.0516 164.011C94.9767 164.075 94.9126 164.159 94.8659 164.248C94.8236 164.332 94.7997 164.419 94.7997 164.497C94.7997 164.578 94.8279 164.638 94.8746 164.672L93.9595 164.141L93.0238 163.598L84.321 158.557L84.2787 158.533C84.2364 158.5 84.2125 158.442 84.2125 158.364C84.2125 158.202 84.3189 158.007 84.4643 157.879C84.4947 157.847 84.5306 157.823 84.5664 157.801C84.6706 157.744 84.7607 157.733 84.8269 157.765L84.8443 157.776H84.8464L93.9584 163.057L94.8963 163.598L95.1992 163.773L95.4 163.891H95.4011Z" fill="#DDA747"/>
    <path d="M95.0092 164.199C95.0092 164.281 95.0385 164.341 95.0841 164.375L94.8649 164.248L94.1679 163.844L93.2322 163.301L84.5295 158.26L84.4871 158.236C84.4448 158.202 84.4209 158.146 84.4209 158.067C84.4209 158.007 84.4361 157.943 84.4633 157.879C84.4937 157.847 84.5295 157.823 84.5653 157.801C84.6695 157.744 84.7596 157.733 84.8258 157.765L84.8432 157.776H84.8454L93.9574 163.057L94.8952 163.598L95.1981 163.773C95.1341 163.844 95.0809 163.927 95.0494 164.011C95.0233 164.075 95.0071 164.139 95.0071 164.199H95.0092Z" fill="#FFE655"/>
    <path d="M106.415 158.232C106.415 158.552 106.326 158.853 106.174 159.108C105.972 159.445 105.656 159.706 105.282 159.84C105.106 159.903 104.915 159.937 104.716 159.937C104.677 159.937 104.638 159.937 104.599 159.934C104.441 159.923 104.291 159.891 104.148 159.839C103.709 159.685 103.353 159.353 103.165 158.931C103.068 158.718 103.015 158.48 103.015 158.233C103.015 157.529 103.441 156.923 104.047 156.665C104.081 156.65 104.115 156.636 104.149 156.624C104.293 156.574 104.443 156.54 104.6 156.531C104.637 156.528 104.678 156.528 104.717 156.528C104.786 156.528 104.855 156.531 104.921 156.541C105.047 156.556 105.168 156.584 105.283 156.625C105.944 156.858 106.417 157.491 106.417 158.234L106.415 158.232Z" fill="#DDA747"/>
    <path d="M105.069 157.237C105.069 157.56 104.98 157.859 104.828 158.116C104.626 158.453 104.312 158.714 103.936 158.848C103.76 158.909 103.569 158.945 103.37 158.945C103.331 158.945 103.292 158.943 103.253 158.94C103.223 158.937 103.193 158.936 103.164 158.93C103.067 158.717 103.014 158.479 103.014 158.232C103.014 157.528 103.44 156.922 104.046 156.664C104.08 156.649 104.114 156.635 104.148 156.623C104.292 156.573 104.441 156.539 104.599 156.53C104.636 156.527 104.677 156.527 104.716 156.527C104.784 156.527 104.854 156.53 104.92 156.54C105.017 156.752 105.07 156.989 105.07 157.238L105.069 157.237Z" fill="#FFE655"/>
    <path d="M104.533 158.849C104.533 158.926 104.509 158.984 104.466 159.018L104.424 159.042L95.7213 164.083L95.4869 164.218L94.7856 164.626L94.6727 164.69L94.4078 164.846L94.1354 165.004V163.919L94.6727 163.607L94.7856 163.542L95.4869 163.136L103.899 158.262H103.901L103.918 158.251C103.984 158.217 104.076 158.229 104.179 158.287C104.232 158.318 104.281 158.36 104.327 158.409C104.336 158.418 104.345 158.429 104.354 158.44H104.356C104.462 158.562 104.533 158.717 104.533 158.85V158.849Z" fill="#DDA747"/>
    <path d="M104.358 158.572C104.358 158.65 104.334 158.708 104.292 158.741L104.249 158.765L95.5466 163.806L95.3121 163.941L94.6108 164.35L94.4979 164.414L94.2331 164.57L94.1354 164.625V163.919L94.6727 163.607L94.7856 163.542L95.4869 163.136L103.899 158.262H103.901L103.918 158.251C103.984 158.217 104.076 158.229 104.179 158.287C104.232 158.318 104.281 158.36 104.327 158.409C104.347 158.465 104.358 158.52 104.358 158.574V158.572Z" fill="#FFE655"/>
    <path d="M106.036 170.132C105.97 170.106 105.886 170.119 105.789 170.174C105.765 170.187 105.74 170.205 105.718 170.223C105.607 170.309 105.515 170.441 105.468 170.57C105.447 170.628 105.435 170.685 105.435 170.739C105.435 170.82 105.463 170.88 105.51 170.914L104.595 170.384L103.659 169.84L94.956 164.799L94.9137 164.775C94.8714 164.742 94.8475 164.685 94.8475 164.607C94.8475 164.433 94.9691 164.221 95.1308 164.091C95.1525 164.074 95.1775 164.058 95.2014 164.042C95.3056 163.985 95.3957 163.974 95.4619 164.006L95.4793 164.017H95.4814L104.593 169.298L105.531 169.839L105.872 170.036L106.036 170.132Z" fill="#DDA747"/>
    <path d="M105.718 170.222C105.658 170.32 105.62 170.428 105.62 170.524C105.62 170.606 105.649 170.666 105.695 170.699L105.467 170.569L104.78 170.169L103.844 169.625L95.1417 164.585L95.0993 164.561C95.057 164.527 95.0331 164.469 95.0331 164.392C95.0331 164.296 95.0711 164.19 95.1308 164.09C95.1525 164.073 95.1775 164.056 95.2014 164.041C95.3056 163.983 95.3957 163.973 95.4619 164.005L95.4793 164.016H95.4814L104.593 169.297L105.531 169.838L105.872 170.035C105.812 170.088 105.759 170.153 105.717 170.221L105.718 170.222Z" fill="#FFE655"/>
    <path d="M106.565 169.986C106.565 170.306 106.476 170.608 106.324 170.863C106.122 171.199 105.806 171.461 105.431 171.595C105.256 171.658 105.065 171.692 104.866 171.692C104.827 171.692 104.788 171.692 104.749 171.688C104.591 171.678 104.44 171.646 104.298 171.594C103.859 171.439 103.502 171.108 103.315 170.685C103.218 170.473 103.165 170.234 103.165 169.987C103.165 169.283 103.59 168.678 104.197 168.42C104.231 168.405 104.265 168.39 104.299 168.378C104.443 168.328 104.592 168.295 104.75 168.286C104.787 168.283 104.828 168.283 104.867 168.283C104.935 168.283 105.005 168.286 105.071 168.296C105.197 168.311 105.317 168.338 105.433 168.379C106.094 168.613 106.567 169.245 106.567 169.988L106.565 169.986Z" fill="#DDA747"/>
    <path d="M105.219 168.992C105.219 169.314 105.13 169.614 104.978 169.871C104.776 170.207 104.462 170.469 104.085 170.602C103.91 170.663 103.718 170.699 103.52 170.699C103.481 170.699 103.442 170.697 103.403 170.694C103.373 170.692 103.343 170.691 103.314 170.684C103.217 170.472 103.164 170.233 103.164 169.986C103.164 169.282 103.589 168.677 104.196 168.419C104.23 168.403 104.263 168.389 104.298 168.377C104.441 168.327 104.591 168.293 104.749 168.285C104.786 168.281 104.827 168.281 104.866 168.281C104.934 168.281 105.004 168.285 105.07 168.295C105.167 168.507 105.22 168.743 105.22 168.993L105.219 168.992Z" fill="#FFE655"/>
    <path d="M94.6532 164.605C94.6532 164.683 94.6293 164.741 94.587 164.774L94.5446 164.798L85.8419 169.839L84.9062 170.382L83.9911 170.913C84.0377 170.879 84.066 170.819 84.066 170.738C84.066 170.656 84.0399 170.571 83.9976 170.487C83.9335 170.361 83.8293 170.243 83.7121 170.174C83.7099 170.172 83.7077 170.172 83.7056 170.17C83.61 170.119 83.5264 170.106 83.4646 170.132L83.6122 170.046L83.9683 169.84L84.9062 169.299L94.0181 164.018H94.0203L94.0377 164.008C94.1017 163.974 94.1907 163.986 94.2917 164.039C94.2939 164.041 94.296 164.041 94.2982 164.043C94.4925 164.159 94.6521 164.409 94.6521 164.607L94.6532 164.605Z" fill="#DDA747"/>
    <path d="M94.3872 164.336C94.3872 164.414 94.3633 164.471 94.321 164.505L94.2787 164.529L85.5759 169.57L84.6402 170.113L83.9965 170.486L83.724 170.644C83.7707 170.61 83.7989 170.55 83.7989 170.469C83.7989 170.373 83.7631 170.267 83.7034 170.169C83.6773 170.124 83.6459 170.083 83.61 170.045L83.9661 169.839L84.904 169.298L94.016 164.017H94.0181L94.0355 164.006C94.0996 163.973 94.1886 163.985 94.2895 164.038C94.3492 164.136 94.3851 164.242 94.3851 164.338L94.3872 164.336Z" fill="#FFE655"/>
    <path d="M85.4326 170.361C85.4326 170.681 85.3436 170.983 85.1916 171.238C84.9897 171.574 84.6738 171.835 84.2993 171.969C84.1235 172.033 83.9324 172.066 83.7338 172.066C83.6947 172.066 83.6556 172.066 83.6165 172.063C83.4591 172.052 83.3082 172.021 83.166 171.968C82.7264 171.814 82.3703 171.483 82.1825 171.06C82.0859 170.848 82.0327 170.609 82.0327 170.362C82.0327 169.658 82.4583 169.053 83.0651 168.794C83.0987 168.779 83.1324 168.765 83.1671 168.753C83.3104 168.703 83.4602 168.669 83.6176 168.66C83.6545 168.657 83.6958 168.657 83.7349 168.657C83.8033 168.657 83.8727 168.66 83.9389 168.67C84.0649 168.686 84.1854 168.713 84.3004 168.754C84.9615 168.987 85.4348 169.62 85.4348 170.363L85.4326 170.361Z" fill="#DDA747"/>
    <path d="M84.0877 169.366C84.0877 169.689 83.9986 169.988 83.8467 170.245C83.6448 170.582 83.331 170.843 82.9544 170.977C82.7785 171.038 82.5875 171.074 82.3888 171.074C82.3497 171.074 82.3106 171.072 82.2716 171.069C82.2423 171.066 82.2119 171.065 82.1825 171.059C82.0859 170.846 82.0327 170.608 82.0327 170.361C82.0327 169.657 82.4583 169.052 83.0651 168.793C83.0987 168.778 83.1324 168.764 83.1671 168.752C83.3104 168.702 83.4602 168.668 83.6176 168.659C83.6545 168.656 83.6958 168.656 83.7349 168.656C83.8033 168.656 83.8727 168.659 83.9389 168.669C84.0356 168.882 84.0887 169.118 84.0887 169.367L84.0877 169.366Z" fill="#FFE655"/>
</g>
<path d="M95.5379 155.887V170.241H95.5357C95.5357 170.341 95.4695 170.44 95.3392 170.518C95.2773 170.553 95.2057 170.581 95.1308 170.599C94.8855 170.661 94.588 170.634 94.3861 170.518C94.2548 170.441 94.1896 170.341 94.1896 170.241H94.1875V155.887C94.3568 155.826 94.537 155.786 94.7248 155.775C94.7693 155.771 94.8171 155.77 94.8627 155.77C95.0993 155.77 95.3262 155.811 95.5379 155.887Z" fill="#FFE655"/>
    <path d="M95.5379 155.887V170.241H95.5357C95.5357 170.341 95.4695 170.44 95.3392 170.518C95.2773 170.553 95.2057 170.581 95.1308 170.599C95.057 170.581 94.9853 170.553 94.9235 170.518C94.791 170.441 94.727 170.341 94.727 170.241H94.7248V155.775C94.7693 155.771 94.8171 155.77 94.8627 155.77C95.0993 155.77 95.3262 155.811 95.5379 155.887Z" fill="#DDA747"/>
    <path d="M96.8894 157.803C96.8894 158.185 96.783 158.544 96.6017 158.848C96.3607 159.25 95.9851 159.56 95.5379 159.72C95.3273 159.796 95.1004 159.836 94.8638 159.836C94.8171 159.836 94.7704 159.836 94.7248 159.832C94.537 159.818 94.3579 159.78 94.1875 159.718C93.6632 159.534 93.2387 159.139 93.0151 158.636C92.9 158.383 92.836 158.099 92.836 157.803C92.836 156.965 93.3418 156.244 94.0659 155.936C94.1061 155.918 94.1451 155.9 94.1875 155.887C94.3579 155.827 94.537 155.786 94.7248 155.775C94.7693 155.771 94.8182 155.771 94.8638 155.771C94.9452 155.771 95.0277 155.775 95.1069 155.786C95.2567 155.804 95.4011 155.837 95.5379 155.887C96.3249 156.164 96.8894 156.918 96.8894 157.803Z" fill="#DDA747"/>
    <path d="M95.286 156.618C95.286 157.002 95.1797 157.359 94.9984 157.665C94.7574 158.067 94.384 158.377 93.9345 158.538C93.725 158.611 93.4971 158.653 93.2604 158.653C93.2137 158.653 93.1671 158.651 93.1215 158.647C93.0857 158.644 93.0509 158.642 93.0151 158.636C92.9 158.383 92.836 158.099 92.836 157.803C92.836 156.965 93.3418 156.244 94.0659 155.936C94.1061 155.918 94.1451 155.9 94.1875 155.887C94.3579 155.827 94.537 155.786 94.7248 155.775C94.7693 155.771 94.8182 155.771 94.8638 155.771C94.9452 155.771 95.0277 155.775 95.1069 155.786C95.222 156.039 95.286 156.321 95.286 156.618Z" fill="#FFE655"/>
    
</g>


<defs>
<linearGradient id="paint0_linear_34_11062" x1="169" y1="150.5" x2="29.5" y2="173" gradientUnits="userSpaceOnUse">
<stop stop-color="#3F54F5"/>
<stop offset="1" stop-color="#1A4693"/>
</linearGradient>
<clipPath id="clip0_34_11062">
<rect width="122" height="76" fill="white" transform="translate(34 138)"/>
</clipPath>
</defs>
</svg>
