<svg width="185" height="247" viewBox="0 0 185 247" fill="none" xmlns="http://www.w3.org/2000/svg">
<style>

.svg-arrow-3d-animation {
    transform-origin: 0% 100%;
    transform-box: fill-box;
    animation: arrow-3d-animation 20s cubic-bezier(.41,.68,.87,1.26) infinite;
}
@keyframes arrow-3d-animation {
    0% {
        transform: scale(0);
        opacity: 1
    }
    30% {
        transform: none;
        opacity: 1
    }
    90% {
        opacity: 1
    }
    100% {
        opacity: 0
    }
}

.svg-bar-3d-animation {
    transform-origin: 50% 50%;
    transform-box: fill-box;
    animation: bar-3d-animation 20s ease-in-out infinite;
}
@keyframes bar-3d-animation {
  5%{
    transform: none;
  }
  20%{
    transform: translateY(calc(37% - 7px)) skewY(-18deg) scaleY(0.4);
  }
  50%{
    transform: translateY(calc(37% - 7px)) skewY(-18deg) scaleY(0.4);
  }
  65%{
    transform: none;
  }
}

.svg-bar-2-3d-animation {
    transform-origin: 50% 50%;
    transform-box: fill-box;
    animation: bar-2-3d-animation 20s ease-in-out infinite;
}
@keyframes bar-2-3d-animation {
  5%{
    transform: none;
  }
  20%{
    transform: translateY(calc(37% - 5px)) skewY(-19deg) scaleY(0.4);
  }
  50%{
    transform: translateY(calc(37% - 5px)) skewY(-19deg) scaleY(0.4);
  }
  65%{
    transform: none;
  }
}

.svg-animation-delay-8 {
    animation-delay: 8s;
}
.svg-animation-delay-16 {
    animation-delay: 16s;
}
</style>
<g class='svg-arrow-3d-animation'>
    <path d="M141.404 52.251C105.478 127.77 22.0973 219.636 21.2979 220.233C29.1426 215.714 103.255 162.33 148.037 58.3139L141.417 52.2385L141.404 52.251Z" fill="url(#paint0_linear_2511_7451)"/>
    <path d="M21.2978 220.457C21.2228 220.457 21.1603 220.42 21.1104 220.358C21.0479 220.258 21.0729 220.134 21.1603 220.059C21.8349 219.486 105.266 127.696 141.204 52.1513C141.229 52.0891 141.292 52.0393 141.354 52.0269C141.417 52.0269 141.492 52.0269 141.541 52.0767L148.162 58.1521C148.224 58.2143 148.249 58.3139 148.212 58.401C124.74 112.905 93.2491 152.831 70.9517 176.734C45.8437 203.651 25.1576 218.241 21.3852 220.42C21.3477 220.445 21.3102 220.445 21.2728 220.445L21.2978 220.457ZM141.479 52.612C107.752 123.313 32.7275 208.045 22.5719 219.188C28.6303 215.216 47.8048 200.949 70.6519 176.448C92.8994 152.595 124.328 112.756 147.775 58.3886L141.479 52.612Z" fill="#33CAFF"/>
    <path d="M149.224 23.1064L153.946 24.0402L155.358 63.0199L150.286 61.999L142.029 48.541L149.224 23.1064Z" fill="url(#paint1_linear_2511_7451)"/>
    <path d="M155.358 63.2316L150.236 62.2107C150.174 62.2107 150.124 62.1609 150.099 62.1111L141.829 48.6531C141.829 48.6531 141.792 48.541 141.804 48.4788L148.999 23.0443C149.024 22.9322 149.137 22.87 149.249 22.8949L153.984 23.8286C154.084 23.8535 154.158 23.9282 154.158 24.0402L155.57 63.0075C155.57 63.0697 155.545 63.132 155.495 63.1818C155.458 63.2191 155.408 63.2316 155.358 63.2316ZM150.423 61.7998L155.133 62.746L153.734 24.227L149.374 23.3679L142.254 48.5161L150.423 61.8123V61.7998Z" fill="#33CAFF"/>
    <path d="M149.224 23.1064L122.055 46.5864L130.237 51.0309C86.3288 152.408 9.66811 212.44 8.86865 213.037L21.2978 220.233C22.0972 219.636 98.9203 159.467 142.803 57.9031L150.286 61.999L149.211 23.1189L149.224 23.1064Z" fill="url(#paint2_linear_2511_7451)"/>
    <path d="M21.298 220.457C21.298 220.457 21.223 220.457 21.1856 220.433L8.75647 213.237C8.69401 213.199 8.65653 213.137 8.64404 213.062C8.64404 212.988 8.66903 212.913 8.73148 212.876C8.91886 212.739 28.4307 197.488 53.2139 169.688C75.6987 144.478 107.252 103.444 129.95 51.1429L121.942 46.798C121.88 46.7607 121.843 46.6984 121.83 46.6362C121.83 46.5615 121.855 46.4992 121.905 46.4494L149.074 22.9695C149.137 22.9197 149.224 22.9072 149.311 22.9321C149.386 22.9695 149.436 23.0442 149.436 23.1313L150.511 62.0114C150.511 62.0861 150.473 62.1608 150.411 62.1982C150.348 62.2355 150.261 62.248 150.186 62.1982L142.916 58.2267C120.219 110.677 88.6025 151.81 66.0552 177.095C41.247 204.92 21.6103 220.296 21.4229 220.433C21.3854 220.457 21.3355 220.482 21.2855 220.482L21.298 220.457ZM9.26862 213.013L21.2855 219.972C22.9219 218.677 41.9465 203.476 65.743 176.784C88.2902 151.487 119.931 110.316 142.616 57.8159C142.641 57.7661 142.691 57.7163 142.741 57.6914C142.803 57.6665 142.866 57.679 142.916 57.7038L150.061 61.613L149.012 23.5671L122.43 46.549L130.337 50.8441C130.437 50.8939 130.474 51.0184 130.437 51.118C107.715 103.568 76.086 144.702 53.5512 169.962C30.2794 196.056 11.642 211.12 9.25613 213L9.26862 213.013Z" fill="#33CAFF"/>
</g>
<path d="M141.688 101.205L126.048 92.2159L141.688 83.2148L157.327 92.2159L141.688 101.205Z" fill="#4281EE"/>
<path d="M141.688 101.429C141.688 101.429 141.613 101.429 141.576 101.404L125.936 92.4026C125.874 92.3652 125.824 92.2905 125.824 92.2158C125.824 92.1411 125.861 92.0664 125.936 92.0291L141.576 83.028C141.638 82.9907 141.725 82.9907 141.788 83.028L157.427 92.0291C157.49 92.0664 157.54 92.1411 157.54 92.2158C157.54 92.2905 157.502 92.3652 157.427 92.4026L141.788 101.404C141.788 101.404 141.713 101.429 141.676 101.429H141.688ZM126.486 92.2158L141.688 100.955L156.89 92.2158L141.688 83.4762L126.486 92.2158Z" fill="#33CAFF"/>
<path d="M141.688 185.376L126.048 176.375V92.2158L141.688 101.204V185.376Z" fill="#2D3DBC"/>
<path d="M141.688 185.588C141.688 185.588 141.613 185.588 141.576 185.563L125.936 176.562C125.874 176.524 125.824 176.45 125.824 176.375V92.2157C125.824 92.141 125.861 92.0663 125.936 92.029C125.999 91.9916 126.086 91.9916 126.149 92.029L141.788 101.03C141.85 101.067 141.9 101.142 141.9 101.217V185.389C141.9 185.463 141.863 185.538 141.788 185.575C141.75 185.6 141.713 185.6 141.676 185.6L141.688 185.588ZM126.273 176.251L141.476 185.003V101.329L126.273 92.5892V176.251Z" fill="#33CAFF"/>
<path d="M157.327 176.375L141.688 185.376V101.204L157.327 92.2158V176.375Z" fill="url(#paint3_linear_2511_7451)"/>
<path d="M141.688 185.588C141.688 185.588 141.613 185.588 141.576 185.563C141.513 185.525 141.463 185.451 141.463 185.376V101.204C141.463 101.13 141.501 101.055 141.576 101.018L157.215 92.0165C157.278 91.9792 157.365 91.9792 157.428 92.0165C157.49 92.0539 157.54 92.1286 157.54 92.2033V176.375C157.54 176.45 157.503 176.524 157.428 176.562L141.788 185.563C141.788 185.563 141.713 185.588 141.676 185.588H141.688ZM141.901 101.329V184.99L157.103 176.238V92.5892L141.901 101.329Z" fill="#33CAFF"/>
<path d="M126.048 128.556L110.409 119.555L126.048 110.567L141.688 119.555L126.048 128.556Z" fill="#4281EE"/>
<path d="M126.048 128.78C126.048 128.78 125.973 128.78 125.936 128.755L110.297 119.754C110.234 119.717 110.184 119.642 110.184 119.568C110.184 119.493 110.222 119.418 110.297 119.381L125.936 110.38C125.998 110.342 126.086 110.342 126.148 110.38L141.788 119.381C141.85 119.418 141.9 119.493 141.9 119.568C141.9 119.642 141.863 119.717 141.788 119.754L126.148 128.755C126.148 128.755 126.073 128.78 126.036 128.78H126.048ZM110.846 119.568L126.048 128.307L141.251 119.568L126.048 110.828L110.846 119.568Z" fill="#33CAFF"/>
<path d="M126.048 194.377L110.409 185.376V119.555L126.048 128.556V194.377Z" fill="#2D3DBC"/>
<path d="M126.048 194.589C126.048 194.589 125.973 194.589 125.936 194.564L110.297 185.563C110.234 185.525 110.184 185.451 110.184 185.376V119.568C110.184 119.493 110.222 119.418 110.297 119.381C110.359 119.343 110.446 119.343 110.509 119.381L126.148 128.382C126.211 128.419 126.261 128.494 126.261 128.569V194.377C126.261 194.452 126.223 194.527 126.148 194.564C126.111 194.589 126.073 194.589 126.036 194.589H126.048ZM110.634 185.252L125.836 194.004V128.693L110.634 119.953V185.264V185.252Z" fill="#33CAFF"/>
<path d="M141.688 185.376L126.048 194.377V128.556L141.688 119.555V185.376Z" fill="url(#paint4_linear_2511_7451)"/>
<path d="M126.049 194.589C126.049 194.589 125.974 194.589 125.936 194.564C125.874 194.527 125.824 194.452 125.824 194.377V128.569C125.824 128.494 125.861 128.419 125.936 128.382L141.576 119.381C141.638 119.343 141.725 119.343 141.788 119.381C141.85 119.418 141.9 119.493 141.9 119.568V185.376C141.9 185.451 141.863 185.525 141.788 185.563L126.149 194.564C126.149 194.564 126.074 194.589 126.036 194.589H126.049ZM126.261 128.681V193.991L141.463 185.239V119.929L126.261 128.668V128.681Z" fill="#33CAFF"/>
<path d="M110.409 144.006L94.7695 135.005L110.409 126.017L126.048 135.005L110.409 144.006Z" fill="#4281EE"/>
<path d="M110.409 144.218C110.409 144.218 110.334 144.218 110.297 144.193L94.6573 135.192C94.5949 135.155 94.5449 135.08 94.5449 135.005C94.5449 134.93 94.5824 134.856 94.6573 134.818L110.297 125.817C110.359 125.78 110.447 125.78 110.509 125.817L126.149 134.818C126.211 134.856 126.261 134.93 126.261 135.005C126.261 135.08 126.224 135.155 126.149 135.192L110.509 144.193C110.509 144.193 110.434 144.218 110.397 144.218H110.409ZM95.207 135.005L110.409 143.745L125.611 135.005L110.409 126.266L95.207 135.005Z" fill="#33CAFF"/>
<path d="M110.409 203.366L94.7695 194.377V135.005L110.409 144.006V203.366Z" fill="#2D3DBC"/>
<path d="M110.409 203.59C110.409 203.59 110.334 203.59 110.297 203.565L94.6573 194.564C94.5949 194.527 94.5449 194.452 94.5449 194.377V135.017C94.5449 134.943 94.5824 134.868 94.6573 134.831C94.7198 134.793 94.8072 134.793 94.8697 134.831L110.509 143.832C110.572 143.869 110.622 143.944 110.622 144.019V203.378C110.622 203.453 110.584 203.528 110.509 203.565C110.472 203.59 110.434 203.59 110.397 203.59H110.409ZM94.9946 194.253L110.197 202.992V144.131L94.9946 135.391V194.253Z" fill="#33CAFF"/>
<path d="M126.049 194.377L110.409 203.366V144.006L126.049 135.005V194.377Z" fill="url(#paint5_linear_2511_7451)"/>
<path d="M110.409 203.59C110.409 203.59 110.334 203.59 110.297 203.565C110.235 203.528 110.185 203.453 110.185 203.378V144.019C110.185 143.944 110.222 143.869 110.297 143.832L125.936 134.831C125.999 134.793 126.086 134.793 126.149 134.831C126.211 134.868 126.261 134.943 126.261 135.017V194.377C126.261 194.452 126.224 194.527 126.149 194.564L110.509 203.565C110.509 203.565 110.434 203.59 110.397 203.59H110.409ZM110.622 144.131V202.992L125.824 194.253V135.391L110.622 144.131Z" fill="#33CAFF"/>
<path d="M94.7695 180.471L79.1426 171.47L94.7695 162.481L110.409 171.47L94.7695 180.471Z" fill="#4281EE"/>
<path d="M94.7696 180.683C94.7696 180.683 94.6946 180.683 94.6571 180.658L79.0177 171.657C78.9552 171.619 78.9053 171.545 78.9053 171.47C78.9053 171.395 78.9428 171.321 79.0177 171.283L94.6571 162.282C94.7196 162.245 94.807 162.245 94.8695 162.282L110.509 171.283C110.571 171.321 110.621 171.395 110.621 171.47C110.621 171.545 110.584 171.619 110.509 171.657L94.8695 180.658C94.8695 180.658 94.7945 180.683 94.7571 180.683H94.7696ZM79.5673 171.47L94.7696 180.21L109.972 171.47L94.7696 162.718L79.5673 171.47Z" fill="#33CAFF"/>
<path d="M94.7695 212.367L89.7229 209.454L79.1426 203.366V171.47L94.7695 180.471V212.367Z" fill="url(#paint6_linear_2511_7451)"/>
<path d="M94.7696 212.591C94.7696 212.591 94.6946 212.591 94.6571 212.566L79.0177 203.565C78.9552 203.528 78.9053 203.453 78.9053 203.378V171.482C78.9053 171.408 78.9428 171.333 79.0177 171.296C79.0802 171.258 79.1676 171.258 79.2301 171.296L94.8695 180.297C94.932 180.334 94.9819 180.409 94.9819 180.483V212.379C94.9819 212.454 94.9444 212.529 94.8695 212.566C94.832 212.591 94.7945 212.591 94.7571 212.591H94.7696ZM79.355 203.254L94.5572 212.006V180.608L79.355 171.868V203.266V203.254Z" fill="#33CAFF"/>
<path d="M110.409 203.366L94.7695 212.367V180.471L110.409 171.47V203.366Z" fill="url(#paint7_linear_2511_7451)"/>
<path d="M94.7698 212.591C94.7698 212.591 94.6948 212.591 94.6573 212.566C94.5949 212.529 94.5449 212.454 94.5449 212.379V180.483C94.5449 180.409 94.5824 180.334 94.6573 180.297L110.297 171.296C110.359 171.258 110.447 171.258 110.509 171.296C110.572 171.333 110.622 171.408 110.622 171.482V203.378C110.622 203.453 110.584 203.528 110.509 203.565L94.8697 212.566C94.8697 212.566 94.7948 212.591 94.7573 212.591H94.7698ZM94.9821 180.608V212.006L110.184 203.254V171.856L94.9821 180.595V180.608Z" fill="#33CAFF"/>
<path d="M79.1424 176.251L63.5029 167.262L79.1424 158.261L94.7693 167.262L79.1424 176.251Z" fill="#4281EE"/>
<path d="M79.1426 176.475C79.1426 176.475 79.0677 176.475 79.0302 176.45L63.3907 167.449C63.3283 167.411 63.2783 167.337 63.2783 167.262C63.2783 167.187 63.3158 167.113 63.3907 167.075L79.0302 158.074C79.0926 158.037 79.1801 158.037 79.2425 158.074L94.882 167.075C94.9444 167.113 94.9944 167.187 94.9944 167.262C94.9944 167.337 94.9569 167.411 94.882 167.449L79.2425 176.45C79.2425 176.45 79.1676 176.475 79.1301 176.475H79.1426ZM63.9404 167.262L79.1426 176.014L94.3448 167.262L79.1426 158.522L63.9404 167.262Z" fill="#33CAFF"/>
<path d="M79.1424 221.368L63.5029 212.367V167.262L79.1424 176.251V221.368Z" fill="#2D3DBC"/>
<path d="M79.1426 221.579C79.1426 221.579 79.0677 221.579 79.0302 221.555L63.3907 212.554C63.3283 212.516 63.2783 212.441 63.2783 212.367V167.262C63.2783 167.187 63.3158 167.112 63.3907 167.075C63.4532 167.038 63.5406 167.038 63.6031 167.075L79.2425 176.076C79.305 176.114 79.355 176.188 79.355 176.263V221.368C79.355 221.443 79.3175 221.517 79.2425 221.555C79.2051 221.579 79.1676 221.579 79.1301 221.579H79.1426ZM63.728 212.242L78.9302 220.994V176.387L63.728 167.635V212.242Z" fill="#33CAFF"/>
<path d="M94.7695 212.367L79.1426 221.368V176.251L94.7695 167.262V212.367Z" fill="url(#paint8_linear_2511_7451)"/>
<path d="M79.1428 221.579C79.1428 221.579 79.0679 221.579 79.0304 221.555C78.9679 221.517 78.918 221.443 78.918 221.368V176.263C78.918 176.188 78.9554 176.114 79.0304 176.076L94.6698 167.075C94.7323 167.038 94.8197 167.038 94.8822 167.075C94.9446 167.112 94.9946 167.187 94.9946 167.262V212.367C94.9946 212.441 94.9571 212.516 94.8822 212.554L79.2428 221.555C79.2428 221.555 79.1678 221.579 79.1303 221.579H79.1428ZM79.3552 176.375V220.982L94.5574 212.23V167.623L79.3552 176.375Z" fill="#33CAFF"/>
<path d="M63.5032 207.25L47.8638 198.262L63.5032 189.26L79.1426 198.262L63.5032 207.25Z" fill="#4281EE"/>
<path d="M63.5034 207.474C63.5034 207.474 63.4285 207.474 63.391 207.449L47.7516 198.448C47.6891 198.411 47.6392 198.336 47.6392 198.261C47.6392 198.187 47.6766 198.112 47.7516 198.075L63.391 189.074C63.4535 189.036 63.5409 189.036 63.6034 189.074L79.2428 198.075C79.3053 198.112 79.3552 198.187 79.3552 198.261C79.3552 198.336 79.3178 198.411 79.2428 198.448L63.6034 207.449C63.6034 207.449 63.5284 207.474 63.4909 207.474H63.5034ZM48.3012 198.261L63.5034 207.014L78.7057 198.261L63.5034 189.522L48.3012 198.261Z" fill="#33CAFF"/>
<path d="M63.5032 230.357L47.8638 221.368V198.261L63.5032 207.25V230.357Z" fill="#2D3DBC"/>
<path d="M63.5034 230.581C63.5034 230.581 63.4285 230.581 63.391 230.556L47.7516 221.555C47.6891 221.517 47.6392 221.443 47.6392 221.368V198.261C47.6392 198.187 47.6766 198.112 47.7516 198.075C47.814 198.037 47.9015 198.037 47.9639 198.075L63.6034 207.076C63.6658 207.113 63.7158 207.188 63.7158 207.262V230.369C63.7158 230.444 63.6783 230.518 63.6034 230.556C63.5659 230.581 63.5284 230.581 63.4909 230.581H63.5034ZM48.0889 221.243L63.2911 229.983V207.374L48.0889 198.622V221.231V221.243Z" fill="#33CAFF"/>
<path d="M79.1428 221.368L63.5034 230.357V207.25L79.1428 198.261V221.368Z" fill="url(#paint9_linear_2511_7451)"/>
<path d="M63.5037 230.581C63.5037 230.581 63.4287 230.581 63.3912 230.556C63.3288 230.518 63.2788 230.444 63.2788 230.369V207.262C63.2788 207.188 63.3163 207.113 63.3912 207.076L79.0307 198.075C79.0931 198.037 79.1806 198.037 79.243 198.075C79.3055 198.112 79.3554 198.187 79.3554 198.261V221.368C79.3554 221.443 79.318 221.517 79.243 221.555L63.6036 230.556C63.6036 230.556 63.5286 230.581 63.4912 230.581H63.5037ZM63.716 207.387V229.995L78.9182 221.256V198.647L63.716 207.399V207.387Z" fill="#33CAFF"/>
<path d="M47.8635 235.063L32.2241 226.062L47.8635 217.073L63.503 226.062L47.8635 235.063Z" fill="#4281EE"/>
<path d="M47.8638 235.274C47.8638 235.274 47.7888 235.274 47.7514 235.249L32.1119 226.248C32.0495 226.211 31.9995 226.136 31.9995 226.062C31.9995 225.987 32.037 225.912 32.1119 225.875L47.7514 216.874C47.8138 216.836 47.9013 216.836 47.9637 216.874L63.6032 225.875C63.6656 225.912 63.7156 225.987 63.7156 226.062C63.7156 226.136 63.6781 226.211 63.6032 226.248L47.9637 235.249C47.9637 235.249 47.8888 235.274 47.8513 235.274H47.8638ZM32.6616 226.062L47.8638 234.801L63.066 226.062L47.8638 217.309L32.6616 226.062Z" fill="#33CAFF"/>
<path d="M47.8635 239.358L32.2241 230.357V226.062L47.8635 235.063V239.358Z" fill="#2D3DBC"/>
<path d="M47.8638 239.582C47.8638 239.582 47.7888 239.582 47.7514 239.557L32.1119 230.556C32.0495 230.518 31.9995 230.444 31.9995 230.369V226.074C31.9995 225.999 32.037 225.924 32.1119 225.887C32.1744 225.85 32.2618 225.85 32.3243 225.887L47.9637 234.888C48.0262 234.926 48.0761 235 48.0761 235.075V239.37C48.0761 239.445 48.0387 239.519 47.9637 239.557C47.9262 239.582 47.8888 239.582 47.8513 239.582H47.8638ZM32.4492 230.245L47.6514 238.997V235.199L32.4492 226.46V230.257V230.245Z" fill="#33CAFF"/>
<path d="M63.5032 230.357L47.8638 239.358V235.063L63.5032 226.062V230.357Z" fill="url(#paint10_linear_2511_7451)"/>
<path d="M47.864 239.582C47.864 239.582 47.7891 239.582 47.7516 239.557C47.6891 239.519 47.6392 239.445 47.6392 239.37V235.075C47.6392 235 47.6766 234.926 47.7516 234.888L63.391 225.887C63.4535 225.85 63.5409 225.85 63.6034 225.887C63.6658 225.924 63.7158 225.999 63.7158 226.074V230.369C63.7158 230.444 63.6783 230.518 63.6034 230.556L47.9639 239.557C47.9639 239.557 47.889 239.582 47.8515 239.582H47.864ZM48.0764 235.187V238.984L63.2786 230.232V226.435L48.0764 235.175V235.187Z" fill="url(#paint11_linear_2511_7451)"/>
<g opacity="0.5">
    <g class='svg-bar-3d-animation svg-animation-delay-16'>
        <path d="M166.409 128.71L179.438 121.215V189.949L166.409 197.444V128.71Z" fill="url(#paint12_linear_2511_7451)"/>
        <path d="M166.409 197.655C166.409 197.655 166.334 197.655 166.297 197.63C166.234 197.593 166.184 197.518 166.184 197.444V128.709C166.184 128.635 166.222 128.56 166.297 128.523L179.325 121.028C179.388 120.991 179.475 120.991 179.538 121.028C179.6 121.065 179.65 121.14 179.65 121.215V189.949C179.65 190.024 179.613 190.098 179.538 190.136L166.509 197.63C166.509 197.63 166.434 197.655 166.396 197.655H166.409ZM166.621 128.834V197.058L179.213 189.812V121.588L166.621 128.834Z" fill="#33CAFF"/>
    </g>
    <g class='svg-bar-3d-animation svg-animation-delay-8'>
        <path d="M150.782 154.518L163.798 147.01V198.938L150.782 206.432V154.518Z" fill="url(#paint13_linear_2511_7451)"/>
        <path d="M150.782 206.656C150.782 206.656 150.707 206.656 150.67 206.632C150.607 206.594 150.557 206.519 150.557 206.445V154.518C150.557 154.443 150.595 154.368 150.67 154.331L163.698 146.836C163.761 146.799 163.848 146.799 163.911 146.836C163.973 146.873 164.023 146.948 164.023 147.023V198.95C164.023 199.025 163.986 199.1 163.911 199.137L150.882 206.632C150.882 206.632 150.807 206.656 150.769 206.656H150.782ZM150.994 154.642V206.059L163.586 198.813V147.384L150.994 154.63V154.642Z" fill="#33CAFF"/>
    </g>
    <g class='svg-bar-3d-animation'>
        <path d="M135.143 174.287L148.171 166.793V207.939L135.143 215.433V174.287Z" fill="url(#paint14_linear_2511_7451)"/>
        <path d="M135.143 215.657C135.143 215.657 135.068 215.657 135.03 215.632C134.968 215.595 134.918 215.52 134.918 215.446V174.3C134.918 174.225 134.955 174.15 135.03 174.113L148.059 166.618C148.122 166.581 148.209 166.581 148.271 166.618C148.334 166.656 148.384 166.73 148.384 166.805V207.951C148.384 208.026 148.346 208.1 148.271 208.138L135.243 215.632C135.243 215.632 135.168 215.657 135.13 215.657H135.143ZM135.355 174.412V215.06L147.947 207.814V167.166L135.355 174.412Z" fill="#33CAFF"/>
    </g>
    <g class='svg-bar-2-3d-animation svg-animation-delay-16'>
        <path d="M119.503 202.449L132.532 194.941V216.94L119.503 224.434V202.449Z" fill="url(#paint15_linear_2511_7451)"/>
        <path d="M119.503 224.646C119.503 224.646 119.428 224.646 119.391 224.621C119.328 224.584 119.278 224.509 119.278 224.434V202.448C119.278 202.374 119.316 202.299 119.391 202.262L132.419 194.767C132.482 194.73 132.569 194.73 132.632 194.767C132.694 194.804 132.744 194.879 132.744 194.954V216.94C132.744 217.014 132.707 217.089 132.632 217.126L119.603 224.621C119.603 224.621 119.528 224.646 119.491 224.646H119.503ZM119.716 202.56V224.048L132.307 216.803V195.315L119.716 202.56Z" fill="#33CAFF"/>
    </g>
    <g class='svg-bar-2-3d-animation svg-animation-delay-8'>
        <path d="M103.864 205.573L116.892 198.066V225.928L103.864 233.423V205.573Z" fill="url(#paint16_linear_2511_7451)"/>
        <path d="M103.864 233.647C103.864 233.647 103.789 233.647 103.752 233.622C103.689 233.585 103.639 233.51 103.639 233.435V205.573C103.639 205.498 103.677 205.424 103.752 205.386L116.78 197.892C116.843 197.854 116.93 197.854 116.993 197.892C117.055 197.929 117.105 198.004 117.105 198.079V225.941C117.105 226.015 117.068 226.09 116.993 226.127L103.964 233.622C103.964 233.622 103.889 233.647 103.852 233.647H103.864ZM104.076 205.698V233.049L116.668 225.804V198.44L104.076 205.685V205.698Z" fill="#33CAFF"/>
    </g>
    <g class='svg-bar-2-3d-animation'>
        <path d="M88.2241 229.228L101.253 221.733V234.929L88.2241 242.424V229.228Z" fill="url(#paint17_linear_2511_7451)"/>
        <path d="M88.2244 242.648C88.2244 242.648 88.1494 242.648 88.1119 242.623C88.0495 242.586 87.9995 242.511 87.9995 242.437V229.24C87.9995 229.165 88.037 229.091 88.1119 229.053L101.141 221.559C101.203 221.521 101.291 221.521 101.353 221.559C101.415 221.596 101.465 221.671 101.465 221.745V234.942C101.465 235.017 101.428 235.091 101.353 235.129L88.3243 242.623C88.3243 242.623 88.2493 242.648 88.2119 242.648H88.2244ZM88.4367 229.352V242.051L101.028 234.805V222.106L88.4367 229.352Z" fill="#33CAFF"/>
    </g>
</g>
<defs>
<linearGradient id="paint0_linear_2511_7451" x1="137.907" y1="50.2341" x2="35.4202" y2="228.363" gradientUnits="userSpaceOnUse">
<stop stop-color="#3F54F5"/>
<stop offset="1" stop-color="#4281EE"/>
</linearGradient>
<linearGradient id="paint1_linear_2511_7451" x1="160.967" y1="28.0863" x2="143.653" y2="58.1776" gradientUnits="userSpaceOnUse">
<stop stop-color="#4281EE"/>
<stop offset="1" stop-color="#3F54F5"/>
</linearGradient>
<linearGradient id="paint2_linear_2511_7451" x1="146.701" y1="21.6623" x2="29.6602" y2="225.056" gradientUnits="userSpaceOnUse">
<stop stop-color="#4281EE"/>
<stop offset="0.32" stop-color="#39A1FF"/>
<stop offset="0.48" stop-color="#25AFF4"/>
<stop offset="0.67" stop-color="#39A1FF"/>
<stop offset="1" stop-color="#3F54F5"/>
</linearGradient>
<linearGradient id="paint3_linear_2511_7451" x1="149.508" y1="92.2158" x2="149.508" y2="185.376" gradientUnits="userSpaceOnUse">
<stop stop-color="#3F54F5"/>
<stop offset="1" stop-color="#4281EE"/>
</linearGradient>
<linearGradient id="paint4_linear_2511_7451" x1="133.868" y1="119.555" x2="133.868" y2="194.377" gradientUnits="userSpaceOnUse">
<stop stop-color="#3F54F5"/>
<stop offset="1" stop-color="#4281EE"/>
</linearGradient>
<linearGradient id="paint5_linear_2511_7451" x1="118.229" y1="135.005" x2="118.229" y2="203.366" gradientUnits="userSpaceOnUse">
<stop stop-color="#3F54F5"/>
<stop offset="1" stop-color="#4281EE"/>
</linearGradient>
<linearGradient id="paint6_linear_2511_7451" x1="93.8826" y1="179.961" x2="80.0993" y2="203.916" gradientUnits="userSpaceOnUse">
<stop stop-color="#521896"/>
<stop offset="0.04" stop-color="#4C168B"/>
<stop offset="0.17" stop-color="#3D1271"/>
<stop offset="0.32" stop-color="#320E5D"/>
<stop offset="0.48" stop-color="#2A0C4E"/>
<stop offset="0.67" stop-color="#260B46"/>
<stop offset="1" stop-color="#250B44"/>
</linearGradient>
<linearGradient id="paint7_linear_2511_7451" x1="102.589" y1="171.47" x2="102.589" y2="212.367" gradientUnits="userSpaceOnUse">
<stop stop-color="#3F54F5"/>
<stop offset="1" stop-color="#4281EE"/>
</linearGradient>
<linearGradient id="paint8_linear_2511_7451" x1="86.956" y1="167.262" x2="86.956" y2="221.368" gradientUnits="userSpaceOnUse">
<stop stop-color="#3F54F5"/>
<stop offset="1" stop-color="#4281EE"/>
</linearGradient>
<linearGradient id="paint9_linear_2511_7451" x1="71.3231" y1="198.261" x2="71.3231" y2="230.357" gradientUnits="userSpaceOnUse">
<stop stop-color="#3F54F5"/>
<stop offset="1" stop-color="#4281EE"/>
</linearGradient>
<linearGradient id="paint10_linear_2511_7451" x1="55.6835" y1="226.062" x2="55.6835" y2="239.358" gradientUnits="userSpaceOnUse">
<stop stop-color="#3F54F5"/>
<stop offset="1" stop-color="#4281EE"/>
</linearGradient>
<linearGradient id="paint11_linear_2511_7451" x1="55.6775" y1="225.859" x2="55.6775" y2="239.582" gradientUnits="userSpaceOnUse">
<stop stop-color="#3F54F5"/>
<stop offset="1" stop-color="#4281EE"/>
</linearGradient>
<linearGradient id="paint12_linear_2511_7451" x1="191.117" y1="127.925" x2="154.925" y2="190.826" gradientUnits="userSpaceOnUse">
<stop stop-color="#39A1FF"/>
<stop offset="1" stop-color="#3F54F5"/>
</linearGradient>
<linearGradient id="paint13_linear_2511_7451" x1="175.466" y1="152.241" x2="151.08" y2="206.559" gradientUnits="userSpaceOnUse">
<stop stop-color="#39A1FF"/>
<stop offset="1" stop-color="#3F54F5"/>
</linearGradient>
<linearGradient id="paint14_linear_2511_7451" x1="159.851" y1="171.074" x2="142.566" y2="218.153" gradientUnits="userSpaceOnUse">
<stop stop-color="#39A1FF"/>
<stop offset="1" stop-color="#3F54F5"/>
</linearGradient>
<linearGradient id="paint15_linear_2511_7451" x1="144.211" y1="197.538" x2="137.34" y2="228.402" gradientUnits="userSpaceOnUse">
<stop stop-color="#39A1FF"/>
<stop offset="1" stop-color="#3F54F5"/>
</linearGradient>
<linearGradient id="paint16_linear_2511_7451" x1="128.572" y1="201.179" x2="118.897" y2="237.431" gradientUnits="userSpaceOnUse">
<stop stop-color="#39A1FF"/>
<stop offset="1" stop-color="#3F54F5"/>
</linearGradient>
<linearGradient id="paint17_linear_2511_7451" x1="112.932" y1="223.554" x2="109.468" y2="245.739" gradientUnits="userSpaceOnUse">
<stop stop-color="#39A1FF"/>
<stop offset="1" stop-color="#3F54F5"/>
</linearGradient>
</defs>
</svg>
