<svg width="203" height="73" viewBox="0 0 203 73" fill="none" xmlns="http://www.w3.org/2000/svg">
<path d="M86.478 59.6167C85.666 59.4815 84.854 59.3463 84.042 59.2111C77.2754 57.5889 73.08 53.1278 71.5914 46.5037C70.3734 41.0963 71.1854 35.9593 74.704 31.4982C77.546 27.8482 81.4707 25.9556 86.072 25.4148C90.538 24.8741 94.598 25.9556 98.1167 28.7944C98.252 28.9296 98.3874 28.9296 98.5227 29.0648C98.5227 24.7389 98.5227 20.5482 98.5227 16.2222C100.959 16.2222 103.259 16.2222 105.695 16.2222C105.695 16.4926 105.695 16.763 105.695 17.1685C105.695 30.8222 105.695 58.9407 105.695 58.9407H98.5227C98.5227 58.9407 98.5227 56.7778 98.5227 55.5611C98.252 55.6963 98.1167 55.8315 97.9814 55.8315C95.41 57.9944 92.568 59.2111 89.1847 59.6167C88.914 59.6167 88.7787 59.7519 88.508 59.7519C87.696 59.6167 87.0194 59.6167 86.478 59.6167ZM78.4934 42.313C78.6287 43.1241 78.6287 43.9352 78.764 44.6111C79.4407 48.5315 82.2827 51.6407 86.072 52.4519C90.2674 53.3982 94.4627 51.7759 96.628 48.3963C98.1167 46.0982 98.5227 43.3944 98.252 40.6907C97.7107 36.9056 95.9514 34.0667 92.2974 32.7148C88.6434 31.363 84.9894 31.7685 82.012 34.337C79.4407 36.3648 78.6287 39.2037 78.4934 42.313Z" fill="#001140"/>
<path d="M186.218 59.6167C184.865 59.3463 183.647 59.2111 182.294 58.9408C175.392 57.3185 170.52 51.9111 169.708 44.8815C169.031 39.0685 170.384 33.9315 174.58 29.876C177.422 27.1722 180.805 25.8204 184.594 25.4148C187.707 25.0093 190.82 25.2797 193.662 26.6315C198.534 28.7945 201.24 32.7148 202.458 37.8519C202.594 38.663 202.864 39.6093 203 40.4204V40.5556H202.864C196.098 42.0426 189.331 43.6648 182.564 45.1519C180.94 45.5574 179.452 45.8278 177.828 46.2334C178.369 49.3426 181.482 52.0463 185.271 52.5871C187.166 52.8574 189.196 52.7223 190.955 51.9111C193.256 50.8297 194.744 49.0723 195.286 46.5037C197.857 47.1797 200.158 47.7204 202.594 48.2611C202.594 48.5315 202.458 48.8019 202.458 48.9371C200.834 54.3445 197.045 57.4537 191.767 58.8056C190.549 59.076 189.196 59.2111 187.842 59.4815C187.301 59.6167 186.76 59.6167 186.218 59.6167ZM193.391 35.5537C192.714 34.2019 191.767 33.2556 190.414 32.7148C188.925 32.0389 187.436 31.9037 185.812 32.0389C182.158 32.3093 178.775 34.8778 177.828 38.3926C177.828 38.5278 177.828 38.7982 177.692 39.0686C182.97 37.8519 188.113 36.7704 193.391 35.5537Z" fill="#001140"/>
<path d="M126.672 59.6167C125.589 59.4815 124.642 59.3463 123.695 59.0759C116.251 57.5889 110.973 51.6408 110.432 44.0704C110.026 38.5278 111.515 33.6611 115.575 29.7408C118.281 27.1722 121.665 25.8204 125.454 25.4148C129.108 25.0093 132.627 25.4148 135.875 27.3074C140.07 29.7408 142.371 33.5259 143.318 38.1222C143.453 38.5278 143.453 38.9334 143.453 39.3389C143.589 40.5556 143.589 40.5556 142.506 40.6908C134.792 42.4482 127.078 44.2056 119.364 45.963C119.093 45.963 118.823 46.0982 118.417 46.2334C119.364 48.9371 120.988 50.9648 123.695 52.0463C126.131 52.9926 128.702 53.1278 131.138 52.3167C133.439 51.5056 135.063 49.8834 135.875 47.5852C136.01 47.3148 136.01 47.0445 136.145 46.7741C138.581 47.3148 141.017 47.9908 143.453 48.5315C142.506 52.4519 140.341 55.426 136.957 57.3185C134.657 58.6704 132.221 59.3463 129.514 59.6167C129.243 59.6167 128.973 59.7519 128.702 59.7519C128.161 59.6167 127.349 59.6167 126.672 59.6167ZM118.417 39.0685C123.695 37.8519 128.837 36.6352 134.115 35.5537C133.709 34.6074 133.033 33.9315 132.221 33.3908C130.461 32.1741 128.567 31.9037 126.537 32.1741C122.747 32.4445 119.635 34.8778 118.552 38.3926C118.552 38.5278 118.417 38.7982 118.417 39.0685Z" fill="#001140"/>
<path d="M48.1789 59.6167C46.9609 59.4815 45.8782 59.3463 44.6602 59.0759C37.6229 57.4537 33.0216 52.3167 31.9389 45.1519C31.2622 39.8796 32.2096 35.013 35.8636 30.9574C38.7056 27.713 42.4949 25.9556 46.8256 25.55C51.0209 25.0093 54.9456 25.6852 58.5996 27.8481C63.2009 30.5519 65.7722 34.7426 66.4489 39.8796C67.1256 45.1519 66.0429 49.8833 62.3889 53.9389C59.4116 57.3185 55.6222 59.0759 51.1562 59.4815C50.8856 59.4815 50.4796 59.6167 50.2089 59.6167C49.6676 59.6167 48.9909 59.6167 48.1789 59.6167ZM49.3969 52.7222C50.7502 52.7222 52.2389 52.4519 53.7276 51.7759C56.9756 50.1537 58.5996 47.45 59.1409 43.9352C59.9529 37.987 56.4342 32.4444 50.2089 32.0389C46.4196 31.7685 42.6302 33.6611 40.8709 36.9056C39.7882 38.9333 39.5176 40.9611 39.6529 43.2593C39.6529 48.6667 43.8482 52.7222 49.3969 52.7222Z" fill="#001140"/>
<path d="M0 41.3667C0.135333 40.4204 0.270667 39.3389 0.406 38.3926C2.03 30.8222 7.17267 26.0907 15.022 25.2796C20.706 24.7389 25.7133 26.2259 29.7733 30.4167C29.9087 30.5519 30.044 30.8222 30.3147 31.0926C28.42 32.7148 26.5253 34.337 24.6307 36.0944C24.36 35.8241 24.0893 35.4185 23.8187 35.1481C21.3827 32.1741 18.1347 31.363 14.616 32.1741C11.0973 32.9852 8.932 35.2833 8.12 38.663C7.17267 42.4481 7.57867 46.0982 10.0147 49.3426C13.2627 53.6685 21.112 53.9389 24.2247 49.0722C24.36 48.8019 24.4953 48.6667 24.766 48.3963C26.5253 50.1537 28.2847 51.7759 30.1793 53.3982C27.608 56.6426 24.36 58.5352 20.4353 59.2111C19.6233 59.3463 18.9467 59.4815 18.1347 59.6167C17.458 59.6167 16.7813 59.6167 16.1047 59.6167C15.428 59.4815 14.616 59.3463 13.9393 59.3463C7.17267 58.4 1.89467 53.263 0.541333 46.6389C0.270667 45.4222 0.135333 44.3407 0 43.2593C0 42.7185 0 42.0426 0 41.3667Z" fill="#001140"/>
<path d="M149.002 26.0907C149.138 26.0907 149.273 26.0907 149.544 26.0907C151.574 26.0907 153.604 26.0907 155.769 26.0907C155.769 27.037 155.904 27.9833 155.904 29.0648C156.31 28.7944 156.581 28.5241 156.852 28.2537C159.829 25.9555 163.077 25.0092 166.866 25.4148C168.49 25.6852 168.49 25.6852 168.49 27.3074C168.355 29.0648 168.22 30.8222 168.22 32.5796C168.22 32.7148 168.22 32.85 168.084 33.1204C167.678 32.9852 167.408 32.9852 167.137 32.85C165.513 32.3092 163.889 32.3092 162.265 32.7148C159.288 33.3907 157.664 35.4185 156.987 38.2574C156.716 39.4741 156.446 40.8259 156.446 42.1778C156.446 47.45 156.446 52.587 156.446 57.8592C156.446 58.1296 156.446 58.5352 156.446 58.8055C154.01 58.8055 151.709 58.8055 149.138 58.8055C149.002 47.8555 149.002 36.9055 149.002 26.0907Z" fill="#001140"/>
</svg>
