<svg width="341" height="55" viewBox="0 0 341 55" fill="none" xmlns="http://www.w3.org/2000/svg">
<g clip-path="url(#clip0_4355_2092)">
<path fill-rule="evenodd" clip-rule="evenodd" d="M48.9807 41.305C49.1077 41.0793 49.2308 40.8422 49.2876 40.5691C48.9807 41.0888 48.653 41.5933 48.312 42.0864C48.6151 41.8929 48.8084 41.6008 48.9807 41.305Z" fill="#001140"/>
<path fill-rule="evenodd" clip-rule="evenodd" d="M27.2533 10.0934C27.4276 10.5562 27.797 10.8369 28.2385 10.689C28.5131 10.5619 28.7121 9.6193 28.9849 9.2381C29.1042 9.0693 29.1743 8.86068 29.2406 8.65965C30.006 6.26431 30.8679 3.60534 31.2279 1.17586C31.2449 1.07155 31.2563 0.965339 31.2639 0.861029C31.2752 0.718788 31.2752 0.578443 31.2449 0.45896C31.137 0.0360292 30.7296 -0.026557 30.3659 0.00758088C29.7862 0.0587878 29.1857 0.231374 28.5965 0.51396C28.5643 0.531029 28.5283 0.544305 28.4923 0.561374C28.1248 0.747236 27.7402 0.993788 27.4674 1.41862C27.0355 2.0881 27.0203 2.95482 27.0336 3.71724C27.0582 5.00879 27.0317 7.18603 27.0582 8.47948C27.0696 9.04844 27.0809 9.63258 27.2533 10.0934ZM5.81581 13.0843C7.36167 14.4081 9.15003 15.4133 10.9232 16.409C11.215 16.5778 12.3005 17.361 12.6225 17.4198C12.9427 17.4805 13.6493 17.2529 13.6626 16.7978L13.6721 16.7864C13.7005 16.4564 13.5963 16.1055 13.458 15.7755C13.1644 15.0738 11.9368 13.8031 11.4935 13.1526C10.7565 12.0696 10.012 10.9791 9.1254 9.98724C8.88102 9.71224 8.58738 9.42586 8.23501 9.36137C7.91106 9.30258 7.625 9.45241 7.36736 9.59844C6.52433 10.0878 5.67941 10.6662 5.33841 11.5652C5.21906 11.8743 5.17359 12.2441 5.34977 12.5703C5.45965 12.7676 5.63584 12.9307 5.81391 13.0824M10.336 31.7122C8.98711 31.5643 7.5568 31.5169 6.00336 31.7122C5.26452 31.8033 4.33246 32.0384 3.71487 32.6947C3.47806 32.9507 3.3284 33.2295 3.21284 33.495C2.91731 34.1834 2.78659 34.8415 2.83774 35.4143C2.887 35.9567 3.22421 36.4574 3.97441 36.2564C4.16006 36.2071 4.3514 36.1179 4.53895 36.0288C6.66073 35.0369 8.72189 33.7397 10.7319 32.3305C10.9876 32.0081 10.8626 31.7729 10.336 31.7122ZM24.6068 41.0679C24.4363 41.1495 24.2847 41.415 24.1635 41.6521C23.2636 43.3817 22.4111 45.1531 21.695 46.9681C21.1589 48.3279 20.6853 49.8755 20.9467 50.8997C21.1362 51.6317 21.6818 51.9371 22.2918 51.9086C22.9056 51.8802 23.5857 51.5559 24.2563 51.1936C24.8285 50.8883 25.5919 50.234 25.7586 49.4033C25.7302 46.5831 25.7245 43.634 25.0008 41.415C24.9326 41.1969 24.8171 40.9674 24.6068 41.0679ZM47.0313 37.6181C46.1163 37.1003 45.1824 36.7779 44.2541 36.3531C43.394 35.9605 40.5826 34.8984 39.8969 34.9667C39.7832 34.9933 39.7965 35.1336 39.9347 35.2796L39.931 35.2815C41.6549 37.3867 43 38.9912 45.1104 40.9333C45.6048 41.3903 46.1504 41.8645 46.7396 42.1148C47.3363 42.3614 47.8725 42.3291 48.2324 42.1433C48.2627 42.1243 48.2836 42.1053 48.312 42.0864C48.6549 41.5933 48.9807 41.0907 49.2876 40.5691C49.3426 40.3131 49.3312 40.0248 49.1948 39.6967C48.8784 38.9229 47.9482 38.1378 47.0313 37.6181Z" fill="#001140"/>
<path fill-rule="evenodd" clip-rule="evenodd" d="M41.3537 20.2419C41.2988 20.1129 41.3632 20.2798 41.3537 20.2419V20.2419Z" fill="#001140"/>
<path fill-rule="evenodd" clip-rule="evenodd" d="M41.3538 20.2419C41.4295 20.4828 41.6569 20.68 41.9126 20.6572C43.4566 20.5093 46.4366 18.9731 47.9673 18.4629C48.7989 18.1917 49.7253 17.71 50.0606 16.8471C50.2122 16.4526 50.2122 16.0391 50.1629 15.6522C50.0853 15.0738 49.8958 14.5333 49.6079 14.0686C49.4828 13.8619 49.318 13.6552 49.0736 13.6248C48.8633 13.5983 48.6341 13.7064 48.4219 13.8126C46.1656 14.9581 41.2193 19.7659 41.3538 20.2419Z" fill="#001140"/>
<path fill-rule="evenodd" clip-rule="evenodd" d="M36.5173 18.939C38.2848 18.023 40.6888 16.5171 40.8366 16.5152C42.0415 15.5631 43.2691 14.6452 44.311 13.4542C45.2412 12.3959 46.448 11.3167 46.5067 10.0347C46.518 9.78054 46.4195 9.53399 46.2377 9.35192C43.8412 6.90536 40.2512 4.03209 37.0723 2.62864C36.9473 2.57174 36.809 2.5433 36.6726 2.54709C36.2994 2.56605 35.947 2.6533 35.642 2.85054C35.1949 3.14071 34.9411 3.59967 34.7119 4.04726C33.1755 7.04002 31.9195 11.5197 30.9666 14.8538C33.1641 15.7092 35.0737 17.124 36.5173 18.939Z" fill="#001140"/>
<path fill-rule="evenodd" clip-rule="evenodd" d="M38.8796 30.8531C42.875 31.9341 47.8214 33.4097 51.4776 33.6885C51.8679 33.7169 52.224 33.4647 52.3131 33.0816C52.5309 32.1674 52.7033 31.2305 52.8246 30.2747C53.1561 27.6195 53.0784 25.006 52.6465 22.4988C52.5783 22.0891 52.2013 21.8028 51.7902 21.8445H51.7826C48.6644 22.1726 45.6276 22.9483 42.6022 23.7183C41.9808 23.8795 40.5107 24.2797 39.1619 24.6628C39.3191 25.4745 39.4081 26.3166 39.4081 27.1776C39.4081 28.4521 39.2187 29.6848 38.8777 30.8531" fill="#001140"/>
<path fill-rule="evenodd" clip-rule="evenodd" d="M35.0849 36.9429C33.3932 38.4848 31.3093 39.6 28.9905 40.1007C29.3031 43.3116 30.1215 46.9852 30.9077 49.8072C31.027 50.2378 31.1577 50.674 31.3964 51.0647C31.889 51.8612 32.7301 52.3202 33.6925 52.5364C37.5761 51.4421 41.132 49.4697 44.1081 46.8278C43.8619 45.6462 43.0188 44.4628 42.1569 43.4898C40.3534 41.4567 37.5344 38.9229 35.0849 36.9429Z" fill="#001140"/>
<path fill-rule="evenodd" clip-rule="evenodd" d="M15.2123 34.5286C11.6659 36.2829 8.11568 38.7105 5.01826 40.8555C4.73599 41.2367 4.67536 41.6824 4.75114 42.1433C6.0621 44.0247 10.2204 47.7514 10.5898 47.9297C12.2247 48.7167 12.8707 50.5545 14.5322 49.9647C16.4209 49.2952 19.5183 42.6724 20.7687 39.2264C18.5067 38.206 16.5782 36.5712 15.2123 34.5286Z" fill="#001140"/>
<path fill-rule="evenodd" clip-rule="evenodd" d="M14.2839 21.4823C13.0715 20.79 11.9197 20.1641 11.4801 19.9347C9.88881 19.1002 8.41115 18.0286 6.70615 17.4331C5.00494 16.8376 2.93241 16.8148 1.5722 17.9604C0.920515 19.7735 0.448798 21.6833 0.200626 23.6785C0.0661201 24.75 0.00549787 25.8121 0.00170898 26.8647C0.289665 27.3995 0.695076 27.866 1.22552 28.179C2.21063 28.7612 3.44013 28.7385 4.58626 28.6626C7.17408 28.4957 10.2374 28.4407 13.0298 28.0936C13.009 27.7902 12.9824 27.4867 12.9824 27.1776C12.9824 25.135 13.4561 23.21 14.2839 21.4823Z" fill="#001140"/>
<path fill-rule="evenodd" clip-rule="evenodd" d="M22.2634 2.77463C22.0077 2.25877 21.714 1.72394 21.1911 1.42239C20.9183 1.26308 20.6133 1.1929 20.2989 1.16635C17.7849 1.77325 15.4017 2.74049 13.2042 4.01877C12.9522 4.28618 12.74 4.57635 12.5733 4.89497C11.6053 6.79721 12.7173 9.06359 14.0207 10.8464C15.29 12.5836 17.2052 14.3588 18.9197 16.1415C20.5963 15.0301 22.5438 14.2962 24.639 14.0515C24.2867 10.1674 23.6255 5.4829 22.2634 2.77463Z" fill="#001140"/>
<path fill-rule="evenodd" clip-rule="evenodd" d="M82.0427 30.6805V42.7312C81.6429 42.8393 81.0083 42.9493 80.1369 43.0574C79.2654 43.1674 78.4129 43.2224 77.5775 43.2224C76.7401 43.2224 76.0051 43.1579 75.3723 43.029C74.7358 42.9019 74.1997 42.6762 73.764 42.35C73.3282 42.0219 73.0024 41.5667 72.7845 40.9845C72.5667 40.406 72.4568 39.6379 72.4568 38.6954V9.9038C72.8546 9.83173 73.493 9.73311 74.3645 9.60414C75.2359 9.47897 76.0695 9.41449 76.8689 9.41449C77.7044 9.41449 78.4413 9.47897 79.0741 9.60414C79.7106 9.73311 80.2448 9.9607 80.6825 10.2869C81.1182 10.615 81.444 11.0702 81.6619 11.6524C81.8797 12.2309 81.9877 12.9952 81.9877 13.9378V22.6107L93.3165 9.57949C95.7869 9.57949 97.5563 10.0422 98.6285 10.9716C99.6989 11.8952 100.235 12.9952 100.235 14.2678C100.235 15.2141 99.9982 16.1055 99.5265 16.94C99.0548 17.7764 98.2894 18.7209 97.238 19.7735L90.4313 26.5897C91.3387 27.6081 92.2897 28.6607 93.2919 29.7512C94.2884 30.8417 95.2697 31.9095 96.2302 32.9412C97.1925 33.9805 98.1208 34.9705 99.0074 35.915L101.324 38.3691C101.324 39.1676 101.178 39.8769 100.889 40.4952C100.597 41.1116 100.209 41.6407 99.7178 42.0769C99.2291 42.5131 98.6721 42.8393 98.0564 43.0574C97.4388 43.2736 96.7871 43.3836 96.0957 43.3836C94.6047 43.3836 93.3904 43.01 92.4451 42.2685C91.5016 41.5212 90.5942 40.6393 89.7227 39.6209L82.0427 30.6805ZM116.575 37.0586C117.19 37.0586 117.872 36.9979 118.615 36.869C119.359 36.74 119.913 36.5674 120.276 36.3493V31.9872L116.355 32.3153C115.341 32.3874 114.504 32.6055 113.85 32.9697C113.195 33.3338 112.871 33.88 112.871 34.6064C112.871 35.3328 113.149 35.9226 113.714 36.3778C114.275 36.831 115.23 37.0586 116.575 37.0586ZM116.137 15.6295C118.1 15.6295 119.884 15.8324 121.502 16.2326C123.118 16.6309 124.497 17.2397 125.641 18.0571C126.786 18.8745 127.667 19.9119 128.282 21.1655C128.9 22.4191 129.211 23.9004 129.211 25.6072V37.821C129.211 38.7693 128.947 39.5412 128.419 40.1405C127.89 40.7398 127.265 41.2576 126.541 41.6938C124.181 43.1124 120.858 43.8217 116.575 43.8217C114.65 43.8217 112.913 43.6378 111.372 43.2736C109.827 42.9133 108.504 42.3671 107.394 41.6426C106.288 40.9143 105.435 39.9831 104.837 38.8603C104.236 37.7319 103.937 36.4233 103.937 34.9345C103.937 32.4235 104.681 30.4966 106.168 29.1519C107.657 27.811 109.965 26.9709 113.085 26.6447L120.223 25.8804V25.4991C120.223 24.4466 119.759 23.6898 118.833 23.2366C117.908 22.7852 116.575 22.5576 114.832 22.5576C113.451 22.5576 112.106 22.6998 110.8 22.9919C109.493 23.2821 108.311 23.6481 107.258 24.0824C106.788 23.7562 106.386 23.2555 106.062 22.5841C105.736 21.9109 105.572 21.211 105.572 20.4847C105.572 19.5364 105.797 18.7854 106.252 18.2202C106.706 17.6569 107.405 17.1771 108.347 16.775C109.4 16.3748 110.645 16.0847 112.079 15.9026C113.515 15.7224 114.864 15.6295 116.137 15.6295Z" fill="#001140"/>
<path fill-rule="evenodd" clip-rule="evenodd" d="M138.361 36.1881C137.961 35.2778 137.531 34.2631 137.08 33.1347C136.627 32.0062 136.154 30.7166 135.663 29.2619C135.172 27.811 134.665 26.1459 134.138 24.274C133.613 22.404 133.058 20.2476 132.479 17.8143C132.986 17.3022 133.668 16.8584 134.519 16.4791C135.373 16.0922 136.307 15.9026 137.328 15.9026C138.599 15.9026 139.651 16.1681 140.484 16.6953C141.32 17.2226 141.939 18.2126 142.339 19.6653L146.641 34.6595H146.859C147.293 33.4248 147.721 32.0802 148.138 30.6255C148.557 29.1709 148.964 27.6726 149.364 26.1269C149.762 24.5812 150.137 23.0393 150.481 21.4936C150.826 19.9479 151.126 18.4326 151.379 16.9419C152.687 16.2516 154.119 15.9026 155.68 15.9026C156.955 15.9026 158.006 16.1776 158.84 16.72C159.675 17.27 160.094 18.2126 160.094 19.5553C160.094 20.5378 159.967 21.6757 159.713 22.9653C159.457 24.2569 159.124 25.63 158.705 27.0809C158.288 28.5355 157.796 30.0338 157.233 31.5795C156.671 33.1252 156.08 34.6424 155.464 36.135C154.846 37.6238 154.21 39.031 153.558 40.3586C152.904 41.6862 152.268 42.8772 151.65 43.9317C150.637 45.7126 149.69 47.1653 148.82 48.2919C147.949 49.4203 147.111 50.2985 146.312 50.9376C145.516 51.5729 144.717 52.0091 143.919 52.2462C143.118 52.4833 142.282 52.6009 141.413 52.6009C139.888 52.6009 138.653 52.1438 137.709 51.2372C136.764 50.3269 136.201 49.1472 136.021 47.6945C137.181 46.7841 138.344 45.7752 139.505 44.6657C140.67 43.5562 141.722 42.424 142.663 41.2595C142.047 41.0793 141.384 40.6507 140.68 39.9774C139.969 39.3041 139.196 38.041 138.361 36.1881Z" fill="#001140"/>
<path fill-rule="evenodd" clip-rule="evenodd" d="M175.015 37.0586C175.63 37.0586 176.312 36.9979 177.057 36.869C177.799 36.74 178.354 36.5674 178.716 36.3493V31.9872L174.795 32.3153C173.781 32.3874 172.946 32.6055 172.292 32.9696C171.637 33.3338 171.311 33.88 171.311 34.6064C171.311 35.3327 171.591 35.9226 172.154 36.3777C172.715 36.831 173.67 37.0586 175.015 37.0586ZM174.577 15.6295C176.54 15.6295 178.326 15.8324 179.942 16.2326C181.558 16.6309 182.939 17.2396 184.083 18.0571C185.226 18.8745 186.107 19.9119 186.722 21.1655C187.34 22.4191 187.65 23.9003 187.65 25.6072V37.821C187.65 38.7693 187.389 39.5412 186.861 40.1405C186.332 40.7398 185.707 41.2576 184.981 41.6938C182.621 43.1124 179.298 43.8217 175.016 43.8217C173.09 43.8217 171.354 43.6377 169.812 43.2736C168.268 42.9133 166.944 42.3671 165.836 41.6426C164.728 40.9143 163.875 39.9831 163.277 38.8603C162.678 37.7319 162.377 36.4233 162.377 34.9345C162.377 32.4234 163.123 30.4965 164.61 29.1519C166.099 27.811 168.405 26.9708 171.527 26.6446L178.663 25.8803V25.4991C178.663 24.4465 178.199 23.6898 177.275 23.2365C176.348 22.7852 175.015 22.5576 173.272 22.5576C171.893 22.5576 170.547 22.6998 169.242 22.9919C167.935 23.2821 166.753 23.6481 165.7 24.0824C165.228 23.7562 164.828 23.2555 164.504 22.5841C164.176 21.9109 164.012 21.211 164.012 20.4846C164.012 19.5364 164.239 18.7853 164.694 18.2202C165.148 17.6569 165.845 17.1771 166.789 16.775C167.842 16.3748 169.085 16.0846 170.521 15.9026C171.955 15.7224 173.306 15.6295 174.577 15.6295ZM216.844 34.8245C216.374 35.2246 215.764 35.5433 215.02 35.7784C214.275 36.0155 213.413 36.1331 212.434 36.1331C211.126 36.1331 210.047 35.9681 209.194 35.6419C208.338 35.3157 207.785 34.7505 207.531 33.954C206.515 30.7526 205.68 28.1638 205.026 26.1819C204.371 24.2019 203.865 22.4646 203.501 20.9759H203.229C203.119 23.119 203.039 25.0724 202.982 26.8362C202.929 28.6 202.891 30.3183 202.876 31.9891C202.857 33.66 202.819 35.3536 202.766 37.0586C202.709 38.7693 202.63 40.6583 202.52 42.7293C202.048 42.9133 201.431 43.0669 200.667 43.194C199.906 43.321 199.142 43.3836 198.381 43.3836C196.782 43.3836 195.539 43.1295 194.65 42.6212C193.76 42.1129 193.315 41.1874 193.315 39.8408L194.895 12.0336C195.187 11.5595 195.821 11.0512 196.801 10.5069C197.782 9.96068 199.159 9.68568 200.94 9.68568C202.867 9.68568 204.371 9.98723 205.46 10.5865C206.551 11.1859 207.349 12.1588 207.859 13.5053C208.184 14.3777 208.537 15.3772 208.919 16.5019C209.298 17.6303 209.683 18.791 210.066 19.9934C210.444 21.194 210.818 22.3831 211.179 23.5646C211.545 24.7462 211.869 25.8083 212.161 26.7546H212.434C213.305 23.7012 214.177 20.7502 215.048 17.894C215.919 15.0396 216.715 12.65 217.443 10.725C217.988 10.4329 218.687 10.1864 219.542 9.98533C220.394 9.78809 221.347 9.68568 222.4 9.68568C224.181 9.68568 225.632 9.9512 226.759 10.4784C227.883 11.0057 228.536 11.7605 228.72 12.741C228.862 13.4674 229.018 14.5864 229.182 16.0979C229.343 17.6019 229.518 19.3031 229.698 21.194C229.88 23.0829 230.06 25.0819 230.243 27.1871C230.423 29.2979 230.598 31.3253 230.76 33.2712C230.922 35.2152 231.06 36.996 231.17 38.6157C231.278 40.2296 231.352 41.4776 231.389 42.35C230.768 42.7103 230.124 42.9758 229.451 43.139C228.783 43.3021 227.921 43.3836 226.865 43.3836C225.486 43.3836 224.325 43.1484 223.38 42.6762C222.436 42.2021 221.927 41.2784 221.855 39.8958C221.637 35.934 221.502 32.3703 221.445 29.2088C221.394 26.0453 221.311 23.394 221.201 21.2452H220.932C220.565 22.6657 220.042 24.4465 219.352 26.5896C218.661 28.7365 217.825 31.479 216.844 34.8245ZM244.838 29.7C244.838 31.919 245.266 33.6145 246.119 34.796C246.969 35.9757 248.161 36.5674 249.686 36.5674C251.211 36.5674 252.382 35.97 253.196 34.7695C254.017 33.5709 254.424 31.8791 254.424 29.6981C254.424 27.5171 254.007 25.8367 253.174 24.6533C252.334 23.4736 251.156 22.8838 249.631 22.8838C248.106 22.8838 246.926 23.4717 246.09 24.6533C245.255 25.8367 244.838 27.519 244.838 29.7ZM263.9 29.6981C263.9 31.955 263.555 33.9615 262.866 35.7234C262.174 37.4872 261.206 38.9665 259.954 40.1671C258.7 41.3676 257.201 42.2779 255.458 42.8924C253.715 43.5107 251.774 43.8217 249.631 43.8217C247.488 43.8217 245.547 43.4936 243.804 42.8393C242.061 42.185 240.56 41.2481 239.31 40.0305C238.06 38.8148 237.088 37.3317 236.398 35.585C235.707 33.8421 235.36 31.8791 235.36 29.6981C235.36 27.555 235.707 25.6072 236.398 23.8643C237.088 22.1195 238.058 20.6402 239.31 19.4188C240.56 18.2012 242.061 17.2662 243.804 16.6119C245.547 15.9576 247.488 15.6295 249.631 15.6295C251.774 15.6295 253.715 15.9671 255.458 16.6384C257.201 17.3117 258.7 18.2581 259.954 19.4757C261.204 20.6933 262.174 22.1745 262.866 23.9193C263.555 25.6641 263.9 27.5891 263.9 29.6981ZM276.756 29.7C276.756 31.919 277.184 33.6145 278.036 34.796C278.887 35.9757 280.079 36.5674 281.604 36.5674C283.129 36.5674 284.301 35.97 285.114 34.7695C285.934 33.5709 286.342 31.8791 286.342 29.6981C286.342 27.5171 285.925 25.8367 285.091 24.6533C284.254 23.4736 283.074 22.8838 281.549 22.8838C280.024 22.8838 278.843 23.4717 278.008 24.6533C277.172 25.8367 276.756 27.519 276.756 29.7ZM295.819 29.6981C295.819 31.955 295.473 33.9615 294.783 35.7234C294.092 37.4872 293.124 38.9665 291.871 40.1671C290.617 41.3676 289.119 42.2779 287.376 42.8924C285.633 43.5107 283.691 43.8217 281.549 43.8217C279.406 43.8217 277.464 43.4936 275.721 42.8393C273.978 42.185 272.478 41.2481 271.23 40.0305C269.975 38.8148 269.006 37.3317 268.316 35.585C267.624 33.8421 267.278 31.8791 267.278 29.6981C267.278 27.555 267.624 25.6072 268.316 23.8643C269.006 22.1195 269.975 20.6402 271.228 19.4188C272.478 18.2012 273.978 17.2662 275.721 16.6119C277.464 15.9576 279.406 15.6295 281.549 15.6295C283.691 15.6295 285.633 15.9671 287.376 16.6384C289.119 17.3117 290.619 18.2581 291.871 19.4757C293.124 20.6933 294.092 22.1745 294.783 23.9193C295.473 25.6641 295.818 27.5891 295.818 29.6981M309.761 42.8924C309.361 42.9664 308.77 43.065 307.991 43.194C307.211 43.3229 306.419 43.3836 305.621 43.3836C304.824 43.3836 304.104 43.3324 303.471 43.2224C302.835 43.1143 302.3 42.8924 301.863 42.5662C301.427 42.2419 301.092 41.7962 300.855 41.231C300.62 40.6696 300.501 39.9319 300.501 39.0215V7.39654C300.902 7.32447 301.491 7.22585 302.272 7.09878C303.052 6.97171 303.844 6.90533 304.64 6.90533C305.439 6.90533 306.159 6.96223 306.794 7.07223C307.429 7.18033 307.963 7.39654 308.399 7.72275C308.834 8.05275 309.172 8.49654 309.408 9.05982C309.641 9.62499 309.761 10.3609 309.761 11.2674V42.8924ZM326.919 37.0586C327.536 37.0586 328.216 36.9979 328.961 36.869C329.704 36.74 330.259 36.5674 330.62 36.3493V31.9872L326.699 32.3153C325.685 32.3874 324.85 32.6055 324.196 32.9696C323.541 33.3338 323.217 33.88 323.217 34.6064C323.217 35.3327 323.495 35.9226 324.06 36.3777C324.621 36.831 325.574 37.0586 326.919 37.0586ZM326.481 15.6295C328.444 15.6295 330.23 15.8324 331.848 16.2326C333.462 16.6309 334.843 17.2396 335.987 18.0571C337.13 18.8745 338.013 19.9119 338.626 21.1655C339.246 22.4191 339.555 23.9003 339.555 25.6072V37.821C339.555 38.7693 339.293 39.5412 338.765 40.1405C338.236 40.7398 337.611 41.2576 336.887 41.6938C334.527 43.1124 331.204 43.8217 326.919 43.8217C324.994 43.8217 323.259 43.6377 321.717 43.2736C320.173 42.9133 318.85 42.3671 317.74 41.6426C316.632 40.9143 315.779 39.9831 315.183 38.8603C314.582 37.7319 314.281 36.4233 314.281 34.9345C314.281 32.4234 315.027 30.4965 316.514 29.1519C318.003 27.811 320.311 26.9708 323.431 26.6446L330.569 25.8803V25.4991C330.569 24.4465 330.105 23.6898 329.179 23.2365C328.252 22.7852 326.921 22.5576 325.178 22.5576C323.795 22.5576 322.45 22.6998 321.146 22.9919C319.839 23.2821 318.657 23.6481 317.604 24.0824C317.132 23.7562 316.732 23.2555 316.408 22.5841C316.081 21.9109 315.918 21.211 315.918 20.4846C315.918 19.5364 316.143 18.7853 316.598 18.2202C317.052 17.6569 317.75 17.1771 318.693 16.775C319.746 16.3748 320.991 16.0846 322.425 15.9026C323.859 15.7224 325.21 15.6295 326.481 15.6295Z" fill="#001140"/>
</g>
<defs>
<clipPath id="clip0_4355_2092">
<rect width="341" height="55" fill="white"/>
</clipPath>
</defs>
</svg>
