<svg width="148" height="60" viewBox="0 0 148 60" fill="none" xmlns="http://www.w3.org/2000/svg">
<g clip-path="url(#clip0_4355_1766)">
<path d="M60.7276 37.6766C59.0331 43.9163 55.3132 49.4589 50.1192 53.4823C44.9251 57.5056 38.5344 59.7948 31.8951 60.0102C25.2558 60.2255 18.722 58.3558 13.2632 54.6784C7.80436 51.0014 3.7115 45.7121 1.59202 39.5962C-0.527465 33.4802 -0.560627 26.8635 1.49746 20.7277C3.55554 14.592 7.59517 9.26443 13.0169 5.53558C18.4386 1.80675 24.9534 -0.124638 31.5945 0.0280645C38.2356 0.180766 44.649 2.40942 49.8829 6.38327L41.3505 19.1209C39.003 17.0143 36.0401 15.6677 32.871 15.267C29.702 14.8663 26.483 15.4313 23.6587 16.8839C20.8343 18.3365 18.5438 20.6052 17.1036 23.3765C15.6633 26.1479 15.1442 29.2853 15.6181 32.3555C16.092 35.4256 17.5354 38.2772 19.7491 40.5164C21.9627 42.7555 24.8374 44.2718 27.9761 44.8558C31.1148 45.4399 34.3628 45.0629 37.2716 43.7769C40.1803 42.4909 42.6063 40.3594 44.2145 37.6766H28.932L38.8817 22.8161L60.862 22.8813C62.0921 27.7463 62.0455 32.8334 60.7276 37.6766ZM66.2992 59.971H81.6116V22.9465L66.3812 22.8958L66.2992 59.971ZM73.9666 0C72.1081 0 70.2908 0.535427 68.7458 1.53857C67.2003 2.54172 65.9954 3.96752 65.2841 5.63569C64.5732 7.30384 64.3869 9.13945 64.7493 10.9104C65.1123 12.6813 66.0071 14.308 67.3216 15.5848C68.6357 16.8615 70.3102 17.731 72.1333 18.0832C73.9564 18.4355 75.8459 18.2547 77.5632 17.5637C79.2805 16.8728 80.7479 15.7026 81.7805 14.2013C82.8131 12.7 83.3643 10.935 83.3643 9.12934C83.3643 6.7081 82.3744 4.386 80.612 2.67392C78.8496 0.961839 76.4593 0 73.9666 0ZM146.979 37.6766C148.294 32.8379 148.34 27.7562 147.113 22.8958L125.132 22.8306L115.183 37.6766H130.465C128.857 40.3617 126.43 42.4954 123.52 43.7831C120.61 45.0707 117.36 45.4487 114.219 44.8649C111.078 44.281 108.201 42.7642 105.986 40.5238C103.771 38.2834 102.326 35.4301 101.852 32.3579C101.378 29.2858 101.897 26.1464 103.339 23.3733C104.78 20.6003 107.072 18.3305 109.899 16.8775C112.726 15.4245 115.947 14.8599 119.118 15.2618C122.289 15.6636 125.253 17.0121 127.601 19.1209L136.134 6.36881C130.902 2.39872 124.493 0.172464 117.857 0.020269C111.22 -0.131926 104.71 1.79805 99.292 5.52392C93.8738 9.24977 89.8365 14.573 87.7781 20.704C85.7202 26.835 85.7517 33.447 87.8674 39.5594C89.9831 45.6718 94.0708 50.9589 99.524 54.6363C104.977 58.3137 111.505 60.1853 118.14 59.9739C124.775 59.7629 131.163 57.4795 136.356 53.4629C141.55 49.4463 145.272 43.9105 146.971 37.6766H146.979Z" fill="#001140"/>
</g>
<defs>
<clipPath id="clip0_4355_1766">
<rect width="148" height="60" fill="white"/>
</clipPath>
</defs>
</svg>
