<svg width="183" height="50" viewBox="0 0 183 50" fill="none" xmlns="http://www.w3.org/2000/svg">
<path d="M2.36328 11.0806H26.0744V18.2534H10.8223V26.7924H24.5779V33.9782H10.8223V48.2691H2.36328V11.0806Z" fill="#001140"/>
<path d="M28.9141 12.6212C28.9141 9.85989 30.9475 8.16113 33.7942 8.16113C36.641 8.16113 38.6744 9.85989 38.6744 12.6212C38.6744 15.3825 36.641 17.0844 33.7942 17.0844C30.9475 17.0844 28.9141 15.3857 28.9141 12.6212ZM29.6624 20.2204H37.9587V48.2692H29.6624V20.2204Z" fill="#001140"/>
<path d="M41.9746 20.2204H49.7829V23.3014H50.2124C51.3348 21.3863 54.0124 19.5293 57.8124 19.5293C64.0721 19.5293 67.9242 23.7277 67.9242 29.57V48.2693H59.6246V32.1214C59.6246 29.2535 57.9133 27.1802 55.0698 27.1802C52.1774 27.1802 50.2514 29.5733 50.2514 32.5477V48.2693H41.9746V20.2204Z" fill="#001140"/>
<path d="M70.2793 34.5078C70.2793 26.0076 75.9533 19.9521 83.8202 19.9521C89.6536 19.9521 92.7574 23.6726 93.6131 25.1195H93.9384V20.6562H98.1679V48.269H94.1108V43.9091H93.7855C92.7325 45.4815 91.2994 46.7669 89.6172 47.6481C87.935 48.5293 86.0572 48.9782 84.1553 48.9537C75.9533 48.9569 70.2793 42.9564 70.2793 34.5078ZM94.0946 34.5078C94.0946 27.7257 89.813 23.7792 84.3017 23.7792C78.5756 23.7792 74.6162 28.2392 74.6162 34.5078C74.6162 40.9896 78.5756 45.188 84.409 45.188C90.4572 45.2009 94.1108 40.2985 94.1108 34.5078H94.0946Z" fill="#001140"/>
<path d="M102.713 42.3718V8.42578H106.942V42.3718C106.942 43.7541 107.639 44.5486 108.979 44.5486H110.261V48.269H108.227C104.746 48.269 102.713 46.144 102.713 42.3718Z" fill="#001140"/>
<path d="M115.502 39.9271V24.2088H110.258V20.6563H114.432C114.615 20.6658 114.798 20.6362 114.969 20.5694C115.139 20.5025 115.293 20.4001 115.42 20.269C115.547 20.1379 115.645 19.9812 115.705 19.8095C115.766 19.6379 115.789 19.4552 115.772 19.274V12.6211H119.732V20.6563H128.295V24.2088H119.732V39.8819C119.732 42.8564 120.854 44.61 124.065 44.61H127.918V48.2691H123.799C118.661 48.2691 115.502 45.5046 115.502 39.9271Z" fill="#001140"/>
<path d="M142.941 19.949C140.049 19.9471 137.221 20.7966 134.816 22.3903C132.41 23.9839 130.534 26.2499 129.426 28.9018C128.318 31.5537 128.027 34.4722 128.59 37.2882C129.153 40.1042 130.545 42.6912 132.589 44.722C134.634 46.7527 137.239 48.136 140.076 48.6968C142.912 49.2576 145.852 48.9707 148.525 47.8725C151.197 46.7743 153.481 44.914 155.088 42.5271C156.695 40.1401 157.553 37.3336 157.553 34.4627C157.553 30.6151 156.014 26.9249 153.274 24.2034C150.534 21.4818 146.817 19.9515 142.941 19.949ZM142.967 44.0513C141.062 44.0513 139.2 43.4904 137.615 42.4397C136.031 41.3889 134.796 39.8954 134.067 38.148C133.338 36.4007 133.147 34.4779 133.519 32.6229C133.891 30.7679 134.808 29.064 136.155 27.7266C137.503 26.3892 139.219 25.4785 141.088 25.1095C142.957 24.7405 144.894 24.9299 146.654 25.6537C148.414 26.3775 149.919 27.6031 150.977 29.1757C152.036 30.7483 152.601 32.5972 152.601 34.4885C152.601 37.0247 151.586 39.457 149.779 41.2504C147.973 43.0438 145.522 44.0513 142.967 44.0513Z" fill="#001140"/>
</svg>
