<svg width="145" height="54" viewBox="0 0 145 54" fill="none" xmlns="http://www.w3.org/2000/svg">
<g clip-path="url(#clip0_4019_7766)">
<path d="M21.5662 43.1124C20.5627 44.5857 19.1938 45.7734 17.5934 46.5592C15.993 47.3451 14.216 47.7023 12.4361 47.5958C10.7517 47.6428 9.07727 47.3235 7.52851 46.66C5.97975 45.9965 4.59366 45.0045 3.46611 43.7529C1.21367 41.1918 0.0122341 37.8747 0.102386 34.4658C0.0122341 31.0569 1.21367 27.7398 3.46611 25.1788C4.60575 23.8992 6.01687 22.8901 7.59645 22.2253C9.17604 21.5604 10.8842 21.2566 12.5963 21.3359C14.3285 21.2492 16.0532 21.6174 17.5989 22.404C19.1445 23.1906 20.4571 24.3681 21.4061 25.8193V21.6562H25.2503V47.2755H21.4061V43.1124H21.5662ZM13.0768 44.2332C14.3187 44.2839 15.5557 44.0506 16.6938 43.5511C17.8319 43.0517 18.8409 42.2992 19.6441 41.351C21.1628 39.4445 21.9572 37.0621 21.8866 34.626C21.9572 32.1899 21.1628 29.8074 19.6441 27.9009C18.8518 26.9397 17.8448 26.1782 16.704 25.6775C15.5633 25.1769 14.3208 24.9512 13.0768 25.0187C11.8349 24.968 10.5979 25.2013 9.4598 25.7008C8.32174 26.2002 7.3127 26.9527 6.5095 27.9009C4.87398 29.7507 4.01359 32.1589 4.10684 34.626C4.01359 37.093 4.87398 39.5012 6.5095 41.351C7.3127 42.2992 8.32174 43.0517 9.4598 43.5511C10.5979 44.0506 11.8349 44.2839 13.0768 44.2332Z" fill="#001140"/>
<path d="M36.7839 47.9162H31.498V12.3694H36.7839V47.9162Z" fill="#001140"/>
<path d="M66.5756 21.9766L56.6445 47.2757H52.1595L42.2285 21.9766H46.3931L54.402 43.2726L62.4109 21.9766H66.5756Z" fill="#001140"/>
<path d="M80.9923 44.2334C82.5105 44.3221 84.0209 43.9586 85.3324 43.1891C86.644 42.4195 87.6977 41.2785 88.3605 39.9102H92.5251C91.7202 42.148 90.2713 44.0978 88.3605 45.5144C86.2036 47.0065 83.6114 47.7389 80.9923 47.596C79.2586 47.6598 77.5314 47.3495 75.9283 46.6864C74.3252 46.0233 72.8837 45.0228 71.702 43.7531C70.5195 42.5219 69.5979 41.0647 68.9924 39.4689C68.3868 37.8731 68.1099 36.1715 68.1781 34.4661C68.0597 31.0527 69.2648 27.7255 71.5418 25.1791C74.0069 22.7182 77.3483 21.3359 80.8321 21.3359C84.316 21.3359 87.6574 22.7182 90.1225 25.1791C92.4242 27.7106 93.6331 31.0482 93.4862 34.4661V36.0673H72.1825C72.3488 38.2585 73.3185 40.3111 74.9056 41.8316C75.7054 42.622 76.657 43.2423 77.7031 43.6551C78.7492 44.0679 79.8681 44.2646 80.9923 44.2334ZM80.672 25.0189C78.4813 24.9749 76.3581 25.7779 74.7454 27.2606C73.2541 28.7198 72.2954 30.6367 72.0224 32.7047H89.3216C89.0486 30.6367 88.0898 28.7198 86.5986 27.2606C85.8208 26.4957 84.8921 25.9013 83.8716 25.5153C82.8512 25.1293 81.7615 24.9603 80.672 25.0189Z" fill="#001140"/>
<path d="M108.223 34.1457L117.993 47.2756H113.188L105.98 36.8678L98.7721 47.2756H93.9668L103.738 34.1457L94.6075 21.8164H99.4129L105.98 31.4237L112.547 21.8164H117.353L108.223 34.1457Z" fill="#001140"/>
<path d="M131.449 21.4962C133.183 21.4324 134.91 21.7426 136.513 22.4058C138.116 23.0689 139.558 24.0693 140.739 25.3391C143.041 27.8707 144.25 31.2083 144.103 34.6261C144.222 38.0395 143.016 41.3667 140.739 43.9131C138.274 46.374 134.933 47.7562 131.449 47.7562C127.965 47.7562 124.624 46.374 122.159 43.9131C119.882 41.3667 118.677 38.0395 118.795 34.6261C118.677 31.2127 119.882 27.8855 122.159 25.3391C123.341 24.0693 124.782 23.0689 126.385 22.4058C127.988 21.7426 129.715 21.4324 131.449 21.4962ZM131.449 44.2334C132.67 44.3007 133.889 44.0741 135.004 43.5725C136.119 43.071 137.097 42.3092 137.856 41.3512C139.442 39.4819 140.246 37.0729 140.099 34.6261C140.169 32.19 139.375 29.8076 137.856 27.901C137.086 26.956 136.106 26.2036 134.993 25.7033C133.881 25.203 132.668 24.9686 131.449 25.0189C130.207 24.9682 128.97 25.2015 127.832 25.7009C126.694 26.2004 125.685 26.9529 124.882 27.901C123.363 29.8076 122.569 32.19 122.639 34.6261C122.569 37.0622 123.363 39.4447 124.882 41.3512C125.685 42.2994 126.694 43.0518 127.832 43.5513C128.97 44.0508 130.207 44.284 131.449 44.2334Z" fill="#001140"/>
<path d="M34.0605 53.8406V0.840576" stroke="#001140" stroke-width="0.403" stroke-miterlimit="10"/>
</g>
<defs>
<clipPath id="clip0_4019_7766">
<rect width="144" height="53" fill="white" transform="translate(0.101562 0.840576)"/>
</clipPath>
</defs>
</svg>
