<svg width="167" height="37" viewBox="0 0 167 37" fill="none" xmlns="http://www.w3.org/2000/svg">
<g clip-path="url(#clip0_4019_7775)">
<path fill-rule="evenodd" clip-rule="evenodd" d="M55.4386 13.7006H60.2766V29.6056H55.6556V27.7726C54.4456 29.1626 52.6776 29.8426 50.4456 29.8426C45.7306 29.8426 42.1016 26.6496 42.1016 21.6526C42.1016 16.6576 45.7306 13.4646 50.4446 13.4646C52.4916 13.4646 54.2286 14.0856 55.4386 15.3866V13.7006ZM51.2816 26.0596C53.6696 26.0596 55.5306 24.4036 55.5306 21.6546C55.5306 18.9046 53.6696 17.2496 51.2806 17.2496C48.8616 17.2496 47.0006 18.9056 47.0006 21.6546C47.0006 24.4046 48.8626 26.0596 51.2816 26.0596ZM74.6046 13.4656C79.2886 13.4656 82.9166 16.6586 82.9166 21.6546C82.9166 26.6506 79.2886 29.8436 74.6046 29.8436C72.5266 29.8436 70.8206 29.2226 69.5806 27.9216V35.3406H64.7416V13.7006H69.3636V15.5346C70.5736 14.1446 72.3716 13.4646 74.6046 13.4646V13.4656ZM73.7676 26.0596C76.1866 26.0596 78.0166 24.4036 78.0166 21.6546C78.0166 18.9046 76.1866 17.2496 73.7666 17.2496C71.3486 17.2496 69.5186 18.9056 69.5186 21.6546C69.5186 24.4046 71.3486 26.0596 73.7676 26.0596ZM86.1426 29.6066V13.7016H90.9806V29.6056H86.1426V29.6066ZM104.318 24.8156L105.59 28.0676C104.597 28.7476 103.14 29.0726 101.682 29.0726C97.7116 29.0726 95.4476 27.1506 95.4476 23.3666V9.41258H100.286V13.2856H104.411V16.8326H100.286V23.3066C100.286 24.6666 101.03 25.4056 102.333 25.4056C103.046 25.4056 103.76 25.1996 104.318 24.8156ZM120.077 13.5066H124.926V29.8796H120.076V27.8146C118.867 29.2046 117.492 29.8846 115.259 29.8846C110.545 29.8846 106.916 26.6916 106.916 21.6946C106.916 16.6996 110.545 13.5066 115.259 13.5066C117.306 13.5066 118.867 14.1276 120.077 15.4286V13.5066ZM115.197 26.0596C117.585 26.0596 119.447 24.4036 119.447 21.6546C119.447 18.9046 117.585 17.2496 115.197 17.2496C112.777 17.2496 110.917 18.9056 110.917 21.6546C110.917 24.4046 112.777 26.0596 115.197 26.0596ZM134.682 30.2206C130.929 30.2206 128.696 28.2696 128.696 24.7226V6.68358H133.535V24.4546C133.535 25.8146 134.279 26.5546 135.613 26.5546C136.14 26.5546 136.698 26.4066 136.977 26.2586L137.195 29.8356C136.357 30.1016 135.52 30.2206 134.682 30.2206ZM145.321 14.8706V29.8796H139.779V14.8706H145.321ZM153.633 13.5066L157.096 18.0546L160.56 13.5066H166.102L159.867 21.6926L166.102 29.8786H160.561L157.097 25.3296L153.634 29.8786H148.092L154.326 21.6916L148.092 13.5056H153.634L153.633 13.5066ZM88.5636 6.34058C90.3616 6.34058 91.5716 7.40458 91.5716 8.82358C91.5716 10.3606 90.3616 11.4836 88.5626 11.4836C86.7636 11.4836 85.5546 10.3606 85.5546 8.91258C85.5546 7.46358 86.7646 6.34058 88.5616 6.34058H88.5636ZM142.551 12.1406C144.081 12.1406 145.321 10.9206 145.321 9.41258C145.321 7.90558 144.081 6.68358 142.551 6.68358C141.021 6.68358 139.781 7.90558 139.781 9.41358C139.781 10.9196 141.021 12.1406 142.551 12.1406Z" fill="#001140"/>
<path fill-rule="evenodd" clip-rule="evenodd" d="M18.2266 24.3406C14.8896 24.3406 12.1856 21.6546 12.1856 18.3406C12.1856 15.0276 14.8896 12.3406 18.2266 12.3406C20.4636 12.3406 22.4166 13.5476 23.4606 15.3406H36.1016C35.0026 8.83658 30.3896 3.51858 24.2686 1.36958V1.36458C24.1976 1.33958 24.1236 1.31858 24.0516 1.29458C23.9376 1.25458 23.8236 1.21758 23.7076 1.18058C23.5756 1.13958 23.4426 1.10058 23.3076 1.06058C23.1926 1.02758 23.0766 0.994576 22.9596 0.963576C22.8236 0.926576 22.6856 0.892576 22.5476 0.859576C22.4316 0.830576 22.3166 0.802576 22.1996 0.776576C22.0586 0.745576 21.9156 0.716576 21.7736 0.688576C21.6576 0.666576 21.5426 0.642576 21.4256 0.621576C21.2786 0.595576 21.1296 0.573576 20.9816 0.551576C20.8686 0.534576 20.7556 0.515576 20.6416 0.500576C20.4846 0.480576 20.3256 0.463576 20.1666 0.446576C20.0596 0.435576 19.9546 0.421576 19.8466 0.412576C19.6686 0.396576 19.4896 0.386576 19.3106 0.376576C19.2206 0.370576 19.1316 0.363576 19.0406 0.358576C18.7716 0.346576 18.5016 0.340576 18.2276 0.340576H0.101562V18.3406C0.101562 18.6306 0.109562 18.9166 0.123562 19.2036C0.127563 19.2966 0.135562 19.3886 0.141562 19.4806C0.153563 19.6746 0.167562 19.8666 0.185562 20.0576C0.195562 20.1646 0.208563 20.2716 0.220563 20.3796C0.240562 20.5556 0.262563 20.7316 0.288563 20.9066C0.303563 21.0156 0.319562 21.1236 0.337563 21.2316C0.366562 21.4096 0.397563 21.5846 0.432563 21.7606C0.452563 21.8606 0.470562 21.9606 0.491562 22.0606C0.533562 22.2616 0.581562 22.4606 0.630562 22.6586C0.647563 22.7296 0.663562 22.8016 0.681562 22.8716C0.751562 23.1376 0.826563 23.4016 0.907562 23.6616C0.928563 23.7316 0.953562 23.7986 0.975563 23.8666C1.02756 24.0246 1.07756 24.1836 1.13256 24.3406H1.13656C3.62656 31.3306 10.3366 36.3406 18.2266 36.3406C27.2076 36.3406 34.6636 29.8536 36.1016 21.3406H23.4606C22.4156 23.1336 20.4636 24.3406 18.2266 24.3406Z" fill="#001140"/>
</g>
<defs>
<clipPath id="clip0_4019_7775">
<rect width="166" height="36" fill="white" transform="translate(0.101562 0.340576)"/>
</clipPath>
</defs>
</svg>
