<svg width="179" height="96" viewBox="0 0 179 96" fill="none" xmlns="http://www.w3.org/2000/svg">
<g clip-path="url(#clip0_4355_2401)">
<path d="M109.663 59.3483C107.226 59.3483 104.267 58.5836 102.248 57.4366L103.066 53.5785C104.981 54.5865 107.557 55.3512 109.663 55.3512C111.525 55.3512 112.969 54.9167 112.969 53.1962V53.005C112.969 51.2846 110.916 50.4678 109.14 49.9464C105.938 48.9384 102.736 48.0347 102.736 43.9855V43.6553C102.736 39.3628 105.99 37.7813 110.289 37.7813C112.673 37.7813 114.692 38.3027 116.937 39.1195L116.119 42.9775C114.309 42.3171 111.821 41.7436 110.098 41.7436C108.375 41.7436 107.713 42.1781 107.713 43.273V43.551C107.713 45.2194 110.916 45.6017 113.3 46.5575C115.684 47.5134 117.895 49.0427 117.895 52.3794V52.9529C117.895 57.958 114.205 59.3483 109.68 59.3483H109.663ZM121.375 58.9138C121.375 58.9138 120.888 57.6278 120.888 55.7161V28.4663H126.388V55.7161C126.388 57.6278 126.875 58.9138 126.875 58.9138H121.375ZM138.396 59.3483C133.576 59.3483 129.747 57.4366 129.747 50.6589V46.5054C129.747 39.7277 133.576 37.7813 138.396 37.7813C143.217 37.7813 146.994 39.7451 146.994 46.5054V50.6589C146.994 57.4366 143.217 59.3483 138.396 59.3483ZM141.494 46.5054C141.494 43.8812 141.112 42.0217 138.396 42.0217C135.681 42.0217 135.246 43.8812 135.246 46.5054V50.6068C135.246 53.231 135.681 55.0384 138.396 55.0384C141.112 55.0384 141.494 53.231 141.494 50.6068V46.5054ZM154.965 59.105C151.101 59.105 149.901 56.95 149.901 53.5264V33.7321L155.4 32.2027V38.2158H162.049V42.5604H155.4V53.4917C155.4 54.4475 155.922 54.6908 156.932 54.6908C158.028 54.6908 162.623 54.3085 162.623 54.3085L163.249 58.4098C162.153 58.601 157.28 59.1224 154.982 59.1224L154.965 59.105ZM170.785 59.3483C168.349 59.3483 165.39 58.5836 163.371 57.4366L164.189 53.5785C166.104 54.5865 168.679 55.3512 170.785 55.3512C172.648 55.3512 174.075 54.9167 174.075 53.1962V53.005C174.075 51.2846 172.021 50.4678 170.246 49.9464C167.043 48.9384 163.841 48.0347 163.841 43.9855V43.6553C163.841 39.3628 167.096 37.7813 171.394 37.7813C173.779 37.7813 175.798 38.3027 178.043 39.1195L177.225 42.9775C175.415 42.3171 172.926 41.7436 171.203 41.7436C169.48 41.7436 168.819 42.1781 168.819 43.273V43.551C168.819 45.2194 172.021 45.6017 174.405 46.5575C176.79 47.5134 179 49.0427 179 52.3794V52.9529C179 57.958 175.328 59.3483 170.785 59.3483Z" fill="white"/>
<path fill-rule="evenodd" clip-rule="evenodd" d="M52.094 0.67375C78.4082 2.84787 97.9749 25.9112 95.7976 52.1871C93.6204 78.463 70.5235 98.0013 44.2094 95.8272C17.8953 93.6531 -1.67151 70.5898 0.505777 44.3139C2.68306 18.038 25.7799 -1.50037 52.094 0.67375ZM83.9568 36.2346C85.9234 36.2346 87.5246 34.6357 87.5246 32.6719C87.5246 30.7081 85.9234 29.1093 83.9568 29.1093C81.9901 29.1093 80.3889 30.7081 80.3889 32.6719C80.3889 34.6357 81.9901 36.2346 83.9568 36.2346ZM9.32847 50.6763C9.32847 57.2454 13.1051 59.3309 18.1001 59.3309C23.095 59.3309 26.8717 57.2454 26.8717 50.6763V46.7661C26.8717 40.1969 23.095 38.1115 18.1001 38.1115C13.1051 38.1115 9.32847 40.1969 9.32847 46.7661V50.6763ZM18.1001 43.047C20.1886 43.047 20.38 44.6285 20.38 46.7661V50.6241C20.38 52.7617 20.1886 54.3432 18.1001 54.3432C16.0116 54.3432 15.8202 52.7617 15.8202 50.6241V46.7661C15.8202 44.6285 16.0116 43.047 18.1001 43.047ZM49.6709 46.1578V58.9138H49.6883H56.0756V46.2447C56.0756 40.614 54.0567 38.0941 49.3054 38.0941C47.4432 38.0941 45.6158 38.6155 44.3105 39.7277C43.2314 38.6502 41.5955 38.0941 39.4548 38.0941C37.6796 38.0941 35.9044 38.5633 34.6513 39.5365L34.425 38.5112H28.6469L29.9 43.916V58.9138H36.2872V44.2983C36.8094 43.4989 37.5055 43.0818 38.3931 43.0818C39.6984 43.0818 39.7854 44.2983 39.7854 46.1578V58.9138H46.1727V44.2983C46.6948 43.4989 47.3388 43.0818 48.2264 43.0818C49.5317 43.0818 49.6709 44.2983 49.6709 46.1578ZM70.6949 46.2969V58.9138H70.7123H77.1866V46.2447C77.1866 40.614 74.8023 38.0941 70.051 38.0941C68.0843 38.0941 65.9958 38.5112 64.3599 39.6756L64.0814 38.5112H58.3033L59.5564 43.916V58.9138H66.0306V44.2983C66.779 43.4467 67.8929 43.0818 68.9719 43.0818C70.6079 43.0818 70.6949 44.4373 70.6949 46.2969ZM80.7196 38.5112V58.9138H87.1939V38.5112H80.7196Z" fill="white"/>
</g>
<defs>
<clipPath id="clip0_4355_2401">
<rect width="179" height="96" fill="white"/>
</clipPath>
</defs>
</svg>
