<svg width="40" height="40" viewBox="0 0 40 40" fill="none" xmlns="http://www.w3.org/2000/svg">
<path d="M19.9987 33.3832C12.6487 33.3832 6.61536 27.3498 6.61536 19.9998C6.61536 12.6498 12.6487 6.6165 19.9987 6.6165C27.3487 6.6165 33.382 12.6498 33.382 19.9998C33.382 27.3498 27.3487 33.3832 19.9987 33.3832ZM19.9987 36.6665C29.232 36.6665 36.6654 29.2332 36.6654 19.9998C36.6654 10.7665 29.232 3.33317 19.9987 3.33317C10.7654 3.33317 3.33203 10.7665 3.33203 19.9998C3.33203 29.2332 10.7654 36.6665 19.9987 36.6665ZM23.132 20.7832L26.6654 17.2665V26.6665H17.2654L20.782 23.1332L12.4987 14.8332L14.832 12.4998" fill="#FFD400"/>
</svg>
