<svg width="221" height="55" viewBox="0 0 221 55" fill="none" xmlns="http://www.w3.org/2000/svg">
<g clip-path="url(#clip0_4019_7870)">
<path d="M94.202 34.4404H92.002V33.5404H97.502V34.4404H95.3019V40.7404H94.3019V34.4404H94.202ZM98.402 33.5404H100.202C101.602 33.5404 103.002 33.7404 103.002 35.4404C103.002 36.3404 102.302 36.9404 101.502 37.0404C101.802 37.1404 102.002 37.3404 102.202 37.7404L103.602 40.6404H102.402L101.302 38.1404C101.002 37.4404 100.602 37.4404 100.102 37.4404H99.502V40.6404H98.502L98.402 33.5404ZM99.502 36.6404H100.402C101.402 36.6404 101.902 36.2404 101.902 35.5404C101.902 34.9404 101.402 34.4404 100.502 34.4404H99.502V36.6404ZM107.502 33.5404H108.602L111.602 40.7404H110.502L109.802 38.9404H106.302L105.602 40.7404H104.502L107.502 33.5404ZM108.002 34.5404L106.602 38.1404H109.502L108.002 34.5404ZM112.602 33.5404H114.702C116.802 33.5404 118.502 34.8404 118.502 37.0404C118.502 39.4404 117.002 40.7404 114.702 40.7404H112.602V33.5404ZM113.702 39.8404H114.802C116.602 39.8404 117.502 38.9404 117.502 37.1404C117.502 35.4404 116.402 34.4404 114.902 34.4404H113.702V39.8404ZM120.002 33.5404H124.002V34.4404H121.002V36.5404H123.702V37.4404H121.102V39.8404H124.102V40.7404H120.102V33.5404H120.002ZM128.202 33.5404H129.302L131.002 39.6404L132.502 33.5404H134.002L135.602 39.6404L137.302 33.5404H138.402L136.202 40.7404H134.902L133.302 34.4404L131.702 40.7404H130.302L128.202 33.5404ZM139.602 33.5404H140.602V40.7404H139.602V33.5404ZM144.102 34.4404H141.902V33.5404H147.402V34.4404H145.102V40.7404H144.102V34.4404ZM148.702 33.5404H149.702V36.5404H153.102V33.5404H154.102V40.7404H153.102V37.4404H149.702V40.7404H148.702V33.5404ZM164.402 34.7404C163.902 34.4404 163.402 34.3404 162.902 34.3404C161.202 34.3404 160.102 35.5404 160.102 37.1404C160.102 38.8404 161.302 39.9404 162.802 39.9404C163.302 39.9404 164.002 39.8404 164.402 39.6404L164.502 40.6404C164.002 40.8404 163.302 40.9404 162.902 40.9404C160.602 40.9404 159.102 39.4404 159.102 37.2404C159.102 35.0404 160.702 33.5404 162.902 33.5404C163.502 33.5404 164.002 33.6404 164.502 33.8404L164.402 34.7404ZM168.702 33.4404C170.902 33.4404 172.202 35.0404 172.202 37.1404C172.202 39.3404 170.902 40.8404 168.702 40.8404C166.502 40.8404 165.202 39.3404 165.202 37.1404C165.202 35.0404 166.502 33.4404 168.702 33.4404ZM168.702 39.9404C170.402 39.9404 171.102 38.5404 171.102 37.1404C171.102 35.6404 170.302 34.3404 168.702 34.3404C167.102 34.3404 166.302 35.6404 166.302 37.1404C166.302 38.5404 167.002 39.9404 168.702 39.9404Z" fill="#1A1E3A"/>
<path d="M173.602 33.5405H175.002L178.202 39.3405V33.5405H179.202V40.7405H177.902L174.702 34.8405V40.7405H173.702L173.602 33.5405ZM181.002 33.5405H184.802V34.4405H182.102V36.5405H184.802V37.4405H182.102V40.7405H181.102V33.5405H181.002ZM186.302 33.5405H187.302V40.7405H186.302V33.5405ZM189.102 33.5405H191.202C193.302 33.5405 195.002 34.8405 195.002 37.0405C195.002 39.4405 193.502 40.7405 191.202 40.7405H189.102V33.5405ZM190.202 39.8405H191.302C193.102 39.8405 194.002 38.9405 194.002 37.1405C194.002 35.4405 192.902 34.4405 191.402 34.4405H190.202V39.8405ZM196.502 33.5405H200.502V34.4405H197.502V36.5405H200.202V37.4405H197.502V39.8405H200.502V40.7405H196.502V33.5405ZM202.202 33.5405H203.602L206.802 39.3405V33.5405H207.802V40.7405H206.502L203.202 34.8405V40.7405H202.202V33.5405ZM214.702 34.7405C214.302 34.4405 213.702 34.3405 213.202 34.3405C211.502 34.3405 210.402 35.5405 210.402 37.1405C210.402 38.8405 211.602 39.9405 213.102 39.9405C213.602 39.9405 214.302 39.8405 214.702 39.6405L214.802 40.6405C214.302 40.8405 213.602 40.9405 213.202 40.9405C210.902 40.9405 209.402 39.4405 209.402 37.2405C209.402 35.0405 211.002 33.5405 213.202 33.5405C213.802 33.5405 214.302 33.6405 214.802 33.8405L214.702 34.7405ZM216.102 33.5405H220.102V34.4405H217.102V36.5405H219.802V37.4405H217.102V39.8405H220.102V40.7405H216.102V33.5405Z" fill="#1A1E3A"/>
<path d="M18.1016 9.64062L0.101562 40.8406H9.20156L18.3016 25.1406L27.4016 40.8406H36.5016L18.5016 9.74063H18.1016V9.64062ZM63.9016 9.64062L45.9016 40.7406H55.0016L64.1016 25.1406L73.2016 40.8406H82.3016L64.3016 9.74063H63.9016V9.64062ZM50.2016 9.64062L41.1016 25.3406L32.1016 9.64062H23.0016L41.1016 41.0406L59.2016 9.64062H50.2016ZM166.802 14.6406C166.802 12.9406 166.002 11.5406 164.602 10.7406C163.402 10.0406 162.102 9.84063 159.702 9.84063H153.902V28.5406H157.002V19.9406H158.702L164.502 28.5406H167.902L161.702 19.5406C165.202 19.0406 166.802 17.2406 166.802 14.6406ZM163.502 14.7406C163.502 17.4406 162.002 18.8406 159.402 18.8406H157.102V10.7406H159.302C160.402 10.7406 161.302 10.9406 161.902 11.2406C163.002 11.8406 163.502 13.0406 163.502 14.7406Z" fill="#1A1E3A"/>
<path d="M136.502 9.74053V10.7405H143.102V28.3405H146.202V10.8405H152.802V9.84053H136.502V9.74053ZM179.702 9.54053H178.202L170.102 28.4405H172.202L174.502 22.3405H181.802L184.202 28.4405H187.702L179.702 9.54053ZM174.802 21.3405L178.002 12.9405L181.402 21.3405H174.802ZM201.502 11.0405C199.702 10.0405 198.102 9.74053 194.402 9.74053H189.302V28.4405H193.902C198.002 28.4405 199.602 28.1405 201.602 27.0405C204.202 25.5405 205.602 22.7405 205.602 18.9405C205.502 15.3405 204.002 12.4405 201.502 11.0405ZM200.402 25.2405C199.102 26.8405 197.402 27.4405 194.202 27.4405H192.402V10.7405H194.602C197.102 10.7405 198.602 11.1405 199.802 12.1405C201.402 13.4405 202.202 15.8405 202.202 19.0405C202.102 21.8405 201.502 23.8405 200.402 25.2405ZM219.702 9.74053H208.102V28.4405H220.102V27.4405H211.202V19.3405H218.802V18.3405H211.202V10.8405H219.702V9.74053Z" fill="#1A1E3A"/>
<path d="M102.102 9.54053H100.602L92.4023 28.3405H94.5023L96.8023 22.2405H104.102L106.502 28.3405H110.002L102.102 9.54053ZM97.2023 21.3405L100.402 12.9405L103.802 21.3405H97.2023ZM114.402 28.6405H116.002L123.802 9.74053H121.702L116.302 25.0405L110.402 9.74053H107.002L114.402 28.6405ZM129.702 9.54053H128.202L120.102 28.4405H122.202L124.502 22.3405H131.802L134.202 28.4405H137.702L129.702 9.54053ZM124.802 21.3405L128.002 12.9405L131.402 21.3405H124.802Z" fill="#1A1E3A"/>
</g>
<defs>
<clipPath id="clip0_4019_7870">
<rect width="220" height="54" fill="white" transform="translate(0.101562 0.340576)"/>
</clipPath>
</defs>
</svg>
