<svg width="151" height="60" viewBox="0 0 151 60" fill="none" xmlns="http://www.w3.org/2000/svg">
<g clip-path="url(#clip0_4019_7834)">
<path d="M140.002 31.9406C140.002 33.3406 139.602 34.4406 138.902 35.2406C138.202 36.0406 137.202 36.4406 135.902 36.4406C134.602 36.4406 133.702 36.0406 132.902 35.2406C132.102 34.4406 131.802 33.3406 131.802 31.9406V22.3406C131.802 20.9406 132.202 19.8406 132.902 19.0406C133.602 18.2406 134.602 17.8406 135.902 17.8406C137.202 17.8406 138.102 18.2406 138.902 19.0406C139.602 19.8406 140.002 20.9406 140.002 22.3406V31.9406ZM138.702 14.1406C137.602 13.7406 137.302 13.4406 136.002 13.4406C133.402 13.4406 131.302 14.3406 129.702 15.9406C128.002 17.6406 127.202 19.7406 127.202 22.3406V31.9406C127.202 34.5406 128.002 36.6406 129.702 38.3406C131.402 40.0406 133.502 40.8406 136.002 40.8406C138.602 40.8406 140.702 39.9406 142.302 38.3406C144.002 36.6406 144.802 34.5406 144.802 31.9406V22.3406C144.802 21.1406 144.602 20.9406 144.302 19.9406C140.702 19.4406 139.002 16.6406 138.702 14.1406ZM111.602 31.6406C111.602 32.9406 112.002 34.0406 112.902 35.0406C113.702 35.9406 114.802 36.4406 116.002 36.4406C117.202 36.4406 118.302 36.0406 119.102 35.1406C119.902 34.2406 120.402 33.0406 120.302 31.8406C120.302 30.6406 119.902 29.4406 119.102 28.5406C118.302 27.6406 117.102 27.2406 116.002 27.2406C114.802 27.2406 113.702 27.6406 112.902 28.5406C112.002 29.3406 111.602 30.4406 111.602 31.6406ZM116.302 14.0406H121.902L116.002 22.9406C116.402 22.8406 116.902 22.8406 117.302 22.8406C119.402 22.8406 121.402 23.7406 122.802 25.3406C124.302 27.0406 125.102 29.1406 125.102 31.4406C125.102 33.9406 124.202 36.3406 122.502 38.1406C120.802 39.9406 118.502 40.9406 116.002 40.9406C113.402 40.9406 111.202 40.0406 109.402 38.3406C107.702 36.5406 106.802 34.3406 106.802 31.5406C106.802 30.3406 107.002 29.1406 107.502 28.0406C107.902 26.9406 108.902 25.3406 110.302 23.2406L116.302 14.0406ZM98.4016 20.4406C98.4016 19.7406 98.2016 19.1406 97.8016 18.6406C96.8016 17.7406 95.4016 17.7406 94.4016 18.6406C94.0016 19.0406 93.7016 19.7406 93.7016 20.3406H88.9016C88.9016 18.5406 89.6016 16.7406 91.0016 15.4406C92.3016 14.1406 94.1016 13.4406 96.0016 13.4406C98.1016 13.4406 99.9016 14.1406 101.202 15.4406C102.602 16.7406 103.202 18.4406 103.202 20.4406C103.202 22.2406 102.502 23.9406 101.102 25.0406L101.002 25.1406C101.502 25.3406 102.002 25.7406 102.502 26.1406C104.102 27.4406 105.102 29.4406 105.002 31.5406C105.002 34.2406 104.102 36.4406 102.502 38.1406C100.902 39.8406 98.7016 40.7406 96.0016 40.7406C93.5016 40.7406 91.4016 39.9406 89.8016 38.4406C88.2016 36.9406 87.3016 34.8406 87.0016 32.2406H91.8016C92.0016 33.5406 92.5016 34.5406 93.1016 35.2406C93.8016 35.9406 94.8016 36.2406 96.0016 36.2406C97.3016 36.2406 98.3016 35.8406 99.1016 35.1406C99.8016 34.3406 100.202 33.3406 100.202 31.9406C100.202 30.7406 99.8016 29.6406 98.9016 28.8406C98.0016 28.0406 96.9016 27.5406 95.6016 27.6406H94.1016V23.1406H95.2016C96.2016 23.1406 96.9016 22.9406 97.5016 22.4406C98.2016 22.0406 98.5016 21.3406 98.4016 20.4406ZM83.1016 28.6406C83.1016 26.6406 82.6016 24.9406 81.7016 23.8406C80.8016 22.7406 79.5016 22.1406 77.8016 22.1406C77.0016 22.1406 76.2016 22.3406 75.4016 22.6406C74.7016 23.0406 74.1016 23.4406 73.6016 24.0406C73.1016 24.6406 72.7016 25.3406 72.4016 26.1406C72.1016 26.9406 72.0016 27.7406 71.9016 28.6406H83.1016ZM69.2016 30.1406C69.2016 28.6406 69.4016 27.0406 69.9016 25.6406C70.3016 24.4406 71.0016 23.3406 71.9016 22.4406C72.7016 21.6406 73.6016 20.9406 74.6016 20.5406C75.6016 20.1406 76.7016 19.9406 77.8016 19.9406C80.2016 19.9406 82.1016 20.7406 83.5016 22.3406C84.9016 23.9406 85.7016 26.3406 85.6016 29.5406C85.6016 29.7406 85.6016 29.9406 85.6016 30.1406C85.6016 30.3406 85.6016 30.5406 85.6016 30.7406H71.8016C71.9016 33.1406 72.5016 34.9406 73.6016 36.2406C74.7016 37.5406 76.5016 38.2406 78.9016 38.2406C80.0016 38.2406 81.1016 38.1406 82.1016 37.8406C82.7016 37.6406 83.2016 37.4406 83.8016 37.1406L84.2016 39.2406C83.5016 39.5406 82.9016 39.7406 82.2016 39.9406C81.1016 40.2406 79.9016 40.3406 78.8016 40.3406C77.3016 40.3406 75.8016 40.1406 74.4016 39.5406C73.3016 39.1406 72.2016 38.3406 71.4016 37.4406C70.6016 36.5406 70.0016 35.4406 69.7016 34.1406C69.3016 32.9406 69.2016 31.5406 69.2016 30.1406ZM63.3016 23.9406C63.0016 23.7406 62.7016 23.5406 62.4016 23.3406C62.0016 23.1406 61.6016 22.9406 61.2016 22.7406C60.7016 22.5406 60.2016 22.4406 59.7016 22.3406C59.2016 22.2406 58.6016 22.1406 58.0016 22.1406C56.9016 22.1406 55.9016 22.3406 54.9016 22.8406C54.1016 23.2406 53.4016 23.8406 52.9016 24.5406C52.4016 25.3406 52.0016 26.1406 51.8016 27.0406C51.6016 28.0406 51.4016 29.0406 51.5016 30.1406C51.5016 32.7406 52.2016 34.7406 53.5016 36.0406C54.8016 37.4406 56.5016 38.1406 58.6016 38.1406C59.6016 38.1406 60.6016 38.1406 61.5016 37.9406C62.1016 37.8406 62.6016 37.7406 63.2016 37.5406L63.3016 23.9406ZM65.7016 39.3406C64.8016 39.6406 63.8016 39.8406 62.9016 40.0406C61.5016 40.2406 60.0016 40.4406 58.6016 40.3406C57.3016 40.3406 55.9016 40.1406 54.7016 39.6406C53.6016 39.2406 52.5016 38.5406 51.6016 37.6406C50.7016 36.7406 50.1016 35.6406 49.6016 34.4406C49.1016 33.0406 48.9016 31.6406 48.9016 30.1406C48.9016 28.7406 49.1016 27.3406 49.5016 26.0406C49.9016 24.8406 50.4016 23.7406 51.2016 22.7406C52.0016 21.8406 52.9016 21.1406 54.0016 20.6406C55.2016 20.1406 56.5016 19.8406 57.8016 19.8406C58.9016 19.8406 60.1016 20.0406 61.1016 20.4406C61.8016 20.6406 62.5016 21.0406 63.2016 21.5406V11.0406L65.7016 10.6406V39.3406ZM38.9016 38.2406C39.9016 38.2406 40.7016 38.2406 41.4016 38.1406C42.0016 38.1406 42.6016 38.0406 43.2016 37.9406V31.0406C42.8016 30.8406 42.3016 30.7406 41.9016 30.6406C41.1016 30.4406 40.2016 30.4406 39.4016 30.4406C38.7016 30.4406 38.1016 30.4406 37.5016 30.5406C36.8016 30.6406 36.2016 30.8406 35.7016 31.1406C35.2016 31.4406 34.7016 31.8406 34.4016 32.3406C34.0016 32.9406 33.8016 33.6406 33.9016 34.3406C33.9016 35.0406 34.0016 35.6406 34.3016 36.2406C34.5016 36.7406 34.9016 37.1406 35.3016 37.4406C35.8016 37.7406 36.3016 37.9406 36.9016 38.1406C37.5016 38.1406 38.2016 38.2406 38.9016 38.2406ZM38.7016 19.9406C39.8016 19.9406 40.9016 20.1406 42.0016 20.5406C42.9016 20.8406 43.6016 21.4406 44.2016 22.0406C44.8016 22.7406 45.2016 23.5406 45.4016 24.3406C45.6016 25.2406 45.8016 26.2406 45.8016 27.2406V39.5406C45.4016 39.6406 45.1016 39.7406 44.7016 39.7406C44.2016 39.8406 43.6016 39.9406 43.0016 40.0406C42.3016 40.1406 41.7016 40.2406 40.9016 40.2406C40.1016 40.3406 39.4016 40.3406 38.5016 40.3406C37.5016 40.3406 36.6016 40.2406 35.7016 40.0406C34.9016 39.8406 34.1016 39.4406 33.4016 38.9406C32.7016 38.4406 32.2016 37.8406 31.9016 37.0406C31.5016 36.1406 31.3016 35.1406 31.4016 34.2406C31.4016 33.3406 31.6016 32.3406 32.0016 31.5406C32.4016 30.7406 33.0016 30.1406 33.7016 29.6406C34.5016 29.1406 35.4016 28.7406 36.3016 28.5406C37.4016 28.3406 38.5016 28.1406 39.6016 28.2406C40.0016 28.2406 40.3016 28.2406 40.7016 28.2406C41.1016 28.2406 41.5016 28.3406 41.8016 28.4406C42.2016 28.5406 42.5016 28.5406 42.7016 28.6406C42.9016 28.6406 43.1016 28.7406 43.3016 28.8406V27.6406C43.3016 26.9406 43.3016 26.3406 43.1016 25.6406C43.0016 25.0406 42.8016 24.4406 42.4016 23.9406C42.0016 23.4406 41.5016 22.9406 41.0016 22.6406C40.2016 22.3406 39.4016 22.1406 38.6016 22.1406C37.5016 22.1406 36.4016 22.2406 35.4016 22.4406C34.7016 22.6406 34.2016 22.8406 33.9016 22.9406L33.5016 20.8406C34.2016 20.6406 34.8016 20.4406 35.5016 20.2406C36.5016 20.0406 37.6016 19.9406 38.7016 19.9406ZM27.2016 20.0406C28.0016 20.0406 28.7016 20.0406 29.5016 20.2406C30.0016 20.3406 30.5016 20.4406 31.0016 20.6406L30.5016 22.7406C30.1016 22.5406 29.7016 22.5406 29.3016 22.4406C28.5016 22.3406 27.7016 22.2406 26.9016 22.2406C26.0016 22.2406 25.2016 22.2406 24.3016 22.4406C23.9016 22.5406 23.4016 22.6406 23.0016 22.8406V40.0406H20.5016V21.2406C21.4016 20.8406 22.2016 20.5406 23.1016 20.3406C24.4016 20.1406 25.8016 20.0406 27.2016 20.0406ZM19.5016 13.7406V15.9406H11.1016V39.9406H8.50156V15.9406H0.101562V13.7406H19.5016Z" fill="#1A1E3A"/>
<path d="M124.702 47.6407C124.702 47.4407 124.702 47.3407 124.702 47.2407C124.502 46.6407 124.002 46.2407 123.402 46.2407C122.502 46.2407 121.902 47.0407 121.902 48.2407C121.902 49.2407 122.402 50.1407 123.402 50.1407C124.002 50.1407 124.502 49.7407 124.702 49.1407C124.702 48.9407 124.802 48.8407 124.802 48.6407L124.702 47.6407ZM125.602 45.6407C125.602 46.0407 125.602 46.4407 125.602 47.0407V50.0407C125.602 51.2407 125.402 51.9407 124.902 52.4407C124.402 52.8407 123.702 53.1407 123.002 53.0407C122.402 53.0407 121.802 52.9407 121.302 52.6407L121.502 51.9407C121.902 52.2407 122.502 52.3407 123.002 52.3407C124.002 52.3407 124.702 51.8407 124.702 50.5407V49.9407C124.302 50.5407 123.702 50.8407 123.102 50.8407C121.802 50.8407 120.902 49.7407 120.902 48.3407C120.902 46.6407 122.002 45.5407 123.202 45.5407C123.902 45.5407 124.502 45.8407 124.802 46.4407V45.6407H125.602ZM111.402 47.0407C111.402 46.5407 111.402 46.0407 111.402 45.6407H112.302V46.5407C112.602 45.9407 113.302 45.5407 114.002 45.5407C114.702 45.5407 115.802 45.9407 115.802 47.7407V50.8407H114.802V47.8407C114.802 47.0407 114.502 46.3407 113.602 46.3407C112.902 46.3407 112.302 47.0407 112.302 47.7407V50.8407H111.402V47.0407ZM105.002 50.8407V45.6407H105.902V50.8407H105.002ZM106.002 44.1407C106.002 44.8407 104.902 44.8407 104.802 44.1407C104.802 43.8407 105.002 43.5407 105.402 43.5407C105.802 43.5407 106.002 43.8407 106.002 44.1407ZM98.6023 47.7407C98.6023 47.6407 98.6023 47.4407 98.6023 47.3407C98.5023 46.6407 97.9023 46.2407 97.3023 46.2407C96.3023 46.2407 95.8023 47.1407 95.8023 48.2407C95.8023 49.3407 96.3023 50.1407 97.3023 50.1407C98.0023 50.1407 98.6023 49.6407 98.7023 49.0407C98.7023 48.9407 98.7023 48.7407 98.7023 48.6407L98.6023 47.7407ZM99.5023 43.2407V49.5407C99.5023 49.9407 99.5023 50.5407 99.5023 50.8407H98.6023V49.9407C98.3023 50.6407 97.6023 51.0407 96.9023 50.9407C95.6023 50.9407 94.7023 49.8407 94.7023 48.3407C94.7023 46.6407 95.8024 45.5407 97.0023 45.5407C97.6023 45.5407 98.2023 45.7407 98.5023 46.3407V43.2407H99.5023ZM88.7023 48.1407C87.7023 48.1407 86.5023 48.3407 86.5023 49.3407C86.5023 49.8407 86.9023 50.2407 87.4023 50.2407C88.0023 50.2407 88.5023 49.9407 88.7023 49.3407C88.7023 49.2407 88.7023 49.1407 88.7023 49.0407V48.1407ZM88.8023 50.8407L88.7023 50.1407C88.3023 50.6407 87.7023 50.9407 87.1023 50.9407C86.2023 51.0407 85.5023 50.3407 85.5023 49.4407C85.5023 48.1407 86.6023 47.4407 88.6023 47.5407V47.4407C88.6023 47.0407 88.5023 46.2407 87.4023 46.2407C86.9023 46.2407 86.5023 46.3407 86.1023 46.6407L85.9023 46.0407C86.4023 45.7407 87.0023 45.6407 87.6023 45.6407C89.2023 45.6407 89.6023 46.7407 89.6023 47.7407V49.7407C89.6023 50.1407 89.6023 50.5407 89.7023 50.9407C89.6023 50.8407 88.8023 50.8407 88.8023 50.8407ZM78.6023 47.2407C78.6023 46.6407 78.6023 46.1407 78.6023 45.6407H79.4023V46.6407C79.6023 45.9407 80.2023 45.5407 80.8023 45.5407C80.9023 45.5407 81.0023 45.5407 81.1023 45.5407V46.4407C81.0023 46.4407 80.9023 46.4407 80.8023 46.4407C80.1023 46.4407 79.7023 46.9407 79.5023 47.6407C79.5023 47.8407 79.5023 47.9407 79.5023 48.0407V50.8407H78.6023V47.2407ZM71.3023 44.3407H69.1023V43.5407H74.4023V44.3407H72.2023V50.8407H71.3023V44.3407ZM63.5023 47.7407C63.5023 47.6407 63.5023 47.4407 63.5023 47.3407C63.4023 46.6407 62.8023 46.2407 62.2023 46.2407C61.2023 46.2407 60.7023 47.1407 60.7023 48.2407C60.7023 49.3407 61.2023 50.1407 62.2023 50.1407C62.9023 50.1407 63.5023 49.6407 63.6023 49.0407C63.6023 48.9407 63.6023 48.7407 63.6023 48.6407L63.5023 47.7407ZM64.4023 43.2407V49.5407C64.4023 49.9407 64.4023 50.5407 64.4023 50.8407H63.5023V49.9407C63.2023 50.6407 62.5023 51.0407 61.8023 50.9407C60.5023 50.9407 59.6023 49.8407 59.6023 48.3407C59.6023 46.6407 60.7023 45.5407 61.9023 45.5407C62.5023 45.5407 63.1023 45.7407 63.4023 46.3407V43.2407H64.4023ZM48.7023 45.6407L49.4023 48.2407C49.6023 48.8407 49.7023 49.3407 49.8023 49.8407C49.9023 49.3407 50.1023 48.7407 50.2023 48.2407L51.1023 45.6407H51.9023L52.7023 48.2407C52.9023 48.8407 53.0023 49.4407 53.1023 49.9407C53.2023 49.3407 53.3023 48.8407 53.5023 48.2407L54.2023 45.6407H55.1023L53.5023 50.8407H52.6023L51.8023 48.3407C51.6023 47.7407 51.5023 47.2407 51.4023 46.6407C51.3023 47.2407 51.1023 47.7407 50.9023 48.3407L50.1023 50.7407H49.2023L47.7023 45.5407L48.7023 45.6407ZM39.2023 48.2407C39.2023 49.3407 39.9023 50.2407 40.8023 50.2407C41.7023 50.2407 42.4023 49.3407 42.4023 48.2407C42.4023 47.3407 42.0023 46.2407 40.9023 46.2407C39.7023 46.2407 39.2023 47.2407 39.2023 48.2407ZM43.3023 48.1407C43.3023 50.0407 42.0023 50.9407 40.7023 50.9407C39.3023 50.9407 38.2023 49.9407 38.2023 48.3407C38.2023 46.6407 39.3023 45.5407 40.8023 45.5407C42.3023 45.5407 43.3023 46.5407 43.3023 48.1407ZM31.3023 47.2407C31.3023 46.6407 31.3023 46.1407 31.3023 45.6407H32.1023V46.6407C32.3023 45.9407 32.9023 45.5407 33.5023 45.5407C33.6023 45.5407 33.7023 45.5407 33.8023 45.5407V46.4407C33.7023 46.4407 33.6023 46.4407 33.5023 46.4407C32.8023 46.4407 32.4023 46.9407 32.2023 47.6407C32.2023 47.8407 32.2023 47.9407 32.2023 48.0407V50.8407H31.3023V47.2407ZM26.3023 50.5407C25.7023 50.7407 25.0023 50.9407 24.4023 50.8407C22.4023 50.8407 20.9023 49.5407 20.9023 47.1407C20.9023 44.9407 22.4023 43.3407 24.6023 43.3407C25.2023 43.3407 25.8023 43.4407 26.3023 43.6407L26.1023 44.5407C25.7023 44.3407 25.2023 44.2407 24.6023 44.2407C22.9023 44.2407 21.8023 45.3407 21.8023 47.2407C21.8023 48.9407 22.8023 50.1407 24.6023 50.1407C25.1023 50.1407 25.7023 50.0407 26.1023 49.8407L26.3023 50.5407Z" fill="#1A1E3A"/>
<path d="M150.102 13.4406C150.102 16.1406 147.902 18.2406 145.302 18.2406C142.602 18.2406 140.502 16.0406 140.502 13.4406C140.502 10.7406 142.702 8.64062 145.402 8.64062C147.902 8.64062 150.102 10.7406 150.102 13.4406Z" fill="#1A1E3A"/>
</g>
<defs>
<clipPath id="clip0_4019_7834">
<rect width="150" height="59" fill="white" transform="translate(0.101562 0.840576)"/>
</clipPath>
</defs>
</svg>
