<svg width="275" height="61" viewBox="0 0 275 61" fill="none" xmlns="http://www.w3.org/2000/svg">
<g clip-path="url(#clip0_4355_2415)">
<g opacity="0.5">
<path d="M251.712 54.0562L275 38H247L217.874 54.0562H251.712Z" fill="white"/>
</g>
<path fill-rule="evenodd" clip-rule="evenodd" d="M0 0H251.646V61H0V0ZM37.4671 43.7503C37.8182 43.7943 38.3889 43.7943 39.1791 43.7943H39.1352C39.9473 43.7943 40.518 43.7723 40.8472 43.7503H42.5812C43.2397 43.7503 43.6348 43.5525 43.7664 43.157L46.2247 30.8955L48.705 43.157C48.705 43.3548 48.8367 43.5086 49.0781 43.5745L49.4513 43.5306C49.8902 43.5306 50.2414 43.5525 50.4829 43.5745H55.4873C55.9482 43.6185 56.6725 43.6185 57.6383 43.6185H59.482L59.921 43.5745C60.0088 43.5306 60.1624 43.5306 60.36 43.5306L60.7331 43.5745V43.3987C60.755 43.3108 60.8867 43.2229 61.1062 43.179L63.6962 32.5216C64.5303 29.5111 65.3643 26.0832 66.1765 22.2377C66.1765 21.8641 66.1984 21.5345 66.2204 21.2708C66.3082 20.6556 66.4179 20.2161 66.5496 19.8865C66.5496 19.6008 66.4837 19.3371 66.374 19.1174C66.2643 18.8976 66.1106 18.7878 65.9131 18.7878H64.5083C64.3327 18.8317 64.0035 18.8537 63.5426 18.8537H62.6207C62.4232 18.8976 62.1817 18.8976 61.9183 18.8976H59.6576L59.6137 18.9636C59.5917 18.9636 59.5478 18.9855 59.5039 19.0075C59.46 19.0515 59.2844 19.0515 59.2844 19.0515L59.2405 19.0075V18.9636C59.2405 18.9196 59.1308 18.8976 59.1308 18.8976H59.065C58.8235 18.9416 58.604 18.9636 58.4065 18.9636C58.2309 18.9636 58.0553 18.9855 57.8797 19.0075C57.7041 19.0515 57.5505 19.0515 57.3968 19.0515C57.2212 19.3152 57.0895 19.6667 57.0237 20.0842C56.8042 20.7654 56.5189 22.0399 56.1677 23.8638L56.014 24.6329C56.0023 24.6953 55.9899 24.7626 55.9766 24.835C55.9149 25.1702 55.8331 25.6148 55.7067 26.193V26.3469C55.6848 26.4347 55.6628 26.5226 55.6409 26.6545L55.5312 27.6213C55.4434 28.0828 55.3775 28.4783 55.3556 28.8079L55.18 29.9945L55.0263 30.9175L54.9824 31.335V31.6646C54.9605 31.6865 54.9166 31.7525 54.8727 31.8843L54.8288 31.6646C54.7849 31.5767 54.7849 31.4668 54.7849 31.335C54.7849 31.3214 54.7765 31.2994 54.7649 31.269C54.7577 31.2502 54.7494 31.2283 54.741 31.2031C54.719 31.1372 54.6971 31.0493 54.6751 30.9175C54.6312 30.5659 54.6093 30.2582 54.6093 29.9945C54.5434 29.7748 54.4776 29.3793 54.4337 28.8079C54.4228 28.7397 54.4122 28.6738 54.402 28.6102C54.3302 28.1626 54.2773 27.833 54.2581 27.6213C54.2581 27.5184 54.2313 27.3082 54.1883 26.97C54.1762 26.8751 54.1628 26.7701 54.1484 26.6545L54.0825 26.215C53.863 25.2481 53.6435 24.0616 53.446 22.6552L53.3362 21.8422C53.2046 20.7215 53.0509 19.7986 52.8534 19.0515C52.7875 18.9416 52.5461 18.8976 52.151 18.8976H51.4925C51.295 18.8976 51.1633 18.9196 51.1194 18.9636C51.0755 18.9636 51.0096 18.9636 50.9657 19.0075C50.9218 19.0515 50.8779 19.0515 50.856 19.0515C50.8341 19.0075 50.7024 18.9855 50.4829 18.9855C50.2195 18.9855 49.9561 18.9636 49.7146 18.9416C49.122 18.9416 48.5952 18.9196 48.1563 18.8757H48.0685C48.0465 18.8317 47.8929 18.8097 47.8929 18.8097L47.827 18.8757H47.7173C47.4319 18.8757 47.1686 18.8537 46.9491 18.8317L45.6541 18.7878H43.942C43.7225 18.7878 43.3494 18.8317 42.8226 18.8976C42.7568 18.9196 42.647 18.9416 42.5154 18.9636C42.3837 18.9855 42.2959 19.0295 42.2739 19.0734C42.1422 19.1394 42.0325 19.2492 41.9666 19.3811C41.9008 19.5129 41.8569 19.6448 41.8349 19.7986C41.5496 20.8094 41.0448 23.1826 40.3204 26.9182L40.2765 27.2917C40.2765 27.3325 40.2682 27.3816 40.2566 27.4495C40.2494 27.4915 40.241 27.5406 40.2326 27.5994C40.2107 27.7312 40.1668 27.885 40.1229 28.0389L39.9693 28.9618L39.9034 29.4232C39.8815 29.577 39.8376 29.7309 39.7937 29.8847C39.7278 30.1703 39.6839 30.4121 39.6839 30.5878C39.64 30.7417 39.6181 30.9175 39.6181 30.9175L39.5742 31.0713V31.2471L39.5083 31.4668V31.2471C39.4644 31.2031 39.4425 31.0713 39.4425 31.0713L39.3986 30.9175L39.3327 30.5878C39.3327 30.456 39.3108 30.3461 39.2888 30.2363C39.2669 30.1264 39.2449 30.0165 39.223 29.8847C39.201 29.7528 39.1791 29.599 39.1571 29.4232C39.1352 29.2474 39.0913 29.0936 39.0474 28.9618C39.0035 28.5443 38.9376 28.2366 38.8937 28.0389L38.784 27.2917C38.784 27.1819 38.784 27.1159 38.7401 27.05C38.6962 26.9841 38.6962 26.9182 38.6962 26.9182L38.4767 25.7316C38.367 25.1603 38.2792 24.6988 38.2133 24.3252C38.1835 24.1462 38.1552 23.9767 38.1285 23.8167C37.9781 22.9156 37.8775 22.3132 37.8402 21.996C37.7356 21.4548 37.6171 20.9692 37.5068 20.5169C37.4782 20.3999 37.4502 20.2851 37.4232 20.1721C37.2915 19.6448 37.1598 19.2492 37.0281 19.0295C36.6988 19.0295 36.4135 19.0075 36.1721 18.9636C35.3819 18.9636 34.8332 18.9416 34.5698 18.9196L34.2405 18.8757H34.1308C34.065 18.8757 33.9772 18.8976 33.8235 18.9416C33.7796 18.9416 33.6918 18.9855 33.6918 18.9855L33.604 19.0295L33.5601 18.9636H33.5162L33.4504 18.9196L33.2309 18.8757H31.3433L29.6751 18.8317C29.2362 18.8317 28.9289 18.8097 28.7533 18.7658H27.3705C27.151 18.7658 26.9754 18.8537 26.8657 19.0734C26.7559 19.2712 26.6901 19.5349 26.6901 19.8645C26.6901 20.5017 26.712 20.9412 26.734 21.2489C26.8218 21.7982 26.9315 22.1059 27.0632 22.2157C27.59 24.9845 28.1826 28.0389 28.8411 31.3789L31.4311 43.157C31.4311 43.3548 31.5628 43.5086 31.8042 43.5745L32.1334 43.5306C32.331 43.5306 32.5505 43.5745 32.7919 43.6404C32.9894 43.7064 33.187 43.7503 33.3845 43.7503H37.4671ZM74.583 43.9041C75.3512 43.9481 76.5145 43.97 78.0729 43.97L78.0509 43.9481C78.6393 43.9312 79.5625 43.8886 80.8303 43.8301C81.2177 43.8122 81.6374 43.7929 82.0895 43.7723L82.6383 43.7283C83.0114 43.6185 83.2309 43.2669 83.2748 42.6956C83.2842 42.5888 83.2932 42.4879 83.3016 42.3928C83.3523 41.822 83.3845 41.4587 83.3845 41.2892C83.4284 40.4543 83.4284 38.4992 83.4284 35.4237V35.4221C83.4284 35.0046 83.5382 34.7849 83.7577 34.7849H84.065C84.2844 34.7849 84.8551 34.8069 85.7989 34.8508C86.194 34.8948 86.7427 34.8948 87.4012 34.8948H87.6646L88.0816 41.7726C88.1036 42.0803 88.1255 42.344 88.1694 42.5637C88.1842 42.7117 88.2089 42.8298 88.2302 42.9314C88.2406 42.9807 88.2501 43.0261 88.2572 43.0691C88.3011 43.2669 88.367 43.4207 88.4328 43.5525C88.4987 43.6624 88.6523 43.7283 88.6523 43.7283H98.8586C99.0342 43.7283 99.2318 43.6185 99.4513 43.3987C99.6269 43.179 99.7147 43.0032 99.7147 42.8713L100.637 28.764C100.637 28.7504 100.628 28.7284 100.617 28.698C100.609 28.6793 100.601 28.6573 100.593 28.6322C100.549 28.5662 100.549 28.4783 100.549 28.3904C100.505 28.2806 100.483 28.1707 100.483 28.0169C100.483 27.05 100.549 25.7755 100.637 24.1934C100.68 22.5673 100.702 21.2708 100.702 20.304C100.702 19.9744 100.68 19.6887 100.637 19.5129C100.571 19.3371 100.483 19.2053 100.329 19.0954C100.132 18.9416 99.7366 18.8757 99.144 18.8757H98.1343C97.8051 18.9196 97.2125 18.9196 96.3566 18.9196H96.3564C95.9175 18.9636 95.1931 18.9636 94.2054 18.9636H92.0983C91.6374 19.0075 91.0448 19.0295 90.3204 19.0295L89.3108 19.0734C88.784 19.0734 88.4328 19.0954 88.2792 19.1394C88.0816 19.1394 87.906 19.2492 87.7524 19.447C87.6743 19.5643 87.6483 19.751 87.6126 20.0073C87.6082 20.0392 87.6036 20.0722 87.5988 20.1062C87.5549 20.4139 87.5549 20.7654 87.5549 21.161V21.4686L87.511 22.9848C87.511 23.4023 87.489 23.7319 87.4671 23.9517L87.4232 26.4787C86.9622 26.4787 86.633 26.4567 86.4135 26.4128C86.216 26.4128 85.8867 26.3908 85.3819 26.3469C85.0088 26.3469 84.6795 26.3029 84.3503 26.237H83.3845L83.4284 24.7208C83.4723 24.4131 83.4723 23.9297 83.4723 23.2705C83.4723 23.1167 83.4504 23.0068 83.4284 22.8969C83.3845 22.7871 83.3626 22.5893 83.3626 22.5893L83.4065 22.1498L83.4723 21.5565C83.4723 21.4627 83.4883 21.3849 83.5067 21.2957C83.5098 21.2805 83.513 21.2649 83.5162 21.2489C83.5601 21.139 83.5601 20.9412 83.5601 20.9412V20.5677C83.5601 19.9304 83.4284 19.4909 83.1211 19.2712C82.9017 19.0734 82.4627 18.9636 81.8261 18.9636H78.1826C77.7436 18.9196 77.173 18.9196 76.4486 18.9196C75.7682 18.9196 75.3073 18.8976 75.0658 18.8757H72.3222C71.8613 18.8757 71.4881 18.9855 71.2467 19.2053C71.1935 19.2585 71.1242 19.3117 71.0486 19.3699C70.9994 19.4077 70.9474 19.4476 70.8955 19.4909C70.8618 19.515 70.8313 19.537 70.8038 19.5568C70.7055 19.6276 70.6444 19.6716 70.6102 19.6887V19.8645V20.326C70.5663 21.0291 70.5443 21.7323 70.5443 22.4794C70.5004 22.7431 70.5004 23.0947 70.5004 23.6001L70.4346 25.5338C70.4346 26.2809 70.4126 26.8742 70.3907 27.3137C70.3468 27.7532 70.3468 28.0608 70.3468 28.2366V28.9837L71.0491 42.4978C71.0491 42.6296 71.093 42.8054 71.1589 43.0252C71.2686 43.3108 71.3784 43.4646 71.4662 43.4646C72.3661 43.7064 73.3977 43.8602 74.583 43.9041ZM104.829 43.0471C104.939 43.5525 105.158 43.7943 105.487 43.7943L105.531 43.7723H105.97C106.343 43.7723 106.629 43.7503 106.826 43.7283H107.792C108.626 43.7283 109.197 43.7064 109.46 43.6844H113.345C113.499 43.6844 113.718 43.6185 113.718 43.6185H114.86L116.528 43.5525C116.593 43.5525 116.659 43.5745 116.703 43.6185C116.769 43.6624 116.879 43.6844 117.032 43.6844H117.186H117.252L117.384 43.6185C117.537 43.5745 117.647 43.5525 117.757 43.5525C117.954 43.157 118.196 42.1242 118.525 40.4981L118.788 39.3115H121.005C121.839 39.3115 122.52 39.2676 123.047 39.1577C123.112 39.3115 123.156 39.5752 123.2 39.9708C123.361 40.7138 123.521 41.4018 123.665 42.0179L123.705 42.1902C123.859 42.8713 124.012 43.3108 124.166 43.5306C124.583 43.5306 125.154 43.5525 125.9 43.5965C126.273 43.5965 126.514 43.6185 126.646 43.6624H127.063C127.107 43.6624 127.129 43.5965 127.129 43.5965L127.195 43.5306C127.349 43.5306 127.568 43.5965 127.568 43.5965V43.6624H129.895C129.895 43.7064 130.004 43.7064 130.202 43.7064H132.836C133.033 43.7503 133.319 43.7503 133.692 43.7503H134.175C134.372 43.7503 134.504 43.6844 134.614 43.5306C134.767 43.3108 134.833 43.0252 134.833 42.6736C134.833 42.4978 134.811 42.3659 134.789 42.2561C134.789 42.0583 134.767 41.8166 134.723 41.509C134.706 41.3972 134.689 41.2921 134.673 41.1951C134.649 41.0442 134.627 40.9128 134.614 40.8058C134.504 40.63 134.46 40.4762 134.46 40.3224C133.824 37.0702 133.099 34.0158 132.309 31.1152L129.719 19.3811C129.719 19.3371 129.675 19.2712 129.587 19.1833C129.5 19.0954 129.346 18.9855 129.346 18.9855H129.236L129.061 19.0295C128.885 19.0295 128.731 18.9855 128.578 18.9196C128.424 18.8537 128.292 18.8097 128.139 18.8097C127.809 18.8097 127.48 18.8537 127.129 18.9196C126.975 18.9196 126.822 18.9196 126.646 18.9636C126.471 19.0075 126.295 19.0075 126.119 19.0075C126.097 18.9636 126.01 18.9196 125.878 18.9196H125.571C125.132 18.8757 124.21 18.8537 122.827 18.8537H119.425C119.425 18.8976 119.315 18.8976 119.118 18.8976C118.854 18.8976 118.657 18.9196 118.481 18.9416L117.581 18.9855H116.067C115.957 19.0295 115.825 19.0515 115.737 19.0515C115.43 19.0515 115.145 19.0295 114.881 19.0075C114.596 18.9636 114.355 18.9636 114.135 18.9636C113.674 18.8976 113.169 18.8537 112.621 18.8537C112.313 18.8537 111.984 18.8976 111.611 18.9636C111.238 19.0295 110.909 19.0734 110.601 19.0734C110.536 19.0734 110.492 19.0295 110.492 19.0295H110.316C110.206 19.0515 110.119 19.0954 110.053 19.2053C109.987 19.2932 109.943 19.425 109.943 19.425L107.353 31.1592C106.629 33.7961 105.904 36.8724 105.158 40.3663C105.149 40.4027 105.14 40.4504 105.129 40.5063C105.114 40.5854 105.096 40.6808 105.07 40.7838C105.026 40.9816 104.982 41.2233 104.939 41.5529C104.829 42.0583 104.785 42.4319 104.785 42.6736C104.785 42.8494 104.807 42.9812 104.829 43.0471ZM122.366 32.8731L122.629 34.697L122.608 34.675C122.592 34.6698 122.575 34.6646 122.558 34.6592C122.5 34.6414 122.433 34.6207 122.366 34.5871C122.278 34.5212 122.191 34.5212 122.081 34.5212C121.949 34.4773 121.73 34.4553 121.422 34.4553H121.356L121.093 34.5212H119.205L119.513 32.8072C119.557 32.4776 119.622 32.2139 119.666 32.0381C119.754 31.4888 119.82 31.0713 119.842 30.8076C119.85 30.7636 119.862 30.6976 119.879 30.6099C119.953 30.2158 120.109 29.3807 120.325 28.1048L120.5 27.072C120.544 26.8303 120.588 26.6105 120.632 26.3908C120.644 26.2826 120.663 26.1744 120.681 26.0699C120.696 25.9832 120.71 25.8991 120.72 25.8195L120.786 25.336V25.1822C120.83 25.1603 120.852 25.0943 120.852 25.0064C120.852 24.9185 120.896 24.7867 120.896 24.7867L120.939 25.0064C120.939 25.0943 120.983 25.2042 121.049 25.336L121.093 25.8195C121.11 25.9183 121.129 26.0202 121.149 26.1259C121.204 26.42 121.264 26.7442 121.313 27.1159L121.62 28.8958C121.747 29.5895 121.847 30.1191 121.914 30.4727C121.951 30.6679 121.977 30.8095 121.993 30.8955C122.116 31.5744 122.218 32.1016 122.29 32.4771C122.321 32.6364 122.346 32.7684 122.366 32.8731ZM143.254 43.8601C143.264 43.8601 143.274 43.8602 143.284 43.8602H143.174C143.201 43.8602 143.227 43.8601 143.254 43.8601ZM142.691 43.7943C142.838 43.8364 143.026 43.8583 143.254 43.8601C143.888 43.8583 144.543 43.8364 145.259 43.7943C145.808 43.7619 146.226 43.7296 146.531 43.706C146.641 43.6976 146.736 43.6902 146.817 43.6844C147.3 43.6185 147.981 43.5745 148.815 43.5306L148.99 43.5745H149.254C149.363 43.5745 149.451 43.4207 149.473 43.0911C149.605 42.5857 149.693 41.7067 149.737 40.4102C149.781 39.5972 149.802 38.3227 149.802 36.5868V34.8508C149.802 34.653 149.89 34.5432 150.066 34.5432C150.132 34.5432 150.219 34.697 150.373 35.0266L150.922 36.411C151.8 38.3007 152.722 40.0367 153.709 41.6188H155.268C155.465 41.6628 155.707 41.6847 156.014 41.6847H156.563C156.782 41.6847 157.024 41.5969 157.331 41.4211C157.88 41.0255 158.341 40.4762 158.714 39.817C159.065 39.2017 159.35 38.6523 159.57 38.1469L159.745 37.7074L159.745 37.7073C159.811 37.5755 159.877 37.4437 159.921 37.2899L160.075 36.8505L160.404 35.9275L160.821 34.9167C160.931 34.675 161.018 34.5432 161.128 34.5432C161.304 34.5432 161.392 34.653 161.392 34.8508C161.392 35.6858 161.414 36.345 161.435 36.7845L161.479 38.7842C161.523 39.2236 161.523 39.8389 161.523 40.63C161.523 41.8166 161.589 42.6516 161.743 43.157C161.765 43.4427 161.831 43.5745 161.962 43.5745H162.27C162.291 43.5306 162.379 43.5306 162.379 43.5306L163.828 43.6404C164.135 43.6404 164.421 43.6624 164.64 43.6844C164.86 43.7064 165.057 43.7283 165.233 43.7503L166.155 43.7943C166.945 43.8382 167.559 43.8602 167.998 43.8602C168.262 43.8602 168.459 43.8382 168.635 43.7943H170.303L171.971 43.3767L172.081 43.0691V41.5749C172.037 41.2892 172.015 40.8058 172.015 40.0806C171.971 39.7071 171.971 39.1577 171.971 38.4106C171.971 37.7074 171.949 37.202 171.927 36.8505V35.554L171.993 34.8069C171.998 34.7354 172.007 34.6391 172.017 34.5187C172.048 34.1582 172.097 33.5815 172.147 32.8072C172.212 31.7744 172.256 30.8296 172.256 29.9945V27.8411C172.256 25.6217 172.234 23.9737 172.19 22.9409L172.081 19.2932C172.015 18.9196 171.905 18.7438 171.905 18.7438H160.514C160.47 18.7438 160.426 18.7658 160.404 18.8097C160.382 18.8537 160.316 18.8976 160.25 18.9196C160.162 19.0075 160.053 19.1613 159.921 19.3591C159.548 19.8865 159.328 20.282 159.219 20.5017C159.175 20.5677 159.131 20.6556 159.087 20.7874C159.067 20.8467 159.043 20.9149 159.016 20.99C158.984 21.0818 158.948 21.184 158.911 21.2928L158.275 22.6332L156.782 25.7975L156.234 27.028C156.212 27.0775 156.191 27.1229 156.172 27.1644C156.116 27.289 156.074 27.3796 156.058 27.4456C156.036 27.5334 156.014 27.5994 155.992 27.6213C155.838 28.0169 155.641 28.2146 155.399 28.2146C155.202 28.2146 155.026 28.0169 154.851 27.6213C154.851 27.5774 154.829 27.5334 154.763 27.4456C154.697 27.3577 154.631 27.2258 154.587 27.05C154.522 26.8524 154.434 26.6547 154.346 26.4571L154.346 26.4567C154.258 26.259 154.17 26.0612 154.104 25.8634C153.863 25.1603 153.644 24.6329 153.446 24.2593L153.007 23.1167C152.722 22.3036 152.48 21.6883 152.305 21.2928C152.263 21.1868 152.225 21.0872 152.19 20.9947C152.094 20.7419 152.018 20.5425 151.953 20.4139C151.91 20.315 151.866 20.2271 151.825 20.1447C151.783 20.0623 151.745 19.9854 151.712 19.9085C151.405 19.403 151.163 19.0734 150.966 18.8976C150.9 18.8757 150.856 18.8317 150.812 18.7878C150.768 18.7438 150.702 18.7219 150.702 18.7219H141.55C140.935 18.7219 140.43 18.7658 140.035 18.8976C139.728 18.9636 139.486 19.0954 139.289 19.2712C139.091 19.447 138.982 19.6667 138.982 19.9085C138.982 19.9524 138.982 20.0183 139.047 20.0623C139.113 20.1062 139.113 20.1502 139.113 20.1721C139.113 20.5457 139.135 20.8753 139.157 21.139L139.201 22.1718C139.201 22.8749 139.179 23.644 139.135 24.4791C139.069 25.1603 139.025 25.7975 139.025 26.4128L139.069 26.6765C139.069 26.8742 139.135 27.094 139.135 27.094V27.8411C139.135 29.643 139.113 30.9394 139.069 31.7305L139.025 32.983C138.982 34.0817 138.96 34.9387 138.96 35.554L139.025 38.4106C139.025 39.1577 139.047 39.7071 139.069 40.0806L139.113 41.7946C139.157 42.0144 139.157 42.3 139.157 42.6516C139.157 42.9373 139.201 43.0691 139.201 43.0691L139.355 43.3767L141.023 43.7943H142.691ZM183.736 43.9261C185.448 44.3876 187.774 44.6293 190.716 44.6293L190.694 44.6732C193.81 44.6732 196.247 44.3216 198.003 43.6624C200.154 42.8494 201.8 41.465 202.941 39.5093C204.083 37.3778 204.653 34.3894 204.653 30.5878C204.653 27.3137 203.885 24.6768 202.327 22.6772C201.054 20.9852 199.298 19.7327 197.015 18.9196C195.171 18.2824 193.196 17.9528 191.089 17.9528C188.389 17.9528 186.106 18.2164 184.241 18.7438C182.375 19.2712 180.838 20.1062 179.653 21.2489C178.468 22.3695 177.59 23.8418 177.019 25.6217C176.449 27.4016 176.163 29.577 176.163 32.126C176.163 35.6858 176.888 38.4765 178.314 40.4762C179.565 42.1462 181.365 43.3108 183.736 43.9261ZM191.111 40.4762C190.935 40.8497 190.716 41.0255 190.408 41.0255V41.0035C189.86 41.0035 189.464 40.3663 189.223 39.0698C188.982 37.5317 188.85 36.1912 188.85 35.0266C188.784 34.1037 188.74 32.9391 188.74 31.5327C188.74 29.4232 188.784 27.885 188.85 26.8962C188.85 25.7316 188.982 24.4351 189.223 23.0068C189.464 21.974 189.86 21.4466 190.408 21.4466C190.672 21.4466 190.913 21.6664 191.111 22.0839C191.462 22.9409 191.725 24.2154 191.879 25.9074C192.032 27.4675 192.098 28.786 192.098 29.8847V32.3018C192.098 33.6862 192.032 35.1584 191.879 36.7186C191.747 38.4326 191.484 39.6851 191.111 40.4762ZM215.584 43.9261C217.296 44.3876 219.622 44.6293 222.564 44.6293L222.542 44.6732C225.658 44.6732 228.095 44.3216 229.851 43.6624C232.002 42.8494 233.648 41.465 234.789 39.5093C235.931 37.3778 236.501 34.3894 236.501 30.5878C236.501 27.3137 235.733 24.6768 234.175 22.6772C232.902 20.9852 231.146 19.7327 228.863 18.9196C227.019 18.2824 225.044 17.9528 222.937 17.9528C220.237 17.9528 217.954 18.2164 216.089 18.7438C214.223 19.2712 212.687 20.1062 211.501 21.2489C210.316 22.3695 209.438 23.8418 208.867 25.6217C208.297 27.4016 208.011 29.577 208.011 32.126C208.011 35.6858 208.736 38.4765 210.162 40.4762C211.413 42.1462 213.213 43.3108 215.584 43.9261ZM222.959 40.4762C222.783 40.8497 222.564 41.0255 222.256 41.0255V41.0035C221.708 41.0035 221.313 40.3663 221.071 39.0698C220.83 37.5317 220.698 36.1912 220.698 35.0266C220.632 34.1037 220.588 32.9391 220.588 31.5327C220.588 29.4232 220.632 27.885 220.698 26.8962C220.698 25.7316 220.83 24.4351 221.071 23.0068C221.313 21.974 221.708 21.4466 222.256 21.4466C222.52 21.4466 222.761 21.6664 222.959 22.0839C223.31 22.9409 223.573 24.2154 223.727 25.9074C223.881 27.4675 223.946 28.786 223.946 29.8847V32.3018C223.946 33.6862 223.881 35.1584 223.727 36.7186C223.595 38.4326 223.332 39.6851 222.959 40.4762Z" fill="white"/>
</g>
<defs>
<clipPath id="clip0_4355_2415">
<rect width="275" height="61" fill="white"/>
</clipPath>
</defs>
</svg>
